<svg xmlns="http://www.w3.org/2000/svg" width="512" height="512" viewBox="0 0 512 512" fill="none"><path d="M178.262 8.6907C186.716 15.0551 190.689 22.0674 194 31.9993C194 42.5593 194 53.1193 194 63.9993C234.92 63.9993 275.84 63.9993 318 63.9993C318 53.4393 318 42.8793 318 31.9993C322.329 20.0948 326.179 12.2414 337.438 6.18289C347.875 1.36173 358.601 0.179383 369.625 3.96023C380.341 8.64836 387.546 15.8575 392.055 26.5462C393.758 30.9664 394.133 34.6073 394.098 39.2923C394.096 40.3513 394.096 40.3513 394.093 41.4317C394.088 43.6835 394.075 45.9351 394.063 48.1868C394.058 49.7148 394.053 51.2428 394.049 52.7708C394.038 56.5137 394.021 60.2565 394 63.9993C394.556 63.9882 395.111 63.9771 395.683 63.9656C401.541 63.8538 407.398 63.7791 413.257 63.7246C415.434 63.6997 417.611 63.6658 419.788 63.6221C440.872 63.2102 457.052 66.3041 473.16 81.0618C486.159 94.7502 490.474 110.926 490.388 129.363C490.392 130.777 490.397 132.192 490.404 133.606C490.418 137.461 490.414 141.316 490.407 145.17C490.402 149.34 490.415 153.51 490.425 157.68C490.442 165.837 490.443 173.994 490.438 182.151C490.434 188.785 490.435 195.418 490.44 202.052C490.441 202.998 490.442 203.944 490.443 204.919C490.444 206.841 490.446 208.763 490.447 210.685C490.461 228.691 490.456 246.696 490.444 264.702C490.434 281.152 490.447 297.601 490.471 314.051C490.495 330.966 490.505 347.882 490.498 364.798C490.495 374.284 490.497 383.771 490.515 393.258C490.529 401.334 490.53 409.411 490.513 417.487C490.504 421.603 490.502 425.718 490.517 429.833C490.531 433.61 490.526 437.387 490.507 441.164C490.502 443.157 490.515 445.149 490.53 447.142C490.385 465.218 484.56 480.296 471.856 493.269C457.539 506.959 441.342 510.315 422.142 510.26C420.65 510.263 419.157 510.267 417.664 510.272C413.585 510.282 409.505 510.28 405.425 510.275C401.017 510.273 396.609 510.282 392.2 510.289C383.572 510.302 374.943 510.304 366.315 510.302C359.299 510.3 352.283 510.302 345.268 510.306C344.268 510.306 343.268 510.307 342.239 510.308C340.208 510.309 338.177 510.31 336.146 510.311C317.112 510.322 298.078 510.32 279.044 510.314C261.645 510.309 244.247 510.32 226.848 510.339C208.968 510.358 191.087 510.367 173.206 510.363C163.174 510.361 153.142 510.363 143.11 510.378C134.569 510.39 126.028 510.391 117.487 510.379C113.133 510.373 108.779 510.372 104.425 510.384C100.432 510.395 96.4394 510.392 92.4464 510.378C91.0091 510.375 89.5717 510.377 88.1344 510.385C69.6932 510.481 53.588 506.147 40.0621 493.257C27.4964 480.689 21.8131 465.53 21.7279 447.916C21.7336 445.966 21.7336 445.966 21.7394 443.976C21.7364 442.562 21.7325 441.148 21.7278 439.734C21.7175 435.867 21.7197 432 21.724 428.132C21.7264 423.954 21.7174 419.776 21.7099 415.598C21.6972 407.42 21.6954 399.242 21.6977 391.063C21.6995 384.414 21.6978 377.764 21.6935 371.114C21.6929 370.167 21.6923 369.22 21.6917 368.244C21.6905 366.319 21.6893 364.395 21.6881 362.47C21.6772 344.43 21.6793 326.39 21.6854 308.351C21.6906 291.86 21.6794 275.369 21.6603 258.879C21.641 241.933 21.6327 224.987 21.6365 208.041C21.6384 198.532 21.6359 189.024 21.6217 179.515C21.6098 171.42 21.6085 163.325 21.6205 155.229C21.6264 151.102 21.6276 146.975 21.6155 142.848C21.6046 139.064 21.6078 135.28 21.6218 131.495C21.6257 129.491 21.6149 127.488 21.6035 125.484C21.7054 108.331 27.1377 93.5632 39.0001 80.9993C56.6947 64.0137 76.9433 62.8197 100.125 62.9368C101.862 62.9418 103.599 62.9464 105.336 62.9505C109.557 62.9614 113.779 62.9786 118 62.9993C117.969 61.7225 117.969 61.7225 117.937 60.4199C117.868 57.2087 117.818 53.9979 117.78 50.7862C117.76 49.4061 117.733 48.0262 117.698 46.6465C117.362 33.0381 119.775 22.7741 129 12.4993C142.418 -0.56982 163.022 -1.60172 178.262 8.6907ZM139.616 25.0972C133.23 32.6148 133.41 42.0814 133.469 51.4407C133.466 52.8173 133.462 54.1939 133.457 55.5706C133.451 58.4392 133.46 61.3073 133.479 64.1758C133.501 67.8295 133.488 71.482 133.464 75.1357C133.45 77.973 133.454 80.81 133.465 83.6473C133.469 85.6418 133.457 87.6363 133.444 89.6308C133.531 98.0315 134.446 104.767 139.965 111.339C146.128 116.331 150.387 118.495 158.438 118.316C164.924 117.515 169.914 113.993 174 108.999C178.743 101.676 178.589 94.8433 178.531 86.3157C178.534 84.8914 178.538 83.4671 178.543 82.0427C178.549 79.068 178.54 76.0938 178.522 73.1192C178.499 69.3287 178.512 65.5393 178.536 61.7488C178.55 58.8103 178.546 55.872 178.535 52.9335C178.533 51.537 178.536 50.1405 178.545 48.7441C178.591 39.9833 178.414 32.0152 172.384 25.1631C163.032 16.0063 149.005 15.9243 139.616 25.0972ZM339.615 25.1629C333.105 32.5654 333.406 41.4508 333.469 50.8157C333.466 52.241 333.462 53.6663 333.457 55.0916C333.451 58.0645 333.46 61.0369 333.479 64.0098C333.501 67.8015 333.488 71.5921 333.464 75.3837C333.45 78.3222 333.454 81.2604 333.465 84.1989C333.467 85.5962 333.464 86.9935 333.455 88.3908C333.405 97.9762 334.056 104.179 340.25 111.749C345.985 116.442 351.033 118.743 358.551 118.374C365.667 117.285 369.938 113.498 374.555 108.195C377.574 103.609 378.252 99.0671 378.275 93.6619C378.284 92.4269 378.294 91.1918 378.304 89.9194C378.303 88.584 378.302 87.2487 378.301 85.9134C378.305 84.5286 378.309 83.1439 378.314 81.7592C378.321 78.8626 378.321 75.9662 378.316 73.0696C378.31 69.3756 378.327 65.682 378.35 61.988C378.365 59.1294 378.366 56.2708 378.363 53.4121C378.363 51.3938 378.377 49.3754 378.391 47.3571C378.349 38.8475 377.644 32.9268 372.813 25.7493C368.096 21.1377 362.704 18.4259 356.07 17.9055C349.743 18.192 344.126 20.7491 339.615 25.1629ZM47.8555 95.6634C28.3819 120.18 38.0001 162.089 38.0001 186.999C181.88 186.999 325.76 186.999 474 186.999C478.975 138.334 478.975 138.334 461.25 92.6868C451.247 83.4068 440.131 79.4709 426.617 79.7063C425.207 79.7127 425.207 79.7127 423.768 79.7192C420.803 79.7358 417.839 79.7734 414.875 79.8118C412.849 79.8269 410.823 79.8406 408.797 79.8528C403.864 79.8857 398.932 79.9373 394 79.9993C393.986 81.0034 393.986 81.0034 393.972 82.0279C393.917 85.1232 393.834 88.2171 393.75 91.3118C393.736 92.3643 393.722 93.4168 393.707 94.5013C393.353 105.999 390.21 115.708 382 123.999C374.267 130.355 366.249 133.586 356.25 133.499C355.465 133.493 354.68 133.486 353.871 133.48C343.626 133.161 335.408 129.47 327.977 122.39C317.241 109.406 318.688 97.1881 318 79.9993C277.08 79.9993 236.16 79.9993 194 79.9993C193.67 88.2493 193.34 96.4993 193 104.999C190.142 114.699 185.782 122.521 176.922 127.851C166.213 133.309 155.238 135.007 143.426 132.128C132.851 127.998 125.803 121.279 121 110.999C118.634 104.617 118.568 98.32 118.375 91.5618C118.336 90.4487 118.298 89.3356 118.258 88.1888C118.164 85.4591 118.078 82.7294 118 79.9993C112.096 79.8995 106.192 79.8274 100.288 79.7796C98.284 79.7596 96.2804 79.7324 94.2769 79.6975C75.6497 79.3817 61.2843 81.6718 47.8555 95.6634ZM38.0001 203.999C37.9382 245.002 37.8763 286.004 37.8126 328.249C37.7853 341.192 37.758 354.134 37.7298 367.469C37.7198 379.079 37.7198 379.079 37.7137 390.69C37.711 395.858 37.7 401.025 37.6833 406.193C37.6622 412.791 37.6566 419.389 37.6609 425.987C37.66 428.405 37.654 430.822 37.6424 433.24C37.5688 449.302 37.5435 462.357 47.0001 475.999C47.6188 476.907 48.2376 477.814 48.8751 478.749C58.2388 488.664 70.5076 493.677 84.0189 494.092C87.7379 494.131 91.4563 494.138 95.1754 494.133C96.6182 494.135 98.0609 494.137 99.5037 494.14C103.455 494.146 107.406 494.146 111.357 494.145C115.624 494.144 119.891 494.15 124.157 494.155C132.511 494.163 140.865 494.166 149.219 494.166C156.011 494.167 162.803 494.169 169.594 494.172C188.86 494.181 208.125 494.185 227.39 494.185C228.428 494.185 229.466 494.185 230.535 494.185C232.094 494.185 232.094 494.185 233.685 494.184C250.529 494.184 267.373 494.194 284.216 494.208C301.521 494.222 318.825 494.229 336.129 494.228C345.84 494.228 355.552 494.231 365.263 494.241C373.531 494.25 381.799 494.253 390.067 494.246C394.283 494.243 398.499 494.242 402.715 494.251C406.58 494.259 410.444 494.258 414.309 494.249C415.702 494.247 417.095 494.249 418.488 494.255C432.961 494.309 445.081 492.668 457 483.999C457.804 483.463 458.609 482.927 459.438 482.374C467.746 474.673 473.596 463.348 474.091 451.902C474.126 449.237 474.128 446.573 474.12 443.907C474.121 442.884 474.122 441.862 474.123 440.808C474.125 437.366 474.119 433.924 474.114 430.482C474.113 427.979 474.113 425.475 474.114 422.971C474.114 416.94 474.11 410.909 474.103 404.877C474.096 397.9 474.095 390.923 474.095 383.946C474.089 365.526 474.075 347.107 474.063 328.687C474.042 287.54 474.021 246.393 474 203.999C330.12 203.999 186.24 203.999 38.0001 203.999Z" fill="currentColor"></path><path d="M299.359 239.612C314.272 252.363 322.722 269.331 324.316 288.878C324.886 307.663 318.926 325.156 306.508 339.468C294.353 351.736 278.345 359.917 261 360.999C259.807 361.078 259.807 361.078 258.59 361.159C240.89 361.759 225.686 355.822 212 344.999C210.969 344.257 209.937 343.514 208.875 342.749C195.795 330.237 188.227 312.956 187.575 294.887C187.45 275.329 194.635 257.637 208.273 243.671C233.054 220.063 272.636 218.071 299.359 239.612ZM218 257.999C217.411 258.577 216.822 259.154 216.215 259.749C207.412 269.114 204.138 282.462 204 294.999C205.157 309.533 211.076 321.63 221.625 331.749C234.278 342.148 249.051 345.403 265 343.999C279.427 341.246 291.534 332.801 299.687 320.812C307.704 307.644 309.582 293.917 306 278.999C303.417 270.829 299.66 264.39 294 257.999C293.524 257.396 293.049 256.793 292.559 256.171C284.716 247.079 270.943 241.664 259.215 240.792C242.506 240.21 229.639 246.38 218 257.999Z" fill="currentColor"></path><path d="M309.551 398.254C326.035 411.998 338.151 431.626 340.219 453.291C340.373 455.613 340.458 457.922 340.5 460.249C340.519 460.965 340.537 461.68 340.557 462.417C340.515 465.784 340.218 467.7 338.219 470.448C335.894 472.074 334.8 472.567 332 472.562C331.01 472.595 331.01 472.595 330 472.628C326.764 471.61 325.745 469.852 324 466.999C323.521 464.295 323.226 461.842 323.062 459.124C321.313 439.782 312.87 424.867 298.625 411.749C284.546 400.239 266.865 395.764 249 396.999C230.914 399.499 214.822 407.997 203 421.999C194.217 433.849 189.692 446.667 188.807 461.278C188.447 466.026 187.51 468.727 184 471.999C182 472.628 182 472.628 180 472.562C179.34 472.563 178.68 472.564 178 472.566C174.983 471.711 173.843 470.533 172 467.999C171.588 465.247 171.428 462.992 171.5 460.249C171.514 459.498 171.527 458.748 171.541 457.974C172.237 438.657 180.676 421.604 193 406.999C193.601 406.285 194.201 405.571 194.82 404.835C224.118 373.001 276.706 371.684 309.551 398.254Z" fill="currentColor"></path><path d="M277 272.999C279.438 274.499 279.438 274.499 281 276.999C281.608 280.312 281.845 281.866 281 284.999C279.734 286.815 279.734 286.815 278.047 288.644C277.095 289.683 277.095 289.683 276.124 290.743C275.423 291.487 274.722 292.232 274 292.999C273.265 293.794 272.53 294.589 271.773 295.408C269.399 297.947 266.986 300.444 264.563 302.937C263.755 303.798 262.947 304.66 262.115 305.548C255.375 312.441 255.375 312.441 250.653 313.249C246.813 312.986 245.636 312.75 243 310.062C242.35 309.412 241.701 308.762 241.031 308.093C240.361 307.402 239.691 306.711 239 305.999C238.247 305.349 237.495 304.7 236.719 304.03C231.389 299.301 231.389 299.301 230.36 295.855C230.189 292.568 230.818 290.302 232.5 287.499C235.331 285.801 237.605 285.326 240.91 285.458C243.501 286.129 244.796 287.24 246.762 289.038C247.374 289.589 247.986 290.141 248.616 290.709C249.073 291.134 249.53 291.56 250 291.999C250.535 291.459 251.07 290.919 251.621 290.363C254.036 287.926 256.456 285.494 258.875 283.062C259.717 282.211 260.559 281.361 261.426 280.485C262.232 279.677 263.037 278.868 263.867 278.034C264.611 277.285 265.355 276.537 266.121 275.765C269.588 272.507 272.321 272.596 277 272.999Z" fill="currentColor"></path></svg>