<svg xmlns="http://www.w3.org/2000/svg" fill="none" height="301" viewBox="0 0 301 301" width="301"><g fill="currentColor"><path d="m233.705 188.497c6.144 3.404 10.331 8.386 13.021 14.902.861 7.404.862 14.264-3.613 20.471-4.259 4.459-8.032 8.041-14.45 8.43v2.408c1.54.05 3.079.099 4.666.151 9.743 1.103 18.091 7.129 24.714 14.144 7.294 9.696 11.696 20.523 10.358 32.668-2.319 6.841-5.248 9.043-11.59 12.418-18.303 8.955-42.306 7.89-61.489 2.366-7.029-2.71-11.863-6.123-16.031-12.375-1.678-12.279 1.063-22.643 7.874-32.894 7.911-9.879 18.591-14.755 30.66-17.682-1.068-.472-2.136-.944-3.236-1.43-6.135-3.357-10.715-7.827-13.622-14.225-1.878-7.523-1.421-13.678 2.408-20.471 7.703-9.683 18.771-14.042 30.33-8.881zm-21.901 14.902c-1.872 3.745-1.549 6.699-1.204 10.838 2.72 5.106 2.72 5.106 7.225 8.429 5.484.768 10.431.935 15.052-2.408 3.673-4.408 4.723-7.555 4.215-13.246-1.864-4.415-4.121-7.48-8.429-9.634-7.693-1.313-11.937-.438-16.859 6.021zm-15.729 53.361c-4.442 6.435-6.594 12.793-7.752 20.471.35 3.388.35 3.388 2.86 5.87 15.539 9.013 37.312 8.697 54.338 4.591 6.504-2.155 6.504-2.155 12.042-6.021.776-9.777-.909-17.648-6.858-25.612-7.672-8.371-16.04-11.851-27.311-12.47-11.01.402-20.22 4.687-27.319 13.171z"></path><path d="m89.0668 189.772c6.05 4.136 9.5965 8.746 11.4252 15.885.946 6.341-.079 11.366-3.0853 17.009-3.4876 4.222-7.1412 7.183-12.0419 9.634-1.1921 0-2.3843 0-3.6125 0v2.408c1.5647.075 3.1294.149 4.7415.226 9.0891 1.015 18.0442 6.226 24.1592 13.02 8.348 11.343 12.723 21.857 10.837 36.126-2.375 5.556-7.431 8.622-12.785 10.983-18.3299 6.761-42.2168 8.024-60.6699 1.058-6.987-3.276-12.1885-6.13-15.6544-13.246-1.9847-10.488 2.0729-21.649 7.9025-30.255 8.0768-10.535 17.6281-16.515 30.6314-19.116-.9383-.526-.9383-.526-1.8956-1.063-6.8345-4.018-12.3579-7.98-14.963-15.796-.8407-8.655-.5016-14.677 4.8168-21.675 8.4615-8.913 19.3737-11.228 30.194-5.198zm-24.1731 13.627c-1.7077 4.786-1.7509 8.339.2258 13.02 3.8605 4.722 3.8605 4.722 9.5065 6.675 5.3665.33 7.6071.145 11.943-3.288 3.7715-4.95 4.0364-7.747 3.6126-13.998-1.9886-4.262-3.2707-5.793-7.2251-8.43-7.9148-1.432-12.9108-.161-18.0628 6.021zm-16.8586 55.393c-4.6931 7.478-5.4706 14.179-4.8167 22.879 16.805 10.145 36.6626 10.155 55.3925 6.021 5.7791-1.921 9.8131-3.279 13.2461-8.429.556-9.406-3.534-16.586-8.429-24.234-5.7745-6.389-13.9391-10.046-22.3296-11.351-13.7078-.523-24.6903 4.076-33.0633 15.114z"></path><path d="m189.372 78.0794c10.659 9.8143 17.889 22.8106 19.116 37.3016.327 7.999-.078 13.054-5.113 19.38-13.599 13.155-37.984 14.854-55.986 14.589-18.055-.833-37.138-3.539-51.1865-15.793-4.8985-6.479-4.4248-13.913-3.6126-21.676 2.1389-10.809 6.2154-19.2592 13.2461-27.696.691-.8537 1.381-1.7075 2.093-2.5871 21.421-23.9438 57.574-22.9432 81.443-3.5185zm-70.906 7.3615c-10.421 9.7321-14.159 19.4961-16.28 33.4251.044 4.493.886 6.376 3.65 9.874 15.857 12.042 43.277 11.523 62.067 8.994 10.345-1.667 22.77-3.699 29.451-12.607 2.601-7.35.179-15.78-2.597-22.776-6.214-12.2557-15.492-22.158-28.712-26.5953-17.838-4.36-33.194-2.0153-47.579 9.6852z"></path><path d="m64.7291 116.383c12.7592 7.534 20.8609 16.72 25.1514 31.022 1.1918 11.918 1.1918 11.918-1.5052 17.761-10.4049 11.446-25.0527 13.288-39.8183 14.062-15.7738.524-32.8065-1.655-44.78505-12.716-3.8241747-4.209-3.097285-9.14-3.019873-14.54 1.005363-12.463 6.908823-20.958 15.974223-29.253 13.4018-10.647 32.1617-14.001 48.0028-6.336zm-48.0028 20.786c-4.6113 6.262-6.7812 13.893-6.0209 21.675 5.2223 6.789 15.9558 8.55 24.0837 9.634 14.0554.904 29.0062.828 41.9207-5.494 2.9333-3.269 3.183-4.26 3.462-8.505-.6633-9.805-4.9523-17.138-11.9666-23.858-7.803-6.384-15.5893-8.645-25.6265-8.227-11.2325 1.227-18.3077 6.471-25.8524 14.775z"></path><path d="m278.034 117.902c10.103 7.22 19.177 17.614 21.676 30.105 1.553 13.509 1.553 13.509-2.936 19.267-11.588 11.207-29.976 12.119-45.232 12.042-13.791-.623-28.564-3.021-38.534-13.246-3.832-6.353-3.296-13.221-1.58-20.251 4.348-13.027 12.423-23.15 24.686-29.497 12.405-5.988 30.031-5.237 41.92 1.58zm-50.575 18.063c-4.41 6.724-7.5 13.566-7.226 21.675 4.713 7.07 12.26 8.693 20.171 10.311 14.48 1.949 33.108 2.53 45.759-5.645 2.01-1.672 2.01-1.672 3.913-3.462.112-9.987-3.116-18.965-9.934-26.266-8.013-7.427-16.948-10.347-27.734-10.188-9.976 1.003-18.479 6.026-24.949 13.575z"></path><path d="m175.98 164.865c7.559 7.268 11.909 15.899 12.597 26.425.215 11.323-2.861 20.529-10.325 29.151-8.062 7.642-17.908 11.991-29.065 11.859-10.999-.829-20.631-5.501-28.148-13.623-6.921-8.94-9.868-18.798-8.961-30.067 1.739-10.185 7.395-19.505 15.527-25.857 15.658-10.151 33.546-9.468 48.375 2.112zm-47.189 10.687c-5.283 8.005-7.375 14.732-6.096 24.235 2.194 8.125 6.264 13.447 13.246 18.062 7.573 4.287 15.024 5.084 23.396 2.823 8.533-3.333 13.027-8.658 17.395-16.52 2.74-8.827 1.866-16.043-1.867-24.479-3.863-6.7-9.845-10.702-17.136-13.03-10.856-2.471-21.351.434-28.938 8.909z"></path><path d="m164.164 3.65517c7.465 4.24707 11.97 9.86023 15.127 17.91223 2.039 8.1378 1.159 15.2942-2.408 22.8795-4.998 7.4841-11.048 13.1785-19.954 15.1276-8.958 1.1977-16.08.2242-23.632-4.8685-7.284-5.8729-11.373-12.3005-12.936-21.5483-.559-8.1169 1.68-15.7279 6.623-22.2022 10.07-10.4408 23.937-13.36063 37.18-7.30033zm-29.954 14.97703c-3.323 5.1833-3.837 10.1625-3.086 16.1812 1.596 5.3168 3.911 9.5098 8.58 12.644 5.381 2.5923 10.875 2.7608 16.708 1.8063 5.328-2.6642 8.664-5.9583 12.042-10.8377 2.037-6.1117 1.883-11.2226-.753-17.0844-2.589-4.6553-5.185-7.0963-10.085-9.4077-9.522-2.70282-16.637-.4185-23.406 6.6983z"></path><path d="m233.705 188.497c6.144 3.404 10.331 8.386 13.021 14.902.861 7.404.862 14.264-3.613 20.471-4.259 4.459-8.032 8.041-14.45 8.43v2.408h6.021v1.204c-13.114.596-13.114.596-26.492 1.204 3.513-2.342 5.569-2.953 9.633-3.612-1.068-.472-2.136-.944-3.236-1.43-6.135-3.357-10.715-7.827-13.622-14.225-1.878-7.523-1.421-13.678 2.408-20.471 7.703-9.683 18.771-14.042 30.33-8.881zm-21.901 14.902c-1.872 3.745-1.549 6.699-1.204 10.838 2.72 5.106 2.72 5.106 7.225 8.429 5.484.768 10.431.935 15.052-2.408 3.673-4.408 4.723-7.555 4.215-13.246-1.864-4.415-4.121-7.48-8.429-9.634-7.693-1.313-11.937-.438-16.859 6.021z"></path><path d="m59.2491 69.2832c5.1216 4.5261 8.6461 8.8428 9.7981 15.725.2986 7.4236-.7176 13.6994-5.3577 19.6478-6.4423 5.871-12.2596 7.673-20.9133 7.559-6.6671-.702-11.8028-3.668-16.2659-8.613-4.6589-6.8508-5.4628-12.055-4.4075-20.1461 1.6462-7.3657 6.7148-11.9143 12.6863-16.1295 8.5527-3.7829 16.3178-2.0375 24.46 1.9568zm-25.6642 12.4934c-1.845 3.69-1.4804 6.7634-1.2042 10.8377 2.1445 4.9661 4.5904 7.6167 9.6335 9.6337 5.887 0 8.4019-.313 13.1708-3.7633 3.0224-4.2131 3.6878-6.7164 3.6878-11.8913-1.4854-4.2911-2.8365-6.5784-6.322-9.483-8.4412-3.4532-12.949-1.3507-18.9659 4.6662z"></path><path d="m271.336 71.0142c5.308 5.1791 7.704 10.7098 8.006 18.1145-.554 7.5392-3.625 13.1563-9.06 18.3123-6.919 4.556-12.961 5.403-21.148 4.44-7.254-1.906-11.742-6.13-15.565-12.4885-2.74-6.7061-2.833-13.7664-.137-20.5087 3.828-6.545 8.16-10.5412 15.326-13.2131 8.389-1.7222 15.868.0495 22.578 5.3435zm-27.997 11.1387c-1.737 3.9297-2.039 6.2016-1.43 10.4614 2.093 4.0312 3.727 6.5478 7.601 8.9557 4.367.914 7.35.63 11.666-.526 3.11-2.6375 5.399-4.779 7.225-8.4297.206-4.5723.028-9.0279-2.601-12.8885-3.232-2.9985-5.79-3.9646-10.118-4.5722-5.777.8403-8.741 2.4038-12.343 6.9993z"></path><path d="m149.713 173.069c3.086.226 3.086.226 5.495 2.634.235 3.133.235 3.133.15 6.774-.022 1.207-.043 2.415-.066 3.659-.028.928-.056 1.857-.084 2.813 1.392-.042 1.392-.042 2.812-.085 1.208-.021 2.416-.043 3.66-.065 1.201-.028 2.403-.056 3.641-.085 3.133.235 3.133.235 5.541 2.643.226 3.086.226 3.086 0 6.021-1.204 1.204-1.204 1.204-4.483 1.322-1.327-.014-2.654-.028-4.022-.042-1.33-.011-2.66-.022-4.031-.033-1.029-.014-2.058-.028-3.118-.043.013 1.03.027 2.059.042 3.119.011 1.33.022 2.661.033 4.031.014 1.328.028 2.655.042 4.022-.117 3.279-.117 3.279-1.322 4.483-3.612.15-3.612.15-7.225 0-1.204-1.204-1.204-1.204-1.322-4.483.04-3.724.079-7.448.118-11.172-4.769 0-9.537 0-14.45 0-.795-1.986-1.59-3.973-2.409-6.02.795-1.193 1.59-2.385 2.409-3.613 3.396-.353 3.396-.353 7.375-.226 1.98.049 1.98.049 3.999.099 1.015.042 2.03.084 3.076.127-.014-1.029-.028-2.058-.042-3.119-.011-1.33-.022-2.66-.033-4.031-.014-1.327-.028-2.654-.043-4.022.158-4.393.158-4.393 4.257-4.708z"></path></g></svg>