<svg xmlns="http://www.w3.org/2000/svg" width="512" height="512" viewBox="0 0 512 512" fill="none"><path d="M91.3126 23.3133C101.962 31.3347 109.331 40.6842 112 54.0008C113.547 68.1588 111.37 79.2603 105 92.0008C115.56 102.561 126.12 113.121 137 124.001C142.578 119.832 142.578 119.832 148.063 115.544C156.212 109.009 164.722 103.786 174 99.0008C174.932 98.5194 174.932 98.5194 175.883 98.0282C191.418 90.1283 207.9 85.1778 225 82.0008C226.199 81.774 227.398 81.5471 228.633 81.3133C273.852 74.2815 321.555 85.1104 358.836 111.614C364.056 115.552 369.051 119.729 374 124.001C378.669 120.101 383.091 116.049 387.371 111.727C387.938 111.159 388.506 110.59 389.09 110.004C390.875 108.214 392.656 106.42 394.438 104.626C395.658 103.4 396.879 102.175 398.1 100.95C401.069 97.9696 404.035 94.9861 407 92.0008C406.579 91.0366 406.157 90.0724 405.723 89.079C405.169 87.803 404.616 86.5269 404.063 85.2508C403.785 84.6166 403.507 83.9824 403.221 83.329C398.292 71.9279 398.133 58.101 402.063 46.3133C407.194 34.0527 416.515 24.7527 428.445 19.0087C440.334 14.3187 455.432 13.8811 467.395 18.6727C480.129 25.1638 489.789 34.9006 494.875 48.3758C497.943 59.9686 497.641 74.3479 492 85.0008C491.553 85.8697 491.105 86.7385 490.645 87.6337C484.198 99.2128 474.495 106.827 461.813 110.938C446.567 114.496 434.072 111.255 420 105.001C409.44 115.561 398.88 126.121 388 137.001C392.144 142.549 392.144 142.549 396.422 147.993C425.601 184.124 435.581 231.62 431.539 277.149C429.323 297.012 423.525 315.971 415 334.001C414.688 334.661 414.377 335.322 414.056 336.002C407.408 349.807 398.513 362.851 388 374.001C391.9 378.67 395.952 383.092 400.273 387.372C400.842 387.939 401.411 388.506 401.997 389.091C403.787 390.876 405.581 392.657 407.375 394.438C408.601 395.659 409.826 396.879 411.051 398.1C414.031 401.07 417.015 404.036 420 407.001C420.964 406.579 421.928 406.158 422.922 405.723C424.198 405.17 425.474 404.617 426.75 404.063C427.384 403.786 428.018 403.508 428.672 403.222C440.073 398.293 453.9 398.134 465.688 402.063C477.948 407.195 487.248 416.516 492.992 428.446C497.682 440.335 498.12 455.433 493.328 467.395C486.837 480.129 477.1 489.79 463.625 494.876C451.808 497.998 436.926 497.57 426 492.001C413.795 484.865 404.962 475.283 400.731 461.673C397.731 446.593 400.196 433.609 407 420.001C396.44 409.441 385.88 398.881 375 388.001C369.452 392.145 369.452 392.145 364.008 396.423C328.183 425.354 280.318 435.978 235.074 431.505C230.005 430.887 225.003 430.019 220 429.001C219.174 428.835 218.348 428.668 217.497 428.497C187.36 422.2 161.18 408.006 138 388.001C133.331 391.901 128.909 395.953 124.629 400.274C124.062 400.843 123.495 401.411 122.91 401.997C121.125 403.788 119.344 405.582 117.563 407.376C116.342 408.601 115.121 409.827 113.9 411.052C110.931 414.032 107.965 417.016 105 420.001C105.338 420.702 105.676 421.403 106.024 422.126C112.705 436.338 114.714 450.925 109.316 466.009C103.378 479.507 94.4261 488.011 80.9805 493.907C70.0385 497.922 55.4136 497.602 44.6407 493.329C31.8785 486.91 22.2026 477.079 17.1251 463.626C14.0026 451.809 14.4307 436.927 20.0001 426.001C27.131 413.804 36.7206 404.94 50.336 400.735C65.4613 397.704 78.3302 400.166 92.0001 407.001C102.56 396.441 113.12 385.881 124 375.001C119.831 369.423 119.831 369.423 115.543 363.938C109.008 355.788 103.785 347.279 99.0001 338.001C98.6791 337.379 98.3581 336.758 98.0274 336.118C91.5116 323.304 86.9295 309.822 83.7501 295.813C83.599 295.15 83.448 294.487 83.2923 293.804C80.6468 281.374 79.6333 269.065 79.6876 256.376C79.6897 255.682 79.6919 254.989 79.6941 254.274C79.9109 210.509 95.5224 170.997 124 138.001C120.1 133.332 116.048 128.91 111.727 124.63C111.158 124.063 110.589 123.495 110.004 122.911C108.213 121.126 106.419 119.345 104.625 117.563C103.4 116.343 102.174 115.122 100.949 113.901C97.9689 110.932 94.9853 107.965 92.0001 105.001C90.9482 105.507 90.9482 105.507 89.8751 106.024C75.6624 112.706 61.076 114.715 45.9923 109.317C32.4525 103.36 23.9539 94.3945 18.0938 80.8837C13.9702 70.015 14.3813 55.3177 18.6719 44.6063C25.163 31.8723 34.8998 22.2117 48.3751 17.1258C62.8249 13.3076 78.8787 15.0613 91.3126 23.3133ZM37.6876 46.3758C32.9925 53.6792 32.0163 61.449 33.0001 70.0008C35.3203 79.5716 41.2452 86.3702 49.129 91.993C56.5508 95.9906 65.5201 96.3607 73.629 94.3485C81.37 91.2117 89.2719 84.7053 92.9024 77.1141C95.9871 69.1963 96.2993 60.781 93.4376 52.7508C89.6132 44.3614 82.8246 37.3176 74.211 33.8915C58.6371 29.5717 48.1907 35.5889 37.6876 46.3758ZM421.688 46.3758C416.993 53.6792 416.016 61.449 417 70.0008C419.32 79.5716 425.245 86.3702 433.129 91.993C440.551 95.9906 449.52 96.3607 457.629 94.3485C465.37 91.2117 473.272 84.7053 476.902 77.1141C479.987 69.1963 480.299 60.781 477.438 52.7508C473.613 44.3614 466.825 37.3176 458.211 33.8915C442.637 29.5717 432.191 35.5889 421.688 46.3758ZM142.4 143.557C138.613 147.462 135.266 151.657 132 156.001C131.403 156.785 131.403 156.785 130.795 157.585C108.885 186.539 96.4925 220.738 96.6876 257.188C96.6897 257.915 96.6919 258.641 96.6941 259.39C96.7469 270.496 97.2108 281.207 100 292.001C100.199 292.786 100.397 293.572 100.602 294.381C106.326 316.39 115.887 335.795 129.813 353.751C130.256 354.323 130.7 354.896 131.158 355.486C133.811 358.802 136.588 361.477 140 364.001C140.619 363.148 140.619 363.148 141.25 362.278C147.956 353.311 155.25 347.455 165 342.001C164.154 341.031 163.309 340.062 162.438 339.063C161.289 337.712 160.143 336.357 159 335.001C158.412 334.314 157.824 333.627 157.219 332.919C150.111 324.268 146.193 315.142 145 304.001C144.916 303.225 144.832 302.449 144.746 301.649C144.134 289.842 147.973 277.421 155 268.001C155.513 267.296 156.026 266.591 156.555 265.864C164.113 256.371 175.336 250.802 187.082 248.36C191.166 246.458 192.19 243.508 193.875 239.563C200.928 224.388 210.313 214.095 225 206.001C223.719 204.293 222.382 202.627 221 201.001C220.34 201.001 219.68 201.001 219 201.001C218.74 200.435 218.479 199.869 218.211 199.286C216.89 196.794 215.324 194.689 213.625 192.438C205.547 181.045 203.418 167.608 205.461 153.911C208.72 139.323 215.887 127.856 228.305 119.54C240.813 112.397 255.098 111.407 269.152 113.462C282.534 117.149 293.356 125.298 300.461 137.091C307.474 150.351 309.063 164.676 304.977 179.149C302.537 186.273 299.346 192.167 294.137 197.626C292.788 198.96 292.788 198.96 293 201.001C292.072 201.403 292.072 201.403 291.125 201.813C288.701 202.956 288.701 202.956 287 206.001C287.69 206.413 288.379 206.826 289.09 207.251C303.095 215.857 311.586 225.395 318.641 240.239C319.089 241.15 319.538 242.062 320 243.001C320.438 243.913 320.877 244.826 321.328 245.766C323.515 248.69 324.947 248.835 328.5 249.438C341.205 252.197 351.533 259.51 358.813 270.251C367.189 284.224 368.694 298.893 365.031 314.544C362.099 324.375 356.296 331.909 349 339.001C348.34 339.331 347.68 339.661 347 340.001C347 340.661 347 341.321 347 342.001C348.602 343.109 350.26 344.136 351.938 345.126C360.156 350.224 366.74 355.855 372 364.001C377.319 359.739 381.371 355.36 385.313 349.813C385.871 349.03 386.429 348.247 387.004 347.44C405.766 320.513 415.482 289.057 415.313 256.313C415.31 255.563 415.308 254.813 415.306 254.04C415.254 242.795 414.856 231.925 412 221.001C411.796 220.206 411.592 219.411 411.382 218.593C402.227 183.865 382.972 151.76 354 130.001C352.991 129.215 351.981 128.428 350.941 127.618C287.723 79.4562 197.763 88.5025 142.4 143.557ZM229 141.001C222.924 149.301 219.933 157.654 221 168.001C222.644 177.34 227.39 185.361 234.75 191.376C243.1 197.028 251.991 199.273 262 198.001C272.356 195.633 280.029 190.36 285.938 181.563C290.637 173.589 292.254 165.679 290.535 156.524C288.133 147.34 283.054 139.209 275 134.001C259.421 125.224 241.002 127.177 229 141.001ZM214.727 235.688C209.973 241.797 209.973 241.797 208 249.001C208.811 249.269 209.622 249.537 210.457 249.813C226.036 255.327 235.808 264.084 243.211 278.856C248.16 292.307 247.959 308.956 242 322.001C237.981 329.872 232.906 335.535 226 341.001C228.963 343.243 231.964 345.421 235 347.563C235.846 348.163 236.691 348.762 237.563 349.38C239.885 351.025 239.885 351.025 242.188 351.966C244.511 353.293 244.923 354.59 246 357.001C246.944 358.176 247.925 359.322 248.938 360.438C250.835 362.581 252.272 364.457 253.75 366.938C254.163 367.619 254.575 368.3 255 369.001C255.66 369.001 256.32 369.001 257 369.001C258.679 366.887 258.679 366.887 260.375 364.251C262.196 361.507 263.882 359.118 266.227 356.798C268.234 355.184 268.234 355.184 268 353.001C268.557 352.742 269.114 352.483 269.688 352.216C272.288 350.85 274.604 349.262 277 347.563C277.846 346.966 278.691 346.37 279.563 345.755C281.729 344.196 283.872 342.612 286 341.001C285.432 340.551 284.863 340.101 284.277 339.638C274.507 331.498 268.185 321.643 266 309.001C264.525 292.124 267.006 277.856 277.75 264.251C285.044 256.372 293.987 252.407 304 249.001C300.598 237.698 292.438 228.639 282.488 222.434C280.032 221.143 277.573 220.039 275 219.001C274.268 218.682 273.536 218.364 272.781 218.036C251.563 210.152 228.765 219.051 214.727 235.688ZM291.731 274.044C284.014 282.133 281.357 289.999 281.534 301.103C281.994 311.05 285.556 317.571 292.356 324.731C299.896 331.202 308.47 334.356 318.285 334.212C328.142 333.446 336.574 328.912 343.313 321.751C348.681 315.041 351.423 305.99 351.277 297.438C350.025 286.427 345.724 277.601 337.125 270.688C322.546 260.565 304.751 262.323 291.731 274.044ZM170 275.001C163.314 282.9 160.317 291.883 160.652 302.204C161.793 311.377 165.885 319.894 173.141 325.72C182.067 331.914 190.939 335.118 201.902 333.598C212.064 331.19 220.02 325.543 226 317.001C230.96 307.985 231.542 300.134 230 290.001C229.044 286.728 227.733 283.931 226 281.001C225.589 280.302 225.178 279.603 224.754 278.884C219.863 271.54 212.429 267.284 204 265.001C191.001 263.831 179.707 265.628 170 275.001ZM162 364.001C161.256 364.678 160.512 365.354 159.746 366.052C156.078 369.536 153.671 372.149 152 377.001C178.86 399.714 212.543 414.442 248 415.001C248.579 397.452 246.28 381.3 234 368.001C225.345 358.785 213.206 352.363 200.434 351.63C185.461 351.261 173.358 353.428 162 364.001ZM277 369.001C266.426 383.057 263.437 397.632 264 415.001C270.351 415.201 276.2 414.483 282.438 413.313C283.404 413.133 284.371 412.952 285.366 412.765C313.432 407.327 338.058 395.292 360 377.001C356.248 367.08 348.14 361.037 338.793 356.415C317.314 347.251 293.139 351.486 277 369.001ZM37.6876 430.376C32.9925 437.679 32.0163 445.449 33.0001 454.001C35.3203 463.572 41.2452 470.37 49.129 475.993C56.5508 479.991 65.5201 480.361 73.629 478.348C81.37 475.212 89.2719 468.705 92.9024 461.114C95.9871 453.196 96.2993 444.781 93.4376 436.751C89.6132 428.361 82.8246 421.318 74.211 417.891C58.6371 413.572 48.1907 419.589 37.6876 430.376ZM421.688 430.376C416.993 437.679 416.016 445.449 417 454.001C419.32 463.572 425.245 470.37 433.129 475.993C440.551 479.991 449.52 480.361 457.629 478.348C465.37 475.212 473.272 468.705 476.902 461.114C479.987 453.196 480.299 444.781 477.438 436.751C473.613 428.361 466.825 421.318 458.211 417.891C442.637 413.572 432.191 419.589 421.688 430.376Z" fill="currentColor"></path><path d="M149 81.001C151.938 83.126 151.938 83.126 154 86.001C154.574 90.0186 154.184 92.6193 152 96.001C140.149 106.247 140.149 106.247 132.875 107.376C129 107.001 129 107.001 126.5 105.501C124.553 102.256 124.135 99.7714 124 96.001C125.337 91.436 129.27 89.3639 133 86.8135C133.642 86.3629 134.284 85.9124 134.945 85.4482C140.046 81.8894 142.663 80.3566 149 81.001Z" fill="currentColor"></path><path d="M383 405.001C386.195 407.103 386.894 408.69 388.125 412.313C387.974 416.755 387.023 418.112 384.027 421.228C373.279 430.63 373.279 430.63 366.688 431.376C363 431.001 363 431.001 360.062 428.876C358 426.001 358 426.001 357.312 423.126C359.081 415.088 366.518 410.937 372.902 406.505C376.559 404.73 378.982 404.607 383 405.001Z" fill="currentColor"></path><path d="M88.875 357.312C96.9129 359.081 101.063 366.518 105.496 372.902C107.271 376.559 107.394 378.982 107 383C104.898 386.195 103.311 386.894 99.6875 388.125C95.2457 387.974 93.889 387.023 90.7734 384.027C81.3712 373.279 81.3712 373.279 80.625 366.688C81 363 81 363 83.125 360.062C86 358 86 358 88.875 357.312Z" fill="currentColor"></path><path d="M74 174.999C76.375 176.562 76.375 176.562 78 178.999C78.4679 185.128 77.4493 189.649 75.1875 195.312C74.9265 196.013 74.6655 196.715 74.3965 197.439C71.8275 204.093 71.8275 204.093 69 205.999C64.9798 206.382 62.2802 206.524 58.5625 204.999C56.1993 201.974 55.9964 198.73 56 194.999C56.6109 191.932 57.6287 189.1 58.75 186.187C59.1484 185.062 59.1484 185.062 59.5547 183.915C60.9047 180.248 61.9423 177.564 65 174.999C68.5844 173.804 70.3691 174.036 74 174.999Z" fill="currentColor"></path><path d="M359.465 75.519C364.318 76.4388 368.048 79.1544 372 81.9994C373.065 82.7361 373.065 82.7361 374.152 83.4877C377.557 86.0708 378.829 87.4167 380.062 91.6244C380.002 94.882 379.914 96.416 378 98.9994C374.664 101.224 372.823 101.457 368.887 100.937C364.869 99.6322 361.58 97.56 358.062 95.2494C357.4 94.8192 356.737 94.389 356.054 93.9457C352.372 91.4072 350.052 89.5529 349 84.9994C349.186 81.8949 349.349 79.8245 351.297 77.3549C353.968 75.2288 356.143 75.4055 359.465 75.519Z" fill="currentColor"></path><path d="M141.84 410.48C146.782 411.669 150.893 415.128 155 418C156.207 418.774 157.415 419.545 158.625 420.312C161 422 161 422 162 424C162.578 431.165 162.578 431.165 160.313 434.437C157.681 436.215 156.156 436.714 153 437C145.658 434.488 137.9 430.141 133 424C131.884 420.34 131.574 418.312 132.75 414.687C135.169 411.422 137.855 410.387 141.84 410.48Z" fill="currentColor"></path><path d="M71.078 315.359C73.6015 316.201 74.8044 317.541 76.0584 319.863C76.3691 320.568 76.6798 321.274 76.9998 322C77.4446 323.004 77.8893 324.008 78.3475 325.043C82.9782 336.252 82.9782 336.252 81.9998 342C80.9998 344.375 80.9998 344.375 78.9998 346C76.279 346.907 73.8476 347.417 70.9998 347C66.4343 344.187 64.7626 341.076 62.7498 336.188C62.2497 335.005 61.7495 333.823 61.2342 332.606C58.211 323.775 58.211 323.775 60.2498 319.188C63.5085 315.114 65.9765 314.503 71.078 315.359Z" fill="currentColor"></path><path d="M448.989 305.598C451 306 451 306 454.063 307.937C456.394 311.622 456.39 313.217 455.649 317.394C451.785 332.919 451.785 332.919 447 337C443.145 338.341 441.501 338.198 437.688 336.687C435 335 435 335 434 333C433.595 326.862 434.546 322.362 436.813 316.687C437.074 315.986 437.335 315.284 437.604 314.56C440.1 308.094 441.625 305.257 448.989 305.598Z" fill="currentColor"></path><path d="M438 164.438C441.773 165.145 443.222 166.36 446 169C447.766 172.207 447.766 172.207 449.25 175.812C450 177.586 450 177.586 450.766 179.395C453.789 188.225 453.789 188.225 451.75 192.812C450 195 450 195 447 197C443.347 196.867 440.891 196.705 437.981 194.402C435.518 191.415 434.137 188.257 432.75 184.688C432.348 183.729 432.348 183.729 431.938 182.752C430.194 178.361 429.553 174.704 430 170C432.45 166.613 433.864 165.213 438 164.438Z" fill="currentColor"></path><path d="M432 350C434.721 351.884 435.721 353.155 436.754 356.282C437.375 363.144 431.684 370.51 427.562 375.688C425.021 378.392 424.012 378.997 420.312 380.125C417.118 380.005 415.54 379.882 413 378C411.085 375.129 410.4 373.578 410.48 370.161C411.669 365.219 415.128 361.108 418 357C418.774 355.794 419.545 354.586 420.312 353.375C423.292 349.182 427.166 349.311 432 350Z" fill="currentColor"></path><path d="M93.625 131.938C97.3238 133.102 98.8717 133.765 101 137C101.794 143.435 99.757 147.056 96.375 152.25C95.9484 152.956 95.5217 153.663 95.0821 154.391C92.3248 158.736 90.0448 161.278 85 163C81.3125 162.562 81.3125 162.562 78 161C75.4596 157.69 74.887 155.961 75.375 151.812C78.2423 143.866 84.2693 132.099 93.625 131.938Z" fill="currentColor"></path><path d="M416 124.176C420.446 126.008 423.179 130.265 426 134C426.534 134.703 427.067 135.405 427.617 136.129C429.89 139.41 430.949 141.702 431.625 145.688C430.814 149.986 429.534 151.465 426 154C422.891 154.744 421.15 154.649 418.344 153.067C412.65 148.706 408.109 142.405 405 136C404.428 129.725 404.428 129.725 406.875 126.625C410.015 124.224 412 123.534 416 124.176Z" fill="currentColor"></path><path d="M193 59.9998C195.438 62.1248 195.438 62.1248 197 64.9998C197 68.7514 196.762 71.0238 194.43 74.0115C191.235 76.6258 187.981 77.863 184.125 79.2498C183.43 79.5179 182.735 79.786 182.02 80.0623C177.909 81.5794 174.442 82.5063 170 81.9998C166.671 79.5393 165.207 78.1037 164.438 73.9998C165.146 70.2204 166.348 68.777 169 65.9998C172.312 64.2341 172.312 64.2341 176 62.7498C177.217 62.2496 178.434 61.7494 179.688 61.2341C184.643 59.3876 187.791 58.4804 193 59.9998Z" fill="currentColor"></path><path d="M334 61.9996C336.418 63.9679 336.928 64.7691 337.875 67.8121C338.028 71.7182 337.06 73.719 335 76.9996C330.569 79.215 325.363 78.302 320.824 76.7926C319.44 76.2711 318.061 75.7358 316.688 75.1871C315.986 74.9261 315.284 74.6651 314.561 74.3961C307.906 71.8271 307.906 71.8271 306 68.9996C305.353 62.2019 305.353 62.2019 307.313 58.5621C314.147 52.2342 327 58.6448 334 61.9996Z" fill="currentColor"></path><path d="M342 429.999C345.387 432.449 346.787 433.863 347.562 437.999C346.855 441.772 345.64 443.221 343 445.999C339.793 447.765 339.793 447.765 336.188 449.249C335.005 449.749 333.823 450.25 332.605 450.765C323.827 453.77 323.827 453.77 319.188 451.812C316.86 449.883 315.828 448.896 315 445.999C315.141 442.618 315.46 440.67 317.598 438.015C320.577 435.515 323.729 434.141 327.312 432.749C327.951 432.481 328.59 432.213 329.248 431.937C333.639 430.193 337.296 429.552 342 429.999Z" fill="currentColor"></path><path d="M191.176 435.171C192.56 435.683 193.939 436.209 195.313 436.749C196.014 437.002 196.716 437.254 197.44 437.515C201.349 439.006 204.026 440.219 206 443.999C206.632 448.341 206.458 450.289 204.063 453.999C200.63 456.241 198.753 456.421 194.746 455.718C178.338 451.423 178.338 451.423 175 446.999C173.807 443.165 173.82 441.454 175.313 437.687C178.843 432.063 185.526 433.344 191.176 435.171Z" fill="currentColor"></path><path d="M457 211.001C461.322 214.299 461.916 218.821 462.68 223.946C464.107 237.555 464.107 237.555 461.227 241.317C458.87 243.099 457.901 243.546 455 243.501C454.01 243.516 454.01 243.516 453 243.532C449.958 242.724 448.883 241.525 447 239.001C446.103 236.251 445.667 233.483 445.25 230.626C445.125 229.883 445 229.141 444.871 228.376C443.092 217.307 443.092 217.307 446 213.126C450.163 210.177 451.976 210.203 457 211.001Z" fill="currentColor"></path><path d="M282.562 48.7493C285.396 49.4219 287.118 50.0724 289.625 51.6243C291.564 54.9742 292.001 58.2322 291 61.9993C288.93 64.7412 287.798 65.87 284.371 66.425C283.403 66.3877 282.435 66.3503 281.438 66.3118C280.383 66.2718 279.329 66.2318 278.242 66.1907C276.637 66.0959 276.637 66.0959 275 65.9993C273.992 65.967 272.984 65.9348 271.945 65.9016C267.669 65.6756 264.677 65.365 260.875 63.3118C258.526 60.4144 258 58.7261 258 54.9993C262.514 45.0688 273.32 47.2089 282.562 48.7493Z" fill="currentColor"></path><path d="M298.875 446.062C301 448.999 301 448.999 301.625 452.499C301 455.999 301 455.999 299.188 458.812C292.255 463.569 281.193 464.436 273 462.999C270.594 461.157 269.254 459.954 268.469 456.999C268.479 456.339 268.489 455.679 268.5 454.999C268.485 454.009 268.485 454.009 268.469 452.999C269.277 449.957 270.476 448.882 273 446.999C275.75 446.102 278.517 445.667 281.375 445.249C282.118 445.124 282.86 444.999 283.625 444.87C294.726 443.085 294.726 443.085 298.875 446.062Z" fill="currentColor"></path><path d="M56.9999 268.5C57.6599 268.49 58.3199 268.479 58.9999 268.469C62.0187 269.271 63.1182 270.513 64.9999 273C65.7678 275.673 66.3226 278.09 66.7499 280.812C66.875 281.499 67 282.185 67.1288 282.893C69.1128 294.415 69.1128 294.415 65.9374 298.938C62.9999 301 62.9999 301 59.4999 301.625C55.9999 301 55.9999 301 53.1874 299.188C48.4298 292.255 47.5634 281.193 48.9999 273C51.3683 269.907 53.0545 268.438 56.9999 268.5Z" fill="currentColor"></path><path d="M461 260.001C463.268 262.317 463.954 263.639 464.363 266.884C464.099 283.735 464.099 283.735 460.313 289.626C456.979 291.608 454.812 291.536 451 291.001C448.063 289.751 448.063 289.751 446 287.001C444.793 279.018 445.912 269.761 448 262.001C449.541 260.081 450.578 259.19 452.813 258.188C455.989 257.916 458.107 258.708 461 260.001Z" fill="currentColor"></path><path d="M61.0001 220.999C63.9376 222.312 63.9376 222.312 66.0001 224.999C66.5412 228.706 66.2843 232.275 66.0001 235.999C65.9324 237.478 65.9324 237.478 65.8633 238.988C65.2848 248.488 65.2848 248.488 62.0001 251.999C58.4728 253.802 56.6521 254.125 52.7501 253.374C49.5893 251.794 49.1858 251.227 48.0001 247.999C47.2351 239.697 47.0393 229.605 51.6876 222.374C55.0206 220.392 57.1885 220.464 61.0001 220.999Z" fill="currentColor"></path><path d="M237 446C238.008 446.022 239.016 446.044 240.055 446.067C244.599 446.258 247.316 446.558 251.187 449.063C253.73 453.184 253.685 455.202 253 460C251.351 462.227 251.351 462.227 249 464C246.082 464.426 246.082 464.426 242.812 464.313C241.664 464.274 240.515 464.235 239.332 464.196C237.683 464.099 237.683 464.099 236 464C234.675 463.935 234.675 463.935 233.324 463.867C228.851 463.522 225.638 462.842 222 460C220.45 456.9 220.71 454.421 221 451C224.008 443.931 230.449 445.55 237 446Z" fill="currentColor"></path><path d="M241.351 50.7727C243.561 53.7575 243.592 55.5003 243.371 59.1009C243 60.9993 243 60.9993 241.562 63.3743C234.827 67.6455 224.79 68.3727 217 67.9993C212.388 65.7764 212.388 65.7764 211 62.9993C210.528 58.8294 210.519 56.721 212.875 53.1868C219.555 48.5105 234.542 45.6376 241.351 50.7727Z" fill="currentColor"></path></svg>