<svg xmlns="http://www.w3.org/2000/svg" width="301" height="340" viewBox="0 0 301 340" fill="none"><path d="M75.3225 0.563125C75.9931 0.559561 76.6637 0.555998 77.3547 0.552327C79.5849 0.542916 81.8149 0.547569 84.0452 0.552292C85.651 0.548516 87.2568 0.543907 88.8627 0.53853C92.7616 0.527906 96.6604 0.526595 100.559 0.530069C103.73 0.532751 106.901 0.53178 110.072 0.528251C110.525 0.527756 110.977 0.527261 111.443 0.52675C112.362 0.525737 113.282 0.524719 114.201 0.523697C122.809 0.514628 131.416 0.518205 140.024 0.525804C147.887 0.532376 155.75 0.523812 163.614 0.507983C171.702 0.491824 179.79 0.485492 187.878 0.489888C192.413 0.492194 196.948 0.490752 201.483 0.479135C205.748 0.468346 210.013 0.47153 214.278 0.483969C215.84 0.486404 217.402 0.48436 218.965 0.477428C221.103 0.468664 223.241 0.476349 225.38 0.488009C225.993 0.481653 226.605 0.475298 227.237 0.46875C235.249 0.55815 242.976 4.14367 248.816 9.58675C254.412 15.5785 257.636 23.3459 257.685 31.5389C257.691 32.2513 257.697 32.9637 257.703 33.6977C257.707 34.86 257.707 34.86 257.711 36.0458C257.717 36.867 257.722 37.6882 257.728 38.5344C257.744 41.2501 257.755 43.9658 257.764 46.6816C257.768 47.6182 257.772 48.5548 257.775 49.4913C257.789 53.3864 257.802 57.2814 257.809 61.1764C257.82 66.7525 257.842 72.3282 257.88 77.9042C257.905 81.8293 257.918 85.7544 257.922 89.6796C257.924 92.0226 257.932 94.3652 257.954 96.7081C257.977 99.3202 257.975 101.932 257.97 104.544C257.98 105.319 257.991 106.094 258.003 106.892C257.962 112.122 257.962 112.122 256.029 114.776C254.275 115.95 254.275 115.95 252.29 116.364C249.484 115.779 248.699 114.966 246.997 112.642C246.503 110 246.561 107.388 246.592 104.707C246.588 103.903 246.585 103.099 246.581 102.271C246.575 100.525 246.575 98.78 246.585 97.0341C246.601 94.2693 246.594 91.5049 246.583 88.7402C246.567 83.8648 246.57 78.9897 246.579 74.1143C246.591 66.785 246.588 59.4558 246.565 52.1265C246.558 49.3829 246.561 46.6396 246.572 43.896C246.579 41.78 246.572 39.6641 246.569 37.5481C246.575 36.7951 246.581 36.0422 246.587 35.2664C246.553 28.3846 244.961 22.6358 240.38 17.3614C234.142 12.1294 227.479 11.3036 219.588 11.3179C218.973 11.3164 218.358 11.3149 217.725 11.3133C215.671 11.3092 213.618 11.3097 211.565 11.3102C210.089 11.3082 208.614 11.306 207.139 11.3035C203.136 11.2977 199.133 11.2961 195.13 11.2957C192.628 11.2952 190.125 11.2938 187.623 11.292C179.339 11.2862 171.055 11.2832 162.771 11.2837C162.102 11.2837 162.102 11.2837 161.419 11.2837C160.749 11.2838 160.749 11.2838 160.066 11.2838C152.831 11.2841 145.597 11.2778 138.363 11.2684C130.924 11.2589 123.485 11.2545 116.046 11.2549C111.874 11.2551 107.702 11.2532 103.53 11.2462C99.6041 11.2398 95.6787 11.2398 91.7532 11.2446C90.3158 11.2453 88.8784 11.2437 87.4411 11.2397C72.6328 10.9721 72.6328 10.9721 59.866 17.7336C53.7287 24.1323 54.025 32.7081 53.9549 40.9747C53.9362 42.0891 53.9164 43.2035 53.8954 44.3179C53.847 47.0219 53.8139 49.7256 53.7895 52.4298C56.8464 52.4298 59.9033 52.4298 63.0528 52.4298C63.0145 51.0259 62.9761 49.622 62.9365 48.1755C62.9106 46.7936 62.8906 45.4117 62.8711 44.0297C62.8546 43.08 62.8321 42.1303 62.8033 41.1808C62.6304 35.3475 62.6822 30.1763 66.3612 25.3014C70.5475 21.4122 73.8084 20.5619 79.4834 20.512C80.3463 20.504 80.3463 20.504 81.2265 20.4959C82.444 20.4867 83.6615 20.4796 84.879 20.4744C86.7351 20.463 88.5903 20.434 90.4462 20.4048C91.6304 20.3981 92.8146 20.3924 93.9988 20.388C94.8271 20.3706 94.8271 20.3706 95.6721 20.3529C99.2395 20.3661 101.242 20.9537 104.076 23.3164C106.117 25.6971 106.894 27.7087 107.457 30.7343C107.569 31.3283 107.682 31.9222 107.798 32.5342C107.88 32.9859 107.962 33.4377 108.046 33.9031C118.894 33.934 129.741 33.9573 140.588 33.9717C145.625 33.9785 150.661 33.9878 155.697 34.0029C160.086 34.0161 164.474 34.0246 168.863 34.0276C171.187 34.0293 173.512 34.0334 175.837 34.043C178.429 34.0536 181.021 34.0539 183.613 34.0533C184.388 34.0581 185.163 34.0628 185.961 34.0677C186.664 34.0659 187.368 34.0641 188.092 34.0622C188.706 34.0634 189.32 34.0647 189.952 34.0659C191.553 34.0423 191.553 34.0423 192.74 32.5798C193.048 31.43 193.319 30.2701 193.567 29.106C194.523 25.3898 195.701 23.7017 198.695 21.3314C202.773 19.9719 207.529 20.4659 211.81 20.4381C213.04 20.4271 214.269 20.4091 215.499 20.3838C228.886 20.1095 228.886 20.1095 233.102 23.9781C234.528 25.5107 234.528 25.5107 235.418 26.9969C235.725 27.4891 236.032 27.9812 236.348 28.4883C237.921 31.6292 237.825 34.7221 237.813 38.1731C237.814 39.0276 237.814 39.0276 237.815 39.8994C237.816 41.8114 237.812 43.7234 237.809 45.6354C237.808 47.0048 237.808 48.3741 237.809 49.7435C237.809 53.4644 237.805 57.1853 237.801 60.9063C237.796 64.7936 237.796 68.6809 237.795 72.5682C237.793 79.931 237.788 87.2937 237.781 94.6565C237.774 103.038 237.77 111.42 237.767 119.801C237.76 137.044 237.748 154.287 237.733 171.53C240.79 171.53 243.847 171.53 246.997 171.53C246.979 170.345 246.962 169.16 246.944 167.938C246.891 164.017 246.853 160.095 246.825 156.173C246.808 153.796 246.785 151.419 246.747 149.041C246.711 146.746 246.692 144.451 246.683 142.156C246.674 140.856 246.648 139.557 246.622 138.258C246.62 131.684 246.62 131.684 248.547 129.639C250.73 128.252 251.738 127.993 254.275 128.522C256.337 130.187 257.452 131.176 257.981 133.81C257.974 134.544 257.967 135.277 257.959 136.032C257.959 136.867 257.959 137.701 257.958 138.56C257.941 139.464 257.924 140.368 257.907 141.272C257.9 142.202 257.896 143.132 257.892 144.061C257.88 146.502 257.847 148.941 257.811 151.381C257.777 153.874 257.762 156.366 257.745 158.859C257.71 163.745 257.653 168.63 257.584 173.515C258.525 173.664 258.525 173.664 259.486 173.815C261.25 174.124 262.471 174.469 264.048 175.26C264.482 175.476 264.916 175.692 265.364 175.915C266.037 176.262 266.037 176.262 266.723 176.617C267.193 176.858 267.662 177.098 268.146 177.346C282.775 184.947 292.952 196.777 298.155 212.43C302.207 226.054 301.257 242.262 294.637 254.901C294.21 255.763 294.21 255.763 293.774 256.643C286.245 271.252 273.665 280.906 258.245 285.999C258.236 286.763 258.226 287.526 258.216 288.313C258.177 291.178 258.126 294.042 258.072 296.907C258.05 298.141 258.031 299.375 258.016 300.609C257.866 312.552 256.513 322.459 247.956 331.484C241.692 337.257 233.812 340.012 225.389 339.93C224.718 339.934 224.047 339.939 223.356 339.943C221.129 339.953 218.903 339.945 216.677 339.937C215.072 339.94 213.467 339.945 211.862 339.951C207.968 339.961 204.074 339.96 200.179 339.952C197.012 339.946 193.845 339.945 190.677 339.948C190.225 339.949 189.773 339.949 189.307 339.95C188.388 339.95 187.47 339.951 186.551 339.952C177.951 339.96 169.351 339.951 160.75 339.937C153.385 339.925 146.019 339.927 138.654 339.939C130.084 339.953 121.514 339.959 112.944 339.951C112.028 339.95 111.113 339.949 110.198 339.948C109.747 339.948 109.297 339.948 108.833 339.947C105.673 339.945 102.513 339.949 99.3527 339.955C95.0921 339.963 90.8316 339.957 86.5709 339.942C85.0112 339.938 83.4513 339.939 81.8916 339.945C70.0289 339.986 61.2213 339.273 52.1715 330.801C45.6748 324.047 42.9792 316.189 43.0436 306.939C43.0425 306.338 43.0414 305.736 43.0402 305.116C43.038 303.112 43.0453 301.108 43.0525 299.103C43.0529 297.662 43.0527 296.22 43.0519 294.779C43.0516 290.873 43.0593 286.968 43.0686 283.063C43.0769 278.979 43.0776 274.894 43.0792 270.81C43.0833 263.08 43.0942 255.349 43.1075 247.618C43.1222 238.816 43.1295 230.013 43.1362 221.211C43.15 203.107 43.1733 185.003 43.2028 166.899C42.7554 166.769 42.308 166.64 41.847 166.506C40.9612 166.246 40.9612 166.246 40.0574 165.98C39.1816 165.725 39.1816 165.725 38.2882 165.464C35.9071 164.694 33.7676 163.639 31.5822 162.432C30.9464 162.087 30.9464 162.087 30.2978 161.735C26.8256 159.805 23.7224 157.575 20.706 154.989C19.7529 154.231 19.7529 154.231 18.7805 153.458C9.0884 145.359 2.91171 132.179 0.855945 119.92C0.748965 118.585 0.681325 117.247 0.649173 115.909C0.624438 115.232 0.599703 114.556 0.574219 113.859C0.929317 111.491 1.59738 110.746 3.50262 109.333C5.42665 108.864 6.77295 109.109 8.79597 109.333C10.5671 110.677 11.066 111.802 11.4375 113.96C11.5332 114.477 11.629 114.994 11.7276 115.526C11.8246 116.075 11.9216 116.625 12.0216 117.191C14.5899 130.306 20.2758 140.803 31.0653 149.054C43.1064 157.129 54.9666 158.417 69.057 158.361C69.996 158.36 70.935 158.359 71.874 158.359C74.3204 158.356 76.7666 158.35 79.213 158.342C81.7193 158.335 84.2257 158.332 86.7321 158.329C91.6313 158.322 96.5304 158.311 101.43 158.297C100.96 157.835 100.49 157.372 100.005 156.896C99.3974 156.294 98.7892 155.692 98.1626 155.071C97.5562 154.472 96.9498 153.874 96.325 153.257C93.9543 150.785 93.8093 148.97 93.8334 145.63C94.436 142.048 96.684 139.345 98.783 136.462C105.918 126.564 107.413 113.726 105.863 101.857C104.281 93.3528 100.322 86.1108 94.8129 79.5583C94.4053 79.0175 93.9975 78.4767 93.5775 77.9196C87.3189 70.5148 76.5951 65.0084 67.0229 63.6782C52.8059 62.4977 40.2943 64.7964 28.7701 73.7686C22.8428 78.9409 18.8628 84.6874 15.4162 91.6919C15.1848 92.158 14.9533 92.6241 14.7148 93.1044C14.5136 93.5224 14.3124 93.9404 14.1052 94.371C13.4277 95.4383 13.4277 95.4383 11.4426 96.7616C8.90387 97.0386 7.39851 97.1232 5.19815 95.7691C3.76761 93.4803 3.81518 91.4243 4.16429 88.8216C4.83088 86.8669 5.75777 85.1181 6.76961 83.3215C7.03925 82.831 7.30888 82.3405 7.58668 81.8352C14.5468 69.5178 25.8671 59.8749 39.2327 55.0765C40.554 54.8435 41.8772 54.6215 43.2028 54.4148C43.1889 53.6381 43.175 52.8613 43.1608 52.061C43.1123 49.1397 43.0823 46.2184 43.0574 43.2968C43.0442 42.0398 43.0262 40.7827 43.0031 39.5258C42.7956 27.9406 44.0057 18.1028 52.3007 9.25592C58.9245 3.02254 66.3389 0.504964 75.3225 0.563125ZM74.3012 32.5798C73.3345 34.5131 73.5659 36.2182 73.5749 38.3745C73.5759 38.8132 73.5768 39.252 73.5778 39.704C73.5815 41.1063 73.5898 42.5085 73.5982 43.9108C73.6015 44.8611 73.6045 45.8114 73.6072 46.7617C73.6145 49.0922 73.626 51.4227 73.6395 53.7532C74.0572 53.9164 74.4749 54.0796 74.9052 54.2478C91.1539 60.6618 104.361 69.4509 111.835 85.9811C112.891 88.4368 113.793 90.9257 114.663 93.4533C114.889 94.0921 115.115 94.731 115.348 95.3892C118.498 106.216 117.71 119.278 114.001 129.845C113.762 130.539 113.522 131.232 113.275 131.946C111.284 137.151 108.425 141.732 105.4 146.387C107.986 149.49 110.679 152.375 113.58 155.188C115.376 157.052 115.43 158.339 115.449 160.861C115.458 161.432 115.468 162.004 115.477 162.593C115.313 164.378 114.977 165.402 114.001 166.899C111.75 168.399 110.914 168.398 108.268 168.433C107.116 168.453 107.116 168.453 105.94 168.473C105.111 168.48 104.282 168.488 103.428 168.496C102.154 168.515 102.154 168.515 100.855 168.535C98.5999 168.569 96.345 168.595 94.09 168.619C91.7881 168.646 89.4862 168.68 87.1844 168.713C82.6695 168.777 78.1546 168.833 73.6395 168.884C73.5778 186.782 73.5311 204.681 73.5024 222.579C73.4887 230.89 73.4701 239.2 73.4399 247.51C73.4135 254.752 73.3964 261.994 73.3905 269.235C73.3871 273.071 73.3789 276.907 73.3597 280.743C73.3418 284.351 73.3362 287.959 73.3402 291.568C73.3394 292.894 73.3342 294.22 73.324 295.546C73.3109 297.354 73.314 299.16 73.3213 300.968C73.3136 301.495 73.3058 302.023 73.2979 302.567C73.3233 304.903 73.4393 306.243 74.8587 308.139C77.7184 310.179 80.5976 309.914 83.9637 309.908C84.5521 309.909 85.1405 309.911 85.7467 309.912C87.7262 309.916 89.7057 309.916 91.6852 309.915C93.1012 309.917 94.5173 309.919 95.9333 309.922C99.7857 309.928 103.638 309.929 107.491 309.93C110.704 309.93 113.917 309.933 117.13 309.935C124.709 309.941 132.288 309.942 139.867 309.942C147.692 309.941 155.517 309.948 163.341 309.959C170.054 309.967 176.766 309.971 183.478 309.97C187.49 309.97 191.501 309.972 195.513 309.979C199.285 309.986 203.057 309.986 206.829 309.981C208.215 309.98 209.601 309.982 210.986 309.986C212.876 309.991 214.765 309.988 216.655 309.983C217.205 309.986 217.755 309.989 218.322 309.993C221.103 309.976 223.314 309.848 225.823 308.496C227.426 306.362 227.301 304.283 227.276 301.683C227.272 300.885 227.267 300.088 227.263 299.266C227.252 298.436 227.241 297.606 227.229 296.751C227.223 295.911 227.218 295.071 227.211 294.205C227.196 292.131 227.174 290.058 227.147 287.984C226.437 287.983 226.437 287.983 225.712 287.981C221.244 287.969 216.775 287.942 212.307 287.897C210.01 287.874 207.713 287.857 205.416 287.855C202.773 287.851 200.131 287.821 197.488 287.79C196.666 287.793 195.843 287.795 194.996 287.798C188.642 287.691 188.642 287.691 186.604 285.723C185.561 284.163 184.981 283.252 184.8 281.409C184.745 280.993 184.691 280.578 184.635 280.15C185.138 275.801 188.219 273.066 191.21 270.202C191.611 269.809 192.012 269.417 192.426 269.013C193.408 268.053 194.397 267.101 195.387 266.149C194.087 263.867 192.784 261.592 191.44 259.336C183.516 245.464 181.497 229.495 185.441 214.006C190.304 198.2 200.018 186.162 214.575 178.147C217.852 176.5 221.18 175.083 224.613 173.8C225.088 173.623 225.563 173.445 226.052 173.262C226.414 173.127 226.775 172.992 227.147 172.854C227.178 154.869 227.201 136.884 227.215 118.899C227.222 110.548 227.231 102.198 227.247 93.8478C227.26 86.5712 227.268 79.2946 227.271 72.018C227.273 68.1637 227.277 64.3094 227.287 60.4551C227.296 56.8295 227.298 53.2039 227.296 49.5783C227.297 48.2456 227.299 46.913 227.304 45.5804C227.311 43.7646 227.309 41.9489 227.306 40.133C227.31 39.6026 227.314 39.0723 227.318 38.5258C227.314 35.0089 227.314 35.0089 225.823 31.9181C223.315 30.5228 221.117 30.4387 218.284 30.4655C217.489 30.4698 216.693 30.474 215.874 30.4784C214.637 30.4951 214.637 30.4951 213.376 30.512C212.539 30.518 211.701 30.524 210.839 30.5301C208.776 30.5457 206.713 30.5675 204.65 30.5947C204.456 31.3095 204.261 32.0243 204.061 32.7607C202.667 37.4434 200.688 40.3251 196.71 43.1665C194.317 44.3065 192.424 44.6581 189.783 44.6712C189.064 44.6778 188.345 44.6844 187.605 44.6912C186.823 44.6916 186.041 44.6921 185.235 44.6925C184.406 44.698 183.577 44.7035 182.723 44.7092C180.454 44.7224 178.184 44.7296 175.915 44.7329C174.494 44.7353 173.074 44.7395 171.653 44.7442C166.691 44.7604 161.728 44.769 156.765 44.7714C152.151 44.7738 147.538 44.7935 142.925 44.8213C138.954 44.8443 134.984 44.8544 131.014 44.8549C128.647 44.8554 126.28 44.8611 123.913 44.88C121.268 44.9007 118.624 44.8946 115.979 44.8864C115.204 44.8962 114.429 44.906 113.63 44.9161C108.667 44.8721 104.916 43.9945 100.768 41.1814C98.689 38.8892 97.9172 36.6817 97.0642 33.7661C96.8893 33.1718 96.7144 32.5774 96.5342 31.9651C96.4029 31.5129 96.2716 31.0607 96.1363 30.5947C93.2416 30.5369 90.347 30.5018 87.4519 30.4707C86.2237 30.4457 86.2237 30.4457 84.9706 30.4203C84.1774 30.4139 83.3842 30.4075 82.5669 30.4009C81.4754 30.3853 81.4754 30.3853 80.3619 30.3694C77.9496 30.6294 76.3687 31.3294 74.3012 32.5798ZM53.7895 168.884C53.7276 187.392 53.681 205.901 53.6523 224.41C53.6387 233.004 53.6201 241.599 53.5898 250.193C53.5634 257.685 53.5463 265.177 53.5404 272.669C53.537 276.635 53.5289 280.6 53.5096 284.566C53.4916 288.302 53.4861 292.038 53.4901 295.774C53.4894 297.142 53.4841 298.51 53.474 299.878C53.4099 308.935 53.4965 316.805 60.1374 323.706C66.5325 329.053 73.2962 329.772 81.2777 329.758C81.8931 329.759 82.5086 329.761 83.1426 329.762C85.194 329.766 87.2454 329.766 89.2968 329.765C90.7721 329.767 92.2474 329.77 93.7226 329.772C97.7228 329.778 101.723 329.779 105.723 329.78C108.224 329.78 110.725 329.782 113.226 329.783C121.506 329.789 129.786 329.792 138.066 329.792C138.735 329.792 138.735 329.792 139.417 329.792C140.086 329.792 140.086 329.792 140.769 329.792C147.999 329.791 155.229 329.798 162.459 329.807C169.895 329.817 177.331 329.821 184.767 329.821C188.937 329.82 193.107 329.822 197.277 329.829C201.2 329.836 205.122 329.836 209.045 329.831C210.482 329.83 211.918 329.832 213.354 329.836C228.219 330.179 228.219 330.179 240.92 323.272C245.696 318.042 247.11 312.723 247.061 305.753C247.061 305.244 247.06 304.735 247.059 304.21C247.055 302.592 247.047 300.974 247.038 299.356C247.035 298.256 247.032 297.155 247.029 296.055C247.022 293.364 247.01 290.674 246.997 287.984C243.94 287.984 240.883 287.984 237.733 287.984C237.709 289.355 237.684 290.727 237.658 292.14C237.626 293.485 237.594 294.829 237.56 296.174C237.538 297.101 237.519 298.027 237.504 298.954C237.312 310.407 237.312 310.407 233.598 314.947C229.253 318.502 226.314 319.475 220.798 319.419C220.171 319.423 219.543 319.427 218.897 319.431C216.803 319.442 214.708 319.433 212.613 319.425C211.109 319.428 209.605 319.433 208.1 319.439C204.018 319.451 199.936 319.446 195.854 319.438C191.58 319.431 187.307 319.437 183.034 319.442C175.397 319.447 167.76 319.439 160.124 319.425C153.206 319.413 146.288 319.415 139.37 319.427C131.329 319.442 123.288 319.447 115.248 319.439C110.994 319.435 106.74 319.434 102.487 319.443C98.4866 319.451 94.4869 319.445 90.4869 319.43C89.0199 319.427 87.5529 319.428 86.0859 319.434C84.0812 319.441 82.0773 319.432 80.0726 319.419C79.4939 319.424 78.9152 319.43 78.319 319.436C74.4759 319.388 71.5633 318.589 68.3462 316.436C66.9841 314.944 66.9841 314.944 66.0717 313.417C65.7587 312.911 65.4456 312.405 65.1231 311.884C63.5513 308.931 63.6137 306.215 63.6098 302.957C63.6065 302.385 63.6033 301.813 63.5999 301.224C63.5897 299.301 63.5842 297.378 63.5786 295.454C63.5723 294.079 63.5657 292.703 63.5588 291.327C63.5409 287.586 63.527 283.844 63.5138 280.103C63.4994 276.195 63.4812 272.287 63.4635 268.38C63.4304 260.977 63.4007 253.575 63.3722 246.172C63.3395 237.746 63.3032 229.319 63.2665 220.893C63.1912 203.556 63.1205 186.22 63.0528 168.884C59.9959 168.884 56.939 168.884 53.7895 168.884ZM207.056 196.152C197.606 206.148 193.537 218.185 193.402 231.742C194.026 242.361 197.911 252.376 204.609 260.649C206.368 263.475 206.605 265.55 205.973 268.796C204.428 271.887 202.094 274.1 199.615 276.459C198.618 277.257 198.618 277.257 198.695 278.059C204.12 278.09 209.544 278.113 214.969 278.128C217.489 278.134 220.009 278.144 222.53 278.159C224.971 278.173 227.412 278.181 229.853 278.185C230.775 278.187 231.697 278.192 232.619 278.199C250.119 278.331 264.027 274.683 276.772 262.179C277.186 261.781 277.601 261.382 278.028 260.972C286.631 251.999 289.778 239.968 289.655 227.86C289.202 213.981 283.01 202.595 273.174 193.138C253.309 176.148 225.389 178.839 207.056 196.152Z" fill="currentColor"></path><path d="M99.426 257.873C100.088 257.865 100.751 257.858 101.433 257.85C102.517 257.858 102.517 257.858 103.623 257.866C104.387 257.862 105.151 257.857 105.938 257.852C108.468 257.841 110.996 257.848 113.526 257.857C115.281 257.856 117.036 257.853 118.791 257.85C122.471 257.845 126.151 257.851 129.831 257.864C134.085 257.878 138.338 257.874 142.591 257.859C146.244 257.847 149.897 257.845 153.55 257.852C155.732 257.856 157.913 257.856 160.094 257.848C162.526 257.841 164.957 257.852 167.388 257.866C168.111 257.861 168.834 257.856 169.578 257.85C170.572 257.861 170.572 257.861 171.585 257.873C172.447 257.874 172.447 257.874 173.327 257.876C175.417 258.326 176.215 259.194 177.522 260.856C177.852 263.171 177.852 263.171 177.522 265.487C176.215 267.148 175.417 268.017 173.327 268.467C172.465 268.468 172.465 268.468 171.585 268.47C170.923 268.477 170.261 268.485 169.578 268.493C168.856 268.487 168.133 268.482 167.388 268.476C166.242 268.483 166.242 268.483 165.073 268.49C162.544 268.502 160.015 268.494 157.485 268.485C155.73 268.487 153.975 268.49 152.22 268.493C148.54 268.498 144.86 268.492 141.18 268.479C136.927 268.465 132.674 268.469 128.42 268.484C124.767 268.496 121.114 268.497 117.461 268.491C115.28 268.486 113.099 268.487 110.917 268.495C108.486 268.501 106.054 268.491 103.623 268.476C102.539 268.484 102.539 268.484 101.433 268.493C100.44 268.481 100.44 268.481 99.426 268.47C98.8512 268.469 98.2764 268.468 97.6842 268.467C95.5939 268.017 94.7964 267.148 93.4896 265.487C93.1588 263.171 93.1588 263.171 93.4896 260.856C95.3189 258.53 96.4873 257.878 99.426 257.873Z" fill="currentColor"></path><path d="M129.201 138.772C129.863 138.765 130.526 138.757 131.208 138.75C132.292 138.758 132.292 138.758 133.398 138.766C134.162 138.761 134.926 138.757 135.713 138.752C138.243 138.74 140.772 138.748 143.301 138.757C145.056 138.755 146.811 138.753 148.567 138.749C152.247 138.744 155.926 138.751 159.606 138.763C163.86 138.778 168.113 138.773 172.366 138.759C176.019 138.747 179.672 138.745 183.325 138.752C185.507 138.756 187.688 138.755 189.869 138.748C192.301 138.741 194.732 138.751 197.164 138.766C197.886 138.761 198.609 138.755 199.353 138.75C200.347 138.761 200.347 138.761 201.36 138.772C202.222 138.774 202.222 138.774 203.102 138.775C205.192 139.225 205.99 140.094 207.297 141.755C207.628 144.071 207.628 144.071 207.297 146.387C205.99 148.048 205.192 148.917 203.102 149.367C202.24 149.368 202.24 149.368 201.36 149.37C200.698 149.377 200.036 149.385 199.353 149.392C198.631 149.387 197.908 149.381 197.164 149.376C196.017 149.383 196.017 149.383 194.848 149.39C192.319 149.402 189.79 149.394 187.261 149.385C185.505 149.387 183.75 149.389 181.995 149.393C178.315 149.398 174.635 149.391 170.955 149.379C166.702 149.364 162.449 149.369 158.196 149.383C154.542 149.395 150.889 149.397 147.236 149.39C145.055 149.386 142.874 149.387 140.692 149.394C138.261 149.401 135.83 149.391 133.398 149.376C132.314 149.384 132.314 149.384 131.208 149.392C130.215 149.381 130.215 149.381 129.201 149.37C128.626 149.369 128.052 149.368 127.459 149.367C125.369 148.917 124.571 148.048 123.265 146.387C122.934 144.071 122.934 144.071 123.265 141.755C125.094 139.43 126.262 138.777 129.201 138.772Z" fill="currentColor"></path><path d="M102.712 238.016C103.379 238.012 104.046 238.007 104.734 238.002C106.941 237.991 109.148 237.998 111.355 238.007C112.887 238.006 114.42 238.003 115.953 238C119.166 237.996 122.378 238.001 125.591 238.014C129.712 238.029 133.832 238.02 137.953 238.004C141.118 237.995 144.283 237.998 147.448 238.005C148.968 238.006 150.487 238.004 152.007 237.998C154.13 237.991 156.252 238.002 158.375 238.016C159.319 238.008 159.319 238.008 160.283 238C164.516 238.055 164.516 238.055 166.663 239.559C168.041 241.694 167.951 243.154 167.597 245.637C166.663 247.084 166.663 247.084 164.95 248.284C162.761 248.682 160.595 248.645 158.375 248.626C157.707 248.631 157.04 248.636 156.352 248.64C154.145 248.652 151.939 248.644 149.731 248.635C148.199 248.637 146.666 248.64 145.133 248.643C141.921 248.647 138.708 248.641 135.495 248.629C131.374 248.614 127.254 248.623 123.133 248.638C119.968 248.648 116.803 248.645 113.638 248.638C112.118 248.636 110.599 248.638 109.079 248.645C106.956 248.651 104.834 248.641 102.712 248.626C102.082 248.632 101.452 248.637 100.803 248.643C96.5706 248.588 96.5706 248.588 94.4227 247.084C93.0453 244.948 93.1349 243.489 93.4896 241.005C95.7591 237.487 98.9285 237.984 102.712 238.016Z" fill="currentColor"></path><path d="M142.412 118.916C143.079 118.911 143.746 118.907 144.434 118.902C146.641 118.89 148.848 118.898 151.055 118.907C152.588 118.905 154.12 118.903 155.653 118.899C158.866 118.895 162.078 118.901 165.291 118.913C169.412 118.928 173.532 118.92 177.653 118.904C180.818 118.894 183.983 118.897 187.148 118.904C188.668 118.906 190.188 118.904 191.707 118.898C193.83 118.891 195.952 118.901 198.075 118.916C199.019 118.908 199.019 118.908 199.983 118.9C204.216 118.954 204.216 118.954 206.364 120.458C207.741 122.594 207.651 124.054 207.297 126.537C206.364 127.983 206.364 127.983 204.65 129.183C202.461 129.581 200.295 129.545 198.075 129.526C197.407 129.531 196.74 129.535 196.053 129.54C193.845 129.552 191.639 129.544 189.432 129.535C187.899 129.537 186.366 129.539 184.834 129.543C181.621 129.547 178.408 129.541 175.195 129.528C171.075 129.513 166.954 129.522 162.833 129.538C159.668 129.547 156.503 129.544 153.338 129.538C151.818 129.536 150.299 129.538 148.779 129.544C146.657 129.551 144.535 129.541 142.412 129.526C141.782 129.531 141.152 129.537 140.503 129.542C136.271 129.488 136.271 129.488 134.123 127.983C132.745 125.848 132.835 124.388 133.19 121.905C135.459 118.386 138.629 118.884 142.412 118.916Z" fill="currentColor"></path><path d="M261.554 224.05C264.249 224.612 265.222 225.574 266.847 227.772C267.26 229.757 267.26 229.757 266.847 231.742C265.222 233.941 264.249 234.902 261.554 235.464C258.858 234.902 257.885 233.941 256.26 231.742C255.847 229.757 255.847 229.757 256.26 227.772C257.885 225.574 258.858 224.612 261.554 224.05Z" fill="currentColor"></path><path d="M241.703 224.05C244.399 224.612 245.372 225.574 246.997 227.772C247.41 229.757 247.41 229.757 246.997 231.742C245.372 233.941 244.399 234.902 241.703 235.464C239.008 234.902 238.035 233.941 236.41 231.742C235.997 229.757 235.997 229.757 236.41 227.772C238.035 225.574 239.008 224.612 241.703 224.05Z" fill="currentColor"></path><path d="M221.853 224.05C224.549 224.612 225.522 225.574 227.147 227.772C227.56 229.757 227.56 229.757 227.147 231.742C225.522 233.941 224.549 234.902 221.853 235.464C219.158 234.902 218.185 233.941 216.56 231.742C216.146 229.757 216.146 229.757 216.56 227.772C218.185 225.574 219.158 224.612 221.853 224.05Z" fill="currentColor"></path><path d="M78.9329 104.95C81.6288 105.511 82.6012 106.473 84.2262 108.672C84.6398 110.657 84.6398 110.657 84.2262 112.642C82.6012 114.84 81.6288 115.802 78.9329 116.364C76.237 115.802 75.2646 114.84 73.6395 112.642C73.226 110.657 73.226 110.657 73.6395 108.672C75.2646 106.473 76.237 105.511 78.9329 104.95Z" fill="currentColor"></path><path d="M59.0828 104.95C61.7787 105.511 62.7512 106.473 64.3762 108.672C64.7897 110.657 64.7897 110.657 64.3762 112.642C62.7512 114.84 61.7787 115.802 59.0828 116.364C56.387 115.802 55.4145 114.84 53.7895 112.642C53.3759 110.657 53.3759 110.657 53.7895 108.672C55.4145 106.473 56.387 105.511 59.0828 104.95Z" fill="currentColor"></path><path d="M39.2327 104.95C41.9286 105.511 42.9011 106.473 44.5261 108.672C44.9396 110.657 44.9396 110.657 44.5261 112.642C42.9011 114.84 41.9286 115.802 39.2327 116.364C36.5369 115.802 35.5644 114.84 33.9394 112.642C33.5259 110.657 33.5259 110.657 33.9394 108.672C35.5644 106.473 36.5369 105.511 39.2327 104.95Z" fill="currentColor"></path><path d="M153.04 18.023C155.025 19.3464 155.025 19.3464 155.645 21.869C155.821 23.9689 155.685 24.6433 154.735 26.6247C152.694 28.2181 151.542 28.4017 149.008 28.222C147.746 27.9481 147.746 27.9481 146.092 26.9142C144.724 24.6901 144.779 23.2373 145.1 20.6697C147.059 17.1239 149.33 17.1728 153.04 18.023Z" fill="currentColor"></path></svg>