<svg xmlns="http://www.w3.org/2000/svg" width="512" height="512" viewBox="0 0 512 512" fill="none"><g clip-path="url(#clip0_233_10429)"><path d="M469.91 27.3467C487.304 42.0624 499.562 60.1154 506.875 81.6866C507.161 82.5291 507.448 83.3716 507.743 84.2396C517.185 113.565 513.344 146.605 500 173.999C495.439 182.655 490.093 190.523 483.301 197.593C481.396 199.585 479.596 201.611 477.8 203.698C474.311 207.694 470.66 211.481 466.903 215.225C466.232 215.898 465.562 216.571 464.87 217.263C462.68 219.458 460.487 221.648 458.293 223.839C456.761 225.372 455.228 226.905 453.696 228.438C450.5 231.636 447.302 234.833 444.102 238.028C439.995 242.129 435.892 246.235 431.791 250.342C428.635 253.502 425.477 256.659 422.318 259.815C420.803 261.329 419.289 262.844 417.776 264.359C415.67 266.468 413.56 268.574 411.45 270.679C410.823 271.308 410.196 271.937 409.55 272.585C404.198 277.91 404.198 277.91 399.625 278.249C396 277.999 396 277.999 393.625 276.937C391.154 273.99 391 271.805 391 267.999C393.988 262.632 398.148 258.598 402.503 254.316C403.253 253.571 404.003 252.825 404.776 252.057C406.4 250.444 408.026 248.834 409.654 247.225C412.237 244.673 414.812 242.114 417.386 239.553C424.703 232.276 432.033 225.011 439.367 217.749C443.858 213.301 448.342 208.845 452.821 204.384C454.524 202.693 456.229 201.004 457.937 199.318C460.334 196.952 462.722 194.577 465.109 192.199C465.807 191.515 466.505 190.831 467.224 190.127C487.102 170.211 495.298 144.17 495.315 116.591C495.021 90.4878 485.044 68.5615 468 48.9991C467.46 48.3739 466.92 47.7487 466.363 47.1046C450.609 30.1602 426.024 19.4206 403.115 17.7943C400.156 17.6968 397.21 17.6698 394.25 17.6866C393.199 17.6922 392.147 17.6979 391.064 17.7037C382.694 17.8336 375.078 18.6634 367 20.9991C365.994 21.2891 365.994 21.2891 364.968 21.585C342.817 28.1711 326.776 41.895 310.746 57.9874C309.511 59.2207 308.276 60.4538 307.041 61.6866C304.476 64.2492 301.914 66.8153 299.354 69.3841C296.076 72.6738 292.789 75.9544 289.499 79.2324C286.957 81.7672 284.42 84.3068 281.884 86.8478C280.673 88.0601 279.46 89.271 278.246 90.4803C276.557 92.1645 274.874 93.8549 273.193 95.5472C272.694 96.0423 272.195 96.5374 271.681 97.0476C268.277 100.493 266.255 103.048 265.625 107.874C266.105 111.871 267.467 113.904 270 116.999C273.435 119.605 276.812 119.557 281 118.999C288.319 114.977 294.089 108.117 299.881 102.208C301.681 100.372 303.488 98.5446 305.298 96.7187C310.437 91.5308 315.565 86.3317 320.684 81.1234C323.829 77.9241 326.984 74.7351 330.146 71.5518C331.338 70.3473 332.526 69.1391 333.711 67.9268C349.527 51.7398 368.094 41.253 391.159 40.5237C411.416 40.348 430.791 46.1054 446 59.9991C446.83 60.7493 447.66 61.4996 448.516 62.2725C463.643 76.6296 471.846 95.3553 472.403 116.067C472.554 130.495 470.551 142.163 464.313 155.249C463.878 156.17 463.878 156.17 463.434 157.109C457.733 168.226 448.187 177.112 439.444 185.845C438.311 186.985 437.178 188.124 436.046 189.264C432.999 192.329 429.945 195.387 426.89 198.444C424.975 200.361 423.061 202.279 421.147 204.198C414.452 210.911 407.752 217.619 401.047 224.322C394.828 230.541 388.62 236.77 382.417 243.005C377.063 248.385 371.701 253.757 366.334 259.123C363.14 262.316 359.95 265.512 356.767 268.716C353.772 271.731 350.767 274.736 347.755 277.733C346.66 278.826 345.569 279.922 344.482 281.021C334.435 291.174 323.584 300.006 310 304.999C308.964 305.391 307.927 305.783 306.859 306.187C287.356 312.484 264.897 310.602 246.563 301.687C240.142 298.272 234.429 294.338 229.215 289.261C225.412 285.631 222.48 284.019 217.148 283.765C213.569 284.155 211.597 285.592 209 287.999C207.159 290.961 207.003 292.819 206.938 296.312C209.815 306.299 220.267 313.08 228.882 318.095C253.632 331.701 281.543 337.102 309.14 329.474C331.813 322.617 348.222 309.021 364.555 292.408C365.216 291.738 365.877 291.068 366.559 290.378C367.15 289.775 367.741 289.173 368.349 288.552C371.065 285.997 372.692 285.033 376.438 284.624C380 284.999 380 284.999 382.375 286.624C384.415 289.606 385 291.374 385 294.999C381.902 300.513 377.59 304.756 373.125 309.187C372.37 309.936 371.615 310.686 370.836 311.458C345.829 335.935 315.607 350.157 280.168 350.034C248.786 349.285 218.696 336.858 196.809 314.167C190.773 306.932 189.297 299.164 190 289.999C191.272 282.393 195.306 277.064 201 271.999C208.231 267.253 215.461 266.226 224 266.999C231.385 268.648 235.863 272.494 241.231 277.616C248.493 283.865 257.68 288.757 267 290.999C267.704 291.178 268.408 291.357 269.133 291.542C285.91 294.216 303.103 292.083 317.195 282.151C326.54 274.982 334.848 266.303 343.165 257.995C344.22 256.945 345.274 255.896 346.329 254.847C349.153 252.035 351.974 249.22 354.795 246.405C356.563 244.639 358.332 242.874 360.102 241.109C365.657 235.567 371.211 230.023 376.762 224.476C383.135 218.108 389.514 211.746 395.899 205.39C400.863 200.448 405.82 195.5 410.774 190.548C413.721 187.602 416.67 184.659 419.626 181.721C422.403 178.961 425.172 176.193 427.936 173.42C428.945 172.411 429.956 171.404 430.971 170.4C438.836 162.607 445.706 154.598 450.313 144.437C450.783 143.425 451.254 142.413 451.738 141.37C457.751 125.305 456.367 107.718 449.785 92.1202C442.059 76.3774 428.301 65.7234 412 59.9991C411.298 59.7516 410.595 59.5041 409.871 59.2491C394.097 54.8039 376.754 58.2853 362.632 65.7885C359.131 67.8157 356.266 70.227 353.307 72.9979C352.795 73.4755 352.284 73.9531 351.758 74.4453C346.593 79.3083 341.608 84.3481 336.653 89.4237C333.913 92.2264 331.156 95.0124 328.402 97.8018C324.939 101.314 321.48 104.83 318.036 108.361C315.215 111.253 312.379 114.13 309.533 116.997C308.465 118.078 307.403 119.164 306.347 120.256C298.124 128.751 289.719 136.016 277.375 136.624C268.019 136.11 261.054 133.224 254.695 126.261C249.375 119.163 248.001 111.713 249 102.999C251.05 89.9115 264.676 80.1383 273.637 71.1241C274.229 70.5279 274.821 69.9317 275.431 69.3175C278.563 66.1648 281.698 63.0153 284.836 59.8682C288.037 56.6563 291.226 53.4329 294.412 50.2068C296.901 47.6912 299.399 45.1848 301.9 42.6807C303.078 41.4978 304.253 40.3116 305.424 39.1217C349.562 -5.6809 420.083 -13.3587 469.91 27.3467Z" fill="currentColor"></path><path d="M310.668 193.356C316.885 199.248 321.415 205.488 322.203 214.262C322.395 224.218 320.099 230.762 313.191 238.051C306.671 243.851 299.468 245.402 290.933 245.266C282.163 244.472 276.959 240.291 270.769 234.383C263.507 228.135 254.32 223.242 245 221C244.296 220.821 243.592 220.642 242.867 220.457C226.09 217.783 208.897 219.916 194.805 229.848C185.46 237.017 177.152 245.696 168.834 254.005C167.78 255.054 166.726 256.104 165.671 257.153C162.847 259.964 160.025 262.779 157.205 265.595C155.437 267.36 153.667 269.125 151.898 270.89C146.342 276.432 140.789 281.977 135.238 287.523C128.865 293.892 122.486 300.253 116.101 306.61C111.137 311.552 106.179 316.499 101.226 321.451C98.2789 324.397 95.3297 327.341 92.3742 330.278C89.5973 333.039 86.8277 335.806 84.0633 338.579C83.0546 339.589 82.0433 340.596 81.0292 341.6C66.2021 356.29 56.8306 371.636 56.5623 392.875C56.6686 410.416 62.87 424.734 75.1443 437.27C87.6765 449.254 102.755 454.415 119.901 454.299C134.478 453.905 147.984 449.016 158.689 439.002C159.201 438.524 159.712 438.046 160.239 437.554C165.406 432.692 170.391 427.652 175.347 422.576C178.087 419.773 180.844 416.987 183.597 414.198C187.061 410.686 190.52 407.17 193.964 403.638C196.785 400.746 199.621 397.87 202.467 395.003C203.535 393.922 204.597 392.836 205.653 391.744C213.876 383.248 222.281 375.983 234.625 375.375C243.921 375.886 250.967 378.753 257.304 385.668C262.341 392.596 264.07 400.572 263 409C260.883 422.107 247.349 431.836 238.363 440.875C237.771 441.472 237.179 442.068 236.569 442.682C233.437 445.835 230.302 448.984 227.164 452.131C223.963 455.343 220.774 458.567 217.588 461.793C215.099 464.308 212.6 466.815 210.1 469.319C208.922 470.502 207.747 471.688 206.576 472.878C182.366 497.453 152.99 511.104 118.25 511.438C85.4265 511.298 56.3014 499.167 32.8123 476.25C19.9542 463.241 10.9714 447.558 5.12476 430.313C4.69514 429.049 4.69514 429.049 4.25684 427.76C-5.20265 398.38 -1.2926 365.453 11.9998 338C16.3494 329.586 21.7012 322.059 27.9338 314.941C28.4954 314.297 29.057 313.653 29.6356 312.99C35.9496 305.821 42.6263 299.027 49.367 292.262C50.6993 290.921 52.0316 289.579 53.3638 288.238C56.1249 285.461 58.8902 282.687 61.658 279.917C65.1969 276.372 68.7193 272.812 72.2382 269.248C74.9698 266.486 77.7127 263.736 80.4587 260.989C81.7633 259.68 83.0639 258.368 84.3601 257.05C86.1657 255.218 87.9864 253.402 89.8118 251.589C90.3366 251.049 90.8614 250.51 91.4021 249.954C94.9967 246.429 98.0592 244.913 103 244C106.902 244.954 107.729 245.595 110 249C110.59 253.425 109.805 255.746 107.276 259.366C104.928 262.373 102.228 265.006 99.5064 267.673C98.8635 268.312 98.2207 268.95 97.5584 269.608C96.1687 270.986 94.7767 272.363 93.3827 273.737C91.1699 275.92 88.9641 278.109 86.76 280.3C80.494 286.526 74.2155 292.74 67.9336 298.95C64.0841 302.757 60.2421 306.571 56.4044 310.389C54.9478 311.835 53.4883 313.278 52.0257 314.718C41.0213 325.528 41.0213 325.528 31.9998 338C31.6102 338.633 31.2207 339.265 30.8194 339.916C17.4541 362.425 12.422 390.486 18.5623 416.188C23.3382 434.092 31.8477 449.053 43.9998 463C44.8099 463.938 44.8099 463.938 45.6365 464.895C61.0923 481.519 85.9416 493.021 108.559 494.125C139.888 494.985 167.175 486.645 190.345 464.931C193.839 461.572 197.255 458.137 200.668 454.696C201.922 453.441 203.176 452.187 204.431 450.934C207.034 448.331 209.631 445.724 212.224 443.113C215.545 439.769 218.877 436.436 222.213 433.106C224.793 430.53 227.368 427.948 229.942 425.365C231.17 424.133 232.399 422.903 233.629 421.674C235.34 419.964 237.044 418.247 238.747 416.528C239.252 416.025 239.757 415.522 240.278 415.004C243.693 411.537 245.742 408.975 246.375 404.125C245.895 400.129 244.532 398.096 242 395C238.565 392.395 235.188 392.442 231 393C223.696 397.014 217.951 403.857 212.18 409.761C210.388 411.593 208.589 413.417 206.787 415.239C201.668 420.414 196.56 425.6 191.467 430.801C188.337 433.996 185.194 437.178 182.044 440.353C180.858 441.553 179.677 442.757 178.501 443.967C162.654 460.259 143.803 470.734 120.597 471.354C97.7908 471.543 78.3486 464.035 61.9998 448C61.2366 447.273 60.4735 446.546 59.6873 445.797C44.3639 430.155 39.3298 410.458 39.5308 389.151C39.8769 377.32 42.5977 367.426 47.6873 356.75C48.1223 355.83 48.1223 355.83 48.5662 354.891C54.2668 343.774 63.8133 334.887 72.5554 326.154C73.6888 325.015 74.8217 323.875 75.9542 322.735C79.0013 319.671 82.0547 316.612 85.1099 313.556C87.0253 311.639 88.9393 309.721 90.8528 307.802C97.5476 301.089 104.248 294.38 110.952 287.677C117.172 281.459 123.38 275.23 129.583 268.995C134.937 263.615 140.298 258.243 145.666 252.877C148.859 249.684 152.05 246.488 155.232 243.284C158.228 240.269 161.233 237.264 164.245 234.266C165.34 233.174 166.431 232.078 167.518 230.978C177.565 220.826 188.416 211.994 202 207C203.554 206.413 203.554 206.413 205.14 205.813C224.644 199.516 247.103 201.397 265.437 210.313C271.857 213.727 277.571 217.661 282.785 222.739C286.588 226.368 289.52 227.98 294.851 228.235C298.43 227.844 300.403 226.407 303 224C304.841 221.038 304.996 219.181 305.062 215.688C302.184 205.7 291.733 198.92 283.117 193.905C256.556 179.302 228.059 175.253 198.816 183.688C194.578 185.083 190.499 186.782 186.437 188.625C185.802 188.907 185.166 189.189 184.511 189.479C169.53 196.652 158.281 208.246 146.875 220C144.66 222.271 142.442 224.537 140.219 226.799C138.849 228.193 137.484 229.593 136.125 230.999C135.51 231.627 134.895 232.255 134.261 232.903C133.726 233.454 133.191 234.006 132.639 234.574C129.498 237.307 127.644 238.034 123.437 237.813C120 237 120 237 118.062 235.938C116.244 232.622 116.118 229.586 117 226C118.186 224.245 118.186 224.245 119.816 222.469C120.452 221.775 121.088 221.082 121.744 220.367C148.818 191.965 148.818 191.965 162 183C162.574 182.609 163.148 182.218 163.74 181.814C209.514 151.137 269.992 157.444 310.668 193.356Z" fill="currentColor"></path><path d="M464 248C467.04 250.458 468.786 251.971 469.594 255.855C469.48 259.916 469.317 263.949 469 268C468.928 268.936 468.855 269.873 468.781 270.837C464.755 318.628 446.763 363.297 414.086 398.726C412.148 400.839 410.29 403 408.438 405.187C404.932 409.196 401.069 412.577 397 416C396.053 416.835 395.105 417.67 394.129 418.531C359.406 448.974 313.864 466.211 268 469C266.895 469.076 266.895 469.076 265.767 469.153C263.699 469.283 261.634 469.37 259.563 469.437C258.409 469.477 257.255 469.517 256.067 469.558C252.005 468.819 250.54 467.179 248 464C247.295 460.24 247.611 458.64 249.597 455.373C252.763 452.247 254.618 452.268 259.02 452.031C259.707 451.985 260.393 451.94 261.101 451.893C262.573 451.795 264.045 451.707 265.518 451.628C269.391 451.412 273.256 451.107 277.121 450.797C277.889 450.736 278.657 450.674 279.448 450.611C296.634 449.165 313.019 444.324 329 438C330.134 437.554 330.134 437.554 331.291 437.098C349.469 429.808 366.09 419.675 381 407C381.854 406.275 382.707 405.551 383.586 404.805C386.113 402.589 388.565 400.316 391 398C391.536 397.491 392.073 396.982 392.625 396.457C410.254 379.611 423.785 360.136 434 338C434.799 336.294 434.799 336.294 435.614 334.555C443.729 316.477 449.206 297.149 450.735 277.383C450.795 276.62 450.855 275.857 450.917 275.071C451.216 271.207 451.481 267.345 451.698 263.476C451.797 262.037 451.896 260.599 451.996 259.16C452.107 257.236 452.107 257.236 452.221 255.274C453 252 453 252 455.375 249.587C458.642 247.612 460.246 247.296 464 248Z" fill="currentColor"></path><path d="M185.375 59.0622C187.779 61.9281 187.871 64.3191 188 67.9997C187.117 70.419 186.468 71.6795 184.329 73.1423C183.356 73.5822 183.356 73.5822 182.363 74.031C181.647 74.3623 180.931 74.6936 180.194 75.0349C179.47 75.3533 178.746 75.6717 178 75.9997C177.36 76.2872 176.72 76.5747 176.06 76.8708C174.78 77.4441 173.5 78.0152 172.219 78.5845C155.141 86.2804 140.093 96.732 126 109C125.426 109.499 124.852 109.999 124.261 110.513C86.1012 144.023 64.1159 192.579 60.1411 242.813C60 244.999 59.9105 247.181 59.8398 249.371C59.8125 250.059 59.7851 250.746 59.7568 251.455C59.6923 253.301 59.6631 255.149 59.6367 256.996C59 260 59 260 56.6445 262.375C53.3676 264.388 51.7806 264.709 48 264C44.8206 261.46 43.1813 259.995 42.4414 255.933C42.4814 254.78 42.5213 253.626 42.5625 252.437C42.5835 251.789 42.6046 251.142 42.6262 250.474C42.7144 248.312 42.8518 246.158 43 244C43.0454 243.252 43.0909 242.505 43.1377 241.735C46.8239 185.205 73.3409 132.181 115.758 94.7458C130.804 81.8257 147.41 71.5267 165.188 62.8122C166.64 62.089 166.64 62.089 168.121 61.3511C174.014 58.5451 179.032 56.2246 185.375 59.0622Z" fill="currentColor"></path><path d="M246.267 42.844C248.156 42.7337 250.047 42.6775 251.938 42.625C253.163 42.576 254.389 42.527 255.652 42.4766C259.94 43.147 261.352 44.6375 264 48C264.625 51 264.625 51 264 54C261.755 57.3062 260.395 58.7055 256.442 59.54C253.23 59.8416 250.037 60.0056 246.812 60.125C244.467 60.2539 242.122 60.3894 239.777 60.5312C238.626 60.6009 237.475 60.6705 236.289 60.7422C231.053 61.1526 225.933 62.0243 220.784 63.0356C209.111 65.2669 209.111 65.2669 204.5 62.5C202.703 59.5058 202.485 57.431 202.371 54C203.424 50.6513 204.98 49.7878 208 48C211.81 46.96 215.657 46.3813 219.562 45.8125C220.584 45.6481 221.606 45.4838 222.658 45.3145C230.506 44.0915 238.348 43.3889 246.267 42.844Z" fill="currentColor"></path><path d="M441.812 440.25C446.761 441.414 449.454 444.479 453 448C453.974 448.948 454.948 449.896 455.922 450.844C464.809 459.567 464.809 459.567 465.375 463.812C465 467 465 467 462.875 469.875C460 472 460 472 457.188 472.75C452.239 471.586 449.546 468.521 446 465C445.026 464.052 444.052 463.104 443.078 462.156C434.191 453.433 434.191 453.433 433.625 449.188C434 446 434 446 436.125 443.125C439 441 439 441 441.812 440.25Z" fill="currentColor"></path><path d="M47.8125 46.25C52.7615 47.4145 55.4545 50.4786 59 54C59.9737 54.9482 60.9477 55.8961 61.9219 56.8438C70.809 65.5674 70.809 65.5674 71.375 69.8125C71 73 71 73 68.875 75.875C66 78 66 78 63.1875 78.75C58.2385 77.5855 55.5455 74.5214 52 71C51.0263 70.0518 50.0523 69.1039 49.0781 68.1562C40.191 59.4326 40.191 59.4326 39.625 55.1875C40 52 40 52 42.125 49.125C45 47 45 47 47.8125 46.25Z" fill="currentColor"></path><path d="M405 469C409.261 473.226 410.892 478.329 412.813 483.875C413.299 485.184 413.299 485.184 413.795 486.519C415.659 491.827 416.469 495.519 415 501C412.635 503.82 411.172 503.978 407.5 504.437C403.224 503.903 402.617 503.357 400 500C398.514 496.806 397.377 493.522 396.25 490.187C395.934 489.31 395.619 488.433 395.293 487.529C393.573 482.55 392.495 478.339 393 473C395.891 467.768 399.487 467.425 405 469Z" fill="currentColor"></path><path d="M30.6875 100.25C31.5286 100.538 32.3697 100.825 33.2363 101.121C38.0806 102.881 41.3395 104.324 44 109C44 112.779 43.8329 115.007 41.375 117.938C34.7783 120.889 28.1703 118.039 21.8125 115.75C20.9237 115.45 20.0349 115.149 19.1191 114.84C10.7742 111.893 10.7742 111.893 7.99999 108C7.5308 104.247 7.46863 101.962 9.31249 98.6251C15.0264 93.1228 24.2978 97.9167 30.6875 100.25Z" fill="currentColor"></path><path d="M484.875 399.938C486 400.317 486 400.317 487.147 400.703C487.859 400.955 488.571 401.206 489.305 401.465C489.944 401.688 490.583 401.911 491.242 402.14C493.294 403.144 494.533 404.256 496 406C496.398 408.156 496.398 408.156 496.375 410.5C496.387 411.66 496.387 411.66 496.398 412.844C495.899 415.545 495.121 416.296 493 418C486.445 419.393 480.229 417.098 474.187 414.75C473.355 414.45 472.523 414.149 471.666 413.84C467.353 412.214 463.81 410.837 461 407C460.531 403.247 460.469 400.962 462.312 397.625C468.021 392.128 478.37 397.703 484.875 399.938Z" fill="currentColor"></path><path d="M101.5 15.625C102.274 15.6173 103.047 15.6095 103.844 15.6016C106.577 16.1067 107.232 16.8775 109 19C110.696 22.6634 111.933 26.4989 113.25 30.3125C113.626 31.3457 114.003 32.3789 114.391 33.4434C114.741 34.4482 115.092 35.453 115.453 36.4883C115.775 37.4013 116.096 38.3144 116.427 39.2551C117.104 42.4989 116.806 44.8008 116 48C113.61 50.7581 112.148 50.9816 108.5 51.4375C104.239 50.9049 103.627 50.3193 101 47C99.5224 44.0154 98.3799 40.9427 97.2501 37.8125C96.9343 36.9997 96.6184 36.187 96.293 35.3496C94.3515 30.067 92.802 24.6392 94.0001 19C96.3359 16.0926 97.7857 15.5879 101.5 15.625Z" fill="currentColor"></path></g></svg>