<svg xmlns="http://www.w3.org/2000/svg" width="512" height="512" viewBox="0 0 512 512" fill="none"><path d="M180.673 95.613C181.678 95.605 181.678 95.605 182.703 95.5967C184.945 95.5824 187.187 95.5896 189.429 95.5967C191.038 95.591 192.646 95.584 194.254 95.5759C198.622 95.5579 202.989 95.5591 207.357 95.5648C211.003 95.5679 214.649 95.5618 218.294 95.5558C226.895 95.5417 235.495 95.5433 244.095 95.5547C252.969 95.5662 261.843 95.5521 270.717 95.5253C278.335 95.5031 285.953 95.4965 293.571 95.5024C298.121 95.5057 302.671 95.5033 307.221 95.4861C311.5 95.4707 315.779 95.4746 320.058 95.4934C321.628 95.4971 323.198 95.494 324.768 95.4835C326.913 95.4703 329.055 95.4818 331.2 95.4995C332.399 95.4997 333.599 95.4999 334.835 95.5002C339.342 96.213 341.749 98.3864 344.495 101.929C344.901 102.596 345.308 103.263 345.727 103.95C346.195 104.706 346.663 105.463 347.146 106.242C347.634 107.049 348.122 107.857 348.625 108.688C349.692 110.415 350.76 112.142 351.828 113.868C352.361 114.734 352.894 115.6 353.443 116.492C355.702 120.133 358.034 123.724 360.375 127.313C364.786 134.103 369.152 140.921 373.5 147.751C374.1 148.692 374.7 149.634 375.318 150.604C375.883 151.493 376.449 152.382 377.031 153.298C377.782 154.479 377.782 154.479 378.549 155.683C379.028 156.448 379.507 157.213 380 158.001C380.557 158.861 381.113 159.721 381.687 160.607C383 163.001 383 163.001 382.977 166.009C381.778 169.681 380.205 171.268 377.375 173.876C374.45 176.603 371.681 179.333 369.102 182.384C362.515 190.013 355.119 196.933 347.961 204.019C339.48 212.274 339.48 212.274 331.5 221.001C325.18 228.465 317.906 235.144 310.961 242.019C308.972 243.99 306.986 245.964 305 247.938C304.402 248.528 303.804 249.118 303.188 249.726C299.546 253.346 296.133 257.101 292.775 260.985C287.8 266.634 282.421 271.926 277.13 277.276C275.66 278.767 274.197 280.265 272.74 281.768C270.621 283.954 268.483 286.12 266.34 288.282C265.693 288.957 265.046 289.632 264.379 290.327C263.453 291.249 263.453 291.249 262.508 292.19C261.974 292.735 261.439 293.279 260.889 293.84C258.113 295.546 256.195 295.412 253 295.001C250.845 293.574 250.845 293.574 248.85 291.548C248.092 290.793 247.334 290.038 246.554 289.26C245.753 288.432 244.953 287.604 244.129 286.751C243.288 285.904 242.448 285.057 241.582 284.185C238.894 281.471 236.229 278.736 233.562 276.001C231.772 274.188 229.979 272.377 228.186 270.567C221.51 263.807 214.873 257.072 208.662 249.879C205.975 246.843 203.106 244.002 200.219 241.157C199.602 240.544 198.984 239.93 198.349 239.298C196.401 237.363 194.451 235.432 192.5 233.501C178.12 219.271 178.12 219.271 174.531 215.032C168.81 208.283 162.283 202.22 156 196.001C140.169 180.329 140.169 180.329 135.297 174.529C134.387 173.457 133.435 172.421 132.453 171.414C131 169.876 131 169.876 129 167.001C129.292 162.503 130.582 159.556 133.035 155.825C133.672 154.844 134.309 153.863 134.965 152.853C135.657 151.809 136.349 150.764 137.062 149.688C138.149 148.021 139.236 146.354 140.322 144.686C141.453 142.952 142.588 141.22 143.723 139.489C147.366 133.921 150.927 128.301 154.5 122.688C156.987 118.784 159.487 114.889 162 111.001C162.695 109.915 163.39 108.829 164.105 107.71C164.803 106.637 165.5 105.564 166.219 104.458C166.847 103.484 167.476 102.511 168.123 101.508C171.841 96.5413 174.48 95.6256 180.673 95.613ZM188 109.001C191.239 114.831 194.475 120.45 198.125 126.001C199.085 127.468 200.045 128.935 201.004 130.403C201.494 131.152 201.984 131.901 202.489 132.672C204.041 135.063 205.568 137.469 207.09 139.88C207.837 141.056 207.837 141.056 208.599 142.257C209.562 143.774 210.519 145.295 211.471 146.819C212.595 148.581 213.791 150.297 215 152.001C215.66 152.001 216.32 152.001 217 152.001C218.405 150.228 218.405 150.228 219.801 147.891C220.36 147 220.919 146.109 221.496 145.191C222.095 144.221 222.695 143.25 223.312 142.251C224.571 140.241 225.83 138.232 227.09 136.223C227.734 135.194 228.379 134.164 229.042 133.103C232.652 127.383 236.37 121.735 240.087 116.086C240.86 114.905 240.86 114.905 241.648 113.7C242.332 112.661 242.332 112.661 243.029 111.601C244.086 110.17 244.086 110.17 244 109.001C225.52 109.001 207.04 109.001 188 109.001ZM268 109.001C272.371 116.495 276.737 123.836 281.5 131.063C282.629 132.788 283.758 134.513 284.887 136.239C285.421 137.055 285.955 137.87 286.505 138.71C289.379 143.114 292.195 147.553 295 152.001C298.401 150.867 298.626 150.441 300.348 147.493C300.783 146.761 301.219 146.028 301.667 145.274C302.128 144.483 302.588 143.691 303.062 142.876C307.043 136.182 311.146 129.628 315.563 123.213C318.719 118.581 321.239 113.971 324 109.001C305.52 109.001 287.04 109.001 268 109.001ZM336 115.001C334.598 116.957 333.259 118.928 331.938 120.938C331.512 121.581 331.087 122.224 330.648 122.887C326.214 129.621 321.855 136.403 317.5 143.188C316.794 144.287 316.087 145.386 315.359 146.518C314.694 147.558 314.029 148.597 313.344 149.669C312.449 151.065 312.449 151.065 311.537 152.49C309.83 155.198 309.83 155.198 308 159.001C326.48 159.001 344.96 159.001 364 159.001C360.789 152.497 360.789 152.497 357.117 146.407C356.594 145.611 356.071 144.816 355.532 143.996C354.985 143.172 354.438 142.349 353.875 141.501C349.13 134.293 344.477 127.042 339.984 119.675C339.015 118.101 338.011 116.548 337 115.001C336.67 115.001 336.34 115.001 336 115.001ZM175 116.001C173.486 118.01 172.11 120.014 170.75 122.126C170.323 122.778 169.896 123.43 169.457 124.102C167.962 126.396 166.48 128.698 165 131.001C164.114 132.373 164.114 132.373 163.209 133.774C161.322 136.7 159.441 139.631 157.562 142.563C156.658 143.972 156.658 143.972 155.735 145.409C155.164 146.307 154.593 147.205 154.004 148.13C153.497 148.924 152.99 149.719 152.467 150.538C150.835 153.278 149.427 156.148 148 159.001C166.48 159.001 184.96 159.001 204 159.001C200.149 151.991 200.149 151.991 195.984 145.239C195.459 144.436 194.935 143.633 194.394 142.806C193.851 141.984 193.309 141.161 192.75 140.313C191.602 138.565 190.455 136.816 189.309 135.067C188.469 133.787 188.469 133.787 187.613 132.482C186.128 130.197 184.668 127.9 183.223 125.591C182.811 124.936 182.4 124.281 181.976 123.607C180.881 121.861 179.794 120.111 178.707 118.36C178.144 117.582 177.58 116.803 177 116.001C176.34 116.001 175.68 116.001 175 116.001ZM255 116.001C253.711 117.545 253.711 117.545 252.453 119.602C251.944 120.393 251.435 121.183 250.911 121.998C250.363 122.865 249.815 123.732 249.25 124.626C248.685 125.509 248.119 126.393 247.536 127.303C246.323 129.2 245.114 131.099 243.907 133C241.956 136.07 239.993 139.132 238.027 142.192C236.747 144.191 235.467 146.189 234.188 148.188C233.571 149.15 232.955 150.112 232.319 151.103C231.754 151.991 231.188 152.879 230.605 153.794C230.102 154.583 229.598 155.372 229.079 156.185C227.915 157.792 227.915 157.792 228 159.001C246.48 159.001 264.96 159.001 284 159.001C278.953 149.71 278.953 149.71 273.312 140.876C270.476 136.707 267.679 132.523 264.98 128.262C264.483 127.48 263.986 126.697 263.473 125.89C262.503 124.358 261.538 122.822 260.579 121.283C259.438 119.488 258.226 117.739 257 116.001C256.34 116.001 255.68 116.001 255 116.001ZM152 172.001C155.564 176.246 159.202 180.32 163.152 184.216C163.616 184.675 164.079 185.134 164.556 185.608C166.501 187.537 168.452 189.459 170.402 191.382C179.725 200.586 179.725 200.586 183.254 204.755C189.073 211.558 195.643 217.707 202 224.001C217.352 239.198 217.352 239.198 222.469 245.243C225.449 248.664 228.711 251.815 231.938 255.001C232.621 255.68 233.305 256.359 234.01 257.059C235.671 258.709 237.334 260.356 239 262.001C240.204 258.388 239.695 257.334 238.512 253.78C238.161 252.71 237.809 251.639 237.447 250.536C237.055 249.371 236.662 248.205 236.258 247.005C235.643 245.143 235.028 243.281 234.413 241.419C233.543 238.791 232.664 236.166 231.786 233.54C230.504 229.706 229.235 225.867 227.963 222.029C226.912 218.856 225.86 215.683 224.804 212.512C222.632 205.979 220.488 199.438 218.394 192.879C218.184 192.225 217.975 191.57 217.76 190.896C216.759 187.762 215.764 184.627 214.773 181.49C214.422 180.387 214.072 179.285 213.71 178.149C213.403 177.176 213.096 176.202 212.779 175.2C212.196 173.053 212.196 173.053 211 172.001C209.159 171.907 207.314 171.883 205.47 171.887C203.699 171.887 203.699 171.887 201.891 171.887C199.963 171.895 199.963 171.895 197.996 171.903C196.688 171.904 195.38 171.906 194.032 171.907C190.548 171.911 187.065 171.921 183.581 171.932C180.029 171.942 176.476 171.947 172.924 171.952C165.949 171.963 158.975 171.98 152 172.001ZM225 172.001C231.847 194.184 231.847 194.184 238.965 216.274C239.582 218.153 240.2 220.032 240.818 221.911C241.856 225.066 242.897 228.221 243.938 231.376C245.213 235.246 246.487 239.116 247.76 242.986C248.541 245.361 249.323 247.735 250.107 250.108C251.843 255.381 253.532 260.647 255 266.001C255.66 266.001 256.32 266.001 257 266.001C259.88 257.142 262.759 248.282 265.634 239.421C266.97 235.304 268.307 231.187 269.645 227.07C270.944 223.077 272.24 219.083 273.536 215.088C274.023 213.585 274.511 212.083 275 210.581C279.171 197.769 283.075 184.896 287 172.001C266.54 172.001 246.08 172.001 225 172.001ZM301 172.001C297.875 179.716 297.875 179.716 295.112 187.513C294.798 188.472 294.484 189.432 294.16 190.421C293.834 191.428 293.508 192.435 293.172 193.473C292.643 195.095 292.643 195.095 292.103 196.748C290.982 200.186 289.866 203.624 288.75 207.063C288.017 209.311 287.284 211.559 286.551 213.807C285.092 218.281 283.64 222.758 282.193 227.236C280.692 231.881 279.169 236.518 277.635 241.153C276.887 243.434 276.139 245.715 275.391 247.997C275.035 249.06 274.678 250.123 274.311 251.218C273.992 252.198 273.673 253.177 273.345 254.186C273.06 255.046 272.775 255.906 272.482 256.793C271.768 259.158 271.768 259.158 273 262.001C275.866 259.16 278.728 256.315 281.588 253.468C282.557 252.503 283.528 251.539 284.5 250.576C291.069 244.097 291.069 244.097 297.246 237.251C303.688 229.727 311.005 222.945 318.039 215.982C327.426 206.741 327.426 206.741 336.25 196.973C340.408 192.286 344.979 187.961 349.438 183.563C351.439 181.588 353.437 179.61 355.434 177.63C356.311 176.764 357.188 175.899 358.092 175.007C360.115 173.341 360.115 173.341 360 172.001C340.53 172.001 321.06 172.001 301 172.001Z" fill="currentColor"></path><path d="M471.605 137.851C478.867 143.923 483.452 150.59 485 160C485.094 162.247 485.135 164.497 485.14 166.746C485.143 167.412 485.146 168.077 485.149 168.763C485.158 170.986 485.16 173.209 485.161 175.432C485.166 177.029 485.171 178.626 485.176 180.223C485.189 184.558 485.196 188.893 485.2 193.228C485.203 195.94 485.207 198.652 485.212 201.365C485.225 209.862 485.235 218.359 485.239 226.856C485.243 236.643 485.261 246.431 485.29 256.218C485.311 263.796 485.321 271.374 485.323 278.953C485.324 283.472 485.33 287.992 485.348 292.512C485.364 296.769 485.366 301.026 485.357 305.284C485.357 306.838 485.361 308.393 485.371 309.947C485.558 341.016 466.906 359.851 446.305 380.785C444.621 382.483 442.936 384.18 441.25 385.875C440.458 386.672 439.665 387.469 438.849 388.29C434.06 393.065 429.147 397.614 424 402C423.398 402.518 422.796 403.036 422.176 403.57C420.433 405.071 418.686 406.567 416.937 408.062C416.364 408.553 415.791 409.043 415.201 409.549C414.628 410.039 414.055 410.529 413.465 411.035C412.619 411.78 412.619 411.78 411.757 412.539C410 414 410 414 408.043 415.284C404.714 417.609 403.222 418.973 402.339 423.047C402.09 426.047 401.966 428.99 402 432C403.324 431.96 403.324 431.96 404.674 431.92C407.964 431.835 411.252 431.772 414.543 431.725C415.964 431.7 417.385 431.666 418.805 431.622C420.854 431.562 422.9 431.533 424.949 431.511C426.18 431.485 427.41 431.459 428.678 431.432C432 432 432 432 434.903 433.759C438.141 438.764 437.676 443.505 437.594 449.343C437.594 450.545 437.594 451.747 437.594 452.985C437.588 455.524 437.571 458.062 437.542 460.601C437.5 464.486 437.501 468.369 437.508 472.254C437.497 474.721 437.484 477.189 437.469 479.656C437.468 480.818 437.468 481.979 437.468 483.176C437.452 484.26 437.436 485.345 437.42 486.463C437.411 487.413 437.403 488.364 437.394 489.344C436.904 492.644 436.072 494.376 434 497C431.156 497.623 431.156 497.623 427.623 497.621C426.973 497.628 426.324 497.634 425.654 497.641C423.473 497.656 421.293 497.635 419.111 497.615C417.549 497.618 415.987 497.624 414.425 497.632C410.179 497.646 405.934 497.629 401.688 497.605C397.249 497.585 392.81 497.591 388.371 497.594C380.916 497.594 373.461 497.574 366.006 497.542C357.382 497.505 348.757 497.496 340.133 497.503C331.843 497.509 323.554 497.499 315.265 497.479C311.734 497.471 308.203 497.468 304.672 497.47C300.515 497.471 296.359 497.456 292.202 497.43C290.675 497.423 289.147 497.421 287.62 497.425C285.538 497.428 283.458 497.414 281.377 497.394C280.211 497.39 279.045 497.387 277.844 497.383C275 497 275 497 273.126 495.636C271.449 493.198 271.611 491.228 271.596 488.291C271.583 487.119 271.57 485.948 271.557 484.741C271.56 483.476 271.563 482.21 271.566 480.906C271.561 479.608 271.556 478.31 271.55 476.972C271.541 474.225 271.544 471.478 271.554 468.731C271.565 465.21 271.545 461.69 271.516 458.169C271.493 454.81 271.5 451.452 271.504 448.093C271.487 446.195 271.487 446.195 271.47 444.258C271.479 443.087 271.488 441.915 271.498 440.709C271.498 439.676 271.498 438.644 271.499 437.58C272 435 272 435 273.583 433.175C276.863 431.58 279.53 431.563 283.172 431.488C284.195 431.461 284.195 431.461 285.24 431.434C287.41 431.38 289.579 431.346 291.75 431.312C293.225 431.279 294.7 431.245 296.176 431.209C299.784 431.124 303.391 431.057 307 431C307.056 430.242 307.112 429.485 307.169 428.705C307.706 421.47 308.249 414.236 308.8 407.002C309.083 403.286 309.363 399.569 309.637 395.852C311.737 367.407 311.737 367.407 313.527 355.332C313.641 354.561 313.755 353.789 313.872 352.995C316.774 334.998 327.875 322.506 340.437 310.25C341.639 309.059 342.841 307.868 344.041 306.675C349.332 301.44 354.659 296.305 360.32 291.467C363.016 289.112 365.502 286.562 368 284C371.805 280.142 375.664 276.471 379.816 272.984C381.646 271.321 383.332 269.624 385.027 267.828C392.154 260.305 398.239 254.107 409.187 253.625C413.009 254.001 416.331 254.901 420 256C420.798 244.375 421.188 232.743 421.5 221.097C421.531 219.953 421.531 219.953 421.562 218.786C421.733 212.397 421.899 206.008 422.062 199.619C422.185 194.828 422.31 190.038 422.44 185.247C422.498 183.035 422.553 180.822 422.607 178.609C423.313 151.511 423.313 151.511 431.965 141.793C442.822 131.894 459.15 129 471.605 137.851ZM440.187 152.5C432.998 162.134 435.452 180.384 435.183 191.718C435.122 194.027 435.06 196.335 434.997 198.643C434.835 204.695 434.681 210.746 434.53 216.798C434.287 226.482 434.032 236.166 433.773 245.849C433.685 249.212 433.602 252.576 433.519 255.939C433.376 261.627 433.201 267.313 433 273C432.959 274.271 432.918 275.543 432.875 276.853C432.354 286.554 429.105 292.551 422.203 299.222C421.651 299.772 421.098 300.321 420.529 300.887C418.778 302.621 417.014 304.342 415.25 306.062C414.082 307.218 412.916 308.375 411.75 309.533C406.494 314.732 401.2 319.84 395.574 324.642C394.234 325.798 392.95 327.018 391.68 328.25C386.781 333 386.781 333 382.562 333C380 332 380 332 379 331C378.079 324.322 378.079 324.322 380.281 321.16C382.621 318.815 385.151 316.713 387.686 314.583C393.84 309.333 399.524 303.627 405.23 297.9C406.955 296.17 408.685 294.445 410.416 292.72C411.516 291.62 412.615 290.519 413.715 289.418C414.231 288.903 414.748 288.389 415.28 287.858C418.676 284.44 419.911 283.084 420.312 278.187C420.266 275.005 419.994 273.989 418.312 271.125C414.998 268.079 412.692 267.037 408.187 266.937C401.428 269.19 396.651 275.292 391.754 280.277C390.041 281.959 388.269 283.511 386.437 285.062C382.422 288.514 378.721 292.239 375 296C370.815 300.228 366.609 304.31 362.066 308.156C357.159 312.535 352.62 317.322 348 322C343.409 326.631 343.409 326.631 341.226 328.597C325.31 343.155 325.355 363.558 323.875 383.562C323.705 385.762 323.535 387.962 323.363 390.162C322.975 395.161 322.595 400.161 322.224 405.161C322.071 407.095 321.904 409.027 321.724 410.958C321.632 411.95 321.54 412.942 321.446 413.964C321.361 414.836 321.276 415.707 321.188 416.605C320.904 421.729 321 426.868 321 432C343.44 432 365.88 432 389 432C389.33 426.39 389.66 420.78 390 415C392.086 411.486 392.963 410.319 396 408C396.799 407.335 397.598 406.669 398.422 405.984C400.266 404.46 402.125 402.952 403.996 401.461C408.148 398.059 412.054 394.43 415.98 390.773C418.148 388.758 420.369 386.822 422.617 384.898C427.746 380.426 432.554 375.632 437.363 370.822C438.926 369.261 440.497 367.708 442.068 366.156C448.493 359.768 454.433 353.165 460 346C460.492 345.367 460.984 344.734 461.491 344.082C462.649 342.556 463.764 340.998 464.875 339.437C465.594 338.446 466.313 337.455 467.055 336.433C472.349 327.089 472.438 317.618 472.404 307.136C472.41 305.553 472.417 303.97 472.425 302.387C472.443 298.115 472.441 293.842 472.436 289.57C472.433 285.994 472.439 282.418 472.445 278.841C472.459 270.403 472.457 261.964 472.446 253.526C472.434 244.837 472.449 236.148 472.475 227.46C472.497 219.981 472.504 212.502 472.498 205.023C472.495 200.564 472.497 196.106 472.514 191.647C472.53 187.455 472.526 183.264 472.507 179.072C472.503 177.539 472.507 176.006 472.517 174.473C472.671 162.644 472.671 162.644 468 152C463.288 147.556 458.624 145.615 452.121 145.722C447.131 146.375 443.85 149.244 440.187 152.5ZM285 445C285 458.2 285 471.4 285 485C330.87 485 376.74 485 424 485C424 471.8 424 458.6 424 445C378.13 445 332.26 445 285 445Z" fill="currentColor"></path><path d="M74.1955 137.359C81.1105 142.309 85.2918 147.942 88.0001 156C89.3268 164.141 89.2431 172.53 89.4457 180.761C89.5016 183.032 89.5619 185.301 89.6232 187.571C89.7528 192.402 89.8766 197.232 90.0001 202.062C90.1634 208.407 90.3294 214.752 90.5001 221.097C90.5306 222.234 90.5306 222.234 90.5616 223.393C90.8565 234.273 91.2545 245.139 92.0001 256C93.0765 255.677 94.1529 255.355 95.2619 255.023C103.451 252.781 109.627 253.991 117 258C120.5 260.84 123.55 264.023 126.625 267.312C128.219 268.977 129.815 270.64 131.414 272.3C132.183 273.102 132.951 273.903 133.743 274.729C136.436 277.438 139.271 279.927 142.173 282.407C145.432 285.249 148.408 288.364 151.422 291.461C154.095 294.177 156.83 296.751 159.719 299.238C164.849 303.682 169.676 308.415 174.5 313.187C175.399 314.057 176.297 314.926 177.223 315.822C200.453 338.832 200.262 367.334 202.524 398.041C202.8 401.77 203.085 405.498 203.369 409.226C203.921 416.483 204.464 423.741 205 431C205.918 431.009 206.836 431.018 207.782 431.028C211.197 431.072 214.611 431.134 218.025 431.207C219.501 431.235 220.977 431.257 222.454 431.271C224.579 431.292 226.703 431.339 228.828 431.39C230.106 431.411 231.384 431.432 232.7 431.454C236 432 236 432 238.417 433.68C240.393 436.575 240.501 438.24 240.502 441.73C240.511 442.882 240.521 444.033 240.53 445.219C240.513 447.077 240.513 447.077 240.496 448.972C240.498 450.247 240.499 451.522 240.501 452.835C240.499 455.529 240.49 458.223 240.467 460.917C240.438 464.369 240.441 467.821 240.454 471.274C240.462 474.569 240.447 477.864 240.434 481.16C240.437 482.4 240.44 483.641 240.443 484.919C240.43 486.067 240.417 487.216 240.404 488.398C240.399 489.41 240.393 490.422 240.388 491.464C240 494 240 494 238.874 495.634C236.13 497.634 233.998 497.383 230.623 497.394C229.974 497.4 229.324 497.406 228.654 497.413C226.473 497.429 224.293 497.424 222.111 497.42C220.549 497.427 218.987 497.436 217.425 497.445C213.18 497.468 208.934 497.47 204.688 497.469C201.147 497.468 197.605 497.477 194.064 497.485C185.711 497.505 177.359 497.507 169.007 497.501C160.382 497.494 151.758 497.517 143.133 497.554C135.734 497.585 128.335 497.596 120.937 497.592C116.515 497.59 112.093 497.596 107.672 497.62C103.515 497.642 99.3591 497.64 95.2024 497.62C93.675 497.617 92.1475 497.622 90.6201 497.636C88.5382 497.654 86.4588 497.642 84.377 497.621C82.6282 497.622 82.6282 497.622 80.8441 497.623C78.0001 497 78.0001 497 76.1262 494.627C74.8736 491.704 74.6083 489.634 74.5802 486.463C74.5643 485.378 74.5484 484.293 74.532 483.176C74.5318 482.014 74.5316 480.853 74.5314 479.656C74.52 477.853 74.52 477.853 74.5083 476.014C74.4975 473.476 74.4947 470.937 74.4992 468.399C74.5001 464.514 74.4585 460.631 74.4142 456.746C74.409 454.278 74.4063 451.811 74.4064 449.343C74.3818 447.601 74.3818 447.601 74.3567 445.824C74.4248 437.889 74.4248 437.889 77.0966 433.759C80.6948 431.579 82.8582 431.422 87.0509 431.511C87.7097 431.518 88.3685 431.526 89.0473 431.533C91.1369 431.561 93.2238 431.623 95.3126 431.687C96.7351 431.712 98.1577 431.735 99.5802 431.756C103.054 431.81 106.527 431.897 110 432C109.998 424.181 109.998 424.181 107.102 417.175C105.876 416.253 105.876 416.253 104.625 415.312C103.711 414.588 102.797 413.863 101.856 413.117C100.442 412.069 100.442 412.069 99.0001 411C79.1519 395.257 59.3954 377.169 44.0001 357C43.1428 355.93 42.2833 354.863 41.422 353.797C29.5197 338.932 26.6914 326.821 26.7255 307.968C26.7211 306.367 26.7159 304.766 26.71 303.165C26.6967 298.843 26.696 294.521 26.6986 290.199C26.6996 286.58 26.6947 282.962 26.69 279.344C26.6789 270.805 26.6784 262.266 26.6845 253.726C26.6905 244.936 26.6782 236.147 26.6569 227.357C26.6393 219.79 26.6333 212.222 26.6365 204.655C26.6383 200.145 26.6358 195.634 26.6218 191.123C26.6092 186.881 26.6112 182.64 26.6242 178.398C26.6266 176.847 26.6239 175.297 26.6156 173.747C26.5556 161.652 27.2238 151.103 35.9416 141.965C46.5839 131.766 61.2887 129.367 74.1955 137.359ZM43.6251 152.375C40.5155 157.398 39.7497 161.953 39.7395 167.804C39.7356 168.464 39.7318 169.123 39.7279 169.803C39.7176 172 39.7215 174.196 39.7255 176.393C39.7211 177.974 39.716 179.555 39.71 181.135C39.6966 185.421 39.696 189.706 39.6986 193.991C39.6996 197.574 39.6947 201.158 39.69 204.741C39.6789 213.2 39.6784 221.658 39.6845 230.117C39.6905 238.827 39.6782 247.537 39.6569 256.248C39.6393 263.738 39.6333 271.229 39.6365 278.719C39.6384 283.188 39.6358 287.656 39.6218 292.124C39.6092 296.33 39.6112 300.536 39.6242 304.741C39.6266 306.279 39.6239 307.816 39.6156 309.354C39.4838 335.713 55.4413 351.432 73.0588 369.228C74.8076 370.988 76.5593 372.745 78.3126 374.5C78.8781 375.066 79.4436 375.633 80.0262 376.217C86.1697 382.359 92.3533 388.397 99.0001 394C100.188 395.02 101.376 396.041 102.563 397.062C103.708 398.042 104.854 399.021 106 400C107.794 401.537 109.587 403.074 111.381 404.612C112.801 405.829 114.222 407.043 115.645 408.258C116.36 408.874 117.076 409.49 117.813 410.125C118.72 410.902 118.72 410.902 119.645 411.695C125.099 416.945 122.534 424.078 123 432C145.44 432 167.88 432 191 432C191 423.885 190.83 416.005 190.195 407.945C190.111 406.841 190.027 405.737 189.941 404.6C189.763 402.282 189.583 399.964 189.401 397.647C189.126 394.141 188.862 390.635 188.598 387.129C186.521 353.31 186.521 353.31 168 326C165.699 323.719 163.416 321.42 161.136 319.118C158.988 316.952 156.838 314.788 154.688 312.625C153.966 311.895 153.245 311.165 152.502 310.414C148.438 306.331 144.279 302.451 139.913 298.693C136.799 295.937 133.908 292.97 131 290C126.714 285.663 122.402 281.458 117.738 277.523C115.223 275.319 112.934 272.912 110.641 270.48C107.604 267.74 105.681 266.975 101.563 267.125C97.7007 268.073 95.8292 269.254 93.0001 272C91.3452 275.31 91.261 278.447 92.0001 282C93.1268 283.812 93.1268 283.812 94.7541 285.488C95.3904 286.181 96.0267 286.873 96.6823 287.587C100.994 292.076 105.36 296.507 109.77 300.9C111.434 302.559 113.093 304.223 114.752 305.888C120.333 311.473 125.973 316.892 132 322C133.891 323.891 133.237 326.57 133.328 329.09C133.22 329.72 133.112 330.35 133 331C130 333 130 333 127.211 333.008C122.838 331.635 120.677 329.192 117.625 325.875C114.275 322.327 110.933 318.879 107.231 315.695C102.176 311.34 97.4305 306.69 92.6876 302C91.795 301.136 90.9023 300.272 89.9826 299.383C76.6658 286.196 78.829 270.092 78.4 252.436C78.3151 248.967 78.225 245.497 78.1334 242.028C77.8739 232.172 77.6208 222.315 77.3778 212.458C77.2284 206.408 77.0705 200.358 76.9075 194.307C76.8474 192.014 76.7903 189.72 76.7366 187.427C76.6612 184.214 76.5751 181.001 76.4867 177.789C76.4674 176.856 76.4481 175.923 76.4283 174.962C76.1585 161.545 76.1585 161.545 69.633 150.371C65.4316 146.843 61.6298 145.414 56.0861 145.648C51.0554 146.496 47.1964 148.803 43.6251 152.375ZM88.0001 445C88.0001 458.2 88.0001 471.4 88.0001 485C133.87 485 179.74 485 227 485C227 471.8 227 458.6 227 445C181.13 445 135.26 445 88.0001 445Z" fill="currentColor"></path><path d="M199.375 29.5625C203 30 203 30 204.999 32.1545C208.168 36.6604 210.902 41.3887 213.656 46.156C214.686 47.9347 215.73 49.7046 216.776 51.4746C217.431 52.6058 218.087 53.7369 218.762 54.9023C219.36 55.9284 219.957 56.9544 220.573 58.0115C222.048 61.1004 222.72 63.5968 223 67C221.578 69.9237 220.623 70.7763 217.563 71.875C214.528 72.023 213.522 71.6682 211 70C209.217 67.4656 209.217 67.4656 207.434 64.293C206.783 63.1489 206.133 62.0049 205.463 60.8262C204.788 59.6135 204.112 58.4006 203.438 57.1875C202.76 55.9858 202.081 54.7846 201.401 53.584C200.147 51.3664 198.897 49.1462 197.654 46.9226C196.584 45.0316 195.46 43.1698 194.274 41.3489C192.435 37.9574 193.102 35.6603 194 32C196 30 196 30 199.375 29.5625Z" fill="currentColor"></path><path d="M312.437 29.625C316 30 316 30 318 31.5625C319.408 34.995 319.06 37.5397 318 41C315.96 45.1609 313.587 49.1005 311.187 53.0625C310.558 54.1253 309.928 55.1882 309.279 56.2832C307.541 59.2028 305.78 62.1061 304 65C303.586 65.6746 303.171 66.3492 302.744 67.0442C300.313 70.8637 300.313 70.8637 297.562 72.0625C294.132 71.9788 292.599 71.2379 290 69C288.959 66.0682 288.628 63.9937 289.735 61.0344C290.888 58.7786 292.135 56.6102 293.437 54.4375C293.892 53.6512 294.347 52.8648 294.816 52.0547C296.192 49.6914 297.592 47.3441 299 45C299.609 43.9754 299.609 43.9754 300.231 42.9302C307.863 30.1241 307.863 30.1241 312.437 29.625Z" fill="currentColor"></path><path d="M253.875 14.7344C254.576 14.7395 255.278 14.7447 256 14.75C256.701 14.7448 257.403 14.7397 258.125 14.7344C260 15 260 15 262 17C262.213 20.0501 262.304 23.0069 262.301 26.0586C262.305 26.9587 262.309 27.8588 262.314 28.7861C262.32 30.6918 262.32 32.5975 262.316 34.5032C262.313 37.4224 262.336 40.3406 262.361 43.2598C262.364 45.1094 262.364 46.959 262.363 48.8086C262.373 49.6837 262.382 50.5587 262.391 51.4603C262.385 52.2745 262.379 53.0886 262.372 53.9275C262.373 54.6432 262.374 55.3588 262.374 56.0962C261.885 58.5879 261 59.4749 259 61C253.845 61.6444 253.845 61.6444 251.336 59.7311C249.705 57.6176 249.625 56.5728 249.628 53.9275C249.622 53.1133 249.615 52.2992 249.609 51.4603C249.618 50.5852 249.627 49.7102 249.637 48.8086C249.636 47.9075 249.636 47.0065 249.635 46.0781C249.638 44.1742 249.647 42.2703 249.664 40.3665C249.688 37.4452 249.684 34.5248 249.678 31.6035C249.683 29.7552 249.69 27.9069 249.699 26.0586C249.698 25.1815 249.697 24.3044 249.697 23.4007C249.792 15.3129 249.792 15.3129 253.875 14.7344Z" fill="currentColor"></path></svg>