<svg xmlns="http://www.w3.org/2000/svg" width="512" height="512" viewBox="0 0 512 512" fill="none"><g clip-path="url(#clip0_233_10469)"><path d="M261 145.001C265.001 148.005 268.48 151.459 272 155.001C272.58 154.663 273.16 154.325 273.758 153.977C274.539 153.531 275.32 153.085 276.125 152.626C276.891 152.185 277.656 151.744 278.445 151.29C286.594 147.178 295.811 146.503 304.695 148.653C310.341 150.945 314.664 154.795 319 159.001C319.652 158.591 320.305 158.181 320.977 157.758C331.081 151.529 340.676 148.353 352.551 151.149C360.663 153.97 367.124 159.755 371.219 167.223C373.589 172.7 374.337 178.088 374.604 184.004C374.643 184.816 374.683 185.629 374.723 186.466C375.235 198.665 375.099 210.881 375.031 223.088C375.019 225.228 375.009 227.367 374.999 229.507C374.965 236.241 374.928 242.974 374.883 249.708C374.832 257.413 374.798 265.117 374.778 272.823C374.761 278.832 374.729 284.841 374.686 290.85C374.661 294.416 374.642 297.983 374.639 301.55C374.618 318.805 374.573 334.606 366.313 350.188C365.977 350.842 365.642 351.495 365.297 352.169C361.751 358.856 357.372 365.629 352 371.001C351.902 372.748 351.875 374.5 351.876 376.25C351.873 377.389 351.87 378.527 351.868 379.7C351.87 380.961 351.872 382.221 351.874 383.519C351.871 385.543 351.868 387.567 351.865 389.592C351.863 391.774 351.862 393.957 351.862 396.14C351.861 400.687 351.848 405.233 351.832 409.78C351.83 410.546 351.827 411.313 351.825 412.103C351.819 413.671 351.814 415.239 351.809 416.807C351.774 427.395 351.747 437.984 351.75 448.573C351.751 455.71 351.735 462.846 351.699 469.982C351.68 473.76 351.671 477.538 351.683 481.316C351.695 484.872 351.683 488.427 351.654 491.983C351.644 493.908 351.659 495.834 351.675 497.759C351.617 502.514 351.506 506.002 349.34 510.275C343.791 513.142 338.054 512.695 331.926 512.648C330.475 512.654 329.024 512.663 327.574 512.674C323.64 512.697 319.706 512.688 315.772 512.672C311.653 512.66 307.534 512.671 303.415 512.679C296.499 512.688 289.582 512.676 282.665 512.653C274.671 512.625 266.677 512.634 258.683 512.662C251.817 512.684 244.951 512.688 238.084 512.674C233.984 512.667 229.885 512.666 225.785 512.682C221.93 512.697 218.076 512.687 214.222 512.658C212.808 512.651 211.394 512.653 209.98 512.664C199.353 512.739 199.353 512.739 194.652 510.172C192.137 505.344 192.379 500.974 192.499 495.608C192.505 494.456 192.511 493.304 192.516 492.117C192.531 489.617 192.556 487.116 192.592 484.615C192.645 480.65 192.664 476.686 192.671 472.721C192.696 461.447 192.779 450.174 192.907 438.901C192.977 432.671 193.011 426.441 193.007 420.21C193.006 416.919 193.031 413.631 193.09 410.34C194.06 393.837 194.06 393.837 187.158 379.589C185.47 378.024 183.754 376.49 182 375.001C180.779 373.483 179.59 371.937 178.461 370.348C177.691 369.289 177.691 369.289 176.905 368.207C176.148 367.146 176.148 367.146 175.375 366.063C174.548 364.908 174.548 364.908 173.704 363.729C169.156 357.322 164.903 350.827 161 344.001C160.451 343.053 160.451 343.053 159.892 342.086C148.745 322.66 141.933 301.146 141.797 278.61C141.79 277.831 141.783 277.053 141.776 276.25C141.758 273.75 141.752 271.251 141.75 268.751C141.749 267.9 141.749 267.05 141.748 266.173C141.796 228.517 141.796 228.517 153.5 216.126C160.023 210.001 160.023 210.001 164 210.001C163.979 208.962 163.958 207.924 163.937 206.855C163.864 202.96 163.818 199.065 163.78 195.169C163.76 193.491 163.733 191.814 163.698 190.136C163.439 177.326 163.981 167.445 173.207 157.688C180.411 150.908 188.362 149.132 198 149.001C205.454 149.61 211.527 152.392 218 156.001C218.258 155.413 218.516 154.825 218.781 154.219C222.196 148.004 228.694 143.98 235.231 141.661C244.199 139.523 253.013 140.312 261 145.001ZM232.125 161.438C227.83 166.617 227.724 170.379 227.805 176.923C227.808 177.783 227.81 178.643 227.813 179.529C227.825 182.269 227.85 185.01 227.875 187.751C227.885 189.611 227.894 191.472 227.902 193.333C227.924 197.889 227.959 202.445 228 207.001C229.161 207.123 230.321 207.244 231.517 207.37C233.058 207.54 234.599 207.709 236.141 207.88C237.285 207.998 237.285 207.998 238.452 208.119C246.466 209.019 253.263 211.509 260 216.001C261.159 213.684 261.139 212.318 261.161 209.738C261.171 208.857 261.18 207.975 261.19 207.067C261.197 205.634 261.197 205.634 261.203 204.173C261.212 202.7 261.212 202.7 261.22 201.198C261.23 199.116 261.236 197.035 261.24 194.953C261.25 191.777 261.281 188.602 261.313 185.426C261.319 183.404 261.324 181.382 261.328 179.36C261.341 178.413 261.353 177.466 261.366 176.49C261.345 170.328 260.508 166.029 256.457 161.137C252.845 157.955 249.929 156.088 245.047 155.833C239.833 156.261 236.087 158.079 232.125 161.438ZM279.625 169.563C276.609 174.088 276.824 178.365 276.797 183.614C276.791 184.461 276.786 185.308 276.78 186.181C276.77 187.974 276.764 189.767 276.76 191.56C276.75 194.292 276.719 197.024 276.688 199.757C276.681 201.501 276.676 203.245 276.672 204.989C276.66 205.802 276.647 206.614 276.635 207.452C276.656 213.061 277.556 217.382 281.535 221.645C287.244 226.011 290.858 226.772 298 226.001C303.56 224.074 307.391 220.219 310 215.001C310.136 212.009 310.213 209.041 310.238 206.048C310.246 205.155 310.255 204.262 310.263 203.342C310.277 201.448 310.287 199.555 310.295 197.662C310.312 194.776 310.356 191.891 310.4 189.005C310.411 187.165 310.419 185.325 310.426 183.485C310.443 182.625 310.461 181.766 310.479 180.88C310.459 175.418 309.631 172.336 306 168.001C301.027 163.62 298.128 162.644 291.606 162.719C286.394 163.282 283.177 165.731 279.625 169.563ZM184.207 168.661C179.683 173.722 178.875 177.243 178.902 184.075C178.905 185.326 178.907 186.577 178.91 187.867C178.919 189.458 178.928 191.049 178.938 192.688C178.958 197.741 178.979 202.794 179 208.001C190.22 208.001 201.44 208.001 213 208.001C213.062 203.731 213.124 199.462 213.188 195.063C213.215 193.736 213.242 192.408 213.27 191.04C213.329 182.681 212.88 175.241 207.438 168.563C200.651 162.534 190.816 162.542 184.207 168.661ZM327 175.001C325.474 178.054 325.796 181.254 325.762 184.606C325.754 185.364 325.746 186.121 325.737 186.901C325.724 188.508 325.713 190.114 325.705 191.721C325.688 194.162 325.644 196.601 325.6 199.042C325.59 200.605 325.581 202.168 325.574 203.731C325.557 204.454 325.539 205.177 325.521 205.923C325.544 211.365 326.923 214.501 330 219.001C333.937 222.48 337.541 223.805 342.695 224.161C348.204 223.778 352.371 221.026 355.938 216.938C360.096 211.015 359.258 204.495 359.295 197.542C359.307 196.065 359.327 194.588 359.357 193.111C359.662 181.469 359.662 181.469 355 171.001C351.306 167.212 348.286 165.694 342.938 165.501C335.265 165.942 331.43 169.052 327 175.001ZM161.625 230.563C159.265 235.555 158.634 240.549 158 246.001C157.913 246.74 157.826 247.48 157.737 248.242C154.435 278.325 158.645 306.423 173 333.001C173.594 334.139 174.189 335.277 174.801 336.45C182.526 350.693 192.567 363.673 203.357 375.725C206.933 379.744 208.117 382.36 208.158 387.689C208.168 388.651 208.178 389.612 208.188 390.602C208.194 391.66 208.199 392.717 208.205 393.806C208.215 394.936 208.225 396.067 208.236 397.231C208.267 400.898 208.292 404.565 208.316 408.231C208.335 410.492 208.354 412.752 208.373 415.013C208.442 423.405 208.502 431.796 208.563 440.188C208.707 458.936 208.851 477.684 209 497.001C250.91 497.001 292.82 497.001 336 497.001C335.968 487.516 335.936 478.031 335.902 468.258C335.902 462.243 335.904 456.227 335.916 450.212C335.935 440.667 335.945 431.123 335.894 421.579C335.857 414.627 335.852 407.675 335.884 400.723C335.9 397.044 335.901 393.367 335.863 389.689C335.822 385.573 335.851 381.461 335.887 377.345C335.852 375.533 335.852 375.533 335.817 373.685C335.939 367.049 336.849 363.46 341.367 358.471C342.548 357.345 342.548 357.345 343.753 356.195C353.052 347.114 358.887 331.492 359.241 318.578C359.246 317.019 359.241 315.46 359.227 313.901C359.227 313.041 359.228 312.182 359.228 311.296C359.227 308.488 359.211 305.68 359.195 302.872C359.192 300.912 359.189 298.952 359.187 296.991C359.179 291.857 359.16 286.723 359.137 281.589C359.117 276.34 359.108 271.091 359.098 265.842C359.076 255.562 359.042 245.281 359 235.001C358.318 235.212 357.636 235.424 356.933 235.642C356.036 235.916 355.139 236.191 354.215 236.474C353.326 236.747 352.438 237.02 351.523 237.302C342.437 239.818 333.305 238.167 325 234.001C323.31 232.698 321.631 231.377 320 230.001C319.01 230.331 318.02 230.661 317 231.001C317 231.661 317 232.321 317 233.001C316.443 233.278 315.886 233.555 315.313 233.841C313.725 234.637 312.142 235.442 310.563 236.255C309.717 236.686 308.871 237.118 308 237.563C307.154 237.998 306.309 238.432 305.438 238.88C298.066 242.27 289.911 241.926 282.313 239.376C277.24 237.349 273.128 234.549 269 231.001C269.023 231.69 269.046 232.38 269.07 233.091C269.281 244.076 267.757 253.501 260.246 261.981C255.424 266.55 250.266 268.933 244 271.001C244.736 271.726 245.472 272.452 246.231 273.2C256.928 284.018 265.316 297.072 269 312.001C269.202 312.788 269.405 313.576 269.613 314.387C270.9 320.244 271.23 326.025 271.313 332.001C271.33 332.743 271.348 333.486 271.366 334.251C271.359 339.47 271.359 339.47 269.664 341.973C266.993 343.623 265.059 343.438 262 343.001C259.595 341.341 258.232 339.999 257.559 337.101C257.295 334.755 257.134 332.42 257 330.063C255.462 311.396 248.461 295.177 234.246 282.555C227.814 277.502 221.122 273.824 213.738 270.411C211 269.001 211 269.001 210 267.001C209.543 261.632 209.543 261.632 211.313 259.188C214.742 256.775 217.936 256.867 221.988 256.825C223.17 256.801 224.351 256.777 225.568 256.753C228.053 256.71 230.537 256.678 233.022 256.659C241.826 256.525 241.826 256.525 249 252.001C253.279 247.259 254.381 243.599 254.27 237.344C253.745 232.785 251.833 229.77 248.562 226.613C241.813 221.643 234.193 222.275 226.188 222.337C224.649 222.333 223.11 222.328 221.571 222.322C218.357 222.315 215.143 222.325 211.929 222.349C207.826 222.377 203.726 222.361 199.623 222.331C196.449 222.313 193.275 222.319 190.1 222.332C188.589 222.335 187.077 222.331 185.565 222.319C175.513 222.258 168.668 222.964 161.625 230.563Z" fill="currentColor"></path><path d="M261 0.00036484C265.008 3.37877 266.761 6.23739 268.355 11.184C272.698 23.8353 272.698 23.8354 281.861 32.9869C290.93 36.4266 301.042 36.9207 310.647 37.3104C314 38.0004 314 38.0004 316.429 40.3949C318.208 43.3451 318.648 44.6287 318 48.0004C316.559 50.1488 316.559 50.1488 314.438 52.3754C313.637 53.2558 312.836 54.1362 312.012 55.0433C309.807 57.3138 307.458 59.24 304.957 61.1761C297.299 67.1323 297.299 67.1323 293.607 75.7147C293.741 81.7458 295 87.5413 296.399 93.391C297.187 96.8109 297.616 100.131 297.938 103.625C298.05 104.566 298.162 105.507 298.277 106.477C297.89 109.999 296.503 111.559 294 114C284.01 114.833 274.398 108.036 265.957 103.289C265.105 102.823 264.253 102.356 263.375 101.875C262.661 101.46 261.947 101.045 261.211 100.618C256.467 99.2931 251.519 102.641 247.375 104.821C246.339 105.356 245.302 105.891 244.234 106.442C242.075 107.566 239.919 108.696 237.766 109.832C236.729 110.365 235.693 110.897 234.625 111.446C233.221 112.181 233.221 112.181 231.789 112.931C228.617 114.147 226.37 114.333 223 114C220.09 112.082 220.09 112.082 218 109C217.633 105.816 218.081 102.843 218.562 99.6879C218.664 98.8906 218.765 98.0933 218.869 97.2719C218.975 96.4436 219.082 95.6154 219.191 94.7621C219.301 93.873 219.41 92.984 219.523 92.068C220 89.0004 220 89.0004 220.936 85.1886C222.218 79.4917 223.167 74.9579 220.019 69.6783C217.203 66.4347 213.977 63.6863 210.688 60.9379C209.03 59.4916 207.386 58.0326 205.756 56.5547C204.281 55.2262 202.77 53.938 201.257 52.6525C198.467 49.3745 198.059 47.2656 198 43.0004C201.13 38.68 203.964 37.308 209.125 36.3754C210.972 35.9809 210.972 35.9809 212.855 35.5785C215.85 35.0595 218.582 35.0185 221.613 35.1722C226.951 35.2342 231.488 35.1088 236 32.0004C241.97 24.2217 245.754 14.9705 249.47 5.95544C252.157 0.764733 255.169 -0.951717 261 0.00036484ZM257 25.0004C256.713 25.5655 256.426 26.1305 256.13 26.7128C254.824 29.2711 253.506 31.8232 252.188 34.3754C251.736 35.2648 251.284 36.1543 250.818 37.0707C250.377 37.9215 249.935 38.7722 249.48 39.6488C249.077 40.4343 248.674 41.2198 248.259 42.0292C246.535 44.7288 244.724 45.8181 241.64 46.5946C240.281 46.8303 240.281 46.8303 238.895 47.0707C237.912 47.2447 236.929 47.4187 235.916 47.598C234.38 47.8591 234.38 47.8591 232.812 48.1254C231.777 48.3071 230.741 48.4889 229.674 48.6761C227.117 49.1239 224.559 49.565 222 50.0004C225.884 54.6225 229.89 58.9418 234.266 63.1058C236.135 65.1481 237.176 66.3502 238 69.0004C237.822 71.8579 237.547 74.5554 237.125 77.3754C236.433 82.2956 235.858 87.0135 236 92.0004C241.371 90.3563 245.998 87.9434 250.902 85.2426C255.163 83.5341 258.619 83.1159 263.006 84.7455C265.132 85.7402 267.19 86.8136 269.25 87.9379C274.49 90.7691 274.49 90.7691 280 93.0004C279.909 91.9272 279.909 91.9272 279.816 90.8324C279.639 88.7239 279.473 86.6144 279.316 84.5043C279.108 82.1916 278.825 79.8842 278.465 77.5902C277.315 69.3258 277.315 69.3258 279.18 65.7191C280.992 63.6142 282.91 61.8297 285 60.0004C286.654 58.3624 288.299 56.7165 289.938 55.0629C290.71 54.3113 291.482 53.5598 292.277 52.7855C294.116 51.2939 294.116 51.2939 294 50.0004C293.36 49.9054 292.719 49.8104 292.06 49.7125C289.14 49.2671 286.227 48.7904 283.312 48.3129C282.305 48.164 281.298 48.0151 280.26 47.8617C274.356 46.868 270.652 46.0916 267 41.0004C265.41 38.2939 264.024 35.5267 262.688 32.6879C262.328 31.9473 261.969 31.2067 261.6 30.4437C260.724 28.6337 259.861 26.8176 259 25.0004C258.34 25.0004 257.68 25.0004 257 25.0004Z" fill="currentColor"></path><path d="M442.5 207.312C446.69 208.136 448.515 209.683 451 213C453.28 217.197 455.178 221.578 457.074 225.959C459.464 231.296 459.464 231.296 464.148 234.492C465.419 234.66 466.69 234.827 468 235C469.725 235.316 471.449 235.638 473.172 235.965C475.984 236.46 478.797 236.945 481.613 237.412C482.519 237.574 483.426 237.736 484.359 237.902C485.589 238.111 485.589 238.111 486.843 238.324C489.342 239.107 490.388 239.957 492 242C492.938 244.812 492.938 244.812 493 248C490.449 252.66 487.207 255.743 483.262 259.252C476.747 264.866 476.747 264.866 473.207 272.398C473.495 275.445 474.072 278.089 475 281C475.714 285.444 476.137 289.753 476.25 294.25C476.276 295.266 476.302 296.282 476.328 297.328C476 300 476 300 474.984 301.859C471.663 303.769 468.643 303.758 465 303C462.314 301.717 459.828 300.227 457.285 298.68C449.441 293.658 449.441 293.658 440.536 292.216C436.09 293.637 432.438 296.073 428.709 298.827C423.861 302.155 418.906 303.78 413 303C410.562 301.5 410.562 301.5 409 299C408.64 293.384 409.422 288.386 410.475 282.879C412.327 274.273 412.327 274.273 410.594 265.965C408.512 263.949 406.482 262.484 404 261C402.313 259.354 400.645 257.688 399 256C398.19 255.184 398.19 255.184 397.363 254.352C394.66 251.466 393.137 249.777 392.438 245.812C393.077 242.617 393.723 241.313 396 239C398.752 238.404 398.752 238.404 402.066 238.219C415.064 237.592 415.064 237.592 426.214 231.915C429.511 227.074 431.328 221.825 433.115 216.287C434.952 211.541 437.348 208.324 442.5 207.312ZM442 233C441.564 233.904 441.129 234.807 440.68 235.738C440.079 236.93 439.477 238.122 438.875 239.312C438.295 240.484 437.715 241.656 437.117 242.863C434.066 247.384 431.001 248.545 425.789 249.73C424.745 249.881 423.701 250.032 422.625 250.188C421.036 250.425 421.036 250.425 419.414 250.668C418.617 250.778 417.821 250.887 417 251C418.884 254.425 420.631 256.659 423.688 259.062C426.092 261.376 426.923 262.545 427.488 265.871C427.5 268.956 427.332 271.933 427 275C426.917 275.768 426.835 276.537 426.75 277.328C426.547 278.892 426.282 280.448 426 282C429.676 280.869 433.054 279.498 436.5 277.812C440.522 276.033 442.712 275.512 447 277C449.645 278.255 452.246 279.561 454.828 280.941C456.897 282.146 456.897 282.146 459 282C458.847 280.793 458.693 279.587 458.535 278.344C457.195 265.668 457.195 265.668 459.352 261.199C461.125 259.256 462.969 257.666 465 256C466.362 254.357 467.702 252.695 469 251C467.891 250.83 466.783 250.66 465.641 250.484C464.177 250.24 462.713 249.996 461.25 249.75C460.156 249.586 460.156 249.586 459.039 249.418C454.493 248.633 451.883 247.844 449 244C447.855 242.12 446.772 240.2 445.75 238.25C445.229 237.265 444.708 236.28 444.172 235.266C443.785 234.518 443.398 233.77 443 233C442.67 233 442.34 233 442 233Z" fill="currentColor"></path><path d="M91.9648 126.406C95.2155 127.355 96.1768 129.194 98 132C98.5342 133.332 99.0375 134.678 99.5156 136.031C101.33 140.913 103.129 145.39 107 149C113.76 152.051 121.274 152.798 128.599 153.47C131.379 154.084 132.348 154.704 134 157C134.667 161.03 135.03 163.476 132.708 166.913C130.928 168.824 129.075 170.575 127.125 172.312C125.834 173.515 124.545 174.719 123.258 175.926C122.682 176.446 122.106 176.966 121.512 177.501C119.77 179.128 119.77 179.128 118 182C118.204 185.304 118.204 185.304 118.875 189C121.387 205.707 121.387 205.707 118.375 210.688C115.205 212.439 113.626 212.39 110 212C106.05 210.355 102.361 208.2 98.6328 206.111C94.0487 203.655 94.0487 203.655 88.9688 202.965C84.1821 204.634 79.7584 206.938 75.2773 209.293C71.7946 211.031 69.6089 212.013 65.6562 211.93C62.8908 210.962 61.6086 210.438 60 208C59.6367 205.828 59.6367 205.828 59.6875 203.25C59.6952 202.273 59.703 201.296 59.7109 200.289C60 197 60 197 60.9141 193.398C62.7332 186.617 62.7332 186.617 60.8672 180.126C57.7862 176.418 54.2002 173.357 50.4971 170.291C47.9837 168.123 46.2467 166.26 45.6016 162.965C45.665 157.475 45.665 157.475 47.199 155.299C49.5675 153.591 51.2897 153.509 54.1914 153.281C65.5179 152.361 65.5179 152.361 75.0566 146.96C78.2241 142.333 80.3472 137.309 82.1223 132.005C84.2541 127.134 86.7694 126.647 91.9648 126.406ZM89 152C88.5456 153.048 88.5456 153.048 88.082 154.117C87.6631 155.027 87.2441 155.937 86.8125 156.875C86.4064 157.78 86.0004 158.685 85.582 159.617C83.1691 163.251 80.4202 163.664 76.3242 164.633C75.019 164.876 75.019 164.876 73.6875 165.125C72.8045 165.293 71.9215 165.46 71.0117 165.633C70.0159 165.815 70.0159 165.815 69 166C69.9573 167.126 70.9159 168.251 71.875 169.375C72.6755 170.315 72.6755 170.315 73.4922 171.273C74.6143 172.558 75.7937 173.794 77 175C78.4836 180.395 77.7013 185.541 77 191C77.8082 190.627 78.6165 190.255 79.4492 189.871C80.5179 189.398 81.5865 188.925 82.6875 188.438C83.7432 187.962 84.799 187.486 85.8867 186.996C90.8918 185.395 94.1998 186.928 98.8125 189.062C99.6027 189.425 100.393 189.787 101.207 190.16C101.799 190.437 102.39 190.714 103 191C102.893 190.036 102.786 189.072 102.676 188.078C102.556 186.815 102.436 185.552 102.312 184.25C102.185 182.997 102.057 181.744 101.926 180.453C102.007 176.692 102.545 175.701 105 173C105 172.34 105 171.68 105 171C105.619 170.732 106.238 170.464 106.875 170.188C109.3 169.044 109.3 169.044 111 166C109.94 165.841 108.881 165.683 107.789 165.52C106.401 165.285 105.013 165.049 103.625 164.812C102.926 164.711 102.228 164.61 101.508 164.506C99.4766 164.145 99.4766 164.145 96 163C94.625 160.594 94.625 160.594 94 158C93.0152 155.992 92.0185 153.991 91 152C90.34 152 89.68 152 89 152Z" fill="currentColor"></path><path d="M135 400C138.571 403.672 139.827 407.293 141.5 412.062C143.033 415.733 144.468 418.328 148.212 419.969C152.597 421.157 156.974 421.724 161.48 422.226C164.731 422.636 165.849 422.888 168.562 424.89C170 427 170 427 170.812 430.125C169.444 436.652 164.216 441.263 159.219 445.515C157.521 446.949 157.521 446.949 156 450C156.221 454.423 157.131 458.664 158 463C158.596 467.441 158.536 470.179 156 474.062C152.84 476.103 151.206 476.553 147.512 475.871C143.494 474.477 139.757 472.423 136.1 470.264C133.034 468.559 131.43 467.916 127.941 468.593C124.924 470.036 121.989 471.568 119.062 473.187C112.586 476.481 112.586 476.481 108.938 476.062C106 475 104.904 474.382 103 472C102.636 467.553 102.721 464.041 103.879 459.718C105.651 453.358 105.651 453.358 103.949 447.247C100.72 443.357 96.8594 440.238 93 437C91.0394 434.059 90.6879 433.318 90.625 430C90.5966 429.319 90.5683 428.638 90.5391 427.937C91 426 91 426 92.418 424.32C95.643 422.671 98.4348 422.529 102.008 422.177C110.092 421.391 110.092 421.391 116.749 417.203C119.556 412.999 121.331 408.463 123.162 403.776C125.741 398.308 129.708 398.488 135 400ZM130 424C129.683 424.626 129.366 425.253 129.039 425.898C125.273 432.494 125.273 432.494 121.375 434.043C118.906 434.509 116.507 434.846 114 435C114.422 435.366 114.843 435.732 115.277 436.109C120.132 440.906 120.745 444.904 120.992 451.621C120.995 452.406 120.997 453.191 121 454C121.846 453.67 122.691 453.34 123.562 453C129.557 451.256 134.224 451.746 140 454C139.948 453.112 139.948 453.112 139.895 452.207C139.628 444.423 142.075 440.943 147 435C145.987 434.87 145.987 434.87 144.953 434.738C137.594 433.579 137.594 433.579 134.562 430.625C134.047 429.758 133.531 428.892 133 428C132.01 426.659 131.012 425.324 130 424Z" fill="currentColor"></path><path d="M494 123C496.739 124.59 496.95 125.835 497.875 128.875C498.029 132.718 497.257 133.928 495 137C492.502 138.798 492.502 138.798 489.496 140.461C488.376 141.089 487.257 141.718 486.103 142.365C484.881 143.035 483.659 143.705 482.438 144.375C481.171 145.082 479.905 145.79 478.639 146.5C476.034 147.96 473.427 149.414 470.817 150.866C465.133 154.034 459.505 157.299 453.875 160.562C451.741 161.796 449.607 163.029 447.473 164.262C446.414 164.873 445.356 165.485 444.266 166.115C440.886 168.065 437.504 170.012 434.121 171.957C432.989 172.608 431.857 173.26 430.691 173.931C428.467 175.211 426.242 176.488 424.016 177.764C419.4 180.417 414.809 183.084 410.316 185.941C409.636 186.37 408.956 186.799 408.255 187.241C406.542 188.331 404.845 189.443 403.148 190.558C399.037 192.441 396.492 192.383 392 192C389.5 190.437 389.5 190.437 388 188C387.25 184.625 387.25 184.625 388 181C393.217 175.652 400.637 172.181 407.082 168.568C408.926 167.534 410.766 166.494 412.605 165.451C414.519 164.367 416.433 163.283 418.348 162.201C424.629 158.651 430.879 155.049 437.125 151.437C439.253 150.208 441.38 148.979 443.508 147.75C444.565 147.139 445.623 146.528 446.712 145.898C450.158 143.909 453.606 141.923 457.055 139.937C458.229 139.261 459.403 138.585 460.578 137.908C462.785 136.637 464.992 135.367 467.2 134.097C468.206 133.517 469.213 132.937 470.25 132.34C471.697 131.507 471.697 131.507 473.174 130.657C476.762 128.553 480.289 126.353 483.801 124.123C487.458 122.255 489.968 122.363 494 123Z" fill="currentColor"></path><path d="M131.437 34.6875C139.392 37.6182 143.444 49.096 147.432 56.157C148.825 58.6237 150.226 61.0861 151.626 63.5488C152.351 64.8235 153.075 66.0985 153.799 67.3736C157.359 73.6404 160.957 79.8847 164.562 86.125C165.168 87.1739 165.773 88.2228 166.397 89.3035C169.3 94.3306 172.205 99.3558 175.115 104.379C176.496 106.761 177.875 109.145 179.254 111.529C180.223 113.204 181.195 114.877 182.166 116.551C182.756 117.571 183.345 118.59 183.953 119.641C184.47 120.533 184.987 121.425 185.52 122.345C190.014 130.409 190.014 130.409 189.937 133.625C188.748 136.637 187.623 138.086 185 140C182.062 140.562 182.062 140.562 179 140C173.478 135.594 170.531 129.387 167.125 123.312C166.465 122.15 165.804 120.988 165.142 119.826C163.77 117.415 162.402 115.003 161.036 112.588C157.892 107.039 154.693 101.521 151.5 96C150.261 93.8543 149.023 91.7085 147.785 89.5625C147.168 88.4926 146.55 87.4227 145.914 86.3203C144.261 83.4527 142.609 80.5844 140.957 77.7156C139.94 75.9495 138.923 74.1837 137.906 72.418C136.636 70.2127 135.366 68.007 134.098 65.8008C133.517 64.794 132.937 63.7873 132.34 62.75C131.784 61.7853 131.229 60.8206 130.657 59.8267C128.553 56.2381 126.359 52.7086 124.136 49.1929C122.202 45.4596 122.217 43.1273 123 39C125.681 35.6686 127.191 35.0735 131.437 34.6875Z" fill="currentColor"></path><path d="M131.812 330.062C134.286 331.122 135.468 331.778 137 334C137.822 336.971 138.326 339.036 137.327 341.992C135.578 344.638 133.725 345.632 130.961 347.179C129.918 347.771 128.875 348.363 127.801 348.972C126.67 349.6 125.54 350.228 124.375 350.875C123.193 351.541 122.012 352.209 120.832 352.879C118.404 354.254 115.974 355.626 113.542 356.995C108.327 359.938 103.165 362.97 98 366C88.3803 371.624 78.7352 377.203 69.0781 382.763C68.0675 383.345 67.0569 383.927 66.0156 384.527C65.0288 385.094 64.0421 385.66 63.0254 386.244C60.9108 387.471 58.806 388.715 56.709 389.972C55.1128 390.925 55.1128 390.925 53.4844 391.898C52.5276 392.476 51.5708 393.054 50.585 393.65C46.9292 395.559 45.0153 395.92 41 395C38.5625 393.437 38.5625 393.437 37 391C36.5 387.5 36.5 387.5 37 384C39.7638 380.698 42.8705 378.731 46.6016 376.636C48.2763 375.689 48.2763 375.689 49.9849 374.722C51.1982 374.044 52.4116 373.365 53.625 372.687C54.887 371.975 56.1485 371.262 57.4097 370.549C59.354 369.449 61.2987 368.349 63.2447 367.252C69.5628 363.69 75.8465 360.069 82.125 356.437C83.6999 355.528 83.6999 355.528 85.3066 354.601C90.3164 351.709 95.3237 348.813 100.327 345.91C102.109 344.876 103.892 343.843 105.675 342.81C107.91 341.516 110.143 340.22 112.375 338.921C127.832 329.974 127.832 329.974 131.812 330.062Z" fill="currentColor"></path><path d="M385.875 34.5625C389.185 34.659 389.853 34.8816 392.562 37.0625C394.374 40.764 394.172 43.1708 393 47C391.189 50.7452 389.041 54.2636 386.875 57.8125C385.589 59.9669 384.304 62.1219 383.02 64.2773C382.354 65.3871 381.688 66.4968 381.002 67.6401C377.797 73.0181 374.681 78.4465 371.562 83.875C370.318 86.0353 369.073 88.1954 367.828 90.3555C366.893 91.9785 366.893 91.9785 365.939 93.6343C363.914 97.1489 361.887 100.663 359.859 104.176C359.348 105.061 359.348 105.061 358.827 105.964C357.192 108.797 355.557 111.63 353.922 114.462C353.336 115.479 352.749 116.496 352.145 117.543C351.324 118.962 351.324 118.962 350.487 120.41C349.204 122.645 347.946 124.893 346.691 127.145C345 130 345 130 343.125 131.5C340.069 132.219 338.008 131.877 335 131C332.562 129.375 332.562 129.375 331 127C331.328 121.96 332.55 118.375 335.027 114.008C335.96 112.346 335.96 112.346 336.912 110.65C337.587 109.475 338.262 108.3 338.938 107.125C339.63 105.902 340.322 104.678 341.014 103.453C345.371 95.7574 349.813 88.111 354.336 80.5117C357.489 75.2007 360.553 69.8389 363.629 64.4832C380.472 35.1725 380.472 35.1725 385.875 34.5625Z" fill="currentColor"></path><path d="M22.1306 256.74C22.9957 256.733 23.8607 256.726 24.752 256.719C26.1789 256.722 26.1789 256.722 27.6345 256.726C28.6346 256.721 29.6347 256.716 30.6651 256.711C33.9838 256.697 37.3023 256.698 40.6211 256.7C42.9203 256.696 45.2196 256.692 47.5188 256.687C52.3434 256.68 57.1679 256.68 61.9924 256.685C68.1846 256.691 74.3765 256.674 80.5686 256.651C85.3186 256.636 90.0685 256.635 94.8185 256.638C97.1019 256.638 99.3854 256.633 101.669 256.623C104.858 256.61 108.047 256.617 111.236 256.629C112.66 256.617 112.66 256.617 114.112 256.605C115.414 256.616 115.414 256.616 116.742 256.627C117.497 256.627 118.251 256.626 119.028 256.626C121.566 257.109 122.43 257.982 124 260.001C125.113 263.657 125.319 265.316 123.688 268.813C122 271.001 122 271.001 120 272.001C118.653 272.099 117.302 272.136 115.952 272.141C114.682 272.15 114.682 272.15 113.386 272.159C112.455 272.16 111.524 272.161 110.565 272.162C109.586 272.167 108.607 272.172 107.598 272.177C104.349 272.192 101.101 272.199 97.8516 272.204C95.5996 272.21 93.3476 272.216 91.0956 272.221C86.3694 272.232 81.6432 272.238 76.917 272.241C70.855 272.247 64.7932 272.271 58.7312 272.299C54.0781 272.318 49.4251 272.323 44.772 272.325C42.5369 272.328 40.3017 272.336 38.0666 272.349C34.9422 272.366 31.8183 272.364 28.6938 272.357C27.7669 272.367 26.84 272.376 25.8851 272.385C19.638 272.345 19.638 272.345 16.4488 270.627C14.4772 268.414 14.1406 266.953 14 264.001C15.4818 259.1 16.8669 256.755 22.1306 256.74Z" fill="currentColor"></path><path d="M396.798 335.523C401.937 336.637 406.373 339.862 410.813 342.563C411.962 343.246 413.112 343.929 414.263 344.609C416.654 346.025 419.042 347.447 421.426 348.875C425.921 351.557 430.46 354.16 435.001 356.762C439.287 359.22 443.563 361.695 447.839 364.172C449.967 365.403 452.097 366.631 454.228 367.856C457.303 369.625 460.371 371.405 463.438 373.188C464.362 373.716 465.286 374.245 466.237 374.79C467.086 375.286 467.935 375.782 468.809 376.293C469.549 376.721 470.29 377.15 471.053 377.591C473.264 379.191 474.598 380.659 476 383C475.88 386.424 475.607 388.954 473.875 391.938C470.893 393.628 468.283 393.617 465 393C461.004 391.275 457.309 389.083 453.563 386.875C452.463 386.243 451.363 385.61 450.23 384.959C446.811 382.988 443.405 380.996 440 379C437.98 377.826 435.959 376.653 433.938 375.481C430.013 373.201 426.097 370.909 422.184 368.61C417.737 366.002 413.268 363.437 408.785 360.891C406.985 359.865 405.184 358.838 403.383 357.812C401.658 356.831 399.929 355.858 398.2 354.885C396.635 353.993 396.635 353.993 395.039 353.082C394.113 352.559 393.187 352.035 392.233 351.496C390 350 390 350 388 347C387.514 343.275 387.758 341.446 389.563 338.125C392.151 335.869 393.408 335.405 396.798 335.523Z" fill="currentColor"></path></g></svg>