<svg xmlns="http://www.w3.org/2000/svg" fill="none" height="512" viewBox="0 0 512 512" width="512"><g fill="currentColor"><path d="m279.75 11.6872c8.235 5.8968 13.755 14.5305 16.25 24.3125 1.819 14.5606-1.131 25.3527-10 37-.66.99-1.32 1.98-2 3 .762.4125 1.524.825 2.309 1.25 6.878 3.8467 13.344 7.8766 18.691 13.75v2c.614.1096 1.228.2192 1.86.3321 47.297 8.8842 90.796 41.9862 118.14 80.6682.415.585.829 1.171 1.256 1.775 16.481 23.666 26.817 50.129 32.744 78.225.18.833.359 1.666.544 2.525 5.263 25.654 3.748 53.466-1.29 79-.365 3.558.006 6.375 2.016 9.361.509.595 1.018 1.189 1.543 1.801 6.744 8.673 8.801 18.297 7.969 29.168-1.48 10.084-5.895 17.778-12.782 25.145.678.401 1.356.802 2.055 1.215 7.021 4.288 13.075 9.025 18.945 14.785.638.613 1.276 1.227 1.934 1.859 10.927 11.389 14.901 26.698 16.246 41.977-.204 3.594-1.019 5.32-3.18 8.164-2.478 1.239-4.117 1.126-6.89 1.127-1.033.003-2.066.005-3.131.008-1.138-.002-2.276-.004-3.449-.006-1.195.002-2.391.004-3.622.005-3.283.004-6.566.003-9.849 0-3.433-.002-6.865 0-10.298.001-5.766.002-11.532 0-17.298-.005-6.669-.005-13.338-.004-20.006.002-5.722.004-11.443.005-17.165.002-3.419-.001-6.838-.001-10.257.002-3.811.003-7.623-.001-11.435-.007-1.704.003-1.704.003-3.443.006-1.554-.004-1.554-.004-3.14-.008-.902-.001-1.803-.001-2.732-.001-2.285-.126-2.285-.126-5.285-1.126-2.91 1.395-2.91 1.395-6.125 3.437-46.143 27.262-101.975 34.191-153.875 21.563-17.856-4.766-37.693-11.18-52.853-22.045-5.223-2.962-10.671-2.443-16.52-2.33-1.232.007-2.464.015-3.733.023-2.667.018-5.334.044-8.001.082-4.219.059-8.438.086-12.658.108-10.476.06-20.9515.162-31.427.272-8.1516.085-16.3029.158-24.4548.197-4.1931.022-8.3851.067-12.5778.13-3.22.042-6.4402.052-9.6604.067-1.1586.024-2.3171.048-3.5108.073-7.8012-.008-7.8012-.008-11.8299-2.867-2.5891-3.956-2.3353-7.201-1.774-11.71.134-1.108.2681-2.215.4062-3.356 2.8031-17.501 11.604-32.741 25.7188-43.582 4.1619-2.97 8.3447-5.694 12.875-8.062-.8869-.949-1.7738-1.898-2.6875-2.875-7.3917-8.65-10.8986-18.835-10.6172-30.137.8557-8.392 3.163-14.639 8.5508-21.094 3.1949-4.285 4.2894-6.759 3.6953-12.101-.4167-2.211-.8785-4.413-1.3789-6.606-.447-2.402-.8857-4.806-1.3164-7.211-.2206-1.183-.4412-2.366-.6685-3.585-8.3861-49.239 7.9566-103.499 36.4067-143.661 6.1264-8.44 12.7545-16.241 20.0154-23.73.539-.565 1.078-1.129 1.633-1.711 7.909-8.27 16.037-15.664 25.367-22.289.536-.391 1.072-.782 1.624-1.184 19.319-14.024 41.377-24.597 64.439-30.6913 5.807-1.7083 9.127-4.5742 13.371-8.7968 4.336-3.9337 9.426-6.5811 14.566-9.3282-.562-.6922-.562-.6922-1.136-1.3984-9.6-12.2346-12.061-23.2935-10.864-38.6016 1.881-10.0495 8.054-18.4695 16.313-24.375 15.526-9.29455 31.94-9.28794 47.437.0625zm-43.187 16.6875c-5.701 7.5585-6.563 14.2498-5.563 23.625 1.777 7.0845 7.231 11.8555 13 16 6.401 3.2638 14.57 3.1182 21.446 1.3829 6.605-2.9271 10.876-8.5685 14.492-14.6329 2.066-7.2913 2.186-14.1527-1-21.125-3.904-6.8513-9.326-11.3788-16.938-13.625-10.027-1.2782-18.461.7817-25.437 8.375zm-21.778 77.1403c-5.381 7.49-7.778 14.453-9.785 23.485h102c-4.514-16.554-10.968-28.759-26.183-37.5628-23.232-11.8574-49.323-5.8209-66.032 14.0778zm-93.785 51.485c-.78.727-1.559 1.454-2.363 2.203-34.7646 33.344-53.0863 82.348-54.5742 129.859-.2751 14.557 1.3893 28.626 3.9375 42.938.5888-.069 1.1775-.137 1.7842-.208 13.8218-1.579 26.503-1.124 38.2195 7.454 7.982 7.013 13.446 16.943 14.199 27.637.203 14.003-3.994 24.491-13.203 35.117.892.385.892.385 1.801.777 16.987 7.846 27.652 21.061 34.199 38.223.275 1.913.528 3.83.75 5.75 1.23 5.054 4.054 6.863 8.277 9.469 4.25 2.416 8.591 4.617 12.973 6.781 1.616.826 3.232 1.653 4.848 2.48 44.353 22.232 96.603 25.416 143.711 10.228 27.097-8.64 27.097-8.64 48.64-25.521.806-2.044 1.299-4.048 1.801-6.187 6.055-18.739 16.843-31.399 34-41 .99-.66 1.98-1.32 3-2-.459-.485-.918-.97-1.39-1.469-8.97-9.798-12.133-19.386-11.922-32.742.808-9.798 5.287-18.918 12.347-25.762 10.204-8.476 21.557-10.942 34.543-9.801 2.144.236 4.283.502 6.422.774 3.809-12.548 4.412-25.347 4.375-38.375 0-.735-.001-1.469-.001-2.225-.177-52.266-22.156-100.171-58.83-136.857-15.006-14.717-32.544-25.852-51.419-34.918-.867-.417-1.735-.834-2.629-1.264-5.391-2.531-10.801-4.618-16.496-6.361.217.836.433 1.673.657 2.535 2.122 8.873 3.263 17.335 2.343 26.465-2.553 2.553-3.468 2.251-7.01 2.254-1.06.005-2.12.011-3.212.017-1.168-.004-2.336-.008-3.539-.012-1.839.005-1.839.005-3.716.01-3.367.007-6.735.006-10.103-.001-3.52-.005-7.039 0-10.559.003-5.912.004-11.823-.001-17.735-.011-6.84-.01-13.68-.007-20.521.004-5.866.009-11.733.01-17.6.005-3.506-.003-7.013-.003-10.52.003-3.908.007-7.815-.002-11.723-.013-1.752.006-1.752.006-3.539.012-1.06-.006-2.12-.011-3.212-.017-.925-.001-1.85-.002-2.802-.003-2.209-.251-2.209-.251-4.209-2.251-1.011-10.031.488-19.297 3-29-24.683 0-56.32 29.096-73 45zm-58.9997 198c-4.257 6.594-6.113 13.323-4.5742 21.172 1.9245 6.848 5.6395 12.33 11.7031 16.179 6.7836 3.473 12.9157 4.901 20.4375 3 7.0496-2.518 12.0703-6.115 15.7503-12.711 3.377-7.579 3.857-13.924 1.121-21.765-3.105-6.967-7.3981-11.237-14.3752-14.313-11.4873-4.026-22.1179-.621-30.0625 8.438zm347.4377-.973c-4.986 6.842-6.638 13.556-5.438 21.973 2.506 8.654 7.627 13.369 15.133 17.984 5.258 2.86 11.25 2.731 17.02 1.59 6.925-2.235 12.726-7.04 16.285-13.387 3.018-6.98 3.424-13.928.629-21.023-3.626-7.359-8.275-12.293-16.067-15.164-10.312-2.597-20.428-.05-27.562 8.027zm-365.6252 73.676c-6.1341 7.773-11.8125 17.171-11.8125 27.297h100.9997c-1.741-13.934-8.301-24.849-19.152-33.77-21.8862-15.633-51.4123-13.547-70.0352 6.473zm346.1872 1.297c-6.398 7.574-11 15.937-11 26h101c-3.129-15.647-9.649-27.052-22.988-36.242-23.103-13.485-48.812-8.952-67.012 10.242z"></path><path d="m235.72 206.296c3.647 3.016 6.97 6.322 10.28 9.704.904.892 1.807 1.784 2.738 2.703 2.105 2.082 4.192 4.18 6.262 6.297 3.901-1.575 6.198-4.096 9.062-7.125 13.98-14.342 31.424-23.662 51.666-24.348 19.805-.197 37.585 5.27 52.123 19.13 14.32 14.344 21.798 31.661 22.524 51.843-.99 28.618-16.664 47.004-36.113 66.148-1.215 1.2-2.429 2.4-3.644 3.6-2.416 2.387-4.847 4.758-7.287 7.121-7.789 7.587-7.789 7.587-13.411 16.837-1.675 3.266-3.866 4.778-6.92 6.794-1.196.227-2.393.454-3.625.687-3.472.919-3.472.919-4.461 3.442-.618 1.772-1.23 3.547-1.836 5.324-1.712 4.043-4.304 6.384-8.078 8.547-2.696.973-5.159 1.501-8 2-.083.866-.165 1.732-.25 2.625-1.346 6.059-4.694 9.922-9.75 13.375-2.985 1.421-4.677 2-8 2-.206 1.175-.412 2.351-.625 3.562-1.589 6.266-5.111 10.061-10.563 13.375-7.39 2.06-13.558 2.123-20.483-1.448-4.902-3.134-8.836-7.434-12.917-11.543-1.04-1.033-2.08-2.065-3.122-3.097-2.813-2.79-5.614-5.594-8.411-8.4-2.347-2.352-4.699-4.697-7.052-7.043-5.56-5.542-11.109-11.095-16.651-16.654-5.691-5.708-11.398-11.399-17.113-17.082-4.928-4.9-9.845-9.811-14.755-14.729-2.923-2.928-5.849-5.852-8.785-8.767-2.767-2.749-5.521-5.509-8.266-8.279-1-1.005-2.004-2.005-3.013-3.001-15.552-15.37-25.24-33.507-25.556-55.707.09-19.236 7.265-37.053 20.562-50.937 24.925-23.904 65.33-28.154 93.47-6.954zm-85.099 20.395c-10.263 12.969-14.814 26.856-13.621 43.309 3.671 26.07 24.979 42.172 42.555 59.828 1.086 1.092 2.173 2.184 3.26 3.276 4.516 4.537 9.033 9.073 13.553 13.605 6.449 6.465 12.889 12.939 19.318 19.424 4.543 4.582 9.096 9.155 13.657 13.721 2.716 2.72 5.428 5.444 8.13 8.178 2.532 2.562 5.076 5.112 7.629 7.654 1.38 1.379 2.748 2.772 4.115 4.164.824.816 1.648 1.632 2.497 2.472.711.715 1.423 1.429 2.155 2.165 2.605 1.849 4.001 1.918 7.131 1.513 1.98-1.064 1.98-1.064 3-3-.389-3.913-1.459-5.995-4.105-8.856-.634-.688-1.268-1.377-1.921-2.087-3.047-3.176-6.138-6.296-9.286-9.372-1.436-1.412-2.871-2.825-4.306-4.237-.75-.736-1.499-1.471-2.271-2.229-3.998-3.929-7.98-7.876-11.965-11.819-5.056-5.002-10.117-9.999-15.196-14.977-4.121-4.04-8.225-8.097-12.318-12.166-1.559-1.544-3.125-3.082-4.697-4.613-2.193-2.137-4.363-4.295-6.529-6.459-.979-.939-.979-.939-1.978-1.897-3.138-3.182-4.337-4.543-4.895-9.116.467-3.172.467-3.172 1.529-5.11 3.211-1.761 5.314-1.543 8.938-1.062 3 2.004 5.376 4.543 7.86 7.144.752.759 1.504 1.518 2.279 2.301 1.629 1.648 3.25 3.305 4.863 4.969 2.553 2.634 5.127 5.245 7.706 7.852 4.542 4.597 9.064 9.212 13.581 13.833 7.229 7.397 14.474 14.778 21.744 22.136 2.536 2.576 5.056 5.167 7.574 7.759 1.554 1.578 3.108 3.155 4.663 4.732.697.726 1.393 1.452 2.111 2.199 2.988 3.003 4.872 4.848 8.981 6.096 2.621.187 2.621.187 4.576-1.084 1.638-2.987.971-4.692.062-7.937-1.809-2.315-3.549-4.284-5.615-6.341-.878-.904-.878-.904-1.774-1.825-1.937-1.985-3.892-3.949-5.849-5.912-1.361-1.377-2.72-2.753-4.08-4.13-2.854-2.884-5.717-5.757-8.588-8.624-3.662-3.663-7.29-7.358-10.909-11.063-2.799-2.856-5.621-5.688-8.45-8.514-1.347-1.352-2.685-2.712-4.015-4.081-9.391-9.934-9.391-9.934-22.27-13.378-3.714-.2-5.736-1.69-8.45-4.132-3.619-4.793-5.151-8.342-5.25-14.313-.026-.924-.052-1.848-.078-2.801.64-5.629 3.691-9.632 7.455-13.694.798-.863 1.596-1.725 2.418-2.614 3.753-3.941 7.566-7.814 11.428-11.649.808-.807 1.617-1.614 2.45-2.445 2.544-2.539 5.092-5.074 7.639-7.609 1.742-1.737 3.484-3.474 5.225-5.211 4.235-4.224 8.473-8.445 12.713-12.664-6.112-12.946-21.896-23.246-35-28-20.526-7.169-45.256.713-59.379 16.691zm146.379-13.691c-.746.3-1.493.6-2.262.91-12.262 5.565-21.563 16.572-30.929 25.91-1.557 1.548-3.113 3.095-4.67 4.642-3.245 3.229-6.487 6.463-9.725 9.698-4.155 4.15-8.325 8.282-12.5 12.411-3.212 3.183-6.413 6.377-9.612 9.574-1.533 1.53-3.071 3.055-4.613 4.576-2.148 2.121-4.278 4.256-6.406 6.396-.961.939-.961.939-1.941 1.896-3.392 3.361-3.392 3.361-4.805 7.8.347 2.224.347 2.224 1.588 4.062 1.91 1.381 1.91 1.381 4.664.994 4.004-1.084 5.588-2.678 8.463-5.649.73-.743.73-.743 1.476-1.502 1.051-1.074 2.097-2.154 3.137-3.238 1.65-1.719 3.315-3.42 4.985-5.118 4.145-4.219 8.263-8.462 12.377-12.71 3.48-3.592 6.972-7.172 10.481-10.735 1.638-1.673 3.258-3.363 4.877-5.054 1.01-1.029 2.022-2.057 3.034-3.084.872-.901 1.745-1.801 2.643-2.73 3.319-2.484 5.631-2.894 9.738-3.049 2.188 1.222 2.188 1.222 4 3.062.673.649 1.346 1.297 2.039 1.965.647.651 1.294 1.302 1.961 1.973 8.247 7.852 17.184 12.375 28.652 12.375 4.803-.538 9.183-2.057 13.689-3.772 4.609-1.657 7.215-1.687 11.659.397 1.869 1.869 1.292 4.497 1.426 6.992-.426 2.008-.426 2.008-2.078 3.633-2.681 1.57-5.267 2.544-8.223 3.5-1.008.332-2.016.665-3.055 1.008-13.949 3.939-27.916 2.097-40.668-4.661-4.064-2.491-7.753-5.414-11.402-8.472-3.719 1.538-4.356 2.475-7 6l60 60c3.182-1.591 4.71-2.456 7.097-4.807.578-.565 1.155-1.13 1.751-1.712.613-.611 1.227-1.222 1.859-1.852.644-.637 1.287-1.274 1.95-1.931 1.362-1.351 2.721-2.705 4.078-4.062 2.049-2.046 4.115-4.075 6.181-6.103 13.926-13.806 22.73-27.283 24.396-47.283-.574-16.503-6.64-29.723-18.312-41.25-.812-.845-.812-.845-1.641-1.707-10.594-10.14-24.633-13.664-38.838-13.669-6.953.174-13.071 1.769-19.521 4.376zm-41.629 71.531c-.638.65-1.276 1.299-1.933 1.969-.641.649-1.282 1.299-1.942 1.969-.494.505-.987 1.01-1.496 1.531 5.663 6.898 11.964 13.147 18.258 19.461.585.588 1.17 1.176 1.773 1.782 3.089 3.103 6.18 6.203 9.273 9.301 3.192 3.198 6.375 6.405 9.556 9.614 2.454 2.472 4.914 4.938 7.376 7.402 1.177 1.18 2.352 2.362 3.524 3.547 1.634 1.652 3.278 3.294 4.924 4.933.481.491.962.981 1.458 1.486 2.457 2.427 4.32 4.232 7.858 4.474 2.365-.941 2.365-.941 4-3 .606-2.819.606-2.819 0-6-1.767-2.334-3.408-4.18-5.492-6.189-.584-.586-1.167-1.172-1.768-1.776-1.93-1.93-3.879-3.838-5.83-5.746-1.344-1.336-2.687-2.672-4.028-4.01-3.533-3.515-7.083-7.012-10.637-10.505-2.907-2.863-5.801-5.739-8.694-8.616-3.438-3.419-6.882-6.833-10.328-10.244-.662-.655-1.324-1.311-2.006-1.986-1.862-1.841-3.728-3.679-5.596-5.516-.557-.551-1.115-1.103-1.689-1.671-3.05-3.838-3.05-3.838-6.561-2.21zm-17.371 17.469c-1.578 1.557-1.578 1.557-3.125 3.5-.539.649-1.078 1.299-1.633 1.969-.41.505-.82 1.01-1.242 1.531 7.849 7.988 15.715 15.96 23.601 23.912 3.661 3.692 7.317 7.39 10.96 11.101 3.514 3.579 7.042 7.144 10.582 10.699 1.349 1.36 2.693 2.726 4.031 4.097 1.873 1.915 3.763 3.812 5.659 5.705.552.574 1.105 1.148 1.674 1.739 1.715 1.756 1.715 1.756 4.493 3.747 3.499-.041 4.525-.525 7-3 .626-2.325.626-2.325 0-5-1.759-2.237-3.452-4.105-5.476-6.076-.582-.586-1.164-1.172-1.764-1.775-1.926-1.933-3.87-3.848-5.815-5.763-1.341-1.337-2.681-2.675-4.021-4.014-2.809-2.802-5.626-5.596-8.449-8.384-3.626-3.581-7.236-7.177-10.842-10.778-2.766-2.762-5.538-5.519-8.312-8.274-1.334-1.325-2.666-2.65-3.998-3.977-1.857-1.849-3.722-3.691-5.588-5.531-.554-.553-1.108-1.106-1.678-1.676-2.558-2.861-2.558-2.861-6.057-3.752z"></path></g></svg>