<svg xmlns="http://www.w3.org/2000/svg" width="301" height="300" viewBox="0 0 301 300" fill="none"><path d="M252.167 39.4535C279.488 63.7826 297.794 100.34 300.247 136.951C300.308 138.577 300.308 138.577 300.371 140.235C300.439 141.551 300.507 142.867 300.578 144.223C301.758 186.578 285.79 224.04 257.238 254.86C229.244 282.944 191.316 298.857 151.654 299.462C108.7 298.999 70.896 282.012 40.8414 251.462C19.0809 227.814 3.2087 199.822 1.11757 168.042C0.680612 168.042 1.56778 168.042 1.11757 168.042C-2.19324 117.726 11.4653 74.8171 48.2483 39.7826C107.905 -13.1921 192.429 -12.2189 252.167 39.4535ZM62.0275 44.898C61.0341 45.7139 60.0407 46.5298 59.0172 47.3704C33.9179 68.7005 19.1559 100.04 14.3589 132.291C11.7247 173.697 21.5485 210.586 49.0642 242.192C73.2016 268.691 107.725 284.592 143.441 286.308C159.759 286.789 174.845 285.361 190.468 280.593C191.377 280.316 192.286 280.039 193.222 279.754C214.584 272.997 231.57 261.833 247.406 246.166C248.271 245.38 249.136 244.595 250.028 243.786C271.835 223.626 285.235 191.061 287.401 161.718C287.529 158.001 287.565 154.3 287.543 150.58C287.537 149.255 287.53 147.931 287.523 146.566C287.013 113.909 275.434 84.0315 254.026 59.4634C253.328 58.5759 252.63 57.6883 251.911 56.7738C231.622 31.6496 198.05 16.9624 166.634 13.119C127.738 10.2825 92.2785 19.4872 62.0275 44.898Z" fill="currentColor"></path><path d="M165.975 31.4182C167.417 31.9901 167.417 31.9901 168.888 32.5735C172.047 33.8289 175.2 35.0958 178.354 36.3636C180.557 37.2433 182.759 38.1225 184.962 39.0012C189.569 40.8416 194.175 42.6877 198.779 44.5379C204.675 46.9071 210.578 49.262 216.482 51.6125C221.028 53.4243 225.571 55.2436 230.113 57.0652C232.288 57.9365 234.464 58.8055 236.641 59.672C239.684 60.8842 242.722 62.1066 245.759 63.3317C247.104 63.8644 247.104 63.8644 248.477 64.4078C253.012 66.25 256.982 68.1006 260.647 71.3806C261.697 73.9564 261.697 73.9564 262.219 76.8426C262.402 77.7746 262.584 78.7066 262.773 79.6667C268.306 118.126 262.272 156.722 243.396 190.871C242.196 193.043 241.038 195.239 239.885 197.437C233.999 208.209 226.539 217.313 218.275 226.304C217.275 227.393 217.275 227.393 216.256 228.504C200.299 245.666 175.294 268.798 150.967 271.784C145.557 271.191 141.332 269.115 136.592 266.607C135.661 266.125 134.73 265.644 133.77 265.148C91.438 242.953 59.0834 205.851 44.3224 160.242C36.9098 135.38 29.2119 96.3268 41.1602 72.0094C43.8683 68.1997 45.6442 67.2479 49.95 65.541C51.3307 64.9806 52.7115 64.4202 54.1341 63.8428C55.6738 63.2443 57.2135 62.6457 58.7999 62.0289C61.3155 61.0244 63.8311 60.0198 66.3464 59.0144C68.2333 58.2625 70.1216 57.514 72.011 56.7685C79.5075 53.8097 86.9688 50.7705 94.4222 47.7048C100.406 45.2456 106.397 42.804 112.39 40.3648C115.391 39.1399 118.39 37.9092 121.387 36.6726C125.646 34.9181 129.915 33.189 134.187 31.4654C135.473 30.9296 136.758 30.3939 138.083 29.842C139.285 29.3624 140.487 28.8829 141.726 28.3888C142.768 27.9633 143.811 27.5378 144.885 27.0995C152.328 25.3858 159.148 28.6588 165.975 31.4182ZM140.267 43.1055C138.856 43.6641 138.856 43.6641 137.415 44.234C134.296 45.4698 131.18 46.7122 128.063 47.9549C125.903 48.813 123.743 49.6707 121.583 50.5282C117.052 52.3275 112.523 54.1301 107.995 55.9349C102.178 58.2529 96.3594 60.5638 90.5394 62.8724C86.0776 64.643 81.6173 66.4169 77.1573 68.1919C75.0116 69.0455 72.8655 69.8981 70.7189 70.7498C67.7246 71.9385 64.7321 73.1316 61.7401 74.326C60.8452 74.6803 59.9502 75.0346 59.0282 75.3996C54.9224 76.8524 54.9224 76.8524 51.4344 79.3254C47.0353 100.976 48.1549 126.907 54.0827 148.18C54.5333 149.808 54.9839 151.437 55.4482 153.115C69.0037 197.353 99.4344 232.622 139.836 254.488C145.516 257.496 148.221 258.625 154.716 258.083C158.06 256.692 161.017 255.289 164.151 253.531C165.017 253.056 165.882 252.58 166.774 252.09C207.221 229.306 234.902 191.333 247.442 147.151C250.652 133.921 251.801 121.146 251.709 107.546C251.719 106.012 251.729 104.479 251.74 102.898C251.736 101.396 251.733 99.8927 251.73 98.3442C251.725 96.3428 251.725 96.3428 251.721 94.301C251.607 92.8548 251.494 91.4085 251.378 89.9184C251.423 88.9809 251.468 88.0435 251.514 87.0776C251.325 83.252 250.808 81.2528 248.73 78.0012C242.056 73.7594 234.807 71.1815 227.419 68.4375C225.261 67.5976 223.104 66.7536 220.948 65.9058C215.279 63.6891 209.589 61.5304 203.894 59.3823C198.092 57.1814 192.313 54.9219 186.532 52.6695C178.099 49.3972 169.66 46.1396 161.2 42.9374C160.31 42.597 159.42 42.2567 158.503 41.906C150.94 39.0612 147.57 40.1838 140.267 43.1055Z" fill="currentColor"></path><path d="M145.748 102.353C150.388 103.947 149.695 104.078 154.054 102.355C165.247 99.1872 178.942 99.1833 189.144 104.484C192.798 106.972 195.166 108.822 197.497 112.553C199.541 115.369 199.541 115.369 202.892 115.698C204.09 115.711 205.288 115.725 206.523 115.739C217.657 116.415 225.89 120.091 233.497 128.334C238.786 135.326 241.79 143.383 242.109 152.152C240.365 164.167 234.558 172.74 224.978 180.125C211.722 189.093 197.787 194.624 182.523 199.076C181.352 199.42 180.182 199.763 178.976 200.117C172.541 201.895 166.75 203.123 160.013 202.469C155.438 198.265 153.719 193.819 152.068 187.904C151.194 187.904 150.32 187.904 149.42 187.904C148.928 189.665 148.928 189.665 148.427 191.463C146.643 196.189 145.2 199.046 141.475 202.469C133.554 203.226 126.655 201.352 119.131 199.159C117.915 198.805 116.699 198.452 115.446 198.088C96.6314 192.389 74.2947 184.068 63.2275 166.676C58.9963 157.485 58.5284 148.847 61.9706 139.377C66.6856 128.746 72.2157 122.243 82.8825 117.394C86.918 116.463 90.431 116.246 94.5514 116.07C100.671 115.65 100.671 115.65 105.227 111.435C105.693 110.727 106.159 110.019 106.639 109.289C116.11 97.5001 132.997 97.0106 145.748 102.353ZM112.013 122.608C111.061 123.803 111.061 123.803 110.089 125.023C108.372 126.994 108.372 126.994 105.724 128.318C103.461 128.276 101.198 128.186 98.9376 128.07C90.5921 128.015 84.5904 129.77 78.4912 135.596C74.4956 140.16 72.7979 143.722 72.2067 149.752C72.8287 157.341 74.8615 162.518 80.4722 167.799C94.9841 178.719 117.879 189.228 136.179 189.228C142.5 178.182 142.5 178.182 143.518 165.859C142.147 161.623 140.539 157.584 138.827 153.477C135.497 141.179 135.646 125.169 141.475 113.753C130.017 108.024 119.489 113.895 112.013 122.608ZM161.337 112.429C160.9 113.303 160.463 114.176 160.013 115.077C160.641 116.442 161.269 117.808 161.916 119.215C166.956 132.225 164.71 145.902 160.427 158.69C157.932 166.151 156.448 171.534 159.956 178.894C160.412 179.682 160.868 180.471 161.337 181.283C162.074 182.84 162.812 184.397 163.572 186C164.145 187.066 164.719 188.131 165.31 189.228C173.076 188.473 180.023 186.927 187.406 184.428C188.438 184.081 189.47 183.734 190.534 183.376C203.101 178.991 220.216 172.913 226.716 160.511C229.509 154.413 229.381 149.273 227.544 142.884C224.298 136.512 220.644 132.935 214.302 129.642C209.289 128.449 204.618 128.247 199.489 128.649C194.138 128.174 192.669 125.653 189.144 121.697C187.538 120.238 185.91 118.804 184.261 117.394C183.491 116.732 182.721 116.07 181.928 115.387C177.67 111.998 174.462 112.289 169.116 112.346C167.666 112.358 166.215 112.37 164.72 112.382C163.045 112.405 163.045 112.405 161.337 112.429ZM149.42 124.346C147.698 129.398 148.237 133.98 148.675 139.242C148.81 140.915 148.945 142.588 149.084 144.311C149.195 145.588 150.629 148.437 150.744 149.752C150.744 148.843 152.068 146.856 152.068 146.856C152.744 143.005 152.744 143.005 152.979 138.497C153.093 136.973 153.207 135.449 153.325 133.878C153.382 130.301 153.173 127.708 152.068 124.346C151.194 124.346 150.32 124.346 149.42 124.346Z" fill="currentColor"></path><path d="M172.923 75.4357C175.903 76.6771 175.903 76.6771 178.551 79.3254C178.658 83.177 177.802 85.2769 175.297 88.1908C169.185 93.9175 169.185 93.9175 164.151 93.808C161.337 92.5667 161.337 92.5667 160.013 91.2425C160.097 86.8843 160.247 83.3997 162.966 79.8426C166.257 76.8309 168.412 75.3332 172.923 75.4357Z" fill="currentColor"></path><path d="M135.848 204.456C138.827 205.118 138.827 205.118 141.475 207.766C142.22 210.662 142.22 210.662 141.475 214.386C138.813 218.059 135.92 221.043 132.206 223.655C128.482 223.738 128.482 223.738 125.586 222.331C124.712 221.457 123.838 220.583 122.937 219.683C122.937 214.798 124.712 212.155 127.903 208.676C130.792 205.975 131.858 205.181 135.848 204.456Z" fill="currentColor"></path><path d="M166.303 205.035C172.044 206.912 175.699 210.35 178.551 215.711C178.147 219.667 177.442 220.792 174.578 223.655C169.694 223.655 167.05 221.881 163.572 218.69C160.87 215.801 160.076 214.735 159.351 210.745C160.369 206.164 161.62 205.141 166.303 205.035Z" fill="currentColor"></path><path d="M126.91 75.353C131.795 75.353 134.438 77.1278 137.917 80.3185C140.594 83.1891 141.414 84.3236 142.22 88.2632C141.475 91.2425 141.475 91.2425 137.503 93.8908C133.595 93.9964 131.568 93.1714 128.643 90.5908C124.468 86.0777 124.468 86.0777 122.937 83.2978C123.334 79.3399 124.047 78.2162 126.91 75.353Z" fill="currentColor"></path></svg>