<svg xmlns="http://www.w3.org/2000/svg" width="301" height="380" viewBox="0 0 301 380" fill="none"><path d="M149.477 104.233C150.716 105.094 151.954 105.956 153.23 106.844C156.686 109.053 156.686 109.053 160.174 107.837C161.25 107.253 162.326 106.67 163.434 106.069C164.587 105.493 165.741 104.918 166.929 104.324C167.957 103.809 168.985 103.294 170.045 102.764C183.432 98.6445 198.08 101.127 210.274 107.544C216.247 111.26 220.523 114.973 224.77 120.577C230.263 127.306 236.376 128.55 244.557 130.717C259.323 135.094 270.073 144.88 278.077 157.833C283.939 168.839 286.316 178.26 285.848 190.732C285.485 201.059 286.085 207.672 292.763 215.972C298.32 223.317 298.917 233.407 297.859 242.33C295.387 253.95 291.312 262.475 282.433 270.519C276.94 275.78 275.438 280.978 273.251 288.125C271.043 293.122 268.16 295.93 264.252 299.718C259.501 304.41 259.501 304.41 257.888 310.587C258.692 314.42 259.823 317.973 261.131 321.663C263.927 332.313 264.414 342.844 264.528 353.8C264.554 355.146 264.579 356.492 264.606 357.879C264.6 365.04 264.576 370.363 259.661 376.02C253.165 380.567 245.209 379.701 237.625 378.959C232.13 376.604 230.673 375.143 227.341 370.144C226.663 367.159 226.059 364.156 225.504 361.145C221.582 343.785 211.374 334.281 197.958 323.132C196.814 322.111 195.671 321.09 194.492 320.039C191.24 317.427 188.706 315.606 184.736 314.317C180.686 315.097 177.55 316.533 173.867 318.38C156.729 326.512 136.162 323.884 118.626 318.725C106.026 313.775 94.2764 307.031 86.5403 295.649C83.6488 291.871 83.6488 291.871 79.1832 291.718C76.8453 291.905 76.8453 291.905 74.4602 292.097C58.0519 292.702 42.3438 287.841 29.5429 277.354C17.28 265.787 8.10313 252.177 6.97237 234.985C7.16588 227.351 7.85628 219.94 9.54333 212.489C10.0642 206.889 7.87531 203.274 5.50325 198.256C1.36448 181.591 4.10813 165.864 12.3898 151.061C21.9314 136.226 35.1729 125.163 52.7354 121.138C60.9317 119.703 69.1665 118.924 77.4902 118.924C79.8317 116.564 79.8317 116.564 82.0813 113.506C99.1758 93.087 127.131 92.2496 149.477 104.233ZM93.6506 120.393C93.6506 121.847 93.6506 123.302 93.6506 124.8C94.6941 125.314 95.7375 125.827 96.8127 126.356C98.1629 127.024 99.5132 127.693 100.904 128.381C102.251 129.046 103.597 129.711 104.985 130.396C108.342 132.146 108.342 132.146 109.811 133.615C109.995 137.288 109.995 137.288 109.811 140.961C109.084 141.688 109.084 141.688 108.342 142.43C100.909 141.975 95.6974 140.11 89.2318 136.462C77.5439 130.961 62.0242 132.412 50.1336 136.496C37.072 142.201 27.1895 150.887 21.1127 163.824C16.85 175.591 16.85 188.601 21.1127 200.368C26.8886 212.6 34.5681 218.592 46.3517 225.034C49.5769 227.639 49.5769 227.639 50.1393 231.53C49.5769 234.985 49.5769 234.985 48.1078 236.454C38.259 236.248 32.4233 231.777 24.6018 226.17C23.6322 225.685 22.6626 225.2 21.6636 224.701C20.7407 238.775 23.8216 250.268 32.9575 261.245C38.7643 267.29 44.8961 271.242 52.5152 274.651C53.909 275.287 55.3028 275.923 56.7389 276.579C63.6999 278.111 70.3718 277.763 77.4902 277.589C77.4902 271.771 77.4902 265.954 77.4902 259.96C81.3687 259.96 85.2472 259.96 89.2432 259.96C89.3701 261.096 89.497 262.232 89.6277 263.403C91.6462 278.365 96.2142 287.596 107.877 297.267C124.551 308.824 143.9 311.043 163.56 307.488C179.396 303.087 190.891 294.898 200.897 281.996C203.321 282.481 205.745 282.966 208.242 283.466C208.885 287.138 208.885 287.138 208.242 292.28C205.18 296.563 201.668 300.305 197.958 304.033C202.481 308.724 207.099 312.896 212.22 316.949C227.89 329.481 237.337 344.265 240.563 364.267C243.472 364.267 246.381 364.267 249.378 364.267C250.346 338.479 247.939 318.107 235.26 295.253C233.224 290.826 232.754 288.255 233.217 283.466C237.165 282.731 237.165 282.731 242.032 283.466C245.09 287.069 247.255 291.01 249.378 295.219C258.567 289.603 260.667 280.601 263.828 270.869C265.902 266.546 268.314 264.575 272.057 261.612C279.018 255.603 282.414 250.879 283.667 241.55C284.269 231.093 282.115 222.857 275.822 214.417C267.708 206.421 258.313 204.085 247.358 201.992C243.501 201.195 243.501 201.195 242.032 199.726C241.848 196.053 241.848 196.053 242.032 192.38C243.501 190.911 243.501 190.911 249.286 190.544C257.15 190.594 264.045 192.733 271.414 195.318C272.334 180.228 270.466 170.139 260.855 158.315C253.553 150.463 245.453 144.073 234.686 142.43C234.368 144.93 234.368 144.93 234.044 147.48C233.217 152.714 233.217 152.714 231.748 154.183C229.3 154.243 226.85 154.246 224.402 154.183C224.039 152.789 223.675 151.395 223.301 149.959C218.81 134.691 214.557 126.058 200.805 117.638C191.685 114.193 180.036 114.368 170.768 117.053C162.385 120.973 155.999 127.392 150.946 135.084C149.533 139.487 149.533 139.487 148.559 144.174C146.667 152.585 146.667 152.585 145.07 154.183C141.397 154.366 141.397 154.366 137.724 154.183C136.255 152.714 136.255 152.714 135.796 146.929C135.878 136.622 140.489 127.942 145.07 118.924C129.18 106.259 109.089 107.726 93.6506 120.393Z" fill="currentColor"></path><path d="M180.329 167.405C181.541 167.797 182.753 168.189 184.002 168.593C202.073 174.946 219.649 189.658 230.279 205.602C230.108 214.109 227.352 218.803 221.556 224.701C220.463 225.843 220.463 225.843 219.349 227.008C200.061 246.665 175.353 256.741 148.008 257.021C119.97 254.955 96.273 242.357 77.4903 221.762C74.1781 217.499 71.908 214.474 70.8849 209.166C73.4422 196.661 91.418 183.638 101.656 176.73C125.728 162.59 153.724 157.556 180.329 167.405ZM118.626 183.565C116.47 184.636 116.47 184.636 114.27 185.729C102.994 191.744 94.867 199.126 86.305 208.54C96.9588 225.443 114.591 236.136 133.684 241.32C156.855 245.582 178.452 240.594 197.958 227.639C204.138 222.771 209.74 218.047 214.119 211.479C213.526 204.889 209.337 201.412 204.776 197.023C188.914 184.047 171.6 176.821 151.13 177.046C149.7 177.058 148.271 177.07 146.798 177.083C136.396 177.328 127.876 178.562 118.626 183.565Z" fill="currentColor"></path><path d="M168.077 184.036C175.404 189.296 180.187 196.718 181.89 205.602C182.371 214.921 179.047 223.139 173.35 230.394C166.98 237.123 160.203 239.586 151.038 240.035C140.94 239.667 133.804 236.039 126.89 228.741C121.785 222.172 119.854 216.188 120.278 207.88C121.641 198.611 124.925 191.44 131.848 185.034C144.11 177.011 155.444 177.145 168.077 184.036ZM136.255 201.195C134.004 205.697 134.449 209.446 134.786 214.417C137.416 220.508 140.475 223.49 146.539 226.17C152.39 227.041 154.878 226.426 160.128 223.599C165.812 218.949 166.813 216.682 167.749 209.459C166.897 202.392 164.736 200.293 159.761 195.318C150.008 190.441 143.098 194.185 136.255 201.195Z" fill="currentColor"></path><path d="M151.773 0.200416C155.354 1.39408 155.354 1.39408 158.292 4.33232C158.622 8.81302 158.774 13.1563 158.786 17.6405C158.795 18.9629 158.805 20.2852 158.815 21.6476C158.83 24.4473 158.837 27.247 158.836 30.0466C158.843 34.3357 158.896 38.6225 158.952 42.9111C158.961 45.6284 158.966 48.3457 158.969 51.063C158.99 52.3486 159.011 53.6342 159.033 54.9587C158.966 63.8246 158.966 63.8246 155.507 67.6312C152.416 68.9737 152.416 68.9737 149.294 68.6983C146.539 67.5046 146.539 67.5046 143.601 64.5663C143.289 60.0854 143.154 55.7414 143.159 51.2582C143.153 49.9358 143.146 48.6135 143.14 47.2511C143.131 44.4514 143.131 41.6517 143.137 38.852C143.142 34.5633 143.107 30.2761 143.07 25.9875C143.067 23.2702 143.066 20.5529 143.067 17.8356C143.054 16.55 143.04 15.2645 143.026 13.9399C143.035 12.7438 143.044 11.5477 143.054 10.3153C143.053 9.26394 143.052 8.21254 143.051 7.12927C144.077 1.90889 146.538 -0.182606 151.773 0.200416Z" fill="currentColor"></path><path d="M294.92 38.5812C297.859 39.5913 297.859 39.5913 300.797 42.5295C300.327 48.948 298.49 53.592 295.316 59.1317C294.499 60.5682 293.682 62.0046 292.84 63.4846C291.981 64.9627 291.122 66.4408 290.238 67.9637C289.407 69.4248 288.577 70.8858 287.721 72.3911C285.27 76.6679 282.764 80.9066 280.229 85.1341C279.459 86.4434 278.689 87.7527 277.896 89.1017C277.156 90.2979 276.417 91.494 275.655 92.7264C275.013 93.7816 274.37 94.8368 273.708 95.924C270.678 99.1374 268.408 99.4797 264.069 99.8253C261.314 98.2644 261.314 98.2644 259.661 95.4179C260.121 87.2836 263.576 81.6872 267.742 74.942C268.393 73.8645 269.045 72.7869 269.716 71.6767C271.069 69.4395 272.427 67.2055 273.79 64.9745C275.768 61.7164 277.707 58.4383 279.632 55.149C280.811 53.1462 281.989 51.1434 283.167 49.1406C283.716 48.1995 284.264 47.2584 284.829 46.2888C289.879 37.7935 289.879 37.7935 294.92 38.5812Z" fill="currentColor"></path><path d="M76.6645 9.56607C80.4291 10.2088 80.4291 10.2088 82.6572 13.2335C85.1654 18.2067 86.7534 23.218 88.2109 28.5671C88.5016 29.6119 88.7923 30.6567 89.0919 31.7331C89.6999 33.9331 90.3021 36.1346 90.8988 38.3377C91.8122 41.6934 92.7564 45.0394 93.7029 48.3859C94.292 50.5326 94.8793 52.6799 95.4646 54.8277C95.7476 55.8196 96.0306 56.8115 96.3221 57.8335C97.9539 63.9948 98.1975 68.6707 96.5894 74.8502C95.1203 76.3193 95.1203 76.3193 91.6312 76.6866C87.7747 76.3193 87.7747 76.3193 85.5377 74.7831C82.3564 70.5746 81.3306 65.8946 80.0446 60.8648C79.7574 59.7833 79.4701 58.7017 79.1742 57.5874C78.5707 55.3011 77.9748 53.0128 77.3858 50.7227C76.4868 47.2353 75.5604 43.7561 74.6301 40.277C74.0459 38.0499 73.4634 35.8223 72.8826 33.5943C72.6072 32.561 72.3318 31.5277 72.0481 30.4631C70.5517 24.5779 69.5879 19.218 70.1452 13.1471C73.0835 10.2088 73.0835 10.2088 76.6645 9.56607Z" fill="currentColor"></path><path d="M9.14485 38.2143C14.1419 40.072 15.1801 42.3116 17.7555 46.9311C18.62 48.4509 19.4845 49.9707 20.3752 51.5365C21.2549 53.1396 22.1346 54.7427 23.0409 56.3944C24.7981 59.5147 26.5561 62.6347 28.3148 65.7543C29.1592 67.2823 30.0036 68.8104 30.8736 70.3847C33.9694 75.8209 37.3405 81.0555 40.8113 86.2592C42.6257 90.4529 42.1911 92.602 40.7622 96.887C39.7926 97.8567 38.8229 98.8263 37.8239 99.8253C33.4901 99.5779 31.2456 99.1616 28.2137 95.9789C27.5785 94.9378 26.9434 93.8967 26.289 92.824C25.55 91.6281 24.8109 90.4321 24.0495 89.2C23.2621 87.8582 22.4748 86.5165 21.6636 85.1341C20.7967 83.6787 19.9298 82.2233 19.0367 80.7238C16.2509 75.977 13.5333 71.1963 10.8288 66.4028C9.417 63.9569 9.417 63.9569 7.97666 61.4617C7.08847 59.8879 6.20028 58.3142 5.28518 56.6928C4.47961 55.2767 3.67404 53.8606 2.84405 52.4016C0.991186 48.1667 0.362263 45.6188 1.09588 41.0604C5.50325 38.1221 5.50325 38.1221 9.14485 38.2143Z" fill="currentColor"></path><path d="M225.229 9.65789C228.81 10.2088 228.81 10.2088 231.748 13.1471C231.341 24.3785 228.3 35.0716 225.389 45.8741C224.582 48.8803 223.8 51.8921 223.019 54.9051C222.506 56.8347 221.992 58.7639 221.476 60.6927C221.016 62.4242 220.556 64.1557 220.082 65.9397C218.593 70.2478 217.252 73.0352 214.119 76.3193C210.354 76.8702 210.354 76.8702 206.773 76.3193C205.803 75.3497 204.834 74.3801 203.835 73.3811C204.241 62.1497 207.283 51.4566 210.194 40.654C211.001 37.6479 211.783 34.636 212.563 31.623C213.077 29.6934 213.591 27.7642 214.107 25.8355C214.567 24.1039 215.027 22.3724 215.501 20.5884C218.961 10.5752 218.961 10.5752 225.229 9.65789Z" fill="currentColor"></path></svg>