<svg xmlns="http://www.w3.org/2000/svg" width="512" height="512" viewBox="0 0 512 512" fill="none"><path d="M314.803 132.448C318.721 135.787 322.384 139.338 326 142.999C326.687 143.688 327.374 144.376 328.082 145.085C343.782 161.884 351.761 185.522 351.609 208.288C351.217 217.382 347.932 224.568 341.313 230.874C326.807 242.156 308.801 246.989 291 249.999C290.324 250.118 289.648 250.236 288.952 250.359C253.755 256.241 205.233 254.96 174.938 234.124C168.118 228.804 162.002 221.808 160.698 212.946C160.56 210.684 160.533 208.453 160.563 206.187C160.571 205.361 160.579 204.535 160.588 203.684C161.243 179.153 171.922 157.363 189 139.999C189.748 139.239 190.495 138.478 191.266 137.695C224.012 106.358 279.435 104.032 314.803 132.448ZM193.423 157.305C181.402 171.611 175.142 190.413 175.66 208.999C176.319 214.815 179.251 217.529 183.563 221.062C203.808 235.368 231.264 237.227 255.25 237.249C256 237.25 256.749 237.251 257.522 237.252C282.142 237.23 311.044 235.066 331 218.999C336.139 213.347 336.354 209.63 336.27 202.112C335.414 184.534 327.843 167.873 316 154.999C315.263 154.17 314.525 153.341 313.766 152.487C299.994 137.793 281.003 128.688 260.817 127.784C233.903 127.001 211.309 137.371 193.423 157.305Z" fill="currentColor"></path><path d="M420.855 408.984C423.323 410.91 425.675 412.904 428 414.999C428.634 415.552 429.268 416.105 429.922 416.675C435.022 421.402 438.519 427.02 442 432.999C442.588 434.003 442.588 434.003 443.188 435.027C449.555 446.791 453.197 462.015 450.539 475.304C447.456 484.626 440.487 489.726 432 493.999C414.909 502.315 396.433 503.375 377.75 503.437C376.559 503.446 376.559 503.446 375.343 503.455C353.601 503.564 327.617 501.092 311.062 485.499C305.601 479.601 304.01 473.909 304 465.999C305.285 445.14 313.857 427.38 329 412.999C355.317 391.111 392.816 389.498 420.855 408.984ZM355 414.999C354.145 415.327 353.291 415.654 352.41 415.991C339.066 421.767 328.747 434.027 323.188 447.187C320.509 454.699 317.306 464.553 320.238 472.249C326.426 481.907 339.701 484.387 350.254 486.718C374.546 490.937 405.905 491.397 428 478.999C431.18 476.755 434.224 474.551 436 470.999C437.14 457.551 432.193 443.775 423.859 433.312C421.649 430.785 419.369 428.377 417 425.999C416.459 425.435 415.917 424.87 415.359 424.288C403.601 413.064 388.539 410.382 372.996 410.683C366.556 410.973 360.932 412.508 355 414.999Z" fill="currentColor"></path><path d="M175 407.001C190.638 417.995 202.748 433.867 206.367 452.933C209.802 473.221 209.802 473.221 203.621 482.028C191.293 497.03 171.537 501.175 153 503.001C150.226 503.157 147.457 503.21 144.68 503.239C143.907 503.249 143.133 503.259 142.337 503.269C116.988 503.523 89.9245 503.603 69 487.001C63.4113 481.21 60.9561 475.612 60.6875 467.563C61.0809 447.723 68.7742 430.613 82.1875 416.251C107.614 392.195 145.291 389.112 175 407.001ZM90.4102 430.173C81.5322 440.59 75.1372 455.022 75.6445 468.938C76.2909 472.688 78.083 474.787 81 477.001C104.847 492.225 139.474 491.191 166.149 485.681C174.965 483.673 184.632 480.767 191 474.001C194.663 466.515 192.258 458.327 190.027 450.657C184.63 435.29 174.235 423.691 160 416.001C135.328 405.284 108.945 410.651 90.4102 430.173Z" fill="currentColor"></path><path d="M129 211C129.99 211.783 130.98 212.565 132 213.372C145.352 225.072 152.518 241.67 155 259C155.565 267.764 155.7 275.059 150.324 282.239C140.462 293.289 126.042 297.212 112 300C110.914 300.226 109.829 300.452 108.711 300.684C81.167 305.361 44.3094 304.6 20.0506 288.637C15.0714 284.663 10.8281 280.198 8.99978 274C7.03372 254.647 12.0567 236.784 24.0623 221.438C25.3542 219.941 26.6652 218.46 27.9998 217C28.5515 216.369 29.1032 215.737 29.6717 215.086C55.5584 187.104 100.75 188.091 129 211ZM38.9998 228C38.4352 228.542 37.8706 229.083 37.2888 229.641C30.8108 236.428 24.988 247.604 23.9998 257C23.8084 258.658 23.8084 258.658 23.6131 260.348C23.1205 267.078 23.1205 267.078 25.3318 273.282C40.8421 288.172 68.9241 287.39 88.867 287.219C105.12 286.874 123.92 284.548 137 274C140.329 269.896 140.487 266.092 140 261C137.366 244.841 130.208 230.415 116.734 220.52C91.0846 202.742 60.8206 206.257 38.9998 228Z" fill="currentColor"></path><path d="M479.125 212.25C493.274 225.581 502.766 242.548 503.389 262.214C503.405 263.051 503.421 263.888 503.437 264.75C503.46 265.543 503.482 266.336 503.506 267.152C503.477 274.058 501.456 279.068 497.027 284.356C491.444 289.25 485.95 292.411 479 295C478.059 295.359 477.118 295.717 476.148 296.086C445.29 306.691 405.856 305.715 375.847 292.625C368.533 288.933 361.488 283.984 358 276.313C353.769 262.219 358.626 245.68 365 233C367.155 229.195 369.48 225.573 372 222C372.437 221.377 372.874 220.753 373.324 220.11C384.419 205.85 402.529 197.39 419.875 194.313C441.612 192.241 462.496 197.852 479.125 212.25ZM383.66 231.622C376.289 242.183 370.391 255.9 372 269C376.296 276.846 383.932 280.093 392.169 282.682C420.893 290.664 455.962 290.63 482.765 276.547C486.362 274.057 487.758 272.231 488.609 267.899C489.187 253.421 483.723 240.142 474.594 229.086C462.594 216.275 447.442 209.144 429.812 208.563C411.685 209.323 395.239 217.633 383.66 231.622Z" fill="currentColor"></path><path d="M297.032 280.981C309.322 292.175 317.264 306.845 318.203 323.629C318.418 341.636 314.157 357.559 301.235 370.828C300.497 371.545 299.76 372.262 299 373C298.387 373.635 297.773 374.269 297.141 374.922C285.54 386.126 269.616 390.527 253.86 390.422C236.702 389.872 223.032 382.991 211 371C210.362 370.385 209.724 369.771 209.067 369.137C197.912 357.535 193.5 341.636 193.644 325.885C193.852 319.616 195.039 313.935 197 308C197.267 307.151 197.534 306.301 197.809 305.426C203.22 290.107 215.023 279.009 229.218 271.842C251.559 261.298 278.249 264.955 297.032 280.981ZM220.297 297.086C211.763 307.914 207.887 320.271 209 334C211.243 346.845 217.223 357.861 227.504 365.977C238.341 373.391 249.928 376.423 263 375C276.102 372.447 287.237 365.957 295 355C301.848 343.577 305.073 331.966 302.313 318.696C298.708 305.928 292.172 294.956 280.625 287.953C259.694 276.674 237.027 279.45 220.297 297.086Z" fill="currentColor"></path><path d="M283.25 16.1867C293.164 23.6855 301.271 34.2491 303.75 46.6945C305.361 61.5414 302.998 74.8563 294 86.9992C285.345 97.426 274.092 103.407 260.688 104.812C247.543 105.547 235.36 102.457 225.164 93.9719C215.203 84.8919 208.775 74.287 207.746 60.6281C207.311 46.9 210.704 34.5899 219.696 24.0031C221.394 22.2325 223.145 20.6033 225 18.9992C225.498 18.5493 225.995 18.0995 226.508 17.6359C242.203 4.89887 266.87 5.54732 283.25 16.1867ZM230.465 35.0031C224.307 43.3949 222.051 51.7084 223 61.9992C225.191 71.2365 229.48 78.6958 237.188 84.3117C245.62 89.4814 254.322 91.11 264 88.9992C267.198 87.9621 270.069 86.64 273 84.9992C273.628 84.6499 274.256 84.3005 274.903 83.9406C281.89 79.5217 286.254 72.2173 288.528 64.3742C290.25 55.718 289.157 47.7952 285 39.9992C279.694 32.2357 273.073 26.7117 264 23.9992C251.104 22.1145 239.494 25.0908 230.465 35.0031Z" fill="currentColor"></path><path d="M403.961 327.016C411.277 334.136 415.279 343.183 415.992 353.301C416.025 364.614 412.461 374.355 404.875 382.813C396.233 390.818 385.911 393.403 374.48 393.274C364.884 392.52 356.778 388.817 350 382C341.928 372.496 339.383 364.138 339.644 351.731C340.637 341.316 345.504 332.867 352.953 325.672C368.202 313.216 389.184 314.797 403.961 327.016ZM360 340C355.708 346.381 353.704 352.333 355 360C356.852 366.746 360.185 371.165 366 375C372.045 378.358 377.413 378.945 384.105 377.567C390.849 375.466 395.197 370.885 398.875 365C401.394 358.282 401.269 352.71 399 346C395.567 339.625 391.194 335.589 384.437 333.188C375.684 330.639 366.052 332.689 360 340Z" fill="currentColor"></path><path d="M156.664 323.984C161.822 328.396 166.054 332.855 169 338.999C169.317 339.65 169.634 340.301 169.961 340.972C173.491 349.636 173.31 360.058 170.438 368.874C166.075 379.119 158.728 386.474 148.594 391.097C138.72 394.543 127.567 394.232 118 389.999C109.064 385.274 101.216 377.776 98 367.999C94.9707 355.019 95.9901 344.403 103 332.999C108.815 324.251 117.741 319.587 127.856 317.406C138.191 316.07 148.234 317.705 156.664 323.984ZM115 341.999C111.537 347.416 110.353 353.794 111.688 360.062C113.735 367.052 118.152 371.87 124 375.999C129.652 378.702 135.653 379.13 141.59 377.124C148.482 373.974 153.04 370.009 156.375 363.187C157.907 355.373 157.544 349.321 153.617 342.265C149.455 336.434 144.014 333.323 137 331.999C128.298 330.854 120.537 335.694 115 341.999Z" fill="currentColor"></path><path d="M104.898 123.27C113.349 130.228 118.106 138.351 119.742 149.149C120.74 160.182 117.818 170.68 110.812 179.375C102.997 187.477 92.9274 191.775 81.6992 192.094C70.3722 191.562 62.4752 188.349 54.2656 180.5C46.123 171.515 43.5297 162.474 43.7578 150.496C44.4804 140.065 48.7677 131.72 56.5508 124.7C71.0939 113.448 89.7177 112.407 104.898 123.27ZM62.1172 141.258C58.6159 146.718 58.1173 152.682 59 159C61.3347 166.384 65.2324 171.265 72 175C77.7147 177.434 83.025 177.443 89 176C95.1843 173.307 100.024 169.067 103.004 162.934C105.121 157.474 105.632 152.663 104 147C100.953 140.125 95.9001 134.866 89.125 131.625C78.2977 129.46 68.9936 132.206 62.1172 141.258Z" fill="currentColor"></path><path d="M451.762 121.73C460.422 128.215 466.18 136.226 468 146.999C469.108 158.762 467.288 168.883 459.688 178.156C451.284 187.337 442.845 191.503 430.301 192.093C419.073 191.774 409.003 187.476 401.188 179.374C394.182 170.679 391.26 160.181 392.258 149.148C393.911 138.235 398.714 130.341 407 122.999C420.919 114.256 437.438 112.755 451.762 121.73ZM411 140.999C407.534 146.314 406.366 152.033 407.367 158.296C409.375 165.483 413.716 170.737 419.813 174.937C427.666 177.555 434.493 177.68 442 173.999C447.816 170.309 450.773 165.501 453 158.999C454.221 152.058 452.839 145.893 449 139.999C444.722 135.149 439.366 131.568 432.84 130.718C423.32 130.326 416.953 133.657 411 140.999Z" fill="currentColor"></path><path d="M260 295.001C261.673 296.215 261.673 296.215 263 298.001C263.34 300.452 263.34 300.452 263.293 303.325C263.278 304.867 263.278 304.867 263.264 306.44C263.238 307.512 263.213 308.584 263.187 309.688C263.167 311.313 263.167 311.313 263.146 312.971C263.111 315.648 263.062 318.324 263 321.001C263.676 320.974 264.351 320.948 265.048 320.921C268.115 320.817 271.182 320.752 274.25 320.688C275.313 320.646 276.377 320.604 277.473 320.561C285.329 320.438 285.329 320.438 288.73 323.294C290.481 327.027 290.229 329.096 289 333.001C284.417 337.119 278.974 336.34 273.187 336.188C272.208 336.175 271.229 336.161 270.221 336.147C267.813 336.112 265.407 336.063 263 336.001C263.021 336.646 263.042 337.292 263.063 337.957C263.147 340.888 263.199 343.819 263.25 346.751C263.3 348.274 263.3 348.274 263.351 349.829C263.45 357.341 263.45 357.341 261.172 360.676C258.215 362.479 256.405 362.497 253 362.001C250.837 360.806 250.837 360.806 249 359.001C248.546 356.549 248.546 356.549 248.609 353.676C248.629 352.134 248.629 352.134 248.648 350.561C248.682 349.489 248.715 348.417 248.75 347.313C248.768 346.23 248.786 345.146 248.805 344.03C248.852 341.353 248.918 338.677 249 336.001C248.39 336.016 247.78 336.032 247.151 336.048C244.372 336.111 241.592 336.15 238.812 336.188C237.853 336.213 236.893 336.238 235.904 336.264C226.737 336.359 226.737 336.359 223 333.001C221.771 329.096 221.519 327.027 223.269 323.294C227.644 319.62 232.239 320.471 237.75 320.688C238.829 320.711 239.908 320.733 241.019 320.756C243.681 320.815 246.34 320.897 249 321.001C248.984 320.32 248.968 319.639 248.952 318.937C248.89 315.854 248.851 312.771 248.812 309.688C248.787 308.616 248.762 307.544 248.736 306.44C248.727 305.412 248.717 304.384 248.707 303.325C248.691 302.377 248.675 301.429 248.659 300.452C249.06 297.564 249.719 296.746 252 295.001C254.937 293.532 256.868 294.234 260 295.001Z" fill="currentColor"></path></svg>