<svg xmlns="http://www.w3.org/2000/svg" width="301" height="273" viewBox="0 0 301 273" fill="none"><path d="M188.968 0.474061C189.417 0.470412 189.867 0.466764 190.33 0.463004C191.83 0.453703 193.33 0.461054 194.83 0.468422C195.908 0.465252 196.986 0.461087 198.064 0.456002C200.987 0.445346 203.911 0.449471 206.834 0.456889C209.895 0.462814 212.956 0.457318 216.016 0.453647C221.156 0.449393 226.296 0.454997 231.435 0.466138C237.376 0.478867 243.317 0.474744 249.258 0.461866C254.36 0.45125 259.462 0.449756 264.564 0.455876C267.61 0.459521 270.657 0.460011 273.704 0.452282C276.568 0.445522 279.432 0.450218 282.297 0.463729C283.347 0.46682 284.398 0.465937 285.449 0.460776C286.884 0.454377 288.319 0.462409 289.754 0.474061C290.169 0.468844 290.585 0.463626 291.012 0.458251C293.948 0.504438 295.607 1.21951 297.834 3.11C299.887 5.59529 300.466 7.27857 300.47 10.4797C300.477 11.247 300.483 12.0142 300.49 12.8048C300.486 13.648 300.481 14.4913 300.476 15.3346C300.479 16.2281 300.483 17.1216 300.488 18.0151C300.499 20.4362 300.495 22.8571 300.487 25.2782C300.482 27.8144 300.487 30.3506 300.491 32.8868C300.495 37.1456 300.489 41.4043 300.478 45.663C300.465 50.5836 300.47 55.5039 300.482 60.4244C300.493 64.6525 300.495 68.8805 300.488 73.1086C300.485 75.6323 300.484 78.156 300.492 80.6797C300.499 83.0527 300.494 85.4254 300.481 87.7983C300.477 88.6681 300.478 89.5379 300.484 90.4076C300.49 91.5969 300.48 92.7862 300.47 93.9754C300.469 94.9727 300.469 94.9727 300.468 95.9902C300.095 98.3263 299.337 99.5255 297.834 101.345C286.787 108.71 271.349 103.684 258.073 103.684C258.073 143.82 258.073 183.956 258.073 225.308C265.019 225.308 271.966 225.308 279.123 225.308C281.755 227.94 281.755 227.94 281.764 231.006C281.772 231.681 281.779 232.356 281.787 233.052C281.78 234.144 281.78 234.144 281.772 235.258C281.775 236.009 281.777 236.761 281.779 237.535C281.783 239.125 281.778 240.716 281.767 242.307C281.753 244.334 281.761 246.361 281.775 248.389C281.786 250.335 281.778 252.28 281.772 254.225C281.777 254.948 281.782 255.672 281.787 256.417C281.735 261.179 281.201 264.453 277.974 268.136C277.593 268.451 277.213 268.766 276.82 269.09C276.441 269.414 276.062 269.739 275.672 270.072C272.91 271.975 270.387 272.257 267.102 272.237C266.66 272.24 266.217 272.242 265.762 272.244C264.275 272.249 262.788 272.246 261.301 272.243C260.226 272.246 259.151 272.248 258.076 272.251C255.118 272.259 252.16 272.258 249.203 272.257C246.014 272.257 242.826 272.263 239.637 272.269C233.389 272.279 227.141 272.282 220.893 272.282C215.815 272.283 210.737 272.285 205.659 272.289C191.269 272.299 176.878 272.305 162.488 272.304C162.1 272.304 161.712 272.304 161.312 272.304C160.528 272.304 159.743 272.304 158.959 272.304C146.754 272.303 134.549 272.312 122.345 272.328C108.634 272.346 94.9237 272.356 81.2131 272.355C73.9531 272.354 66.6932 272.357 59.4332 272.37C53.2522 272.381 47.0713 272.383 40.8903 272.375C37.7361 272.372 34.5819 272.371 31.4276 272.382C28.5403 272.391 25.6532 272.389 22.7658 272.379C21.7211 272.377 20.6764 272.379 19.6317 272.386C9.13231 272.447 9.1323 272.447 4.74162 268.599C4.42655 268.219 4.11148 267.838 3.78686 267.446C3.46275 267.067 3.13863 266.687 2.80469 266.297C1.10159 263.825 0.642364 261.661 0.620226 258.685C0.609034 257.66 0.609034 257.66 0.597617 256.615C0.596315 255.883 0.595014 255.151 0.593673 254.397C0.589781 253.641 0.585888 252.884 0.581878 252.105C0.574893 250.509 0.572707 248.912 0.573402 247.315C0.573521 245.27 0.557515 243.227 0.537409 241.182C0.521274 239.228 0.521968 237.274 0.520581 235.32C0.512178 234.586 0.503775 233.853 0.495117 233.097C0.498715 232.416 0.502313 231.735 0.50602 231.033C0.504354 230.435 0.502687 229.836 0.50097 229.219C0.884025 227.137 1.43467 226.574 3.12904 225.308C4.81871 225.104 6.27837 225.035 7.96222 225.08C8.42614 225.083 8.89007 225.087 9.36805 225.09C10.8459 225.103 12.3228 225.132 13.8004 225.162C14.8039 225.174 15.8074 225.185 16.8109 225.194C19.2674 225.22 21.7233 225.26 24.1794 225.308C24.1785 224.955 24.1776 224.602 24.1767 224.238C24.1244 203.295 24.0843 182.353 24.06 161.41C24.0571 158.895 24.054 156.38 24.0509 153.866C24.0503 153.365 24.0497 152.864 24.0491 152.349C24.0389 144.243 24.0205 136.137 23.999 128.032C23.9771 119.714 23.9641 111.397 23.9594 103.079C23.9561 97.9468 23.946 92.8148 23.927 87.6828C23.9146 84.1631 23.9109 80.6435 23.9139 77.1239C23.9154 75.0934 23.9132 73.0632 23.9006 71.0328C23.889 68.8296 23.8918 66.6269 23.8981 64.4237C23.8913 63.7844 23.8845 63.145 23.8775 62.4863C23.9124 58.0394 24.6569 54.9365 27.6673 51.5012C28.0479 51.1861 28.4285 50.8711 28.8207 50.5464C29.1999 50.2223 29.579 49.8982 29.9696 49.5643C33.2049 47.3351 36.1523 47.3857 39.9545 47.4091C40.5468 47.4081 41.1391 47.4071 41.7493 47.406C43.7362 47.4041 45.723 47.4105 47.7099 47.4169C49.1333 47.4173 50.5566 47.4171 51.98 47.4164C55.0456 47.4161 58.1111 47.4195 61.1767 47.426C65.6089 47.4355 70.0412 47.4386 74.4734 47.4401C81.6647 47.4426 88.8559 47.4504 96.0471 47.4615C103.032 47.4722 110.018 47.4805 117.003 47.4854C117.433 47.4858 117.864 47.4861 118.308 47.4864C120.468 47.4879 122.629 47.4894 124.789 47.4908C142.709 47.503 160.629 47.5236 178.549 47.5497C178.544 47.0447 178.538 46.5397 178.533 46.0194C178.486 41.2533 178.451 36.4874 178.428 31.7211C178.415 29.2709 178.399 26.8209 178.372 24.3708C178.347 22.005 178.333 19.6393 178.327 17.2734C178.323 16.3721 178.314 15.4708 178.302 14.5696C178.285 13.3042 178.282 12.0396 178.283 10.7741C178.278 10.0547 178.273 9.33535 178.268 8.5942C178.716 5.44158 180.113 3.76766 182.502 1.73982C184.724 0.60315 186.53 0.443419 188.968 0.474061ZM187.905 10.1268C187.905 37.9133 187.905 65.6998 187.905 94.3283C193.693 94.6177 193.693 94.6177 199.599 94.913C201.703 97.0171 201.664 98.3634 201.755 101.162C201.775 101.573 201.795 101.983 201.816 102.406C201.864 103.416 201.902 104.427 201.938 105.438C204.893 103.008 207.611 100.396 210.28 97.659C212.936 94.9549 212.936 94.9549 214.982 94.8319C215.834 94.8263 215.834 94.8263 216.704 94.8205C217.353 94.8148 218.003 94.8091 218.672 94.8032C219.391 94.7998 220.11 94.7965 220.851 94.793C221.616 94.7871 222.381 94.7812 223.17 94.7752C225.244 94.7594 227.318 94.747 229.392 94.7353C231.336 94.7239 233.281 94.7093 235.226 94.695C240.916 94.6549 246.607 94.6198 252.298 94.5841C265.01 94.4997 277.721 94.4153 290.818 94.3283C290.818 66.5418 290.818 38.7553 290.818 10.1268C256.856 10.1268 222.895 10.1268 187.905 10.1268ZM34.7046 58.6596C33.7122 60.6593 33.3893 62.281 33.3912 64.5C33.3889 65.0763 33.3866 65.6526 33.3842 66.2464C33.3876 66.8747 33.391 67.5031 33.3945 68.1505C33.3935 68.82 33.3925 69.4894 33.3915 70.1792C33.3899 72.0385 33.3935 73.8978 33.3994 75.7572C33.4045 77.7926 33.4028 79.8281 33.4019 81.8635C33.4013 85.8147 33.4067 89.7659 33.4142 93.717C33.4226 98.2873 33.4236 102.858 33.4245 107.428C33.4306 119.495 33.447 131.562 33.462 143.629C33.4862 170.583 33.5103 197.537 33.5351 225.308C104.545 225.308 175.555 225.308 248.717 225.308C248.717 185.172 248.717 145.036 248.717 103.684C245.629 103.684 242.542 103.684 239.361 103.684C239.358 105.057 239.354 106.431 239.351 107.846C239.318 120.761 239.275 133.677 239.223 146.592C239.197 153.233 239.174 159.874 239.158 166.514C239.145 172.301 239.126 178.087 239.099 183.874C239.085 186.939 239.074 190.004 239.07 193.07C239.067 195.953 239.055 198.836 239.037 201.719C239.032 202.779 239.03 203.839 239.031 204.899C239.032 206.343 239.022 207.786 239.009 209.229C239.014 209.863 239.014 209.863 239.018 210.51C238.978 213.327 238.978 213.327 238.086 214.598C236.618 215.661 235.621 215.588 233.816 215.589C233.145 215.593 232.475 215.598 231.784 215.603C230.674 215.597 230.674 215.597 229.542 215.591C228.75 215.593 227.959 215.596 227.168 215.599C224.988 215.606 222.809 215.603 220.63 215.597C218.281 215.593 215.933 215.599 213.584 215.604C208.981 215.612 204.379 215.61 199.776 215.605C196.036 215.601 192.297 215.601 188.557 215.603C187.76 215.603 187.76 215.603 186.947 215.604C185.867 215.604 184.787 215.605 183.708 215.605C173.575 215.61 163.442 215.604 153.31 215.595C144.609 215.587 135.909 215.589 127.208 215.597C117.113 215.606 107.017 215.61 96.922 215.604C95.8461 215.604 94.7703 215.603 93.6945 215.603C92.9004 215.602 92.9004 215.602 92.0903 215.602C88.3538 215.6 84.6173 215.603 80.8808 215.607C76.3293 215.612 71.7779 215.611 67.2264 215.601C64.9027 215.597 62.579 215.595 60.2553 215.601C58.1302 215.606 56.0052 215.603 53.8801 215.594C52.7427 215.591 51.6053 215.597 50.4678 215.603C49.4621 215.596 49.4621 215.596 48.436 215.589C47.855 215.588 47.274 215.588 46.6754 215.588C45.2298 215.368 45.2298 215.368 44.1661 214.632C43.3101 213.37 43.2558 212.657 43.2548 211.138C43.2503 210.631 43.2457 210.123 43.241 209.6C43.2449 209.042 43.2488 208.484 43.2528 207.909C43.2501 207.317 43.2474 206.725 43.2446 206.114C43.2375 204.12 43.2431 202.125 43.2486 200.131C43.2462 198.705 43.2431 197.278 43.2393 195.852C43.2321 192.375 43.2332 188.898 43.2383 185.421C43.2422 182.596 43.2428 179.771 43.2409 176.946C43.2406 176.544 43.2403 176.142 43.24 175.728C43.2395 174.912 43.2389 174.096 43.2383 173.28C43.2333 165.624 43.2391 157.968 43.2485 150.311C43.2564 143.738 43.255 137.166 43.2469 130.593C43.2375 122.964 43.2338 115.336 43.2392 107.707C43.2398 106.894 43.2403 106.081 43.2409 105.268C43.2411 104.868 43.2414 104.468 43.2417 104.056C43.2432 101.233 43.2406 98.4105 43.2365 95.5879C43.2311 91.7906 43.2349 87.9933 43.2451 84.196C43.2474 82.7994 43.2467 81.4027 43.2429 80.0061C43.2381 78.1054 43.2441 76.2051 43.2528 74.3045C43.2489 73.7466 43.245 73.1886 43.241 72.6138C43.2456 72.1062 43.2501 71.5987 43.2548 71.0757C43.2551 70.6368 43.2554 70.1979 43.2557 69.7457C43.5426 68.2507 44.0089 67.7388 45.2298 66.8459C47.0261 66.67 48.7046 66.6028 50.502 66.6127C51.048 66.6088 51.5939 66.6049 52.1563 66.6009C53.9934 66.59 55.8302 66.5916 57.6672 66.593C58.9809 66.5878 60.2947 66.5817 61.6084 66.575C65.1818 66.5588 68.7552 66.5534 72.3287 66.5499C76.0605 66.5444 79.7924 66.5291 83.5243 66.5148C89.7902 66.4922 96.0562 66.4756 102.322 66.4637C108.777 66.4514 115.231 66.4355 121.685 66.4146C122.083 66.4133 122.481 66.412 122.891 66.4107C124.886 66.4042 126.881 66.3977 128.877 66.3911C145.434 66.3366 161.991 66.2949 178.549 66.2611C178.549 63.1737 178.549 60.0864 178.549 56.9054C160.731 56.8654 142.912 56.8343 125.094 56.8158C122.991 56.8136 120.887 56.8114 118.784 56.809C118.365 56.8086 117.946 56.8081 117.515 56.8077C110.734 56.8 103.952 56.7862 97.1714 56.7701C90.2136 56.7537 83.2559 56.7439 76.2981 56.7404C72.3899 56.7382 68.4817 56.7327 64.5736 56.7199C60.8963 56.708 57.2191 56.7044 53.5418 56.707C52.1911 56.7065 50.8404 56.703 49.4898 56.6963C47.6473 56.6876 45.8051 56.6897 43.9626 56.6945C43.1589 56.6868 43.1589 56.6868 42.3389 56.679C39.3903 56.6997 37.1891 56.8881 34.7046 58.6596ZM52.2466 75.6169C52.2466 95.6849 52.2466 115.753 52.2466 136.429C58.4214 136.429 64.5961 136.429 70.958 136.429C71.0063 134.922 71.0545 133.414 71.1042 131.861C71.4529 125.061 73.2002 119.82 77.9748 114.794C78.74 114.19 79.516 113.6 80.3138 113.04C80.0539 111.351 79.5711 110.467 78.5961 109.02C75.6623 104.575 75.6856 99.4749 76.2206 94.3283C77.3454 89.5739 79.6942 86.0532 83.7856 83.3646C88.8196 80.2636 95.1298 79.9579 100.811 81.302C105.729 83.148 108.955 86.1128 111.305 90.8199C112.395 93.5189 112.7 96.0098 112.693 98.8965C112.693 99.5141 112.693 99.5141 112.692 100.144C112.587 104.745 111.124 107.72 108.381 111.286C108.381 111.864 108.381 112.443 108.381 113.04C109.167 113.818 109.167 113.818 110.208 114.538C114.224 117.812 116.703 122.602 117.297 127.747C117.395 129.07 117.463 130.389 117.517 131.715C117.59 133.27 117.662 134.826 117.737 136.429C123.911 136.429 130.086 136.429 136.448 136.429C136.448 116.361 136.448 96.293 136.448 75.6169C108.662 75.6169 80.8751 75.6169 52.2466 75.6169ZM145.804 75.6169C145.804 95.6849 145.804 115.753 145.804 136.429C173.59 136.429 201.377 136.429 230.005 136.429C230.005 125.623 230.005 114.817 230.005 103.684C219.465 102.747 219.465 102.747 215.391 105.285C214.324 106.332 214.324 106.332 213.372 107.501C212.817 108.083 212.817 108.083 212.251 108.676C211.097 109.899 209.991 111.155 208.882 112.418C208.103 113.261 207.321 114.102 206.536 114.939C205.114 116.46 203.713 117.996 202.326 119.549C200.186 121.854 199.184 121.886 196.075 122.003C194.516 121.743 194.114 121.32 193.167 120.057C192.914 118.354 192.914 118.354 192.868 116.304C192.847 115.571 192.826 114.838 192.805 114.082C192.792 113.316 192.779 112.55 192.765 111.761C192.746 110.98 192.726 110.199 192.705 109.418C192.656 107.507 192.616 105.596 192.582 103.684C191.99 103.663 191.397 103.643 190.787 103.621C183.529 103.33 183.529 103.33 180.888 100.76C178.868 98.1418 178.859 95.8667 178.834 92.6906C178.825 92.2567 178.815 91.8229 178.805 91.3759C178.771 89.7654 178.752 88.1547 178.732 86.544C178.671 82.9381 178.611 79.3321 178.549 75.6169C167.743 75.6169 156.937 75.6169 145.804 75.6169ZM86.5265 94.109C85.2377 96.7858 85.1102 99.0094 85.5763 101.93C86.9386 104.759 88.5944 106.415 91.4237 107.777C94.3441 108.243 96.5677 108.116 99.2445 106.827C101.34 104.931 102.882 103.412 103.342 100.527C103.492 97.2039 103.081 95.118 100.779 92.5741C98.2355 90.2724 96.1496 89.8616 92.8261 90.0113C89.9412 90.4718 88.4227 92.0133 86.5265 94.109ZM82.76 124.33C80.1674 128.035 80.3138 132.031 80.3138 136.429C89.5759 136.429 98.8381 136.429 108.381 136.429C108.381 131.174 108.298 127.147 104.873 122.98C101.604 119.735 98.8786 118.142 94.1646 118.047C88.8968 118.142 85.9721 120.3 82.76 124.33ZM52.2466 145.785C52.2466 165.853 52.2466 185.921 52.2466 206.597C58.4214 206.597 64.5961 206.597 70.958 206.597C71.0063 205.089 71.0545 203.582 71.1042 202.029C71.4529 195.229 73.2002 189.988 77.9748 184.962C78.74 184.358 79.516 183.767 80.3138 183.208C80.0539 181.519 79.5711 180.634 78.5961 179.188C75.6623 174.743 75.6856 169.643 76.2206 164.496C77.3454 159.742 79.6942 156.221 83.7856 153.532C88.8196 150.431 95.1298 150.126 100.811 151.47C105.729 153.316 108.955 156.281 111.305 160.988C112.395 163.687 112.7 166.178 112.693 169.064C112.693 169.682 112.693 169.682 112.692 170.312C112.587 174.913 111.124 177.888 108.381 181.453C108.381 182.032 108.381 182.611 108.381 183.208C109.167 183.986 109.167 183.986 110.208 184.706C114.224 187.98 116.703 192.77 117.297 197.915C117.395 199.238 117.463 200.557 117.517 201.883C117.59 203.438 117.662 204.994 117.737 206.597C123.911 206.597 130.086 206.597 136.448 206.597C136.448 186.529 136.448 166.461 136.448 145.785C108.662 145.785 80.8751 145.785 52.2466 145.785ZM145.804 145.785C145.804 165.853 145.804 185.921 145.804 206.597C151.979 206.597 158.153 206.597 164.515 206.597C164.564 205.089 164.612 203.582 164.661 202.029C165.01 195.229 166.757 189.988 171.532 184.962C172.297 184.358 173.073 183.767 173.871 183.208C173.611 181.519 173.128 180.634 172.153 179.188C169.22 174.743 169.243 169.643 169.778 164.496C170.903 159.742 173.251 156.221 177.343 153.532C182.377 150.431 188.687 150.126 194.369 151.47C199.286 153.316 202.513 156.281 204.862 160.988C205.952 163.687 206.257 166.178 206.251 169.064C206.25 169.682 206.25 169.682 206.249 170.312C206.145 174.913 204.681 177.888 201.938 181.453C201.938 182.032 201.938 182.611 201.938 183.208C202.724 183.986 202.724 183.986 203.765 184.706C207.781 187.98 210.261 192.77 210.854 197.915C210.952 199.238 211.02 200.557 211.075 201.883C211.147 203.438 211.219 204.994 211.294 206.597C217.469 206.597 223.643 206.597 230.005 206.597C230.005 186.529 230.005 166.461 230.005 145.785C202.219 145.785 174.432 145.785 145.804 145.785ZM86.5265 164.277C85.2377 166.954 85.1102 169.177 85.5763 172.098C86.9386 174.927 88.5944 176.583 91.4237 177.945C94.3441 178.411 96.5677 178.284 99.2445 176.995C101.34 175.099 102.882 173.58 103.342 170.695C103.492 167.372 103.081 165.286 100.779 162.742C98.2355 160.44 96.1496 160.03 92.8261 160.179C89.9412 160.64 88.4227 162.181 86.5265 164.277ZM180.084 164.277C178.795 166.954 178.667 169.177 179.134 172.098C180.496 174.927 182.152 176.583 184.981 177.945C187.901 178.411 190.125 178.284 192.802 176.995C194.897 175.099 196.439 173.58 196.899 170.695C197.049 167.372 196.638 165.286 194.337 162.742C191.793 160.44 189.707 160.03 186.383 160.179C183.498 160.64 181.98 162.181 180.084 164.277ZM82.76 194.498C80.1674 198.203 80.3138 202.199 80.3138 206.597C89.5759 206.597 98.8381 206.597 108.381 206.597C108.381 201.342 108.298 197.314 104.873 193.148C101.604 189.903 98.8786 188.31 94.1646 188.214C88.8968 188.31 85.9721 190.468 82.76 194.498ZM176.317 194.498C173.725 198.203 173.871 202.199 173.871 206.597C183.133 206.597 192.395 206.597 201.938 206.597C201.938 201.342 201.855 197.314 198.43 193.148C195.161 189.903 192.436 188.31 187.722 188.214C182.454 188.31 179.529 190.468 176.317 194.498ZM10.1458 234.664C9.01383 248.587 9.01383 248.587 11.9 261.562C14.2056 262.968 16.4658 262.878 19.1187 262.88C19.5475 262.882 19.9763 262.884 20.4181 262.886C21.8593 262.891 23.3003 262.887 24.7415 262.884C25.7835 262.886 26.8255 262.888 27.8674 262.891C30.7341 262.897 33.6008 262.895 36.4675 262.893C39.5579 262.891 42.6482 262.897 45.7385 262.901C51.794 262.908 57.8494 262.909 63.9049 262.908C68.8255 262.907 73.7462 262.908 78.6668 262.911C79.3664 262.911 80.0661 262.911 80.787 262.912C82.2082 262.912 83.6294 262.913 85.0507 262.914C98.3862 262.92 111.722 262.919 125.057 262.915C137.264 262.912 149.471 262.919 161.678 262.93C174.205 262.941 186.731 262.946 199.258 262.944C206.294 262.943 213.33 262.944 220.365 262.953C226.355 262.96 232.344 262.96 238.333 262.953C241.39 262.95 244.447 262.949 247.504 262.956C250.301 262.962 253.098 262.961 255.895 262.953C256.908 262.951 257.922 262.952 258.935 262.957C260.31 262.963 261.685 262.958 263.06 262.95C263.824 262.95 264.589 262.951 265.376 262.951C267.654 262.707 269.037 262.256 270.937 260.977C274.197 252.825 272.106 243.444 272.106 234.664C185.659 234.664 99.2123 234.664 10.1458 234.664Z" fill="currentColor"></path><path d="M220.357 33.2055C221.123 33.2032 221.888 33.201 222.677 33.1987C224.293 33.1952 225.909 33.2002 227.525 33.2112C229.589 33.2245 231.653 33.2168 233.718 33.2028C235.696 33.1923 237.675 33.1997 239.653 33.2055C240.761 33.1984 240.761 33.1984 241.891 33.1911C248.284 33.2593 248.284 33.2593 251.056 35.855C252.543 37.7843 253.465 39.3404 253.979 41.7024C254.291 41.4544 254.603 41.2064 254.925 40.9509C256.355 39.8251 257.798 38.7173 259.242 37.6092C259.733 37.2188 260.223 36.8283 260.729 36.4261C264.901 33.2568 264.901 33.2568 267.647 33.1141C270.048 33.5693 270.628 33.9706 272.106 35.855C272.403 37.3637 272.403 37.3637 272.409 39.0893C272.416 39.7372 272.423 40.385 272.431 41.0525C272.426 41.7494 272.422 42.4462 272.417 43.1642C272.42 44.2411 272.42 44.2411 272.423 45.3398C272.425 46.8576 272.421 48.3754 272.411 49.8932C272.398 52.2188 272.411 54.5433 272.426 56.8689C272.424 58.3429 272.421 59.8169 272.417 61.2909C272.421 61.9878 272.426 62.6846 272.431 63.4026C272.424 64.0504 272.416 64.6983 272.409 65.3658C272.407 65.9352 272.405 66.5047 272.403 67.0914C272.019 69.0434 271.325 69.7341 269.767 70.939C267.238 71.4186 265.932 71.4005 263.671 70.1624C262.146 69.1094 260.692 67.9997 259.242 66.8459C258.733 66.4554 258.224 66.065 257.7 65.6627C256.452 64.7024 255.212 63.7326 253.979 62.7527C253.821 63.2294 253.821 63.2294 253.659 63.7156C253.512 64.1343 253.365 64.553 253.214 64.9843C253.001 65.6057 253.001 65.6057 252.784 66.2396C251.717 68.5134 249.768 69.8286 247.547 70.939C246.449 71.0042 245.349 71.0321 244.25 71.0425C243.559 71.05 242.868 71.0575 242.156 71.0652C241.405 71.0696 240.655 71.0739 239.882 71.0783C238.729 71.0854 238.729 71.0854 237.552 71.0926C235.922 71.1014 234.292 71.1072 232.662 71.1116C230.579 71.118 228.497 71.1381 226.414 71.1614C224.423 71.1804 222.431 71.183 220.439 71.188C219.694 71.1982 218.948 71.2084 218.18 71.219C211.612 71.2029 211.612 71.2029 208.955 68.6001C206.299 65.6225 206.272 63.0453 206.305 59.2443C206.303 58.6866 206.301 58.1288 206.299 57.5541C206.297 56.3785 206.301 55.203 206.311 54.0274C206.324 52.2332 206.311 50.4403 206.296 48.6461C206.298 47.501 206.301 46.3559 206.305 45.2108C206.301 44.6771 206.296 44.1434 206.291 43.5936C206.351 39.4885 207.376 37.3912 210.362 34.4857C213.629 32.9783 216.802 33.1827 220.357 33.2055ZM215.972 42.8718C215.972 49.0466 215.972 55.2214 215.972 61.5833C225.234 61.5833 234.496 61.5833 244.039 61.5833C244.039 55.4085 244.039 49.2337 244.039 42.8718C234.777 42.8718 225.515 42.8718 215.972 42.8718ZM259.79 49.8886C259.147 50.3771 259.147 50.3771 258.49 50.8754C258.16 51.1286 257.829 51.3819 257.488 51.6428C258.176 53.7083 258.632 53.9017 260.448 54.9685C261.588 55.6378 261.588 55.6378 262.75 56.3207C262.75 53.6192 262.75 50.9177 262.75 48.1344C261.609 48.1344 260.657 49.2285 259.79 49.8886Z" fill="currentColor"></path></svg>