<svg xmlns="http://www.w3.org/2000/svg" xmlns:xlink="http://www.w3.org/1999/xlink" height="96" viewBox="0 0 48 48" width="96"><linearGradient id="a" gradientUnits="userSpaceOnUse" x1="18.102" x2="25.297" y1="3.244" y2="34.74"><stop offset="0" stop-color="#35ab4a"></stop><stop offset=".297" stop-color="#31a145"></stop><stop offset=".798" stop-color="#288739"></stop><stop offset="1" stop-color="#237a33"></stop></linearGradient><linearGradient id="b" gradientUnits="userSpaceOnUse" x1="19.158" x2="21.194" y1="23.862" y2="66.931"><stop offset="0" stop-color="#f14e5d"></stop><stop offset=".499" stop-color="#ea3d4f"></stop><stop offset="1" stop-color="#e12138"></stop></linearGradient><linearGradient id="c" gradientUnits="userSpaceOnUse" x1="32.943" x2="36.541" y1="14.899" y2="43.612"><stop offset="0" stop-color="#ffd844"></stop><stop offset=".519" stop-color="#ffc63f"></stop><stop offset="1" stop-color="#ffb03a"></stop></linearGradient><linearGradient id="d" gradientUnits="userSpaceOnUse" x1="13.853" x2="15.572" y1="5.901" y2="42.811"><stop offset=".003" stop-color="#0090e6"></stop><stop offset="1" stop-color="#0065a0"></stop></linearGradient><path d="m13.488 4.012c-2.694-1.504-5.883-.234-7.038 2.311l17.676 17.677 9.014-9.014z" fill="url(#a)"></path><path d="m33.14 33.014-9.014-9.014-17.676 17.677c1.156 2.546 4.345 3.815 7.038 2.312z" fill="url(#b)"></path><path d="m41.419 28.393c1.72-.96 2.58-2.676 2.581-4.393-.001-1.717-.861-3.434-2.581-4.393l-8.279-4.621-9.014 9.014 9.014 9.014z" fill="url(#c)"></path><path d="m6.45 6.323c-.282.625-.45 1.329-.45 2.085v31.179c0 .761.164 1.463.45 2.09l17.674-17.68z" fill="url(#d)"></path></svg>