<svg xmlns="http://www.w3.org/2000/svg" width="301" height="313" viewBox="0 0 301 313" fill="none"><path d="M57.4199 0.471869C59.0604 0.468123 60.7008 0.463207 62.3412 0.457221C66.7623 0.444732 71.1832 0.449484 75.6042 0.458266C78.3707 0.462453 81.1371 0.462236 83.9036 0.459672C84.3649 0.45925 84.8262 0.458827 85.3015 0.458392C86.2391 0.45751 87.1766 0.456615 88.1141 0.455709C96.8708 0.447874 105.627 0.45684 114.384 0.471709C121.883 0.484048 129.381 0.481875 136.88 0.469175C145.615 0.454387 154.35 0.448613 163.084 0.457071C164.017 0.45795 164.949 0.458817 165.882 0.459672C166.57 0.460311 166.57 0.460311 167.272 0.460962C170.49 0.463335 173.709 0.459207 176.927 0.452833C181.262 0.444845 185.597 0.450427 189.932 0.466333C191.519 0.46997 193.106 0.468953 194.693 0.46285C204.975 0.42697 212.887 0.950641 221.509 7.03546C222.092 7.4195 222.675 7.80354 223.276 8.19921C228.812 13.451 233.062 20.8395 233.301 28.5664C233.293 29.4119 233.285 30.2575 233.277 31.1286C233.272 31.8382 233.272 31.8382 233.266 32.5621C233.258 33.5956 233.249 34.6291 233.238 35.6626C233.214 37.935 233.198 40.2075 233.182 42.48C233.172 43.7035 233.163 44.927 233.153 46.1505C233.09 54.0078 233.078 61.8653 233.063 69.7229C233.047 77.37 233.017 85.0163 232.937 92.6631C232.874 98.7419 232.845 104.82 232.856 110.899C232.861 114.113 232.849 117.325 232.795 120.539C232.744 123.566 232.74 126.591 232.769 129.619C232.772 130.724 232.759 131.829 232.727 132.934C232.509 138.857 232.509 138.857 234.871 144.135C237.168 146.498 239.732 148.419 242.422 150.308C254.815 159.537 261.992 177.715 264.438 192.373C266.702 210.649 262.91 227.122 253.825 243.043C253.19 244.354 252.848 245.605 252.542 247.026C252.997 247.254 253.452 247.481 253.921 247.716C253.921 248.171 253.921 248.626 253.921 249.095C254.325 249.265 254.729 249.435 255.144 249.61C256.912 250.605 257.867 251.737 259.18 253.276C261.337 255.518 262.614 256.335 265.731 256.509C266.273 256.491 266.816 256.473 267.374 256.455C272.203 257.091 275.919 261.927 279.168 265.194C279.725 265.75 280.283 266.305 280.857 266.878C282.029 268.05 283.2 269.223 284.369 270.398C286.16 272.196 287.959 273.987 289.758 275.778C290.898 276.919 292.037 278.06 293.176 279.202C293.714 279.737 294.252 280.272 294.807 280.824C295.304 281.325 295.802 281.827 296.314 282.344C296.752 282.783 297.189 283.222 297.641 283.674C299.558 285.895 300.334 287.808 300.385 290.731C300.405 291.235 300.424 291.738 300.444 292.256C299.726 296.019 296.764 298.835 294.13 301.456C293.523 302.062 292.916 302.667 292.29 303.292C291.661 303.912 291.033 304.532 290.385 305.171C289.752 305.804 289.118 306.437 288.465 307.09C282.873 312.645 282.873 312.645 278.576 312.756C277.932 312.782 277.288 312.808 276.625 312.835C271.634 312.107 268.079 307.59 264.686 304.179C264.144 303.639 263.602 303.098 263.044 302.541C261.904 301.402 260.766 300.261 259.629 299.119C257.888 297.37 256.139 295.629 254.39 293.889C253.282 292.779 252.173 291.669 251.066 290.559C250.543 290.039 250.02 289.519 249.481 288.983C248.756 288.251 248.756 288.251 248.016 287.504C247.59 287.078 247.165 286.651 246.726 286.211C244.562 283.696 244.222 282.076 244.439 278.835C244.098 272.972 238.907 269.381 234.797 265.722C234.509 265.47 234.22 265.217 233.922 264.957C233.293 265.321 233.293 265.321 232.651 265.692C213.377 276.548 192.402 280.771 170.652 275.06C155.879 270.798 140.536 261.424 131.857 248.405C130.556 248.094 130.556 248.094 129.036 248.144C128.15 248.136 128.15 248.136 127.247 248.127C126.597 248.132 125.948 248.136 125.278 248.14C124.254 248.135 124.254 248.135 123.209 248.129C121.721 248.122 120.234 248.12 118.746 248.122C116.389 248.125 114.032 248.116 111.675 248.103C106.664 248.077 101.654 248.068 96.6429 248.061C90.853 248.052 85.0632 248.037 79.2734 248.005C76.9566 247.996 74.6399 247.999 72.323 248.002C70.8915 247.996 69.46 247.989 68.0285 247.981C67.069 247.988 67.069 247.988 66.09 247.994C59.7372 247.935 54.0255 246.372 49.3818 241.808C44.4001 236.35 43.4773 230.677 43.5017 223.506C43.5011 222.873 43.5005 222.239 43.4999 221.586C43.4987 219.462 43.5025 217.338 43.5063 215.214C43.5065 213.691 43.5064 212.169 43.506 210.646C43.5058 206.512 43.5099 202.377 43.5147 198.243C43.519 193.922 43.5194 189.602 43.5202 185.282C43.5221 178.03 43.5264 170.778 43.5326 163.526C43.5389 156.057 43.5438 148.588 43.5467 141.119C43.5469 140.658 43.5471 140.198 43.5473 139.723C43.5482 137.413 43.549 135.103 43.5499 132.792C43.5571 113.631 43.5692 94.47 43.5846 75.3087C43.0896 75.3148 42.5946 75.321 42.0847 75.3273C37.4172 75.3826 32.7498 75.4245 28.0821 75.4516C25.6824 75.466 23.283 75.4855 20.8834 75.5168C18.124 75.5525 15.3648 75.5659 12.6052 75.5781C11.7445 75.5923 10.8838 75.6066 9.99707 75.6212C8.79618 75.6215 8.79618 75.6215 7.57103 75.6219C6.51437 75.6311 6.51437 75.6311 5.43636 75.6404C3.08826 75.2194 2.27995 74.406 0.827622 72.5502C0.477336 70.751 0.477336 70.751 0.470685 68.6857C0.46199 67.9096 0.453295 67.1335 0.444336 66.3338C0.44992 65.497 0.455504 64.6601 0.461257 63.7978C0.458618 62.9319 0.455978 62.066 0.453259 61.1739C0.451381 59.3387 0.45509 57.5046 0.467991 55.6696C0.483596 53.3385 0.47473 51.0083 0.458137 48.6773C0.445646 46.4332 0.454454 44.1893 0.461257 41.9452C0.455673 41.1181 0.450089 40.291 0.444336 39.4388C0.555876 29.288 4.5448 22.0866 11.4307 14.7938C24.7044 2.23918 40.0177 0.404568 57.4199 0.471869ZM37.3779 11.8629C37.1504 12.318 36.9228 12.7732 36.6883 13.2421C37.1799 13.4768 37.6715 13.7115 38.178 13.9533C44.6959 17.2517 49.3064 21.4425 51.8601 28.414C53.256 33.0101 53.4352 37.2157 53.4175 42.002C53.4201 42.8036 53.4226 43.6051 53.4252 44.431C53.4309 46.6436 53.4305 48.8562 53.4275 51.0688C53.4257 53.4597 53.432 55.8506 53.4374 58.2415C53.4457 62.3808 53.4492 66.52 53.4497 70.6593C53.4506 76.6484 53.4611 82.6375 53.4742 88.6267C53.4954 98.3504 53.5121 108.074 53.5244 117.798C53.5252 118.379 53.5259 118.961 53.5267 119.56C53.5348 126.051 53.5419 132.542 53.5477 139.032C53.5498 141.388 53.5519 143.743 53.5541 146.098C53.5546 146.68 53.5551 147.261 53.5557 147.86C53.5647 157.55 53.5817 167.239 53.6049 176.929C53.6189 182.904 53.626 188.879 53.6242 194.853C53.6235 198.945 53.6302 203.037 53.6426 207.129C53.6496 209.49 53.6531 211.851 53.6476 214.212C53.6434 216.771 53.6518 219.33 53.6633 221.89C53.6591 222.636 53.6548 223.382 53.6504 224.151C53.6815 227.92 53.8267 230.692 55.9979 233.923C59.7052 237.353 62.708 237.47 67.5739 237.45C68.1931 237.45 68.8122 237.45 69.4501 237.45C71.4987 237.45 73.5472 237.444 75.5958 237.439C77.0153 237.438 78.4348 237.437 79.8543 237.436C83.5922 237.433 87.3302 237.426 91.0681 237.419C94.8816 237.412 98.6952 237.409 102.509 237.405C109.993 237.398 117.477 237.386 124.961 237.371C124.822 236.956 124.683 236.54 124.54 236.112C124.264 235.286 124.264 235.286 123.983 234.443C123.802 233.9 123.62 233.356 123.433 232.796C122.645 230.419 121.879 228.036 121.125 225.648C120.981 225.201 120.838 224.755 120.69 224.295C119.913 221.833 119.253 219.376 118.703 216.852C118.582 216.302 118.462 215.751 118.338 215.183C118.247 214.768 118.157 214.352 118.064 213.924C117.559 213.917 117.054 213.91 116.534 213.903C111.775 213.835 107.016 213.764 102.256 213.69C99.8098 213.652 97.3631 213.615 94.9163 213.581C92.1038 213.542 89.2914 213.497 86.479 213.453C85.5996 213.441 84.7203 213.43 83.8143 213.418C82.9999 213.404 82.1854 213.39 81.3463 213.376C80.269 213.36 80.269 213.36 79.1699 213.344C77.3764 213.234 77.3764 213.234 75.3075 212.545C74.5445 211.019 74.4828 210.099 74.4455 208.407C74.4188 207.682 74.4188 207.682 74.3916 206.942C74.4663 206.515 74.5409 206.088 74.6179 205.649C76.9781 204.075 77.8779 204.085 80.6567 204.049C81.4711 204.036 82.2856 204.022 83.1247 204.008C84.4437 203.996 84.4437 203.996 85.7893 203.984C87.1396 203.964 87.1396 203.964 88.5172 203.943C90.9082 203.908 93.2992 203.881 95.6903 203.855C98.1311 203.827 100.572 203.792 103.013 203.757C107.8 203.691 112.587 203.632 117.375 203.58C117.505 202.245 117.505 202.245 117.637 200.883C117.756 199.699 117.875 198.514 117.994 197.33C118.079 196.453 118.079 196.453 118.165 195.559C118.58 191.488 119.289 187.69 120.419 183.753C120.91 182.135 120.91 182.135 120.823 180.132C120.285 180.125 119.747 180.118 119.192 180.111C114.119 180.043 109.045 179.972 103.972 179.898C101.363 179.86 98.7552 179.823 96.1469 179.789C93.6294 179.756 91.112 179.72 88.5946 179.682C87.6345 179.668 86.6743 179.655 85.7142 179.643C84.3687 179.627 83.0233 179.605 81.6778 179.584C80.9121 179.574 80.1464 179.563 79.3575 179.552C77.6626 179.458 76.2353 179.242 74.6179 178.753C74.5621 177.633 74.5219 176.512 74.4886 175.391C74.4646 174.767 74.4406 174.143 74.4158 173.5C74.4825 172.958 74.5492 172.415 74.6179 171.857C77.1562 170.164 78.3075 170.336 81.3288 170.4C82.3008 170.415 83.2729 170.431 84.2449 170.446C84.7597 170.457 85.2744 170.467 85.8048 170.478C88.5377 170.528 91.2709 170.535 94.0043 170.549C97.4798 170.569 100.954 170.602 104.428 170.683C107.239 170.747 110.048 170.767 112.86 170.759C113.928 170.763 114.995 170.784 116.062 170.821C119.413 170.934 122.436 170.879 125.65 169.788C128.227 167.053 129.561 164.218 131.167 160.823C134.586 155.986 138.634 151.818 142.891 147.72C143.346 147.265 143.801 146.809 144.27 146.34C143.449 146.333 142.627 146.326 141.78 146.319C134.038 146.252 126.295 146.181 118.553 146.106C114.573 146.068 110.592 146.032 106.612 145.997C102.771 145.965 98.9297 145.928 95.0887 145.89C93.6229 145.876 92.1572 145.863 90.6914 145.851C88.6392 145.835 86.587 145.814 84.5348 145.792C83.6248 145.786 83.6248 145.786 82.6965 145.78C79.9174 145.747 77.3296 145.651 74.6179 144.961C74.5621 143.841 74.5219 142.72 74.4886 141.599C74.4646 140.975 74.4406 140.351 74.4158 139.708C74.4825 139.166 74.5492 138.624 74.6179 138.065C76.8733 136.561 77.5028 136.514 80.1124 136.517C80.8198 136.514 81.5272 136.511 82.2561 136.509C83.42 136.514 83.42 136.514 84.6074 136.52C85.834 136.518 85.834 136.518 87.0854 136.516C89.3315 136.513 91.5776 136.516 93.8236 136.52C96.1824 136.522 98.5411 136.514 100.9 136.506C108.933 136.48 116.966 136.467 124.998 136.475C129.434 136.479 133.87 136.471 138.305 136.45C140.648 136.439 142.991 136.435 145.333 136.446C155.087 136.483 163.512 136.44 172.545 132.548C174.56 132.006 176.561 131.611 178.623 131.298C179.393 131.178 179.393 131.178 180.178 131.055C195.367 128.89 209.475 131.707 223.578 137.375C223.626 123.671 223.663 109.967 223.685 96.2627C223.696 89.8989 223.71 83.5352 223.734 77.1715C223.754 71.6221 223.768 66.0726 223.772 60.5232C223.775 57.5873 223.781 54.6516 223.796 51.7158C223.811 48.9467 223.815 46.1777 223.812 43.4086C223.812 42.3979 223.816 41.3871 223.824 40.3764C223.888 31.8452 223.515 23.8115 217.371 17.3799C212.811 12.7777 207.918 10.5046 201.377 10.3949C200.204 10.3902 199.03 10.3893 197.857 10.3914C196.884 10.3891 196.884 10.3891 195.893 10.3867C193.72 10.3823 191.546 10.3829 189.373 10.3834C187.816 10.3814 186.258 10.379 184.7 10.3764C180.467 10.3703 176.234 10.3687 172 10.3683C169.354 10.3678 166.708 10.3663 164.063 10.3645C155.306 10.3584 146.549 10.3552 137.793 10.3557C137.085 10.3558 137.085 10.3558 136.363 10.3558C135.654 10.3559 135.654 10.3559 134.931 10.3559C127.281 10.3562 119.632 10.3496 111.983 10.3399C104.12 10.3299 96.2579 10.3253 88.3955 10.3258C83.9846 10.326 79.5738 10.324 75.163 10.3167C71.0117 10.31 66.8604 10.31 62.709 10.315C61.1887 10.3157 59.6683 10.3141 58.148 10.3099C56.0655 10.3046 53.9832 10.3078 51.9007 10.3131C51.3053 10.3096 50.7099 10.306 50.0965 10.3024C45.8131 10.3263 41.5084 10.664 37.3779 11.8629ZM14.6633 26.9916C10.831 32.6819 10.3727 37.7413 10.4151 44.4236C10.4158 44.9474 10.4165 45.4713 10.4172 46.011C10.4208 47.9468 10.4304 49.8825 10.4393 51.8182C10.4535 56.1564 10.4678 60.4946 10.4824 64.9643C21.4061 64.9643 32.3299 64.9643 43.5846 64.9643C43.6557 59.986 43.7268 55.0078 43.8001 49.8786C43.8315 48.3213 43.8629 46.7639 43.8952 45.1593C43.9053 43.9039 43.9141 42.6484 43.9213 41.393C43.939 40.7582 43.9566 40.1234 43.9748 39.4694C43.9779 34.6969 42.8433 30.9991 40.1365 27.0347C35.8084 22.9157 31.576 21.1353 25.5977 21.2564C21.3435 21.8088 17.5152 23.7651 14.6633 26.9916ZM143.451 160.995C130.426 175.798 126.65 193.365 127.719 212.545C129.32 226.679 136.493 239.084 146.339 249.095C146.855 249.62 147.37 250.144 147.902 250.684C161.188 263.398 177.744 267.511 195.68 267.244C212.297 266.666 227.591 258.021 238.879 246.164C250.836 232.539 255.777 215.672 254.765 197.822C253.362 181.148 245.097 165.953 232.616 154.92C224.954 148.579 215.934 144.099 206.337 141.513C205.788 141.358 205.24 141.204 204.675 141.044C182.162 135.835 159.027 144.634 143.451 160.995ZM244.267 254.612C243.356 255.75 242.446 256.888 241.508 258.06C244.467 261.019 247.425 263.977 250.473 267.025C253.317 265.889 253.317 265.889 254.611 263.577C253.15 262.079 251.684 260.586 250.215 259.095C249.799 258.667 249.382 258.24 248.954 257.799C248.554 257.395 248.154 256.99 247.742 256.573C247.373 256.198 247.005 255.822 246.625 255.435C245.683 254.464 245.683 254.464 244.267 254.612ZM264.554 268.038C264.095 268.501 263.637 268.963 263.164 269.439C262.668 269.937 262.173 270.435 261.662 270.948C261.142 271.474 260.621 272 260.085 272.542C259.562 273.069 259.039 273.595 258.5 274.137C257.202 275.443 255.906 276.751 254.611 278.06C255.528 280.096 256.527 281.524 258.109 283.094C258.537 283.521 258.965 283.949 259.406 284.39C259.866 284.843 260.327 285.297 260.801 285.764C261.274 286.235 261.747 286.705 262.233 287.19C263.741 288.69 265.253 290.185 266.766 291.68C267.79 292.697 268.813 293.714 269.837 294.732C272.344 297.224 274.855 299.711 277.369 302.197C279.447 301.201 280.889 300.22 282.509 298.571C282.935 298.139 283.362 297.708 283.802 297.264C284.239 296.815 284.676 296.366 285.127 295.904C285.575 295.449 286.023 294.995 286.485 294.527C287.587 293.409 288.685 292.286 289.782 291.162C287.007 287.837 284.108 284.696 281.04 281.64C280.619 281.218 280.198 280.796 279.764 280.362C278.884 279.48 278.002 278.6 277.12 277.721C275.763 276.368 274.41 275.011 273.057 273.654C272.199 272.795 271.34 271.938 270.48 271.08C270.075 270.672 269.669 270.265 269.251 269.846C267.097 267.042 267.097 267.042 264.554 268.038Z" fill="currentColor"></path><path d="M231.45 160.648C243.348 171.275 249.587 185.972 250.624 201.734C251.08 218.386 245.142 233.353 233.922 245.647C223.452 256.579 208.684 262.726 193.633 263.132C177.606 263.264 163.233 258.357 151.447 247.279C150.899 246.741 150.352 246.202 149.787 245.647C149.254 245.122 148.721 244.598 148.171 244.058C136.704 232.08 132.7 216.758 133.018 200.541C133.639 185.329 140.624 172.242 151.167 161.512C151.589 161.081 152.011 160.65 152.446 160.206C174.38 139.488 209.472 141.707 231.45 160.648ZM154.141 173.279C145.118 184.845 142.46 197.411 143.581 211.855C145.152 224.45 152.41 234.953 161.88 242.994C173.88 251.91 187.338 253.912 201.871 252.268C213.944 249.721 225.221 241.901 232.055 231.714C239.452 219.596 242.371 206.381 239.094 192.416C236.747 183.596 232.195 176.123 225.647 169.788C225.142 169.293 224.637 168.798 224.116 168.287C214.067 158.893 202.061 155.601 188.557 155.807C175.076 156.301 162.916 163.291 154.141 173.279Z" fill="currentColor"></path><path d="M112.464 30.7926C116.072 33.4303 119.206 37.0502 120.133 41.5169C120.679 47.5416 120.62 52.2066 117.375 57.3784C117.375 57.8335 117.375 58.2887 117.375 58.7576C118.411 59.7076 119.481 60.621 120.564 61.5161C126.306 66.5921 129.806 72.8377 130.678 80.5246C130.759 82.3429 130.783 84.1509 130.777 85.971C130.78 86.6282 130.784 87.2854 130.788 87.9625C130.792 89.3383 130.791 90.714 130.785 92.0898C130.779 94.1965 130.799 96.302 130.821 98.4086C130.822 99.751 130.822 101.093 130.82 102.436C130.828 103.064 130.835 103.692 130.843 104.338C130.834 105.216 130.834 105.216 130.824 106.111C130.824 106.623 130.824 107.136 130.823 107.663C130.31 109.799 129.49 110.573 127.719 111.859C125.438 112.205 125.438 112.205 122.691 112.205C122.189 112.209 121.688 112.212 121.171 112.216C119.517 112.225 117.863 112.214 116.208 112.201C115.058 112.201 113.907 112.202 112.756 112.204C110.346 112.205 107.937 112.196 105.527 112.181C102.436 112.161 99.346 112.163 96.2553 112.172C93.88 112.177 91.5048 112.171 89.1294 112.163C87.9897 112.16 86.85 112.159 85.7103 112.162C84.1187 112.164 82.5277 112.153 80.9362 112.138C79.5773 112.132 79.5773 112.132 78.1909 112.126C75.9971 111.859 75.9971 111.859 74.6971 110.936C72.9057 108.266 73.1275 105.462 73.1228 102.379C73.1205 101.851 73.1182 101.322 73.1158 100.778C73.1124 99.6561 73.1107 98.5344 73.1108 97.4127C73.1094 95.7237 73.0969 94.035 73.0837 92.346C73.0421 81.2587 73.9338 71.0408 81.8428 62.4832C83.4545 60.9997 85.1501 59.8773 87.0312 58.7576C86.7823 58.2482 86.5334 57.7388 86.2769 57.214C83.4136 50.9546 82.3626 45.8897 84.6606 39.2756C86.903 34.336 90.4819 30.8608 95.5492 28.8719C101.43 27.3974 107.196 27.7216 112.464 30.7926ZM95.0481 41.6462C93.5939 44.1632 93.3785 46.2973 93.9275 49.1028C95.0373 51.2431 95.9988 52.7006 97.8929 54.1888C100.75 54.9825 103.518 55.3858 106.19 53.9679C108.45 52.2067 109.879 50.5221 110.479 47.7236C110.425 44.7235 110.124 43.3156 108.237 40.9566C103.442 37.1421 99.5771 37.4748 95.0481 41.6462ZM87.5961 71.5863C82.9841 77.6652 83.2363 84.7195 83.4107 91.9891C83.4676 95.3601 83.5244 98.7311 83.5831 102.204C95.6447 102.204 107.706 102.204 120.133 102.204C120.19 98.5772 120.247 94.9502 120.306 91.2133C120.343 89.5158 120.343 89.5159 120.382 87.7841C120.438 80.4465 119.494 75.0032 114.417 69.4496C110.465 65.9761 105.641 64.6851 100.476 64.7784C95.2781 65.3397 91.0446 67.6911 87.5961 71.5863Z" fill="currentColor"></path><path d="M202.199 169.788C207.68 173.633 211.521 178.496 213.67 184.876C214.8 191.407 214.338 197.73 211.164 203.58C210.78 204.291 210.396 205.002 210.001 205.735C206.427 210.177 202.569 213.454 197.199 215.449C195.857 215.901 195.857 215.901 195.303 217.372C194.942 219.651 194.64 221.935 194.336 224.223C193.924 226.337 193.924 226.337 192.544 228.406C190.26 229.053 190.26 229.053 187.717 229.096C185.858 228.053 185.858 228.053 184.269 226.337C183.929 224.387 183.806 222.929 183.881 220.993C183.892 220.499 183.904 220.005 183.916 219.495C184.139 214.415 185.301 211.554 188.795 207.976C190.745 206.489 192.876 205.407 195.044 204.269C198.898 202.23 201.197 200.04 202.889 195.994C203.496 191.162 203.563 186.654 200.551 182.651C197.351 179.366 193.909 177.547 189.298 177.285C184.398 177.56 181.31 179.461 177.804 182.724C176.683 183.58 176.683 183.58 174.485 183.968C172.309 183.533 171.298 183.135 169.787 181.512C168.9 179.324 169.024 178.291 169.744 176.038C176.569 165.903 191.962 163.934 202.199 169.788Z" fill="currentColor"></path><path d="M154.037 68.1338C154.787 68.1267 154.787 68.1267 155.553 68.1194C157.208 68.1068 158.862 68.1095 160.517 68.1134C161.667 68.1103 162.817 68.1066 163.967 68.1024C166.378 68.0963 168.789 68.098 171.2 68.1048C174.29 68.1127 177.38 68.0988 180.469 68.0787C182.845 68.066 185.22 68.0662 187.595 68.0701C188.735 68.0702 189.874 68.0661 191.013 68.0575C192.606 68.0473 194.198 68.0546 195.792 68.0664C197.151 68.0666 197.151 68.0666 198.539 68.0668C200.82 68.4124 200.82 68.4124 202.492 69.684C203.578 71.1709 203.578 71.1709 203.923 73.2398C203.491 75.8339 202.9 76.4855 200.82 78.0672C198.539 78.4129 198.539 78.4129 195.792 78.4132C195.29 78.4169 194.789 78.4207 194.272 78.4245C192.617 78.4331 190.964 78.4217 189.309 78.4093C188.158 78.4094 187.008 78.4105 185.857 78.4124C183.447 78.4133 181.037 78.4047 178.627 78.389C175.537 78.3694 172.447 78.3713 169.356 78.3801C166.981 78.3849 164.605 78.3795 162.23 78.3709C161.09 78.3678 159.951 78.3676 158.811 78.3703C157.219 78.3723 155.628 78.3609 154.037 78.3459C152.678 78.3403 152.678 78.3403 151.292 78.3346C149.098 78.0672 149.098 78.0672 147.772 77.0989C146.845 75.7265 146.752 74.8874 146.77 73.2398C146.765 72.7704 146.76 72.3011 146.754 71.8175C147.559 67.9021 150.597 68.1479 154.037 68.1338Z" fill="currentColor"></path><path d="M154.037 34.342C154.787 34.3349 154.787 34.3349 155.553 34.3276C157.208 34.315 158.862 34.3177 160.517 34.3216C161.667 34.3184 162.817 34.3148 163.967 34.3106C166.378 34.3045 168.789 34.3062 171.2 34.313C174.29 34.3209 177.38 34.307 180.469 34.2869C182.845 34.2742 185.22 34.2744 187.595 34.2783C188.735 34.2784 189.874 34.2743 191.013 34.2657C192.606 34.2555 194.198 34.2628 195.792 34.2746C197.151 34.2748 197.151 34.2748 198.539 34.275C200.82 34.6206 200.82 34.6206 202.492 35.8922C203.578 37.3791 203.578 37.3791 203.923 39.448C203.491 42.0421 202.9 42.6936 200.82 44.2754C198.539 44.6211 198.539 44.6211 195.792 44.6214C195.29 44.6251 194.789 44.6289 194.272 44.6327C192.617 44.6413 190.964 44.6299 189.309 44.6175C188.158 44.6176 187.008 44.6187 185.857 44.6206C183.447 44.6215 181.037 44.6129 178.627 44.5972C175.537 44.5776 172.447 44.5795 169.356 44.5883C166.981 44.5931 164.605 44.5877 162.23 44.5791C161.09 44.576 159.951 44.5758 158.811 44.5785C157.219 44.5805 155.628 44.5691 154.037 44.5541C152.678 44.5485 152.678 44.5485 151.292 44.5428C149.098 44.2754 149.098 44.2754 147.772 43.3071C146.845 41.9347 146.752 41.0956 146.77 39.448C146.765 38.9786 146.76 38.5093 146.754 38.0257C147.559 34.1103 150.597 34.3561 154.037 34.342Z" fill="currentColor"></path><path d="M154.741 101.847C155.235 101.842 155.729 101.838 156.238 101.833C157.866 101.821 159.494 101.829 161.123 101.838C162.257 101.836 163.39 101.833 164.524 101.83C166.899 101.826 169.273 101.832 171.647 101.845C174.69 101.86 177.732 101.851 180.775 101.835C183.115 101.825 185.456 101.828 187.796 101.835C188.918 101.837 190.04 101.835 191.162 101.828C192.73 101.821 194.298 101.832 195.866 101.847C196.758 101.849 197.65 101.852 198.569 101.854C201.195 102.263 202.025 102.841 203.578 104.963C203.907 107.217 203.856 108.543 202.838 110.587C200.907 112.435 199.03 112.24 196.496 112.205C195.734 112.211 195.734 112.211 194.956 112.216C193.276 112.225 191.596 112.214 189.915 112.201C188.748 112.201 187.581 112.202 186.414 112.204C183.967 112.205 181.521 112.196 179.074 112.181C175.937 112.161 172.799 112.163 169.661 112.172C167.251 112.177 164.841 112.171 162.431 112.163C161.274 112.16 160.117 112.159 158.96 112.162C157.343 112.164 155.727 112.153 154.111 112.138C153.392 112.142 153.392 112.142 152.658 112.147C150.718 112.117 149.397 112.063 147.769 110.955C146.492 108.945 146.746 107.265 147.029 104.963C149.224 101.917 151.112 101.856 154.741 101.847Z" fill="currentColor"></path><path d="M191.855 235.992C193.579 237.415 193.579 237.415 194.613 239.44C194.57 241.983 194.57 241.983 193.924 244.268C191.319 246.004 189.397 246.157 186.338 245.647C184.481 244.138 184.311 243.175 183.967 240.82C184.269 238.751 184.269 238.751 185.346 237.113C187.689 235.551 189.097 235.549 191.855 235.992Z" fill="currentColor"></path></svg>