<svg xmlns="http://www.w3.org/2000/svg" xmlns:xlink="http://www.w3.org/1999/xlink" fill="none" height="512" viewBox="0 0 512 512" width="512"><clipPath id="a"><path d="m0 0h512v512h-512z"></path></clipPath><g clip-path="url(#a)" fill="currentColor"><path d="m266.508 1.28137c3.576 1.79208 7.04 3.7006 10.492 5.71875 50.278 28.62728 112.401 42.62658 169.981 43.53418 7.688.2247 14.881 2.2959 20.519 7.7119 7.014 8.201 6.802 19.474 7.5 29.7539.131 1.8242.131 1.8242.265 3.6853.925 13.8246.936 27.6516.922 41.5026-.001 1.244-.002 2.488-.002 3.77-.031 18.76-.247 37.367-2.185 56.042-.076.732-.151 1.465-.229 2.219-5.492 52.836-16.375 104.748-38.625 153.278-1.06 2.315-2.098 4.637-3.131 6.964-10.817 24.044-25.286 46.21-42.015 66.539-.446.549-.892 1.098-1.352 1.664-11.758 14.417-24.875 27.999-39.648 39.336-1.085.873-2.169 1.748-3.25 2.625-21.25 17.151-44.938 30.108-69.75 41.375-1.014.475-1.014.475-2.048.959-10.402 4.842-19.442 6.13-30.296 2.252-27.027-10.505-53.113-24.94-75.656-43.211-.918-.726-1.836-1.451-2.781-2.199-15.821-12.661-30.676-26.882-43.219-42.801-.918-1.108-1.839-2.213-2.762-3.316-11.724-14.129-21.4905-29.611-30.1908-45.758-1.0363-1.906-2.1031-3.791-3.1763-5.676-29.5293-52.683-41.8564-114.795-47.8711-174.25-.1779-1.702-.1779-1.702-.3593-3.439-10.5467-105.906-10.5467-105.906 4.9843-128.9359 4.4713-5.324 9.542-8.4667 16.375-9.625 2.0576-.1645 4.1181-.2927 6.1797-.3945 1.2245-.0666 2.4489-.1331 3.7105-.2017 1.315-.0713 2.63-.1427 3.9848-.2163 12.7196-.7243 25.2715-2.067 37.8822-3.8664 17.398-2.4462 17.398-2.4462 21.805.2414 1.986 3.3663 1.919 5.5918 1.438 9.4375-1.572 2.9125-2.543 3.8404-5.695 4.9414-19.057 3.451-38.2281 5.3263-57.5554 6.3245-1.2129.0682-2.4259.1365-3.6755.2068-1.0768.0542-2.1536.1084-3.263.1643-2.7744.3583-4.5049.7985-6.8113 2.363-27.5754 68.1169 2.6899 190.9439 30.1089 259.6889 2.4841 5.841 5.1485 11.588 7.8911 17.311.393.829.786 1.657 1.191 2.51 10.6822 22.402 23.8372 43.455 39.8092 62.49.416.505.833 1.011 1.262 1.531 11.046 13.387 22.971 25.854 36.738 36.469 1.24.991 2.48 1.984 3.719 2.977 19.971 15.835 42.254 28.523 65.593 38.711 1.138.509 1.138.509 2.298 1.028 7.32 3.076 12.627 3.178 19.972.229 2.085-.922 4.161-1.863 6.23-2.82 1.105-.501 2.209-1.002 3.347-1.518 22.563-10.347 43.646-22.765 62.841-38.607.579-.477 1.157-.954 1.754-1.446 13.61-11.32 26.431-23.502 37.246-37.554 1.015-1.287 2.031-2.573 3.047-3.859 46.838-59.742 68.306-134.34 76.203-208.891.083-.781.166-1.563.252-2.368 2.143-20.415 2.701-40.67 2.685-61.194 0-1.855 0-1.855.001-3.747 1.461-30.9602 1.461-30.9602-4.188-60.9409-3.572-2.5843-7.733-2.4525-11.981-2.6758-1.639-.1033-3.278-.2072-4.917-.3117-.862-.0524-1.724-.1047-2.612-.1586-58.948-3.6623-117.678-17.3622-169.514-46.4-.825-.4501-1.65-.9003-2.5-1.364-.721-.4036-1.442-.8071-2.185-1.2229-3.981-1.5064-7.096-1.3531-11.022.2436-.928.5165-1.856 1.033-2.812 1.5652-1.06.5753-2.119 1.1507-3.211 1.7434-1.133.6248-2.266 1.2496-3.434 1.8933-59.609 32.0147-59.609 32.0147-83.812 29.6875-2.375-1.0625-2.375-1.0625-4-3-1-3.375-1-3.375-1-7 2.717-4.3107 5.092-5.8007 9.918-7.2461 1.163-.3588 2.326-.7177 3.524-1.0874 1.236-.3643 2.472-.7286 3.745-1.104 1.285-.3944 2.57-.7911 3.853-1.1899 2.525-.7839 5.052-1.5611 7.581-2.334 22.281-6.8485 43.456-16.3762 63.599-28.08985 6.684-3.56295 15.342-3.20444 22.288-.66748z"></path><path d="m266.452 48.4059c2.795 1.4518 5.576 2.9284 8.349 4.4219 40.366 21.5099 86.386 31.6925 131.886 33.6718 7.72.4103 13.293.9532 18.688 6.9375 2.904 3.6269 4.772 6.9669 5.222 11.6329.119 1.202.119 1.202.239 2.427.075.867.149 1.734.226 2.628.083.911.165 1.823.25 2.762 1.382 16.284 2.067 32.771 1.688 49.113-.027 1.32-.027 1.32-.054 2.667-1.947 87.676-21.78 178.999-83.946 244.333-.809.852-.809.852-1.635 1.721-20.945 21.902-58.975 53.94-90.615 55.716-12.607-.164-25.799-8.656-36.75-14.437-.656-.344-1.312-.688-1.989-1.043-28.93-15.3-54.743-37.485-74.011-63.957-.857-1.15-1.713-2.3-2.571-3.45-6.04-8.189-11.441-16.684-16.429-25.55-.429-.762-.859-1.523-1.301-2.307-37.6099-67.457-47.741-149.187-43.9546-225.345.131-2.674.25-5.348.3687-8.022.0839-1.73.1685-3.46.2539-5.19.0334-.784.0668-1.569.1012-2.377.4981-9.425 1.779-17.2569 8.9066-24.0094 4.5725-3.0483 9.0998-3.9816 14.5272-4.2773 1.125-.068 2.251-.136 3.41-.2061 1.795-.101 1.795-.101 3.625-.2041 47.872-3.1247 93.042-14.8811 135.175-38.0979 6.978-3.5659 13.41-2.9682 20.34.4417zm-16.995 15.8672c-.896.4902-1.792.9805-2.715 1.4856-1.45.7999-1.45.7999-2.93 1.6159-41.69 22.3121-88.557 32.3701-135.511 34.9424-1.594.094-1.594.094-3.219.19-.936.048-1.872.096-2.837.145-2.4433.152-2.4433.152-4.2452 2.348-1.371 3.787-1.3251 7.865-1.5352 11.851-.043.773-.0859 1.546-.1302 2.342-.0902 1.643-.1783 3.285-.2646 4.928-.1295 2.447-.2682 4.893-.4079 7.34-.9421 17.093-.7921 34.071.0879 51.164.0429.837.0858 1.674.13 2.536 1.8995 35.964 7.5362 71.377 18.1202 105.839.263.882.527 1.764.799 2.673 11.562 38.456 31.355 74.327 59.201 103.327.536.563 1.073 1.127 1.625 1.708 8.216 8.592 16.761 16.297 26.375 23.292.541.401 1.081.802 1.638 1.215 8.556 6.283 17.771 11.274 27.174 16.16 1.145.595 2.29 1.19 3.47 1.804 10.913 6.24 10.913 6.24 22.894 8.754 3.418-1.13 6.729-2.397 10.011-3.871.684-.304 1.369-.608 2.074-.922 23.459-10.625 44.136-24.334 62.739-42.14.553-.521 1.106-1.041 1.676-1.578 9.562-9.028 17.677-18.733 25.324-29.422.443-.615.886-1.229 1.342-1.862 48.337-67.668 60.204-159.189 55.913-240.382-.132-2.546-.251-5.092-.369-7.639-.083-1.638-.168-3.276-.253-4.914-.051-1.128-.051-1.128-.102-2.279-.316-6.488-.316-6.488-3.531-11.924-2.302-.243-4.609-.423-6.918-.578-1.482-.107-2.964-.214-4.446-.322-.785-.056-1.571-.113-2.381-.171-46.898-3.4471-92.715-13.8331-134.065-36.7804-.751-.4101-1.502-.8202-2.276-1.2427-.661-.368-1.321-.7361-2.002-1.1152-4.127-1.707-6.834-.5468-10.455 1.4824z"></path><path d="m321.965 162.407c22.825 19.505 37.469 44.185 40.035 74.593.722 11.953 1.671 29.54-5 40-2.696 2.097-4.093 1.996-7.562 1.813-3.466-.819-4.355-1.107-6.438-3.813-.404-5.097.052-9.554 1-14.562 4.01-22.763-1.523-46.325-14.644-65.25-3.488-4.719-7.208-9.04-11.356-13.188-.696-.696-1.392-1.392-2.109-2.109-16.744-15.766-39.387-23.455-62.19-23.244-21.74.654-41.45 9.09-57.701 23.353-.749.654-1.498 1.308-2.269 1.981-16.185 15.108-25.77 36.851-26.934 58.859-.489 25.429 7.307 48.29 24.969 66.926.737.737 1.474 1.475 2.234 2.234.696.697 1.392 1.393 2.11 2.11 17.169 16.167 40.098 23.463 63.351 23.101 24.669-.85 46.334-12.009 63.047-29.894 1.54-1.706 3.069-3.422 4.582-5.153.63-.714 1.261-1.428 1.91-2.164.498-.581.995-1.162 1.508-1.761 2.291-1.902 4.682-1.708 7.551-1.586 1.941.347 1.941.347 4.441 1.972 2.053 3.251 2.219 4.565 1.5 8.375-8.196 18.491-30.032 32.271-48.086 39.536-26.632 10.202-55.471 10.341-81.914-.536-26.981-12.201-47.115-33.599-58-61-9.367-26.779-8.481-57.102 3.785-82.843 13.125-26.277 35.112-45.726 62.778-55.403 34.094-10.388 71.224-4.495 99.402 17.653z"></path><path d="m309.84 196.516c5.284 3.63 8.252 8.358 10.16 14.484.727 6.653.648 13.229-3 19-3.008 3.642-6.214 7.049-9.5 10.44-2.361 2.456-4.645 4.978-6.938 7.498-5.331 5.822-10.688 11.622-16.046 17.421-2.007 2.173-4.014 4.346-6.019 6.52-.995 1.077-1.991 2.153-2.988 3.228-2.579 2.783-5.132 5.585-7.65 8.424-13.317 14.919-13.317 14.919-22.277 15.672-1.371.023-1.371.023-2.77.047-.901.026-1.802.052-2.73.078-8.339-.888-13.254-4.733-19.082-10.515-.724-.704-1.448-1.407-2.194-2.132-1.514-1.475-3.023-2.955-4.526-4.441-2.244-2.204-4.517-4.373-6.8-6.537-1.432-1.379-2.863-2.759-4.292-4.14-.664-.625-1.327-1.25-2.01-1.894-5.19-5.102-8.416-10.411-9.709-17.638.092-7.44 1.258-13.457 6.402-19.074 6.84-6.271 12.39-7.498 21.625-7.324 9.517.997 15.291 7.625 21.504 14.367 1.858-1.83 3.711-3.664 5.562-5.5.514-.505 1.028-1.011 1.557-1.531 3.524-3.502 6.821-7.147 10.071-10.903 3.062-3.495 6.25-6.871 9.435-10.253.642-.686 1.284-1.371 1.945-2.077 11.542-12.287 23-22.964 40.27-13.22zm-23.715 18.984c-.587.601-1.173 1.201-1.777 1.82-3.66 3.781-7.137 7.702-10.584 11.676-2.946 3.347-6.013 6.578-9.076 9.817-5.358 5.68-10.642 11.412-15.833 17.246-2.418 2.53-3.488 2.882-6.98 3.441-5.584-.72-8.018-3.593-11.875-7.5-.804-.803-1.609-1.606-2.438-2.434-1.569-1.572-3.13-3.153-4.679-4.746-2.587-2.501-3.606-2.789-7.258-3.195-3.694.044-3.694.044-6.125 2.438-1.977 3.872-1.513 5.747-.5 9.937 1.95 2.801 1.95 2.801 4.594 5.25.698.693.698.693 1.411 1.399.985.972 1.977 1.937 2.975 2.894 1.502 1.439 2.981 2.899 4.458 4.363 9.278 10.154 9.278 10.154 21.187 15.469 6.006-2.447 9.475-7.334 13.641-12.137 3.571-4.084 7.257-8.046 10.984-11.988 5.394-5.729 10.747-11.489 16.051-17.301 1.949-2.129 3.903-4.251 5.867-6.367.535-.577 1.069-1.153 1.62-1.747 1.021-1.1 2.043-2.199 3.066-3.297 6.183-6.089 6.183-6.089 9.834-13.6-1.001-4.277-3.06-5.611-6.688-7.938-5.621-1.33-8.343 2.746-11.875 6.5z"></path></g></svg>