<svg xmlns="http://www.w3.org/2000/svg" fill="none" height="301" viewBox="0 0 301 301" width="301"><g fill="currentColor"><path d="m33.7257 91.8992c10.8631.0341 21.662 2.7685 32.2485 4.9718 1.8513.3815 3.7027.7627 5.5542 1.1437 3.8535.795 7.7058 1.5957 11.5573 2.4003 4.9355 1.029 9.8746 2.04 14.8149 3.046 3.8124.78 7.6224 1.571 11.4314 2.366 1.821.378 3.643.752 5.466 1.122 2.539.516 5.074 1.048 7.609 1.585 1.442.299 2.883.598 4.369.905 3.438 1.052 4.934 1.682 7.004 4.565.47 2.627.47 2.627.504 5.713.02 1.712.02 1.712.04 3.458-.011 1.221-.023 2.442-.035 3.699-.009 1.255-.018 2.509-.027 3.802-.599 29.5-11.906 56.893-33.058 77.565-7.0607 6.49-16.7934 13.961-26.7587 13.961-.1258.822-.2516 1.644-.3812 2.492-1.4727 9.258-3.4249 18.345-5.5813 27.466-.3224 1.38-.6449 2.76-.9771 4.181-.7853 3.358-1.5746 6.715-2.3677 10.071 1.0408.318 2.0816.636 3.1539.963 6.8898 2.455 12.4284 6.297 17.3513 11.689 2.0656 4.695 2.2197 8.119.4363 12.943-6.3847 6.74-14.6943 8.102-23.6319 8.435-18.6101-.252-40.2603-5.017-54.3171-17.742-3.03164-4.158-3.49025-6.074-3.49025-11.198 1.4559-4.914 2.54346-6.045 6.98055-8.58 8.1301-3.399 15.6984-3.939 24.4317-3.491.129-1.433.258-2.867.3909-4.344.9048-8.166 2.8555-16.122 4.6809-24.123.261-1.194.5219-2.388.7908-3.617.2424-1.073.4848-2.146.7345-3.251.4154-3.312.1541-5.68-.78-8.874-1.8867-2.025-1.8867-2.025-4.2901-3.709-5.5565-4.582-8.7115-9.723-11.9977-16.07-.4424-.838-.8849-1.676-1.3407-2.54-12.1702-25.029-9.5865-55.528-.7368-81.145 5.8983-15.5357 5.8983-15.5357 10.2214-19.8588zm5.8171 11.6338c-4.5759 8.335-9.3074 18.275-9.3074 27.922.8594.255 1.7187.51 2.6041.773 11.4841 3.59 21.3628 7.54 29.6081 16.533 3.4283 3.586 4.4869 4.678 9.4527 5.817 6.6364-.806 12.789-4.152 18.8329-6.835 7.6448-3.072 14.6588-5.338 22.6868-2.44 2.567 1.127 5.074 2.313 7.562 3.604 2.112-9.411 2.549-18.3 2.327-27.922-15.274-4.047-30.7003-7.282-46.1719-10.473-4.2637-.88-8.5257-1.768-12.7876-2.657-2.7138-.562-5.4277-1.124-8.1417-1.686-1.2723-.265-2.5447-.53-3.8556-.804-1.1741-.241-2.3483-.482-3.558-.731-1.0315-.213-2.063-.426-3.1258-.646-2.7629-.553-2.7629-.553-6.1256-.455zm-11.6342 39.557c-.8293 21.194 1.152 41.064 14.3973 58.679 8.5213 8.319 16.2193 10.394 27.9766 10.285 5.7272-.444 9.7936-1.963 14.6336-4.976 1.1563-.72 1.1563-.72 2.3359-1.455 13.526-9.335 23.546-23.881 29.076-39.265.744-4.248.229-5.485-2.254-9.089-4.813-3.438-8.268-3.291-14.033-2.545-4.0491 1.24-7.8536 2.908-11.7074 4.653-8.4216 3.798-15.1612 6.557-24.359 3.491-3.1337-2.089-5.054-3.948-7.5623-6.69-6.3889-6.66-16.1432-12.794-25.5133-13.307-1.4803.108-1.4803.108-2.9904.219zm26.7586 79.112c-1.3367 5.813-2.6618 11.629-3.9765 17.447-.4483 1.977-.8997 3.952-1.3543 5.927-.6551 2.849-1.2989 5.7-1.9405 8.552-.2036.874-.4072 1.748-.617 2.649-1.1739 5.279-1.6185 10.044-1.419 15.452 1.9196.384 3.8393.768 5.8171 1.163 2.6018-5.655 4.369-11.104 5.6125-17.215.2638-1.248.2638-1.248.5328-2.522.3666-1.743.7291-3.487 1.0877-5.232.5495-2.673 1.112-5.342 1.6767-8.011.3559-1.701.7112-3.402 1.0657-5.103.1672-.797.3343-1.593.5066-2.413.6649-3.251 1.1521-6.202 1.1521-9.531-2.6875-.383-5.3749-.767-8.1439-1.163zm-38.3928 51.19c9.4463 10.627 23.8558 14.175 37.6645 15.362 2.6948.133 5.3746.193 8.0724.199.827.002 1.654.004 2.5061.006 4.2454-.092 7.4818-.449 11.0913-2.769-4.3561-4.884-7.9581-7.071-13.961-9.307-.9358.959-1.8716 1.919-2.8358 2.908-3.9274 3.259-7.0572 3.708-12.0796 3.395-4.0749-.781-6.4631-2.377-9.5163-5.14-2.1815-3.781-2.1815-3.781-3.4903-6.98-2.0356-.064-4.0717-.109-6.1079-.146-1.1338-.027-2.2676-.054-3.4358-.082-3.2768.229-5.1264.872-7.9076 2.554z"></path><path d="m243.141 80.265c18.166 18.0214 26.773 49.463 27.122 74.241-.114 16.497-3.506 34.238-15.17 46.636-.873.807-1.745 1.614-2.645 2.445 2.783 10.01 6.515 19.523 10.41 29.143.456 1.143.913 2.287 1.384 3.465.416 1.029.832 2.057 1.261 3.117.906 2.668.906 2.668.906 6.158 1.296-.384 2.592-.767 3.927-1.163 9.01-2.217 16.959-2.191 25.159 2.327 3.222 2.148 3.481 3.458 4.581 7.271.106 6.406-2.292 9.869-6.313 14.502-14.476 14.155-38.141 21.743-57.962 21.528-5.465-.444-9.341-2.061-13.529-5.708-1.888-4.111-2.331-7.657-1.236-11.998 4.074-6.525 9.931-10.973 16.288-15.124-1.783-12.512-7.259-35.107-17.364-43.813-3.856-1.797-7.553-2.095-11.758-2.333-13.002-1.101-25.134-13.072-33.371-22.601-16.688-20.001-29.626-46.657-28.254-73.19 7.657-4.032 15.508-7.159 23.6-10.208 2.049-.778 2.049-.778 4.139-1.573 3.616-1.374 7.234-2.744 10.853-4.1114 5.048-1.9089 10.094-3.8245 15.139-5.7407 2.772-1.052 5.545-2.1018 8.318-3.1492 5.686-2.1535 11.357-4.3178 16.963-6.6724.811-.339 1.622-.678 2.457-1.0273 2.018-.854 4.027-1.7287 6.035-2.6056 3.617-1.0918 5.507-1.0245 9.06.1846zm-13.854 13.6779c-1.162.447-2.324.8941-3.521 1.3547-1.887.7361-1.887.7361-3.812 1.4871-1.302.5026-2.604 1.0053-3.945 1.5232-4.18 1.6152-8.357 3.2381-12.534 4.8621-2.77 1.072-5.541 2.144-8.312 3.215-9.504 3.671-9.504 3.671-18.992 7.382-2.616.998-5.253 1.939-7.903 2.842-1.376.481-2.752.962-4.17 1.457-1.259.422-2.517.843-3.814 1.277-3.174 1.37-3.174 1.37-3.936 4.565-.145 3.066.199 5.345 1.022 8.297.266.979.533 1.957.807 2.966.287 1.005.574 2.011.87 3.047.283 1.028.566 2.056.857 3.115.697 2.528 1.405 5.052 2.125 7.574 2.571-1.243 4.816-2.447 7.125-4.145 8.444-4.222 16.142-2.801 24.941-.582 2.541.621 5.082 1.241 7.623 1.858 1.786.441 3.566.91 5.343 1.387 3.09.479 4.463.486 7.321-.845 3.569-3.569 6.656-7.341 9.748-11.321 6.595-8.442 15.787-12.908 25.155-17.765-1.542-4.942-3.421-9.482-5.745-14.106-.586-1.179-1.172-2.358-1.776-3.5721-1.591-2.9055-3.039-5.4749-5.277-7.9167-3.71 0-5.764.7122-9.2 2.0437zm6.469 44.7111c-3.103 3.403-5.553 7.212-8.003 11.103-3.409 4.362-7.438 6.513-12.898 7.221-6.45.521-12.203-1.17-18.356-2.843-6.164-1.647-12.171-3.192-18.509-1.738-3.341 2.454-5.15 4.18-6.713 8.012-.772 7.077 7.439 15.272 11.512 20.564 9.9 11.705 22.727 20.993 38.229 23.082 9.288.321 16.226-1.763 23.504-7.521 5.034-4.708 7.753-9.851 10.253-16.215.372-.888.744-1.776 1.127-2.69 5.198-15.017 4.147-34.785-1.127-49.664-6.304 0-14.503 6.608-19.019 10.689zm5.058 71.914c-2.303.768-4.607 1.536-6.98 2.327 1.813 4.946 3.632 9.89 5.453 14.833.506 1.382 1.012 2.763 1.534 4.186 4.614 15.394 4.614 15.394 12.791 28.681 2.452-.371 2.452-.371 4.653-1.164 1.73-5.351-.192-9.173-2.204-14.188-.357-.917-.715-1.835-1.084-2.78-.757-1.937-1.522-3.871-2.292-5.803-1.179-2.961-2.337-5.93-3.493-8.9-.739-1.88-1.479-3.76-2.22-5.64-.348-.889-.696-1.779-1.054-2.695-1.91-4.828-1.91-4.828-5.104-8.857zm29.086 45.373c-.312 1.464-.624 2.928-.946 4.436-.851 3.68-1.332 4.818-3.999 7.707-3.698 2.102-5.914 2.898-10.18 2.982-4.076-1.135-7.856-2.765-11.634-4.654-1.511 1.054-3.012 2.124-4.508 3.199-.837.594-1.674 1.188-2.536 1.8-2.363 2.069-3.402 3.758-4.59 6.635 19.834 1.283 35.939-4.094 52.426-15.197 2.542-2.542 3.348-4.735 4.581-8.071-2.666-.032-5.332-.054-7.998-.073-2.227-.02-2.227-.02-4.499-.041-3.659-.156-3.659-.156-6.117 1.277z"></path><path d="m84.9161 1.15262c2.0042 1.37701 2.0042 1.37701 3.8538 2.98126 4.6872 3.8459 9.098 2.99816 14.9061 2.75857 5.188.11982 7.431 1.51836 11.489 4.73095 3.7 4.4784 5.702 8.1173 5.817 13.961-.725 4.6775-1.871 8.8824-5.321 12.2662-6.37 4.6227-13.012 8.4502-19.9833 12.0929-1.6264.8829-1.6264.8829-3.2857 1.7837-1.568.8245-1.568.8245-3.1676 1.6656-1.4099.7467-1.4099.7467-2.8484 1.5085-3.0337 1.0778-4.3289.9845-7.277-.2315-4.9063-5.0811-8.2593-11.5549-11.8523-17.5967-.6352-1.0543-1.2703-2.1086-1.9247-3.1948-4.1284-6.9063-6.693-11.6259-6.0011-19.9281 2.2781-6.23539 5.8042-9.57249 11.6342-12.79758 4.8689-1.622986 9.0033-1.262404 13.961 0zm-12.6522 11.77958c-2.0102 3.3504-1.7755 5.2524-1.3088 9.1619 1.8258 3.8352 4.0885 7.348 6.3988 10.9071.6104.9673 1.2207 1.9346 1.8496 2.9313 1.5027 2.3769 3.0192 4.7438 4.5492 7.1032 2.9632-1.4183 5.9185-2.8501 8.871-4.2901.8294-.3952 1.6587-.7904 2.5132-1.1975 5.4051-2.653 9.8401-5.4701 14.2111-9.6369.734-3.4267.514-4.8855-1.164-7.9258-3.642-2.1625-7.501-2.0231-11.6337-1.3815-1.1518.7678-2.3036 1.5357-3.4903 2.3268-3.084-.234-4.2909-.7675-6.3897-3.0585-.5309-.7424-1.0618-1.4847-1.6088-2.2496-2.8621-3.5565-2.8621-3.5565-7.3441-4.7264-3.2069.5317-3.2069.5317-5.4535 2.036z"></path><path d="m226.853 18.6039c5.629 2.7104 8.924 6.0049 11.634 11.6342 1.681 9.9578-2.103 17.9085-6.253 26.7586-.886 1.9729-.886 1.9729-1.791 3.9856-4.361 9.5828-4.361 9.5828-7.08 12.3022-7.905.7056-14.318-2.4303-21.523-5.3081-1.298-.4866-2.595-.9733-3.931-1.4747-8.634-3.4214-14.468-6.7463-18.756-15.3221-.688-6.6121-.317-11.8061 3.49-17.4513 5.223-4.8311 8.913-5.9723 15.924-5.8898 1.157.0105 2.313.021 3.504.0318 1.325.0203 1.325.0203 2.677.0409.312-.7138.624-1.4277.945-2.1632 4.278-7.7109 13.289-8.4191 21.16-7.1441zm-11.271 12.434c-2.943 2.943-3.514 4.4338-3.853 8.5075-4.31.088-8.185-.0076-12.434-.7998-3.79-.7005-3.79-.7005-6.617 1.018-2.166 2.4157-2.959 3.5112-3.054 6.7623 1.782 4.5459 3.921 6.3003 8.248 8.2076 1.872.7261 3.753 1.4315 5.64 2.1178 1.416.5578 1.416.5578 2.861 1.127 6.094 2.5193 6.094 2.5193 12.336 1.3452 2.217-3.0751 3.528-6.6303 5.017-10.1072.433-.9351.866-1.8701 1.312-2.8335 2.341-5.3331 3.894-9.223 1.815-14.9813-4.478-2.9856-6.669-3.2531-11.271-.3636z"></path><path d="m154.508 206.055c5.963 2.4 11.008 6.866 16.147 10.678 1.936 1.429 3.88 2.847 5.83 4.258 3.376 2.445 6.732 4.915 10.085 7.392 1.1.792 2.201 1.585 3.335 2.402 1.02.762 2.04 1.525 3.091 2.31.92.676 1.84 1.351 2.787 2.047 1.985 2.184 1.985 2.184 2.428 5.212-.443 2.79-.443 2.79-2.77 5.116-7.916.07-12.213-3.747-18.106-8.653-1.84-1.484-3.682-2.965-5.526-4.444-1.368-1.103-1.368-1.103-2.763-2.228-4.591-3.627-9.362-6.986-14.148-10.347-4.759-3.341-4.759-3.341-5.994-4.576-.291-3.418-.291-3.418 0-6.981 3.49-2.327 3.49-2.327 5.604-2.186z"></path><path d="m132.244 206.714c2.699 1.527 2.699 1.527 4.153 4.072-.57 6.422-6.62 9.895-11.298 13.816-2.118 1.739-4.249 3.464-6.389 5.176-2.565 2.094-5.055 4.21-7.526 6.408-.669.588-1.337 1.176-2.026 1.782-1.303 1.15-2.596 2.311-3.878 3.484-2.821 2.47-4.695 3.942-8.4571 4.468-2.5995-.45-2.5995-.45-4.7809-1.904-1.3088-2.036-1.3088-2.036-1.1997-4.113 1.5381-3.759 4.3157-5.994 7.3077-8.612.6251-.559 1.2502-1.118 1.894-1.694 5.079-4.507 10.272-8.872 15.58-13.108 2.017-1.617 4.002-3.275 5.953-4.971.908-.77 1.815-1.539 2.75-2.332.789-.688 1.578-1.376 2.39-2.086 2.409-1.186 2.409-1.186 5.527-.386z"></path><path d="m278.552 40.4907c2.982.2181 2.982.2181 5.309 2.545-.106 7.9263-3.856 14.3115-7.417 21.2323-.576 1.1548-1.152 2.3096-1.745 3.4994-4.998 9.861-4.998 9.861-8.29 12.4976-2.981 0-2.981 0-5.817-1.1634-1.595-2.4268-1.595-2.4268-2.327-5.8171 1.201-3.2177 2.428-5.8967 4.072-8.871.431-.816.861-1.6319 1.305-2.4726 1.291-2.4348 2.609-4.8532 3.931-7.2711.706-1.3272 1.412-2.6545 2.14-4.0219 5.299-9.8849 5.299-9.8849 8.839-10.1572z"></path><path d="m9.29392 46.5259c3.95628 3.4437 7.15658 7.5782 10.47078 11.6342.7415.9021.7415.9021 1.498 1.8224 8.7522 10.7495 8.7522 10.7495 9.4772 15.3153-.2497 1.307-.2497 1.307-.5045 2.6404-3.4902 2.3268-3.4902 2.3268-6.3079 2.2405-3.9619-1.4227-5.3795-3.3565-7.9439-6.676-.8909-1.1503-1.7817-2.3006-2.6995-3.4857-.4593-.6072-.9186-1.2144-1.3918-1.84-1.4589-1.9042-2.96288-3.7641-4.47985-5.6223-.97368-1.2216-1.94626-2.444-2.91763-3.6675-1.33625-1.6692-1.33625-1.6692-2.69949-3.3721-1.8087541-3.1721-1.808754-3.1721-1.654238-6.4169 1.875488-4.7817 4.812348-3.9399 9.152828-2.5723z"></path><path d="m234.997 183.809c1.163 1.164 1.163 1.164 1.527 3.927-.364 3.054-.364 3.054-2.109 5.09-4.172 2.086-7.543 2.391-12.216 2.617-2.326-2.326-2.326-2.326-2.763-5.162.437-2.982.437-2.982 2.545-5.018 4.804-2.745 7.706-2.608 13.016-1.454z"></path><path d="m96.5503 174.502c.8725 2.618.8725 2.618 1.1634 5.817-1.9168 3-3.5003 4.34-6.9578 5.281-2.495.391-2.495.391-7.0032.536-2.3269-2.327-2.3269-2.327-2.9086-5.09.5817-3.054.5817-3.054 3.563-5.817 4.7268-2.234 7.1371-1.929 12.1432-.727z"></path><path d="m247.795 168.685c2.326 2.327 2.326 2.327 2.763 5.162-.437 2.982-.437 2.982-2.254 5.018-3.623 1.857-6.953 2.23-10.98 2.617-1.891-1.963-1.891-1.963-3.49-4.653.581-3.054.581-3.054 2.326-5.817 3.865-2.194 7.223-2.804 11.635-2.327z"></path><path d="m81.4258 188.463c1.1634 1.163 1.1634 1.163 1.2362 4.726-.024 1.128-.048 2.256-.0728 3.418-8.0806 4.51-8.0806 4.51-12.7975 3.49-2.1087-2.908-2.1087-2.908-3.4903-5.817 5.1207-5.397 7.6811-7.776 15.1244-5.817z"></path></g></svg>