<svg xmlns="http://www.w3.org/2000/svg" fill="none" height="512" viewBox="0 0 512 512" width="512"><g fill="currentColor"><path d="m327 53.9998c20.302 18.6312 39.093 45.928 42.344 73.9652.376 11.172-3.385 20.618-10.973 28.789-8.273 7.658-17.74 9.626-28.695 9.523-9.577-.723-17.758-4.911-24.219-11.961-3.901-5.198-5.977-11.051-8.27-17.066-7.226-18.882-18.936-32.278-37.562-40.7932-17.613-7.0826-35.883-7.8407-53.591-.6597-16.435 7.2659-30.002 20.3029-36.859 37.0829-4.936 13.105-5.818 25.172-5.925 39.057-.028 1.859-.058 3.718-.09 5.576-.073 4.496-.123 8.991-.16 13.487 1.026-.004 2.053-.008 3.11-.011 25.024-.089 50.049-.155 75.074-.196 12.102-.021 24.203-.049 36.305-.095 10.554-.04 21.107-.066 31.661-.075 5.583-.005 11.166-.017 16.749-.046 5.266-.028 10.532-.036 15.798-.03 1.922-.001 3.844-.009 5.766-.024 23.931-.183 43.029 5.637 60.713 22.559 11.404 11.936 19.069 28.611 18.886 45.23-.009 1.069-.018 2.138-.027 3.239-.017 1.212-.017 1.212-.035 2.449 4.163-.045 8.325-.115 12.488-.208 1.414-.028 2.828-.049 4.242-.063 2.041-.022 4.081-.069 6.122-.12 1.225-.021 2.45-.042 3.713-.063 4.568-.726 7.981-2.591 10.771-6.343.948-3.146 1.107-6.177 1.289-9.453.075-1.264.15-2.527.227-3.828.049-.965.098-1.929.148-2.922-.905-.262-1.81-.524-2.742-.793-6.174-2.288-11.773-7.657-15.258-13.207-3.617-8.878-4.294-16.924-.902-25.942 3.056-6.971 8.254-12.6 15-16.168 7.763-2.986 16.325-3.117 24.152-.328 8.98 4.137 14.292 10.207 17.75 19.438 2.135 9.072.636 17.021-3.688 25.187-4.908 5.97-10.006 10.225-17.312 12.813-.026.967-.052 1.933-.078 2.929-.488 11.202-2.088 19.969-9.988 28.379-6.376 5.577-13.066 6.822-21.325 6.789-1.289-.002-2.578-.005-3.907-.007-2.451-.014-2.451-.014-4.952-.028-7.796-.031-7.796-.031-15.75-.062v51h19c.33-1.98.66-3.96 1-6 3.762-7.31 10.359-12.167 17.887-15.141 7.673-2.118 15.936-1.901 23.05 1.813 8.18 5.267 13.829 11.649 16.063 21.328 1 9.438-1.007 17.334-6.125 25.312-8.294 7.754-15.988 10.106-27.145 9.891-8.076-.44-12.781-3.388-18.675-8.863-3.3-3.758-5.084-7.761-7.055-12.34-5.94-.33-11.88-.66-18-1v51c9.423-.118 9.423-.118 18.845-.27 10.235-.065 19.157.776 27.331 7.391 6.989 7.199 8.998 14.397 8.886 24.129-.004.745-.009 1.49-.013 2.258-.012 1.83-.03 3.661-.049 5.492 1.359.164 1.359.164 2.746.332 7.011 1.439 12.209 7.004 16.254 12.668 4.486 9.132 5.071 16.98 1.902 26.648-2.893 7.541-9.148 13.932-16.527 17.289-7.279 2.297-16.149 2.356-23.25-.5-7.961-4.232-13.677-10.062-17.125-18.437-2.177-8.989-1.17-16.71 3-25 4.107-5.947 9.061-10.687 16-13 .893-9.2.893-9.2-1.688-17.75-4.242-4.128-8.371-4.512-14.144-4.664-1.292-.039-2.585-.078-3.916-.117-1.355-.032-2.71-.063-4.065-.094-1.374-.038-2.748-.077-4.123-.117-3.354-.095-6.709-.18-10.064-.258.046 1.125.093 2.25.141 3.41.588 20.406-5.268 38.407-19.2 53.617-14.423 14.959-32.906 21.86-53.395 22.319-5.626.063-11.251.057-16.878.042-2.539.004-5.079.009-7.618.016-6.15.012-12.299.01-18.448.002-5.003-.007-10.006-.008-15.008-.005-.716.001-1.431.001-2.168.002-1.453.001-2.907.002-4.36.003-13.592.008-27.184-.002-40.776-.018-11.633-.013-23.266-.011-34.898.003-13.548.016-27.095.022-40.642.013-1.448-.001-2.896-.002-4.344-.003-.712 0-1.424-.001-2.158-.001-4.99-.003-9.98.002-14.97.009-6.73.009-13.461.002-20.191-.015-2.461-.004-4.922-.003-7.383.004-16.973.041-32.4012-.182-47.704-8.398-.8173-.419-1.6346-.838-2.4766-1.27-16.832-9.271-28.0745-24.437-33.5234-42.73-.3692-1.994-.7133-3.993-1-6-1.1344.046-2.2688.093-3.4375.14-16.6018.485-16.6018.485-23.293-5.753-4.76531-5.105-6.51563-10.206-6.53021-17.218-.00709-1.141-.01419-2.282-.02149-3.458.00248-1.237.00496-2.475.00751-3.75-.00511-1.314-.01021-2.629-.01547-3.983-.01336-3.595-.01398-7.19-.01145-10.785.00108-3.007-.00382-6.014-.0086-9.021-.01109-7.097-.01155-14.194-.00549-21.291.00603-7.308-.00626-14.616-.02756-21.925-.01765-6.286-.02364-12.573-.02039-18.859.00181-3.749-.00077-7.499-.01471-11.248-.01497-4.184-.00557-8.368.00602-12.552-.01147-1.85-.01147-1.85-.02317-3.738.04542-7.424.37154-13.786 5.19231-19.801 8.6049-7.194 16.2866-7.031 27.2032-6.758-.0464-.776-.0928-1.552-.1407-2.352-.6067-18.159 6.7853-35.418 19.1407-48.648 9.6008-9.845 20.1301-15.523 33-20 .0088-.846.0088-.846.0177-1.708.0648-5.956.1494-11.911.2447-17.866.0329-2.212.0611-4.424.084-6.636.1408-13.226.7229-25.868 3.6536-38.79.1929-.861.3859-1.722.5847-2.609 9.1143-37.4118 33.8523-68.8744 66.3243-88.8951 52.438-31.21947 120.143-22.7266 165.091 17.5039zm-188.888 23.1469c-24.438 27.7373-31.379 62.2093-31.175 98.1653.021 5.177.042 10.354.063 15.688h40c.17-12.353.17-12.353.298-24.707.413-27.009 8.503-50.64 28.201-69.9133 16.298-14.9877 37.744-21.8052 59.587-21.5948 23.337 1.281 44.257 10.8284 60.476 27.7771 8.314 9.634 13.863 20.401 18.056 32.36 2.019 5.665 4.388 10.474 9.944 13.39 5.06 2.299 9.985 2.608 15.438 1.688 6.617-2.696 11.145-7.477 14-14 3.182-15.349-7.975-33.58-16-46.0002-19.179-28.2465-47.272-47.53-80.669-54.562-45.457-8.4852-87.547 8.0808-118.219 41.7089zm326.888 124.8533c-3.423 4.81-4.768 7.964-4 14 1.731 4.646 3.731 7.438 8 10 5.617 1.473 9.166 1.266 14.234-1.637 4.074-3.146 5.551-6.832 6.266-11.926-.788-5.42-3.148-8.243-7.188-11.812-5.804-2.848-12.262-3.099-17.312 1.375zm-396.9297 23.582c-3.2945 3.848-5.7788 7.912-8.0703 12.418-.3906.756-.7812 1.513-1.1836 2.293-3.4526 7.55-4.0459 15.535-4.8164 23.707 1.485.056 1.485.056 3 .113 16.5547.759 16.5547.759 21.7383 5.465 4.5173 4.959 6.5043 9.415 6.5358 16.195.015 1.73.015 1.73.0303 3.495.0006 1.257.0013 2.514.002 3.809.0076 1.344.016 2.688.0252 4.032.0219 3.645.0307 7.29.0358 10.935.0037 2.28.0099 4.561.017 6.842.0245 7.967.0376 15.934.0411 23.902.0036 7.409.0335 14.817.0754 22.226.0348 6.374.0502 12.748.0509 19.122.0007 3.801.0094 7.601.038 11.402.0263 3.58.0283 7.159.0123 10.739-.0027 1.925.0193 3.851.0422 5.776-.063 7.535-1.0037 13.796-5.6443 19.947-6.9474 5.327-14.4678 5.853-23 6 1.7985 13.549 10.555 24.276 21.1093 32.39 15.5663 10.251 31.1897 10.188 49.2487 10.111 2.554.004 5.108.01 7.662.017 6.188.012 12.375.006 18.563-.009 7.22-.017 14.44-.013 21.66-.01 12.888.006 25.777-.008 38.665-.033 12.482-.024 24.963-.031 37.445-.02 13.623.011 27.246.013 40.87-.001 1.454-.002 2.909-.003 4.364-.005.716-.001 1.431-.001 2.169-.002 5.022-.005 10.045-.003 15.067.001 6.768.006 13.537-.005 20.305-.027 2.478-.005 4.957-.006 7.435-.001 3.393.006 6.786-.006 10.18-.024.971.006 1.942.012 2.942.019 16.225-.148 30.151-6.382 41.807-17.613 14.363-15.996 15.661-34.007 15.653-54.426.003-1.558.007-3.116.01-4.675.009-4.206.012-8.413.012-12.62.001-2.634.003-5.268.006-7.903.009-9.208.013-18.416.012-27.624 0-8.556.01-17.111.026-25.667.013-7.37.018-14.74.018-22.111 0-4.391.002-8.782.013-13.173.01-4.132.01-8.264.002-12.396-.001-1.507.002-3.015.008-4.522.075-19.782-3.541-36.359-17.252-51.239-13.942-13.424-30.744-16.602-49.447-16.571-1.004-.002-2.007-.004-3.041-.007-3.335-.006-6.671-.005-10.007-.004-2.403-.003-4.805-.007-7.207-.011-5.834-.008-11.667-.011-17.5-.011-4.746-.001-9.492-.003-14.238-.006-13.483-.009-26.966-.013-40.45-.013-.725 0-1.45 0-2.198 0-.726.001-1.453.001-2.201.001-11.765 0-23.531-.01-35.296-.024-12.108-.014-24.215-.021-36.322-.02-6.787 0-13.574-.002-20.36-.013-6.386-.01-12.772-.01-19.158-.003-2.335.001-4.671-.001-7.006-.007-24.121-.059-44.8373 1.465-62.4987 19.834zm-45.0703 57.418c-.4523 2.496-.4523 2.496-.381 5.352-.0084 1.11-.0169 2.221-.0256 3.365.0061 1.218.0121 2.437.0184 3.693-.0053 1.283-.0105 2.566-.0159 3.888-.0137 3.521-.0084 7.041.0011 10.562.0076 3.682.0005 7.364-.0042 11.046-.0054 6.184.0018 12.368.0161 18.552.0163 7.152.011 14.304-.0055 21.456-.0136 6.138-.0156 12.276-.0077 18.413.0047 3.667.0053 7.334-.0046 11.001-.0103 4.088.0039 8.174.0207 12.262-.0061 1.218-.0122 2.437-.0184 3.693.0084 1.11.0169 2.221.0256 3.365.0011.967.0023 1.933.0034 2.93.4421 2.836 1.1014 3.728 3.3776 5.422 1.9759.444 1.9759.444 4.1643.372.8342.006 1.6683.013 2.5278.019.8969-.009 1.7939-.018 2.718-.028 1.3849.001 1.3849.001 2.7977.002 1.951-.003 3.902-.012 5.853-.029 2.9936-.024 5.9864-.021 8.9802-.014 1.8939-.006 3.7878-.013 5.6816-.021.899 0 1.7979.001 2.7241.002.8311-.009 1.6621-.019 2.5184-.029.7326-.004 1.4652-.009 2.2201-.014 2.0653-.111 2.0653-.111 3.8148-2.26.3074-2.416.3074-2.416.2607-5.27.007-1.117.0141-2.235.0214-3.386-.0024-1.232-.0049-2.464-.0075-3.733.0051-1.292.0102-2.585.0155-3.917.0134-3.552.014-7.103.0114-10.655-.001-2.962.0039-5.924.0087-8.887.0111-6.987.0115-13.975.0054-20.962-.006-7.214.0063-14.428.0276-21.642.0176-6.189.0236-12.377.0204-18.566-.0018-3.698.0008-7.397.0147-11.095.0149-4.123.0056-8.246-.006-12.369.0076-1.23.0153-2.46.0231-3.727-.0105-1.68-.0105-1.68-.0212-3.395.0001-.975.0003-1.951.0005-2.956-.4375-2.849-1.0887-3.74-3.3747-5.44-1.9275-.451-1.9275-.451-4.0567-.388-.8109-.01-1.6219-.019-2.4574-.029-1.3079.009-1.3079.009-2.6422.018-.8987-.003-1.7973-.005-2.7232-.008-1.8998-.002-3.7995.003-5.6991.016-2.9105.016-5.8196 0-8.73-.019-1.8451.002-3.6901.005-5.5352.011-.8719-.006-1.7438-.012-2.6422-.018-1.2164.014-1.2164.014-2.4574.029-.7126.002-1.4253.004-2.1595.007-2.5468.511-3.3095 1.335-4.8971 3.381zm441 45c-3.403 4.783-4.857 7.998-4 14 1.408 3.643 3.246 6.389 6.312 8.875 4.029 1.686 7.441 2.76 11.774 1.535 5.405-2.341 7.704-4.977 9.914-10.41.857-6.002-.597-9.217-4-14-3.806-3.47-7.693-3.461-12.633-3.278-3.241.38-4.944 1.069-7.367 3.278zm1 126c-2.803 3.146-3.903 6.321-4.5 10.5.753 5.273 2.612 8.778 6.625 12.437 4.36 1.612 8.298 1.954 12.875 1.063 4.262-2.412 7.113-5.478 9-10 .543-4.8.021-8.276-2.594-12.422-2.548-2.859-5.785-4.44-9.406-5.578-4.933 0-7.976 1.196-12 4z"></path><path d="m302.43 259.813c19.769 17.148 33.607 40.934 36.57 67.187.133 1.088.266 2.176.402 3.297 2.81 29.421-6.114 57.085-24.53 79.962-18.21 21.937-44.606 35.03-72.872 37.741-26.86 1.669-55.018-5.136-75.746-22.988-.744-.664-1.488-1.328-2.254-2.012-.816-.674-1.632-1.348-2.473-2.043-16.662-14.138-26.685-33.188-32.527-53.957-.255-.888-.51-1.776-.773-2.691-6.373-26.554-.526-56.262 13.505-79.339 15.859-24.635 39.111-40.633 67.268-47.97.933-.246 1.867-.492 2.828-.746 32.082-6.801 65.753 2.826 90.602 23.559zm-137.981 21.363c-12.343 14.233-21.635 33.819-22.449 52.824-.052 1.073-.103 2.145-.156 3.25-.662 26.485 9.432 50.397 27.593 69.563 19.841 18.69 44.231 26.12 71.06 25.324 24.02-1.308 45.127-13.934 61.315-31.012 11.133-12.927 18.152-28.406 21.188-45.125.131-.703.263-1.407.398-2.132 3.509-22.665-3.271-46.942-16.273-65.551-15.205-19.65-36.286-33.63-61.125-37.317-32.306-2.032-58.674 6.724-81.551 30.176z"></path><path d="m250.28 295.801c6.726 4.844 11.938 11.32 13.503 19.578 1.016 10.774.626 20.022-6.192 28.799-2.677 3.165-2.677 3.165-4.249 4.484-1.43 1.691-1.365 2.677-1.362 4.873-.005.728-.011 1.456-.016 2.206.007 1.177.007 1.177.014 2.378-.013 1.658-.027 3.317-.04 4.975-.008 2.618-.011 5.235-.01 7.852-.002 2.525-.023 5.048-.046 7.572.006.784.013 1.567.019 2.374-.055 5.279-.055 5.279-1.534 7.937-2.926 1.571-5.581 1.484-8.856 1.452-.67.003-1.34.006-2.031.009-1.415.002-2.83-.003-4.244-.016-2.165-.017-4.328 0-6.492.019-1.376-.002-2.752-.006-4.128-.012-.647.006-1.293.013-1.959.019-2.702-.043-4.502-.184-6.904-1.477-1.816-3.274-1.476-6.52-1.4-10.197 0-1.645 0-3.291-.002-4.936.016-2.589.041-5.177.078-7.766.03-2.502.027-5.003.02-7.505.021-.769.041-1.538.062-2.33-.028-4.022-.316-6.29-3.24-9.183-.469-.388-.938-.776-1.421-1.175-4.523-3.881-7.04-10.353-7.739-16.158-.102-2.018-.126-4.015-.103-6.034.007-.71.013-1.42.02-2.151.236-9.563 3.429-16.276 10.351-22.884 10.527-8.87 26.18-10.012 37.901-2.703zm-32.576 16.218c-2.951 5.492-3.836 11.991-2.112 17.99 1.752 4.553 5.028 7.612 8.481 10.917 2.011 2.044 2.181 3.362 2.236 6.144.016.677.031 1.353.047 2.05.013.731.025 1.463.039 2.216.016.748.032 1.496.048 2.266.05 2.395.096 4.789.141 7.184.033 1.621.066 3.242.1 4.863.083 3.979.16 7.957.236 11.936h12.287c-.004-.991-.009-1.982-.014-3.004-.011-3.699.013-7.397.047-11.095.01-1.597.011-3.194.002-4.791-.012-2.304.011-4.605.04-6.909-.016-1.061-.016-1.061-.033-2.144.107-4.84 1.324-7.259 4.74-10.69.449-.429.899-.859 1.362-1.302 4.325-4.741 6.04-8.955 6.144-15.359-.528-5.764-2.606-10.591-6.957-14.463-8.819-6.183-20.454-4.649-26.834 4.191z"></path></g></svg>