<svg xmlns="http://www.w3.org/2000/svg" fill="none" height="512" viewBox="0 0 512 512" width="512"><g fill="currentColor"><path d="m408.812 175.313c1.422 1.199 2.816 2.431 4.188 3.687.903.824 1.807 1.648 2.738 2.497 15.816 15.088 24.182 34.194 24.743 55.936.068 5.299.076 10.595.04 15.894-.023 3.442-.009 6.883.015 10.324.018 3.324.005 6.647-.005 9.971.008 1.224.016 2.448.025 3.709-.089 8.088-1.041 13.658-6.521 19.912-.651.538-1.302 1.077-1.973 1.632-.648.555-1.297 1.109-1.965 1.68-4.714 3.248-8.694 3.687-14.367 3.641-.681-.003-1.362-.006-2.063-.009-2.16-.011-4.32-.036-6.48-.062-1.47-.01-2.941-.019-4.412-.027-3.592-.02-7.183-.059-10.775-.098v16c1.677-.046 3.354-.092 5.082-.14 2.243-.038 4.487-.074 6.73-.11 1.1-.033 2.201-.067 3.334-.101 11.887-.14 21.202 3.092 29.854 11.351 10.838 11.353 11.612 23.41 11.531 38.293.003 1.759.007 3.518.012 5.277.005 3.667-.003 7.333-.022 11.001-.023 4.683-.009 9.366.015 14.05.014 3.625.009 7.249-.001 10.874-.003 1.727.001 3.454.01 5.18.01 2.417-.005 4.832-.028 7.248.008.702.017 1.404.025 2.127-.108 6.37-2.353 11.452-6.507 16.193-.651.538-1.302 1.077-1.973 1.632-.648.555-1.297 1.109-1.965 1.68-4.24 2.922-7.929 3.696-13.036 3.713-1.19.008-2.38.017-3.606.026-1.297-.001-2.595-.002-3.931-.003-1.387.006-2.774.013-4.16.02-3.761.018-7.521.023-11.282.024-2.351.001-4.703.006-7.055.011-8.211.018-16.423.027-24.634.025-7.643-.001-15.286.02-22.929.052-6.57.026-13.141.036-19.712.035-3.921 0-7.841.005-11.761.026-3.69.02-7.379.02-11.069.005-1.99-.003-3.981.014-5.971.031-8.225-.057-13.833-.911-20.193-6.484-.539-.651-1.078-1.302-1.633-1.973-.555-.648-1.109-1.297-1.68-1.965-3.287-4.77-3.743-9.161-3.736-14.834-.006-.764-.013-1.527-.02-2.314-.019-2.517-.023-5.034-.025-7.551-.007-1.76-.013-3.52-.02-5.28-.012-3.691-.016-7.381-.015-11.071 0-4.704-.027-9.407-.061-14.111-.023-3.638-.027-7.275-.026-10.913-.002-1.733-.011-3.465-.026-5.198-.115-14.054 1.344-25.204 11.484-35.826 8.651-8.259 17.967-11.491 29.853-11.351 1.651.05 1.651.05 3.334.101 1.143.018 2.286.037 3.463.055 2.784.047 5.567.118 8.35.195 0-5.28 0-10.56 0-16-2.145.047-4.29.093-6.5.141-2.102.031-4.204.056-6.305.079-1.449.02-2.898.047-4.347.082-9.408.221-16.623.277-24.09-6.266-.809-.977-.809-.977-1.633-1.973-.555-.648-1.109-1.297-1.68-1.965-2.892-4.197-3.698-7.88-3.736-12.935-.019-1.729-.019-1.729-.038-3.492-.003-1.24-.005-2.479-.007-3.757-.007-1.289-.013-2.578-.02-3.906-.012-2.732-.016-5.464-.015-8.196 0-2.773-.013-5.546-.041-8.32-.289-29.722-.289-29.722 4.412-41.492.318-.816.637-1.632.966-2.473.865-2.027 1.81-3.957 2.846-5.902.343-.664.685-1.328 1.038-2.013 2.834-5.344 6.19-10.039 10.15-14.612.597-.792 1.193-1.585 1.808-2.402 8.2-9.72 19.452-16.143 31.192-20.598 1.111-.433 2.222-.866 3.367-1.312 24.611-8.036 52.827-2.664 73.445 12.625zm-91.812 17.687c-15.862 15.348-20.772 32.979-21.265 54.509-.048 3.487-.06 6.972-.051 10.459.003 2.689-.021 5.378-.046 8.068-.002 1.73-.003 3.461-.002 5.191-.009.794-.018 1.588-.027 2.405.04 4.843.713 8.172 3.391 12.368 3.832 2.317 7.41 2.214 11.812 2.125 1.742-.027 1.742-.027 3.52-.054.88-.023 1.761-.047 2.668-.071-.205-.675-.41-1.351-.621-2.046-.27-.892-.539-1.785-.817-2.704-.267-.881-.533-1.763-.808-2.671-.249-.851-.498-1.702-.754-2.579-.176-.551-.352-1.102-.532-1.67-.679-3.377-.672-6.743-.707-10.173-.008-.765-.016-1.53-.024-2.318-.014-1.621-.025-3.241-.032-4.862-.012-1.637-.032-3.274-.062-4.91-.288-15.9 2.145-28.324 13.458-40.289 9.06-8.564 19.668-13.129 32.149-13.153.706-.024 1.413-.049 2.14-.074 5.097-.029 5.097-.029 7.457 2.172 1.184 2.339 2.292 4.687 3.34 7.09 3.232 6.579 7.692 10.413 14 14 4.608 1.435 9.128 1.98 13.922 2.465 2.891.722 2.891.722 4.656 2.351 2.922 5.613 3.551 11.274 3.571 17.508.01 1.141.01 1.141.02 2.305.01 1.603.015 3.206.014 4.808.005 2.414.041 4.827.079 7.241.071 9.958-.912 18.436-5.449 27.509 2.207.082 4.416.14 6.625.188 1.844.052 1.844.052 3.726.105 4.02-.322 6.314-1.038 9.649-3.293 2.464-4.432 2.29-8.78 2.265-13.711.003-1.267.003-1.267.006-2.561.002-1.79-.002-3.58-.011-5.371-.01-2.688 0-5.375.013-8.064.021-23.263-3.382-43.336-19.461-61.043-25.012-23.271-62.292-23.947-87.812-1.25zm20.597 32.184c-9.991 11.36-10.267 24.404-9.597 38.816.706 9.093 3.509 16.593 10.113 23.075 8.122 6.691 14.896 8.532 25.414 8.273 8.14-.815 15.055-4.188 20.473-10.348 8.527-11.205 8.614-23.465 8-37-.295-2.006-.614-4.009-1-6-1.126-.22-1.126-.22-2.274-.445-7.558-1.656-13.392-4.131-19.726-8.555-1.052-.721-2.104-1.443-3.188-2.187-3.484-3.484-5.752-7.324-8.199-11.582-.532-.736-1.065-1.472-1.613-2.231-6.786 0-13.527 3.585-18.403 8.184zm6.403 84.816c-2.748 14.441 4.567 25.223 11.579 37.376 1.35 2.493 2.427 4.973 3.421 7.624h2c.348-.731.695-1.462 1.054-2.215 1.583-3.325 3.171-6.649 4.758-9.972.547-1.151 1.095-2.301 1.658-3.486.532-1.112 1.064-2.224 1.612-3.37.487-1.021.974-2.042 1.476-3.094 1.442-2.863 1.442-2.863 3.106-5.499 1.882-3.33 1.662-6.466 1.523-10.176-.013-.693-.027-1.386-.041-2.1-.035-1.696-.089-3.392-.146-5.088-.784.163-1.568.325-2.375.493-4.567.639-9.021.653-13.625.632-1.315.006-1.315.006-2.656.012-4.562-.007-8.856-.206-13.344-1.137zm-51.746 37.274c-4.111 5.66-4.373 12.402-4.415 19.187-.01 1.262-.02 2.523-.029 3.823-.005 1.364-.01 2.728-.013 4.091-.003.694-.006 1.387-.009 2.101-.015 3.664-.024 7.327-.028 10.991-.006 3.773-.03 7.545-.058 11.318-.019 2.913-.024 5.827-.026 8.74-.003 1.391-.011 2.781-.024 4.172-.017 1.947-.013 3.895-.009 5.842-.003 1.106-.007 2.212-.011 3.351.426 3.607 1.502 6.01 3.368 9.11 4.115 2.596 8.597 2.235 13.312 2.125.741-.009 1.481-.018 2.244-.027 1.815-.023 3.629-.059 5.444-.098.014-.832.029-1.665.044-2.522.061-3.092.135-6.184.218-9.276.05-1.994.084-3.99.119-5.985.035-1.253.071-2.507.107-3.799.026-1.157.052-2.314.079-3.507.433-2.911.433-2.911 1.844-4.787 1.985-1.404 3.171-1.526 5.589-1.499 1.021-.011 1.021-.011 2.062-.023 1.938.398 1.938.398 4.938 3.398.33 9.24.66 18.48 1 28h64c.33-9.24.66-18.48 1-28 3-3 3-3 4.937-3.398.681.008 1.362.015 2.063.023 1.021-.011 1.021-.011 2.062-.023 2.605.536 3.337 1.27 4.938 3.398.432 2.911.432 2.911.511 6.418.036 1.254.071 2.508.108 3.799.022 1.311.045 2.621.068 3.971.033 1.335.068 2.671.104 4.006.082 3.269.151 6.537.209 9.806 2.542.082 5.082.141 7.625.188.713.025 1.425.05 2.16.076 4.784.066 8.155-.453 12.215-3.264 1.975-3.822 2.252-7.034 2.259-11.299.009-1.878.009-1.878.019-3.794-.004-1.359-.008-2.719-.013-4.078.002-1.407.004-2.813.006-4.219.003-2.945-.001-5.891-.011-8.836-.011-3.753-.004-7.506.008-11.26.007-2.905.005-5.81-.001-8.715-.001-1.382.001-2.765.005-4.147.191-14.771.191-14.771-6.272-27.652-6.794-6.745-13.147-9.028-22.742-9.097-1.711.006-3.422.018-5.133.035-.879.004-1.759.009-2.664.014-2.154.011-4.308.029-6.461.048-10.095 15.763-16.644 33.651-22.063 51.5-.937 2.5-.937 2.5-2.937 3.5-7.415.471-7.415.471-9.516-1.218-1.784-2.142-2.401-3.956-3.211-6.621-.305-.972-.61-1.943-.924-2.944-.482-1.561-.482-1.561-.974-3.154-2.636-8.214-5.505-16.2-9.063-24.063-.356-.792-.712-1.585-1.078-2.402-1.031-2.226-2.122-4.411-3.234-6.598-.349-.763-.697-1.527-1.056-2.314-2.089-4.145-2.089-4.145-5.976-6.343-2.455-.208-4.761-.141-7.218.032-.808.02-1.617.039-2.449.059-11.358.418-19.665 2.781-27.047 11.84z"></path><path d="m141.468 159.629c.798-.009 1.596-.018 2.419-.028 1.684-.014 3.368-.023 5.052-.027 2.527-.012 5.05-.061 7.576-.111 15.147-.152 27.448 2.754 39.485 12.537.832.626 1.665 1.253 2.523 1.898 9.058 7.686 16.663 21.275 17.656 33.267.064 2.427.071 4.848.059 7.276.015 1.819.032 3.637.049 5.455.016 2.84.025 5.679.018 8.519-.002 2.759.026 5.517.058 8.276-.015 1.266-.015 1.266-.031 2.557.099 6.012 1.449 8.482 5.668 12.752 3.328 6.324 3.104 14.624 1.383 21.445-2.683 6.054-7.875 10.783-13.735 13.742-3.132.961-5.815.945-9.086.938-4.729.223-4.729.223-8.636 2.609-1.469 2.028-2.685 4.095-3.926 6.266-.508.44-1.017.88-1.54 1.333-1.905 2.174-1.881 3.473-1.972 6.335-.053 1.339-.053 1.339-.107 2.705-.023.929-.046 1.857-.069 2.814-.034.941-.068 1.881-.103 2.85-.083 2.321-.152 4.641-.209 6.963.699-.021 1.399-.042 2.12-.064 3.231-.084 6.461-.135 9.692-.186 1.1-.034 2.201-.067 3.334-.102 11.887-.14 21.202 3.093 29.854 11.352 10.838 11.353 11.612 23.409 11.531 38.293.003 1.758.007 3.517.012 5.276.005 3.667-.003 7.334-.022 11.001-.023 4.684-.009 9.367.015 14.051.014 3.624.009 7.249-.001 10.874-.003 1.726.001 3.453.01 5.179.01 2.417-.006 4.832-.028 7.248.008.702.017 1.404.025 2.128-.108 6.369-2.353 11.452-6.507 16.192-.651.539-1.302 1.078-1.973 1.633-.648.554-1.297 1.108-1.965 1.679-4.24 2.922-7.929 3.697-13.036 3.713-1.19.009-2.38.017-3.606.026-1.297-.001-2.595-.002-3.931-.003-1.387.006-2.774.013-4.16.021-3.761.017-7.521.022-11.282.023-2.351.002-4.703.006-7.055.011-8.211.019-16.423.027-24.634.025-7.643-.001-15.286.02-22.929.052-6.57.026-13.141.037-19.712.035-3.921 0-7.841.006-11.761.027-3.69.019-7.379.019-11.0689.005-1.9903-.003-3.9807.013-5.971.031-8.2247-.058-13.8331-.911-20.1935-6.485-.5389-.651-1.0777-1.302-1.6329-1.973-.5543-.648-1.1085-1.297-1.6796-1.965-3.2866-4.77-3.7431-9.16-3.7359-14.834-.0067-.763-.0134-1.527-.0203-2.313-.019-2.517-.0229-5.034-.0251-7.552-.0064-1.76-.0132-3.52-.0202-5.28-.0119-3.69-.0156-7.381-.0145-11.071.0002-4.704-.027-9.407-.0615-14.111-.0224-3.637-.0263-7.275-.0252-10.913-.0024-1.732-.0111-3.465-.0267-5.197-.1144-14.054 1.3443-25.205 11.484-35.826 8.6518-8.259 17.9671-11.492 29.8533-11.352 1.651.05 1.651.05 3.334.102 1.143.018 2.286.036 3.463.054 2.784.047 5.567.112 8.35.196.799-13.795.799-13.795-5-25.625-1.313-1.149-2.642-2.28-4-3.375-.33-.66-.66-1.32-1-2-2.014-.207-4.039-.315-6.063-.375-8.3543-.557-13.1284-2.39-18.8123-8.563-5.2401-6.129-5.5564-11.735-5.4492-19.601.4856-5.183 1.9728-9.327 5.9389-12.927 2.5064-2.776 1.761-6.707 1.7213-10.269.0125-1.79.0256-3.58.039-5.371.0039-2.803.0002-5.607-.0146-8.41-.0536-16.69 1.7455-30.08 12.6396-43.484.6263-.833 1.2533-1.666 1.8983-2.524 9.561-11.267 25.007-17.743 39.57-17.847zm-26.425 29.129c-10.217 11.213-11.229 24.27-11.106 38.742.005 1.013.009 2.026.014 3.07.012 2.477.028 4.953.049 7.43 1.362-2.696 2.591-5.399 3.75-8.188 5.636-12.594 14.288-21.699 27.25-26.812 5.209-1.757 9.814-2.365 15.25-2.375.706-.025 1.413-.049 2.14-.074 5.097-.029 5.097-.029 7.457 2.171 1.184 2.34 2.292 4.687 3.34 7.09 3.232 6.579 7.692 10.413 14 14 4.608 1.435 9.128 1.98 13.922 2.465 2.891.723 2.891.723 4.707 2.555 1.602 2.933 2.376 5.937 3.184 9.168h1c.737-27.641.737-27.641-12.758-50.957-18.777-17.109-54.107-15.257-72.199 1.715zm14.554 36.425c-9.991 11.36-10.267 24.404-9.597 38.817.706 9.093 3.509 16.592 10.113 23.074 8.122 6.691 14.896 8.532 25.414 8.273 8.14-.814 15.055-4.188 20.473-10.347 8.527-11.206 8.614-23.465 8-37-.295-2.006-.614-4.01-1-6-1.126-.221-1.126-.221-2.274-.446-7.558-1.656-13.392-4.13-19.726-8.554-1.052-.722-2.104-1.444-3.188-2.188-3.484-3.484-5.752-7.323-8.199-11.582-.532-.736-1.065-1.472-1.613-2.23-6.786 0-13.527 3.584-18.403 8.183zm-30.7848 33.442c-2.0381 2.287-2.0381 2.287-2.3125 5.375.6069 3.641 1.5654 4.82 4.5003 7h3c0-4.62 0-9.24 0-14-3.053-.298-3.053-.298-5.1878 1.625zm101.1878-1.625v14l5-1c2.327-3.491 2.503-4.892 2-9-1.689-2.439-1.689-2.439-4-4-.99 0-1.98 0-3 0zm-64 53c-.136 2.543-.235 5.079-.313 7.625-.042.713-.084 1.425-.127 2.16-.092 4.011.213 6.454 2.791 9.621 4.241 4.153 7.694 5.754 13.586 6.031 6.174-.204 9.793-2.225 14.242-6.562 2.445-3.861 2.278-6.729 2.071-11.188-.018-.74-.036-1.481-.055-2.244-.047-1.815-.119-3.629-.195-5.443-.784.162-1.568.325-2.375.492-4.567.64-9.021.653-13.625.633-1.315.006-1.315.006-2.657.011-4.561-.006-8.855-.206-13.343-1.136zm-50.2503 35.437c-5.1533 6.324-5.8617 13.03-5.9111 21.024-.0096 1.261-.0192 2.523-.0291 3.822-.0048 1.364-.0091 2.728-.0129 4.092-.0028.693-.0056 1.386-.0085 2.1-.015 3.664-.0242 7.328-.0286 10.992-.0055 3.772-.0295 7.545-.058 11.317-.0186 2.914-.0238 5.827-.0253 8.74-.003 1.391-.011 2.782-.0242 4.172-.0172 1.948-.0133 3.895-.0087 5.843-.0036 1.105-.0073 2.211-.011 3.35.4261 3.608 1.502 6.01 3.3674 9.111 4.1151 2.595 8.5973 2.234 13.3125 2.125.7406-.009 1.4812-.018 2.2442-.028 1.8146-.023 3.6286-.059 5.4436-.097.014-.833.029-1.665.044-2.523.061-3.092.135-6.184.218-9.275.05-1.995.084-3.99.119-5.985.035-1.254.071-2.508.107-3.799.026-1.158.052-2.315.079-3.507.433-2.911.433-2.911 1.844-4.787 1.985-1.405 3.171-1.527 5.589-1.499 1.021-.012 1.021-.012 2.062-.024 1.938.399 1.938.399 4.938 3.399.33 9.24.66 18.48 1 28h64c.33-9.24.66-18.48 1-28 3-3 3-3 4.937-3.399.681.008 1.361.016 2.063.024 1.021-.012 1.021-.012 2.062-.024 2.605.536 3.337 1.271 4.938 3.399.432 2.911.432 2.911.511 6.418.036 1.253.071 2.507.108 3.799.022 1.31.045 2.62.068 3.97.033 1.336.068 2.671.104 4.006.082 3.269.151 6.537.209 9.807 2.542.081 5.082.14 7.625.187.713.025 1.425.051 2.16.076 4.784.066 8.155-.453 12.215-3.263 1.975-3.822 2.252-7.035 2.259-11.3.009-1.878.009-1.878.019-3.794-.004-1.359-.008-2.719-.013-4.078.002-1.406.004-2.812.006-4.219.003-2.945-.001-5.89-.011-8.836-.011-3.753-.004-7.506.008-11.259.007-2.905.005-5.81-.001-8.715-.001-1.383.001-2.765.005-4.148.191-14.771.191-14.771-6.272-27.651-8.732-8.67-18.161-9.427-30.023-9.601-3.798.081-6.248.134-9.493 2.21-1.706 2.044-1.706 2.044-3.086 4.285-3.482 5.243-9.633 7.29-15.398 9.106-.015.62-.029 1.241-.044 1.88-.075 2.811-.172 5.622-.269 8.432-.022.977-.045 1.953-.068 2.959-.053 1.407-.053 1.407-.108 2.842-.026.864-.052 1.728-.079 2.618-.515 2.702-1.274 3.613-3.432 5.269-1.938.398-1.938.398-4 .375-1.021.011-1.021.011-2.063.023-2.553-.525-3.326-1.364-4.937-3.398-.433-2.269-.433-2.269-.512-4.887-.035-.938-.071-1.876-.107-2.842-.023-.976-.046-1.953-.069-2.959-.034-.988-.068-1.976-.103-2.994-.083-2.439-.152-4.878-.209-7.318-.686-.235-1.372-.471-2.078-.713-6.774-2.377-13.605-5.873-17.075-12.483-2.647-2.585-4.827-2.271-8.425-2.253-1.261.036-1.261.036-2.547.074-.818.001-1.635.002-2.477.004-10.373.147-18.4696 1.851-25.6483 9.808z"></path><path d="m250.738 67.0272c3.409 1.4658 5.963 2.389 9.579 1.2305.741-.3739 1.482-.7477 2.246-1.1329 8.999-4.4606 20.274-4.6435 29.972-2.2539 10.71 4.2148 18.984 10.9478 24.465 21.1289 5.128 12.2126 5.415 23.5242 1 36.0002-3.044 6.653-7.232 11.638-12.558 16.601-1.971 1.937-3.754 3.882-5.551 5.973-4.242 4.894-8.72 9.548-13.269 14.154-.956.973-1.907 1.951-2.853 2.935-6.958 7.235-13.492 13.27-23.675 15.001-1.779-.019-1.779-.019-3.594-.039-1.186.013-2.372.026-3.594.039-9.532-1.621-16.125-7.135-22.73-13.859-.791-.789-1.581-1.577-2.396-2.389-1.658-1.659-3.311-3.325-4.958-4.997-2.497-2.532-5.018-5.039-7.543-7.544-1.619-1.626-3.237-3.254-4.853-4.883-.742-.737-1.484-1.474-2.248-2.233-10.795-11.036-16.729-22.186-16.598-37.719.466-12.6312 5.617-21.8198 14.733-30.2902 12.315-10.0026 29.95-12.2259 44.425-5.7226zm-35.738 20.9726c-3.957 4.9728-6.137 9.6602-6.312 16.0622-.038.878-.075 1.756-.114 2.66 1.413 10.871 7.568 17.169 15.239 24.403 1.949 1.872 3.89 3.753 5.832 5.633.922.889 1.844 1.779 2.794 2.695 2.87 2.854 5.537 5.823 8.16 8.903 1.639 1.922 3.361 3.737 5.151 5.519.552.554 1.104 1.108 1.672 1.68 3.327 3.047 5.907 4.097 10.445 3.924 8.434-1.895 17.244-14.331 23.279-20.33 1.362-1.35 2.728-2.696 4.099-4.037 2.005-1.963 3.997-3.938 5.986-5.917.605-.588 1.21-1.175 1.834-1.781 6.255-6.287 10.478-13.112 11.248-22.039-.131-7.0026-2.861-13.2259-7.625-18.3127-6.466-5.7712-12.007-6.6234-20.528-6.4179-5.699.6411-9.473 2.8741-13.722 6.6054-2.438 1.75-2.438 1.75-5.563 2.4375-4.064-.721-5.82-1.7875-9.187-4.0625-11.548-7.7988-22.243-6.7167-32.688 2.375z"></path></g></svg>