<svg xmlns="http://www.w3.org/2000/svg" xmlns:xlink="http://www.w3.org/1999/xlink" fill="none" height="512" viewBox="0 0 512 512" width="512"><clipPath id="a"><path d="m0 0h512v512h-512z"></path></clipPath><g clip-path="url(#a)" fill="currentColor"><path d="m105.47 166.194c5.243 1.669 9.795 4.58 14.468 7.431 1.718 1.02 3.436 2.041 5.154 3.059 1.782 1.059 3.559 2.123 5.336 3.189 4.608 2.754 9.265 5.421 13.923 8.09 4.284 2.455 8.556 4.931 12.828 7.407 2.532 1.462 5.07 2.913 7.61 4.36 1.342.777 2.683 1.554 4.024 2.332 1.099.631 2.199 1.261 3.332 1.911 3.439 2.441 5.457 4.547 7.855 8.027.132 2.692.132 2.692 0 5 .65-.009 1.3-.018 1.97-.027 6.814-.089 13.628-.149 20.442-.193 2.538-.02 5.075-.047 7.612-.082 3.664-.049 7.328-.071 10.992-.089 1.119-.02 2.238-.041 3.392-.062 12.752-.004 23.111 3.908 32.592 12.453 3.214 3.519 6.131 7.199 9 11 1.329 1.67 2.662 3.338 4 5 3.137-1.382 5.161-2.961 7.504-5.449.653-.681 1.306-1.361 1.979-2.062.686-.718 1.373-1.437 2.08-2.177 9.649-9.852 19.677-18.327 34.129-18.605 1.957.02 3.914.055 5.871.105 1.513.021 1.513.021 3.057.041 2.46.035 4.92.084 7.38.147.021-1.031.042-2.063.063-3.125 1.512-6.252 5.424-8.314 10.717-11.601 3.318-1.952 6.669-3.839 10.033-5.712 1.237-.696 2.473-1.393 3.708-2.091 2.551-1.44 5.103-2.878 7.657-4.313 6.007-3.385 11.977-6.834 17.947-10.283 1.047-.603 2.093-1.205 3.172-1.826 5.548-3.2 11.047-6.455 16.476-9.856 3.689-1.976 7.061-2.891 11.227-2.193 6.823 3.713 10.078 10.786 13.563 17.375 1.231 2.263 2.464 4.524 3.699 6.785.933 1.717.933 1.717 1.884 3.469 2.815 5.118 5.766 10.151 8.729 15.183 5.103 8.695 10.135 17.428 15.125 26.188 5.54 9.721 11.134 19.409 16.784 29.067 6.138 10.496 12.208 21.031 18.277 31.567 2.025 3.515 4.052 7.028 6.08 10.542.341.59.681 1.18 1.032 1.788 1.635 2.833 3.27 5.666 4.905 8.498 1.146 1.985 2.289 3.972 3.43 5.96.913 1.577 1.838 3.146 2.786 4.703 1.942 3.218 3.262 5.699 3.206 9.5.011.714.021 1.428.032 2.164-.989 4.114-3.735 6.662-7.143 9.009-.987.549-1.974 1.098-2.99 1.663-1.117.629-2.235 1.258-3.386 1.906-1.212.669-2.425 1.339-3.638 2.008-1.255.703-2.509 1.406-3.762 2.111-1.936 1.089-3.873 2.176-5.812 3.26-6.556 3.664-13.053 7.425-19.551 11.191-2.135 1.23-4.27 2.459-6.406 3.688-3.617 2.083-7.221 4.185-10.812 6.312-1.427.834-2.854 1.667-4.282 2.5-.613.372-1.226.744-1.858 1.127-3.785 2.189-6.536 2.951-10.892 2.436-4.356-2.306-6.883-4.532-9-9 0-.66 0-1.32 0-2-8.83 5.445-17.599 10.901-26 17 .24 1.369.24 1.369.485 2.766 1.488 9.338.255 17.824-5.36 25.609-5.394 6.537-11.085 9.191-19.125 11.625-.66 0-1.32 0-2 0-.129.835-.129.835-.261 1.687-1.568 8.515-5.125 14.635-11.911 20.063-3.528 2.413-7.105 4.083-11.41 4.5-2.633.506-2.633.506-3.64 3.043-.277.955-.555 1.91-.84 2.894-2.734 8.398-7.037 14.388-14.735 18.856-3.815 1.798-7.023 2.263-11.203 1.957-.092 1.701-.092 1.701-.187 3.437-1.055 8.07-5.473 14.124-11.735 19.122-7.653 5.308-15.948 5.438-25.078 4.441-8.173-2.327-14.06-8.18-20-14-.685-.67-1.371-1.341-2.078-2.031-1.656-1.642-3.292-3.301-4.922-4.969-.999-1.001-1.999-2.001-3-3-.906.88-1.812 1.761-2.746 2.668-12.783 12.256-12.783 12.256-20.254 15.332-1.072.454-2.145.907-3.25 1.375-8.776 1.463-17.269.582-24.75-4.375-.866-.536-1.732-1.073-2.625-1.625-6.474-6.475-9.336-13.265-9.375-22.375-.99-.062-1.98-.124-3-.188-7.069-1.042-12.409-5.534-16.75-10.996-3.679-5.346-4.697-10.514-5.25-16.816-.969-.041-1.938-.083-2.937-.125-6.084-.911-11.029-4.413-14.899-9.098-3.15-4.602-6.164-9.126-6.164-14.84-.66-3.057-.66-3.057-3.004-3.961-1.759-.628-3.523-1.248-5.289-1.859-6.094-2.515-10.856-7.32-13.954-13.117-.753-2-.753-2-1.15-4.504-.752-4.558-1.542-7.552-5.061-10.686-3.133-1.987-6.305-3.739-9.6041-5.435-1.1144-.61-2.2288-1.22-3.377-1.848-3.4915-1.901-7.0047-3.749-10.5605-5.527-.2475.619-.495 1.237-.75 1.875-1.5222 2.588-2.4178 3.181-5.25 4.125-6.0273.783-9.8406-1.703-14.875-4.625-.8693-.492-1.7386-.983-2.6343-1.489-2.8397-1.613-5.6664-3.247-8.4907-4.886-1.4144-.818-1.4144-.818-2.8574-1.653-4.9406-2.863-9.8696-5.745-14.7911-8.64-4.4814-2.63-8.9888-5.207-13.5156-7.758-1.7829-1.01-3.5654-2.02-5.3478-3.031-1.6999-.959-3.4057-1.908-5.1117-2.857-1.5553-.883-1.5553-.883-3.14205-1.784-1.37334-.769-1.37334-.769-2.77442-1.555-3.30766-2.316-5.827178-4.803-7.112056-8.7-.251555-7.95 4.113766-14.095 8.089596-20.647.74021-1.25 1.47882-2.5 2.21582-3.752 1.44531-2.447 2.90131-4.888 4.36771-7.323 1.6622-2.772 3.2947-5.556 4.9048-8.359 6.9537-11.991 6.9537-11.991 12.9492-13.816 3.9291-.157 5.8402.758 9.125 2.875 2.4849 2.319 2.9457 3.705 3.5625 7.062-.7292 5.104-2.7871 8.591-5.4053 12.985-1.989 3.356-3.9287 6.741-5.8711 10.124-1.1018 1.918-2.2092 3.832-3.3223 5.743-.5114.886-1.0228 1.771-1.5498 2.684-.4645.799-.9291 1.598-1.4077 2.422-1.1573 1.907-1.1573 1.907-1.0063 3.98.6881.397 1.3762.793 2.0852 1.202 2.066 1.192 4.1319 2.383 6.1977 3.575 2.3622 1.363 4.7251 2.724 7.0884 4.084 5.5069 3.172 11.0076 6.353 16.4802 9.584.8665.51 1.733 1.019 2.6258 1.544 1.61.948 3.2171 1.901 4.8208 2.86 1.0725.63 1.0725.63 2.1667 1.272.6148.365 1.2296.731 1.8631 1.107 1.8191.981 1.8191.981 4.6721.772.5594-1.021 1.1189-2.042 1.6953-3.094 5.4522-9.904 11.0672-19.703 16.78-29.459 4.3478-7.425 8.6663-14.867 12.9623-22.322.622-1.08 1.244-2.159 1.885-3.272 1.262-2.19 2.524-4.38 3.786-6.571 3.128-5.429 6.26-10.855 9.391-16.282 3.798-6.582 7.595-13.164 11.391-19.746 7.358-12.758 14.725-25.511 22.109-38.254-3.022-2.368-6.149-4.318-9.48-6.223-1.075-.616-2.149-1.233-3.256-1.869-1.709-.975-1.709-.975-3.451-1.971-2.346-1.345-4.691-2.692-7.035-4.039-.58-.332-1.16-.665-1.757-1.008-7.376-4.237-14.701-8.558-22.021-12.89-2.495 3.158-4.468 6.462-6.433 9.973-.6493 1.146-1.2983 2.293-1.967 3.474-1.0219 1.811-2.041 3.622-3.054 5.438-.9852 1.763-1.9821 3.519-2.9792 5.275-.5884 1.048-1.1768 2.096-1.783 3.176-2.6355 3.937-4.6415 5.373-9.2209 6.539-4.8956.172-6.8942-1.322-10.375-4.563-1.744-3.396-1.6876-6.608-1.1875-10.312 1.0745-2.91 2.5858-5.475 4.1875-8.125.4405-.756.881-1.513 1.3349-2.292.9618-1.646 1.931-3.288 2.9068-4.925 1.6727-2.83 3.2976-5.685 4.9184-8.545 1.1331-1.976 2.2672-3.951 3.4024-5.926.795-1.405.795-1.405 1.6062-2.838 8.0497-13.785 8.0497-13.785 17.1134-12.155zm294.519 27.63c-1.059.611-2.117 1.222-3.208 1.851-1.156.671-2.312 1.342-3.468 2.012-1.172.678-2.344 1.356-3.515 2.034-10.975 6.355-21.897 12.798-32.798 19.279 3.478 7.2 7.307 14.119 11.375 21 1.25 2.127 2.498 4.255 3.746 6.383.641 1.091 1.281 2.181 1.941 3.305 3.15 5.382 6.264 10.784 9.376 16.187.622 1.079 1.243 2.158 1.884 3.269 1.263 2.191 2.525 4.382 3.787 6.574 3.128 5.429 6.26 10.855 9.391 16.282 1.25 2.167 2.5 4.333 3.75 6.5.619 1.072 1.238 2.145 1.875 3.25 5.625 9.75 5.625 9.75 7.504 13.006 1.239 2.148 2.478 4.295 3.718 6.443 2.935 5.087 5.87 10.175 8.799 15.266 1.388 2.41 2.776 4.82 4.164 7.23.982 1.706 1.963 3.413 2.944 5.119.593 1.03 1.186 2.059 1.797 3.12.523.908 1.045 1.816 1.583 2.751 1.066 1.806 2.203 3.57 3.366 5.315 4.101-.593 7.015-1.939 10.578-4.027 1.072-.623 2.143-1.246 3.247-1.888 1.695-1.001 1.695-1.001 3.425-2.023 1.167-.683 2.335-1.367 3.502-2.049 2.327-1.363 4.653-2.728 6.976-4.097 2.899-1.697 5.809-3.37 8.729-5.029 1.184-.678 1.184-.678 2.392-1.37 1.442-.825 2.888-1.645 4.338-2.458 3.897-2.15 3.897-2.15 5.813-6.059-1.026-2.439-1.026-2.439-2.656-5.066-.603-1.03-1.205-2.059-1.826-3.12-.666-1.114-1.332-2.228-2.018-3.377-.689-1.17-1.377-2.341-2.064-3.513-1.43-2.437-2.865-4.871-4.303-7.303-3.255-5.515-6.44-11.07-9.633-16.621-1.249-2.167-2.499-4.334-3.75-6.5-22.5-39-22.5-39-24.377-42.254-1.242-2.154-2.485-4.307-3.728-6.461-2.898-5.022-5.795-10.045-8.687-15.07-1.017-1.766-2.034-3.531-3.051-5.297-1.271-2.205-2.54-4.411-3.809-6.617-2.802-4.863-5.617-9.718-8.469-14.551-.724-1.23-.724-1.23-1.462-2.484-.385-.583-.77-1.166-1.167-1.766-2.099 0-4.274 1.82-6.011 2.824zm-231.989 44.176c-.597 1.07-.597 1.07-1.206 2.161-1.501 2.686-3.002 5.371-4.504 8.057-.96 1.717-1.92 3.435-2.879 5.154-3.389 6.058-6.807 12.095-10.348 18.065-.413.697-.826 1.393-1.251 2.11-.376.634-.752 1.268-1.14 1.922-3.332 5.63-6.593 11.3-9.859 16.968-.638 1.108-1.276 2.215-1.933 3.356-1.309 2.27-2.616 4.541-3.924 6.812-2.53 4.391-5.062 8.781-7.595 13.17-1.235 2.141-2.47 4.283-3.704 6.424-2.931 5.087-5.868 10.17-8.828 15.24-1.4 2.399-2.797 4.8-4.193 7.202-.989 1.697-1.983 3.391-2.977 5.085-.597 1.027-1.193 2.053-1.807 3.11-.528.903-1.055 1.806-1.599 2.736-1.4572 2.597-1.4572 2.597-2.2526 6.428 7.2596 4.29 14.5196 8.58 21.9996 13 8.872-7.604 17.452-15.309 25.622-23.659 6.522-6.627 6.522-6.627 11.816-6.716 3.359.065 4.29.17 7.062 2.25 2.517 3.564 2.972 6.079 2.415 10.495-1.995 5.737-7.138 9.688-11.477 13.755-.99.958-1.977 1.917-2.963 2.879-4.821 4.673-9.738 9.198-14.931 13.456-1.746 1.742-2.645 3.249-3.544 5.54.082 3.901.564 5.513 3.188 8.437 2.688 1.755 2.688 1.755 5.625 1.75 9.595-3.574 17.455-14.372 24.562-21.562 2.339-2.365 4.68-4.726 7.024-7.086.533-.542 1.066-1.083 1.616-1.641 4.789-4.821 4.789-4.821 8.044-5.031.785.003 1.57.005 2.379.008.782-.003 1.565-.005 2.371-.008 2.191.133 2.191.133 5.191 1.133.836 1.82.836 1.82 1.375 4.125.194.745.387 1.49.586 2.258.083 5.556-2.626 9.522-6.315 13.409-1.364 1.357-2.739 2.703-4.122 4.04-.726.718-1.452 1.436-2.2 2.175-2.307 2.278-4.627 4.542-6.949 6.805-2.326 2.284-4.649 4.57-6.97 6.859-1.442 1.421-2.888 2.837-4.337 4.25-.651.638-1.302 1.276-1.972 1.934-.575.56-1.15 1.121-1.743 1.699-2.005 2.143-2.344 3.365-2.665 6.321.058 3.165.058 3.165 1.937 5.437 3.102 2.204 4.53 2.91 8.375 2.688 7.171-4.959 13.125-12.008 19.25-18.188.99-.994 1.979-1.988 2.969-2.982 1.813-1.821 3.624-3.644 5.435-5.468.774-.779 1.548-1.559 2.346-2.362.692-.743 1.384-1.486 2.097-2.251 2.844-2.613 5.104-2.684 8.903-2.749 3.564 1.21 5.401 2.061 7.438 5.25.798 3.901.768 5.878-.438 9.75-6.431 8.261-14.359 15.421-21.868 22.697-1.455 1.412-2.899 2.833-4.343 4.256-.848.827-1.697 1.653-2.571 2.505-2.377 2.724-3.861 5.196-5.218 8.542.602 3.837 1.33 5.439 4.313 7.937 3.339 1.32 4.343 1.385 7.687.063 7.59-4.763 13.651-11.455 19.875-17.813 1.565-1.592 3.13-3.182 4.699-4.77 1.408-1.426 2.812-2.856 4.215-4.287 3.03-2.918 4.557-3.269 8.649-3.255.782-.003 1.565-.005 2.371-.008 2.191.133 2.191.133 5.191 1.133 1.943 4.23 2.225 8.083 1.125 12.562-3.115 5.943-8.733 10.269-13.75 14.563-4.042 3.516-7.951 7.162-11.812 10.875-.628.581-1.256 1.163-1.903 1.762-3.095 3.02-4.521 4.721-5.667 8.996-.249 3.312-.249 3.312 1.57 6.117 3.066 2.673 4.35 3.361 8.437 3.125 6.501-3.367 11.789-9.364 17.102-14.34 2.363-2.168 4.766-4.167 7.273-6.16 3.931-3.363 5.819-7.347 8.129-11.91 3.608-6.246 9.779-10.229 16.649-12.211 1.94-.495 3.893-.941 5.847-1.379.207-1.299.413-2.599.625-3.938 1.466-6.591 4.962-11.582 9.625-16.375 3.315-2.034 6.71-3.401 10.348-4.757.793-.307 1.586-.614 2.402-.93.734-.273 1.467-.547 2.223-.828 2.453-1.617 2.547-2.965 3.152-5.797 2.158-7.997 6.379-13.193 13.477-17.395 2.278-1.039 4.391-1.472 6.836-1.98 2.337-.569 2.337-.569 4.312-2 1.651-3.178 2.726-6.366 3.844-9.766 2.723-7.617 7.578-10.895 14.692-14.289 8.439-3.237 16.212-2.125 24.464 1.055 5.153 2.829 8.987 6.772 13 11 3.98-1.429 7.237-3.336 10.739-5.695 1.066-.716 2.133-1.431 3.232-2.168 1.114-.754 2.228-1.508 3.342-2.262 1.133-.762 2.267-1.524 3.4-2.285 2.765-1.859 5.528-3.723 8.287-5.59-.946-4.346-3.014-7.911-5.187-11.75-.44-.784-.88-1.569-1.333-2.377-4.829-8.568-9.806-17.051-14.777-25.537-5.647-9.649-11.218-19.344-16.798-29.032-1.92-3.33-3.841-6.659-5.764-9.988-7.75-13.418-15.468-26.854-23.141-40.316-4.089-.125-8.177-.215-12.268-.275-1.387-.025-2.773-.059-4.16-.102-10.474-.322-17.987.566-26.117 7.57-2.608 2.471-5.103 5.017-7.58 7.619-.861.884-1.722 1.768-2.609 2.678-2.101 2.159-4.188 4.329-6.266 6.51 1.667 3.498 3.677 6.16 6.188 9.125 8.201 9.944 15.667 19.049 15.094 32.59-1.153 9.362-4.89 16.012-11.594 22.535-8.831 5.751-17.272 7.261-27.688 5.75-12.546-3.192-22.615-15.109-31.154-24.325-.697-.741-1.393-1.482-2.111-2.245-.622-.681-1.244-1.362-1.884-2.063-1.753-1.609-1.753-1.609-3.964-1.193-2.546 1.114-3.848 2.65-5.637 4.763-.613.711-1.227 1.421-1.859 2.153-1.587 1.786-1.587 1.786-1.391 3.91-.567.262-1.134.523-1.718.793-2.466 1.305-4.552 2.844-6.782 4.519-12.098 8.566-25.807 11.875-40.5 11.688-6.455-1.438-6.455-1.438-9-4.063-1.377-4.046-1.394-7.867 0-11.937 3.376-3.799 7.803-3.602 12.563-3.938 15.796-1.474 25.36-7.168 35.906-18.949 1.538-2.122 2.303-3.506 2.531-6.113-.639-.536-1.278-1.073-1.937-1.625-2.852-3.284-2.64-5.786-2.434-10.024.371-2.351.371-2.351 1.809-4.976 3.78-2.028 7.378-2.296 11.562-1.375 5.081 2.853 8.868 6.664 12.875 10.812 4.246 4.326 8.507 8.502 13.137 12.418 2.604 2.318 5.041 4.79 7.488 7.27 8.835 9.817 8.835 9.817 20.313 14.937 3.435-.107 4.464-.598 7.625-2.437 2.735-3.202 3.597-4.854 3.781-8.969-.729-6.771-6.419-11.632-10.801-16.371-3.154-3.47-6.085-7.098-9.035-10.742-3.047-3.732-6.164-7.402-9.29-11.068-2.996-3.523-5.9-7.106-8.78-10.725-4.913-6.02-9.795-11.606-17.313-14.125-3.05-.287-3.05-.287-6.35-.227-1.261 0-2.522 0-3.821 0-1.366.011-2.732.021-4.098.032-1.405.003-2.811.006-4.216.008-3.688.008-7.375.027-11.062.05-3.768.02-7.535.029-11.302.039-7.384.022-14.767.056-22.151.098zm181 146c-1.782 2.35-1.997 3.667-2.019 6.617 1.543 5.121 4.935 8.024 8.707 11.695.708.728 1.417 1.456 2.146 2.205 3.112 3.083 5.29 5.207 9.514 6.538 3.417-.071 5.004-.922 7.652-3.055 1.783-2.35 1.998-3.667 2.02-6.617-1.543-5.121-4.935-8.024-8.707-11.696-.708-.727-1.417-1.455-2.147-2.205-3.111-3.083-5.29-5.206-9.513-6.537-3.417.071-5.004.922-7.653 3.055zm-27 27c-1.754 3.266-1.754 3.266-2 7 2.661 4.707 6.087 8.452 9.875 12.25.504.528 1.008 1.057 1.528 1.601 3.259 3.285 5.927 5.205 10.597 6.149 3.263-1.13 5.282-2.094 7.438-4.813.786-3.056.32-5.128-.438-8.187-4.528-6.54-11.076-13.002-18-17-4.361 0-5.681.293-9 3zm-28 29c-1.157 1.879-1.157 1.879-1 4 2.166 5.302 5.31 8.797 9.313 12.75.834.864.834.864 1.685 1.746 3.397 3.392 6.14 5.57 11.002 6.504 4.01-1.465 5.616-2.424 8-6 .471-3.655.404-5.392-1.652-8.492-2.426-2.53-4.854-5.045-7.348-7.508-.789-.799-1.577-1.599-2.39-2.422-4.174-4.264-4.174-4.264-9.703-5.93-4.069.493-5.403 2.204-7.907 5.352zm-24.875 24.062c-2.288 2.802-2.288 2.802-3 6.125 1.396 6.083 5.5 9.546 9.875 13.813.704.724 1.408 1.449 2.133 2.195 3.21 3.11 5.104 4.65 9.555 5.555 4.238-.96 5.788-2.232 8.312-5.75 1.002-2.868 1.002-2.868 0-6-2.031-2.969-4.47-5.452-7-8-.791-.817-1.583-1.635-2.398-2.477-4.867-5.444-4.867-5.444-11.414-7.898-3.339.132-3.339.132-6.063 2.437z"></path><path d="m255.5-.374758c1.226.000161 2.453.000322 3.717.000488 10.617.132364 23.412.662819 32.783 6.37451 2.892 3.51189 3.581 6.62856 3.43 11.06636-.737 3.3156-2.848 4.9049-5.43 6.9336-4.76 2.3802-9.588.8709-14.438-.5-15.173-3.6661-31.939-2.8449-46.562 2.5-1.017.3391-2.034.6781-3.082 1.0274-20.02 7.3729-34.244 23.3616-43.344 42.1953-8.504 19.4494-8.306 41.3931-1.105 61.1521 9.026 21.37 25.036 36.82 46.531 45.625 20.562 7.617 43.009 6.26 62.821-2.836 19.184-9.367 33.894-26.059 40.899-46.238 5.296-17.125 5.036-33.844.467-51.0508-.892-3.6596-1.554-6.387-.312-10 2.738-3.7039 4.664-4.7598 9.125-5.875 4.372.7288 7.176 1.5807 10 5 9.527 20.0708 9.098 46.3338 2.237 67.1878-5.554 15.574-13.907 28.824-25.237 40.812-.588.641-1.176 1.282-1.781 1.942-17.465 18.411-43.635 27.116-68.43 28.019-28.147.538-53.518-10.803-73.789-29.961-.641-.588-1.281-1.175-1.942-1.781-14.966-14.197-24.601-35.924-27.058-56.219-.134-1.092-.268-2.183-.406-3.308-2.662-28.0994 5.845-54.6851 23.406-76.6918 14.008-16.2621 33.125-27.94398 54-32.99996.703-.17515 1.407-.3503 2.132-.53076 7.124-1.619997 14.08-1.853195 21.368-1.844238z"></path><path d="m242 118c2.246 1.304 2.246 1.304 4.5 2.937 4.415 3.196 7.016 4.15 12.5 4.063 4.172-.962 7.24-2.319 10.438-5.188 3.259-2.305 5.48-2.441 9.406-2.277 3.467.747 5.066 2.722 7.156 5.465 1.803 3.605 1.196 7.239 0 11-5.941 7.596-14.857 11.334-24.148 12.742-10.543.953-21.107-1.647-29.477-8.367-3.203-3.204-4.673-5.253-4.75-9.75.068-3.481.331-4.556 2.25-7.625 3.647-3.433 7.264-3.918 12.125-3z"></path><path d="m41.9997 139c2.8703 1.794 4.4914 2.983 6 6 .1773 2.455.2774 4.856.3125 7.313.0374 1.316.0748 2.632.1133 3.988-.4836 4.202-1.4565 5.763-4.4258 8.699-3.4753 1.738-7.2088 1.596-11 1-3.2817-2.529-4.6924-4.077-6-8-.5101-6.249-.6937-11.664 3-17 4.0186-2.679 7.2765-2.696 12-2z"></path><path d="m62 117.375c.6987-.019 1.3973-.039 2.1172-.059 3.9181.037 5.7258.56 8.8203 3.008 2.6006 3.374 3.0625 5.43 3.0625 9.676-1.2419 3.799-2.3362 5.514-5.5625 7.875-5.8158 1.903-11.0845 1.938-16.875-.063-2.99-2.114-4.264-3.375-5.5625-6.812 0-4.91.0741-6.783 3.0625-10.711 3.6605-2.852 6.478-3.037 10.9375-2.914z"></path><path d="m13.313 117.688c1.9742-.057 1.9742-.057 3.9883-.114 4.2014.484 5.7629 1.457 8.6992 4.426 1.739 3.478 1.5898 7.206 1 11-2.6839 3.578-4.6666 5.193-9 6-6.0926.586-10.62375-.038-16.00002-3-2.679062-4.019-2.696111-7.276-2.00000438-12 3.67044438-5.873 6.76929438-6.219 13.31252438-6.312z"></path><path d="m42.9996 90.9999c2.3831 1.8943 3.6501 3.3002 5 6 1.207 13.4501 1.207 13.4501-2.0625 17.8121-3.547 2.642-5.521 3.265-9.9375 3.188-3.7986-1.242-5.5142-2.336-7.875-5.563-1.7968-5.49-1.8534-10.803-.3125-16.3746 3.5876-6.231 8.4305-6.8607 15.1875-5.0625z"></path><path d="m470.187 63.5857c2.506 3.3375 2.4 6.3435 2.313 10.3516.015.7032.03 1.4063.046 2.1308-.027 3.6791-.439 5.7652-2.453 8.8731-2.91 2.8616-3.715 3.0276-7.906 3.3711-3.32-.0302-4.178-.3064-7.125-2.1875-3.577-3.6851-3.341-7.0287-3.437-11.9375-.038-.7122-.075-1.4244-.114-2.1582-.068-4.0705.293-5.7888 2.895-8.9824 5.316-4.1957 10.21-3.5 15.781.539z"></path><path d="m485.875 39.6249c1.062-.0368 1.062-.0368 2.145-.0742 3.711-.0208 5.781.3207 8.925 2.3476 3.164 3.2357 3.389 5.5398 3.348 10.0625-.456 3.1704-2.046 4.8583-4.293 7.0391-3.116 1.558-6.394 1.308-9.812 1.375-.713.0374-1.425.0748-2.159.1133-4.025.067-5.793-.3004-8.978-2.8321-2.412-3.1241-3.051-4.7142-3.051-8.6562 2.694-8.0826 5.767-9.3604 13.875-9.375z"></path><path d="m437.813 39.6253c.712-.0374 1.424-.0748 2.158-.1133 4.025-.067 5.793.3003 8.978 2.832 2.412 3.1242 3.051 4.7143 3.051 8.6563-1.45 4.3498-2.149 6.4325-6 9-2.675.2484-5.201.3701-7.875.375-.708.0245-1.415.049-2.144.0742-3.712.0207-5.782-.3208-8.926-2.3477-3.164-3.2356-3.389-5.5397-3.348-10.0625.456-3.1704 2.046-4.8583 4.293-7.039 3.116-1.558 6.394-1.3081 9.813-1.375z"></path><path d="m466 11.9998c2.81 1.7936 4.509 3.0188 6 6 .204 2.6224.323 5.1871.375 7.8125.037.7122.075 1.4244.113 2.1582.067 4.0249-.3 5.7928-2.832 8.9785-3.124 2.412-4.714 3.0508-8.656 3.0508-4.35-1.45-6.433-2.1489-9-6-.249-2.6747-.37-5.2008-.375-7.875-.025-.7077-.049-1.4154-.074-2.1446-.021-3.7113.32-5.7811 2.347-8.9258 3.614-3.5332 7.21-3.7576 12.102-3.0546z"></path><path d="m60 246c3.8462 1.672 5.4641 3.143 7 7 .3282 4.705-.3947 8.145-3.125 12-3.5007 2.435-5.6161 3-9.875 3-4.3126-1.327-5.6464-2.395-7.9375-6.313-1.134-3.935-1.3229-5.822-.0625-9.687 3.9695-5.762 7.094-6.742 14-6z"></path><path d="m325 27.0003c3.025 1.7361 5.418 3.8358 7 7 .57 6.9516.57 6.9516-1.562 10.875-3.144 2.7412-5.3 3.5641-9.438 4.125-3.579-1.0739-6.078-2.2271-8.937-4.625-1.68-3.755-1.732-7.3388-1.063-11.375 3.564-5.7014 7.363-7.1328 14-6z"></path><path d="m453 310c3.125 1.875 3.125 1.875 5 5 .989 5.026.777 8.705-1.875 13.125-4.42 2.652-8.099 2.864-13.125 1.875-3.125-1.875-3.125-1.875-5-5-.989-5.026-.777-8.705 1.875-13.125 4.42-2.652 8.099-2.864 13.125-1.875z"></path><path d="m68.9999 310c3.125 1.875 3.125 1.875 5 5 .9888 5.026.7769 8.705-1.875 13.125-4.4199 2.652-8.0988 2.864-13.125 1.875-3.125-1.875-3.125-1.875-5-5-.9888-5.026-.7769-8.705 1.875-13.125 4.4199-2.652 8.0988-2.864 13.125-1.875z"></path><path d="m231 75.0001c3.671 2.5237 4.759 4.1704 6 8.4375 0 4.0934-.78 6.1532-3 9.5625-4.018 2.6791-7.276 2.6961-12 2-2.87-1.7939-4.491-2.9826-6-6-.377-4.9969-.093-7.9907 3-12 4.025-2.6833 7.272-2.7964 12-2z"></path><path d="m293 75.0004c3.348 2.3716 4.657 4.0153 6 7.875 0 4.028-1.101 6.5977-3 10.125-4.019 2.679-7.277 2.6961-12 2-2.871-1.794-4.492-2.9827-6-6-.581-7.0896-.581-7.0896 1.875-10.9375 3.895-3.7806 7.895-3.8574 13.125-3.0625z"></path></g></svg>