<svg xmlns="http://www.w3.org/2000/svg" fill="none" height="380" viewBox="0 0 301 380" width="301"><path d="m149.477 104.235c1.239.861 2.477 1.723 3.753 2.611 3.456 2.209 3.456 2.209 6.944.993 1.076-.584 2.152-1.167 3.26-1.768 1.153-.576 2.307-1.151 3.495-1.745 1.028-.515 2.056-1.03 3.116-1.561 13.387-4.1185 28.035-1.636 40.229 4.781 5.973 3.716 10.249 7.429 14.496 13.033 5.493 6.729 11.606 7.973 19.787 10.14 14.766 4.377 25.516 14.163 33.52 27.116 5.862 11.006 8.239 20.427 7.771 32.899-.363 10.327.237 16.94 6.915 25.24 5.557 7.345 6.154 17.435 5.096 26.358-2.472 11.62-6.547 20.145-15.426 28.189-5.493 5.261-6.995 10.459-9.182 17.606-2.208 4.997-5.091 7.805-8.999 11.593-4.751 4.692-4.751 4.692-6.364 10.869.804 3.833 1.935 7.386 3.243 11.076 2.796 10.65 3.283 21.181 3.397 32.137.026 1.346.052 2.692.078 4.079-.006 7.161-.03 12.484-4.945 18.141-6.496 4.546-14.452 3.681-22.036 2.939-5.495-2.355-6.952-3.816-10.284-8.815-.678-2.985-1.282-5.988-1.837-8.999-3.922-17.36-14.13-26.864-27.546-38.013-1.144-1.021-2.287-2.042-3.466-3.093-3.252-2.612-5.786-4.433-9.756-5.722-4.05.78-7.186 2.216-10.869 4.063-17.138 8.132-37.705 5.504-55.241.344-12.6-4.949-24.3496-11.693-32.0857-23.075-2.8915-3.778-2.8915-3.778-7.3571-3.931-2.3379.187-2.3379.187-4.723.379-16.4083.605-32.1164-4.256-44.9173-14.743-12.2629-11.567-21.43977-25.177-22.57053-42.369.19351-7.634.88391-15.045 2.57096-22.496.52087-5.6-1.66802-9.215-4.04008-14.233-4.13877-16.665-1.39512-32.392 6.88655-47.195 9.5416-14.835 22.7831-25.898 40.3456-29.923 8.1963-1.435 16.4311-2.214 24.7549-2.214 2.3414-2.36 2.3414-2.36 4.591-5.418 17.0945-20.419 45.0497-21.2564 67.3957-9.273zm-55.8264 16.16v4.407c1.0435.514 2.087 1.027 3.162 1.556 1.3503.668 2.7006 1.337 4.0914 2.025 1.347.665 2.693 1.33 4.081 2.015 3.357 1.75 3.357 1.75 4.826 3.219.184 3.673.184 3.673 0 7.346-.727.727-.727.727-1.469 1.469-7.433-.455-12.6446-2.32-19.1102-5.969-11.6879-5.5-27.2076-4.05-39.0982.035-13.0616 5.705-22.9441 14.391-29.0209 27.328-4.2627 11.767-4.2627 24.777 0 36.544 5.7759 12.232 13.4554 18.224 25.239 24.665 3.2252 2.606 3.2252 2.606 3.7876 6.497-.5624 3.455-.5624 3.455-2.0315 4.924-9.8488-.206-15.6845-4.677-23.506-10.284-.9696-.485-1.9392-.97-2.9382-1.469-.9229 14.074 2.158 25.566 11.2939 36.544 5.8068 6.045 11.9386 9.997 19.5577 13.406 1.3938.636 2.7876 1.272 4.2237 1.928 6.961 1.531 13.6329 1.184 20.7514 1.01 0-5.818 0-11.635 0-17.629h11.7529c.1269 1.136.2538 2.272.3845 3.443 2.0185 14.962 6.5865 24.193 18.2493 33.864 16.674 11.557 36.023 13.776 55.683 10.221 15.836-4.401 27.331-12.59 37.337-25.492 2.424.485 4.848.97 7.345 1.47.643 3.672.643 3.672 0 8.814-3.062 4.283-6.574 8.025-10.284 11.753 4.523 4.691 9.141 8.863 14.262 12.916 15.67 12.532 25.117 27.316 28.343 47.318h8.815c.968-25.788-1.439-46.16-14.118-69.014-2.036-4.427-2.506-6.998-2.043-11.787 3.948-.735 3.948-.735 8.815 0 3.058 3.602 5.223 7.544 7.346 11.753 9.189-5.616 11.289-14.618 14.45-24.35 2.074-4.323 4.486-6.294 8.229-9.257 6.961-6.009 10.357-10.733 11.61-20.062.602-10.457-1.552-18.693-7.845-27.133-8.114-7.996-17.509-10.332-28.464-12.425-3.857-.797-3.857-.797-5.326-2.266-.184-3.673-.184-3.673 0-7.346 1.469-1.469 1.469-1.469 7.254-1.836 7.864.05 14.759 2.189 22.128 4.774.92-15.09-.948-25.179-10.559-37.003-7.302-7.852-15.402-14.242-26.169-15.885-.318 2.5-.318 2.5-.642 5.05-.827 5.234-.827 5.234-2.296 6.703-2.448.059-4.898.063-7.346 0-.363-1.394-.727-2.788-1.101-4.224-4.491-15.268-8.744-23.901-22.496-32.321-9.12-3.445-20.769-3.27-30.037-.585-8.383 3.92-14.77 10.338-19.822 18.031-1.413 4.403-1.413 4.403-2.387 9.09-1.892 8.411-1.892 8.411-3.489 10.009-3.673.183-3.673.183-7.346 0-1.469-1.469-1.469-1.469-1.928-7.254.082-10.307 4.693-18.987 9.274-28.005-15.89-12.665-35.981-11.198-51.4194 1.469z" fill="currentColor"></path><path d="m180.329 167.407c1.212.392 2.424.784 3.673 1.188 18.071 6.353 35.647 21.064 46.277 37.009-.171 8.507-2.927 13.201-8.723 19.099-1.093 1.142-1.093 1.142-2.207 2.307-19.288 19.657-43.996 29.733-71.341 30.013-28.038-2.066-51.735-14.664-70.5177-35.259-3.3122-4.264-5.5823-7.288-6.6054-12.596 2.5573-12.505 20.5331-25.528 30.7711-32.436 24.072-14.14 52.068-19.174 78.673-9.325zm-61.703 16.16c-2.156 1.071-2.156 1.071-4.356 2.164-11.276 6.015-19.403 13.397-27.965 22.811 10.6538 16.903 28.286 27.596 47.379 32.78 23.171 4.262 44.768-.726 64.274-13.681 6.18-4.868 11.782-9.592 16.161-16.16-.593-6.59-4.782-10.067-9.343-14.456-15.862-12.976-33.176-20.202-53.646-19.977-1.43.012-2.859.024-4.332.037-10.402.245-18.922 1.479-28.172 6.482z" fill="currentColor"></path><path d="m168.077 184.038c7.327 5.26 12.11 12.682 13.813 21.566.481 9.319-2.843 17.537-8.539 24.792-6.371 6.729-13.148 9.191-22.313 9.641-10.098-.368-17.234-3.996-24.148-11.294-5.105-6.569-7.036-12.553-6.612-20.861 1.363-9.269 4.647-16.44 11.57-22.846 12.262-8.023 23.596-7.889 36.229-.998zm-31.822 17.159c-2.251 4.502-1.806 8.251-1.469 13.222 2.63 6.091 5.689 9.073 11.753 11.753 5.851.871 8.339.256 13.589-2.571 5.684-4.65 6.685-6.917 7.621-14.14-.852-7.067-3.013-9.166-7.988-14.141-9.753-4.877-16.663-1.133-23.506 5.877z" fill="#262626"></path><path d="m151.773.202369c3.581 1.193661 3.581 1.193661 6.519 4.131911.33 4.48069.482 8.82392.494 13.30822.009 1.3223.019 2.6447.029 4.0071.015 2.7996.022 5.5993.021 8.399.007 4.289.06 8.5758.116 12.8645.009 2.7173.014 5.4346.017 8.1519.021 1.2856.042 2.5712.064 3.8957-.067 8.8658-.067 8.8658-3.526 12.6725-3.091 1.3425-3.091 1.3425-6.213 1.067-2.755-1.1937-2.755-1.1937-5.693-4.1319-.312-4.4809-.447-8.8249-.442-13.3082-.006-1.3223-.013-2.6447-.019-4.0071-.009-2.7997-.009-5.5993-.003-8.399.005-4.2887-.03-8.576-.067-12.8645-.003-2.7173-.004-5.4346-.003-8.1519-.013-1.2856-.027-2.5712-.041-3.8957.009-1.1961.018-2.3922.028-3.6246-.001-1.05141-.002-2.10281-.003-3.18607 1.026-5.22038 3.487-7.311882 8.722-6.928861z" fill="#363636"></path><path d="m294.92 38.5832c2.939 1.01 2.939 1.01 5.877 3.9483-.47 6.4184-2.307 11.0624-5.481 16.6022-.817 1.4364-1.634 2.8729-2.476 4.3528-.859 1.4781-1.718 2.9563-2.602 4.4791-.831 1.4611-1.661 2.9222-2.517 4.4275-2.451 4.2767-4.957 8.5154-7.492 12.7429-.77 1.3093-1.54 2.6187-2.333 3.9677-.74 1.1961-1.479 2.3923-2.241 3.6247-.642 1.0552-1.285 2.1104-1.947 3.1976-3.03 3.2134-5.3 3.5556-9.639 3.9012-2.755-1.5609-2.755-1.5609-4.408-4.4073.46-8.1343 3.914-13.7308 8.081-20.4759.651-1.0776 1.303-2.1552 1.974-3.2654 1.353-2.2371 2.711-4.4712 4.074-6.7021 1.978-3.2581 3.917-6.5362 5.842-9.8255 1.179-2.0028 2.357-4.0057 3.535-6.0085.549-.9411 1.097-1.8822 1.662-2.8518 5.05-8.4953 5.05-8.4953 10.091-7.7075z" fill="currentColor"></path><path d="m76.6645 9.56803c3.7646.64277 3.7646.64277 5.9927 3.66747 2.5082 4.9731 4.0962 9.9845 5.5537 15.3336.2907 1.0447.5814 2.0895.8809 3.166.6081 2.1999 1.2103 4.4015 1.807 6.6046.9134 3.3557 1.8576 6.7017 2.804 10.0482.5892 2.1467 1.1765 4.2939 1.7618 6.4417.283.992.566 1.9839.8575 3.0059 1.6318 6.1613 1.8754 10.8372.2673 17.0167-1.4691 1.4691-1.4691 1.4691-4.9582 1.8364-3.8565-.3673-3.8565-.3673-6.0935-1.9035-3.1813-4.2085-4.2071-8.8886-5.4931-13.9183-.2872-1.0816-.5745-2.1631-.8704-3.2774-.6035-2.2864-1.1994-4.5747-1.7884-6.8648-.899-3.4873-1.8254-6.9665-2.7557-10.4456-.5842-2.2272-1.1667-4.4547-1.7475-6.6828-.2754-1.0333-.5508-2.0665-.8345-3.1311-1.4964-5.8852-2.4602-11.2452-1.9029-17.3161 2.9383-2.9382 2.9383-2.9382 6.5193-3.58097z" fill="currentColor"></path><g fill="currentColor"><path d="m9.14485 38.2163c4.99705 1.8576 6.03525 4.0973 8.61065 8.7168.8645 1.5198 1.729 3.0395 2.6197 4.6054.8797 1.603 1.7594 3.2061 2.6657 4.8578 1.7572 3.1204 3.5152 6.2404 5.2739 9.3599.8444 1.5281 1.6888 3.0561 2.5588 4.6305 3.0958 5.4362 6.4669 10.6708 9.9377 15.8745 1.8144 4.1937 1.3798 6.3427-.0491 10.6278-.9696.9696-1.9393 1.9392-2.9383 2.9382-4.3338-.2473-6.5783-.6637-9.6102-3.8464-.6352-1.0411-1.2703-2.0822-1.9247-3.1548-.739-1.196-1.4781-2.3919-2.2395-3.6241-.7874-1.3417-1.5747-2.6835-2.3859-4.0659-.8669-1.4554-1.7338-2.9107-2.6269-4.4102-2.7858-4.7468-5.5034-9.5275-8.2079-14.3211-1.4118-2.4458-1.4118-2.4458-2.85214-4.9411-.88819-1.5737-1.77638-3.1474-2.69148-4.7689-.80557-1.4161-1.61114-2.8321-2.44113-4.2911-1.852864-4.2349-2.481787-6.7828-1.74817-11.3413 4.40737-2.9382 4.40737-2.9382 8.04897-2.846z"></path><path d="m225.229 9.65985c3.581.55095 3.581.55095 6.519 3.48915-.407 11.2314-3.448 21.9245-6.359 32.7271-.807 3.0061-1.589 6.018-2.37 9.031-.513 1.9296-1.027 3.8588-1.543 5.7875-.46 1.7316-.92 3.4631-1.394 5.2471-1.489 4.3081-2.83 7.0955-5.963 10.3796-3.765.5509-3.765.5509-7.346 0-.97-.9696-1.939-1.9393-2.938-2.9383.406-11.2314 3.448-21.9245 6.359-32.727.807-3.0062 1.589-6.018 2.369-9.0311.514-1.9295 1.028-3.8587 1.544-5.7875.46-1.7315.92-3.463 1.394-5.247 3.46-10.0133 3.46-10.0133 9.728-10.93055z"></path></g></svg>