<svg width="28" height="29" viewBox="0 0 28 29" fill="none" xmlns="http://www.w3.org/2000/svg">
<path d="M14.0033 0.9375C21.7351 0.9375 28.0026 7.20498 28.0026 14.9368C28.0026 22.6686 21.7351 28.9361 14.0033 28.9361C11.769 28.9392 9.56671 28.4053 7.58186 27.3794L2.22573 28.8731C1.9269 28.9565 1.61127 28.9589 1.31119 28.8802C1.0111 28.8015 0.737345 28.6443 0.517968 28.425C0.29859 28.2056 0.14148 27.9318 0.0627351 27.6317C-0.0160101 27.3317 -0.0135592 27.016 0.0698367 26.7172L1.56496 21.3653C0.536506 19.3787 0.00113215 17.1738 0.0040401 14.9368C0.0040401 7.20498 6.27152 0.9375 14.0033 0.9375ZM14.0033 3.03739C10.8474 3.03739 7.82076 4.29108 5.58919 6.52265C3.35762 8.75422 2.10393 11.7809 2.10393 14.9368C2.10393 16.9947 2.62611 18.9728 3.60606 20.7283L3.81605 21.1063L2.25933 26.6836L7.84085 25.1269L8.21883 25.3369C9.80688 26.2198 11.576 26.7273 13.3907 26.8205C15.2053 26.9137 17.0171 26.5901 18.6873 25.8746C20.3574 25.159 21.8415 24.0705 23.0258 22.6924C24.2101 21.3144 25.063 19.6834 25.5192 17.9246C25.9755 16.1658 26.0229 14.3259 25.6578 12.546C25.2927 10.766 24.5249 9.09333 23.4132 7.65613C22.3014 6.21894 20.8753 5.05542 19.2442 4.25481C17.6131 3.45419 15.8203 3.03774 14.0033 3.03739ZM9.45356 16.3367H15.7504C16.0165 16.3368 16.2725 16.4379 16.4669 16.6195C16.6613 16.8011 16.7795 17.0497 16.7976 17.3151C16.8158 17.5805 16.7325 17.8429 16.5646 18.0493C16.3967 18.2556 16.1568 18.3906 15.8932 18.4268L15.7504 18.4366H9.45356C9.18754 18.4365 8.93147 18.3355 8.73709 18.1539C8.54271 17.9723 8.42451 17.7236 8.40638 17.4582C8.38825 17.1928 8.47153 16.9304 8.63941 16.7241C8.80729 16.5177 9.04723 16.3828 9.31077 16.3465L9.45356 16.3367ZM9.45356 11.437H18.5601C18.826 11.4374 19.0818 11.5387 19.276 11.7204C19.4701 11.9022 19.588 12.1508 19.6059 12.4161C19.6239 12.6813 19.5405 12.9436 19.3726 13.1498C19.2048 13.356 18.9649 13.4908 18.7015 13.5271L18.5601 13.5369H9.45356C9.18754 13.5368 8.93147 13.4357 8.73709 13.2541C8.54271 13.0725 8.42451 12.8239 8.40638 12.5585C8.38825 12.2931 8.47153 12.0307 8.63941 11.8243C8.80729 11.618 9.04723 11.483 9.31077 11.4468L9.45356 11.437Z" fill="white"/>
</svg>
