<svg width="16" height="16" viewBox="0 0 16 16" fill="none" xmlns="http://www.w3.org/2000/svg">
<path d="M0.524902 15.4747C0.94988 14.4835 1.34579 13.5613 1.7417 12.6402C2.79913 10.1756 3.85356 7.70989 4.91801 5.24823C4.97414 5.11893 5.0884 4.9756 5.21168 4.92248C8.5694 3.47315 11.9321 2.03384 15.2949 0.593522C15.339 0.574478 15.3851 0.561448 15.4833 0.526367C15.4482 0.638625 15.4302 0.716805 15.3991 0.788971C13.9698 4.12364 12.5415 7.45831 11.1042 10.79C11.0561 10.9022 10.9489 11.0225 10.8396 11.0696C7.4809 12.5179 4.11817 13.9573 0.756435 15.3976C0.706319 15.4186 0.652195 15.4327 0.524902 15.4747ZM9.52159 8.03263C9.55367 7.22878 8.90417 6.54321 8.06925 6.4971C7.25839 6.453 6.55076 7.12053 6.51769 7.96247C6.48561 8.76632 7.13511 9.4519 7.97003 9.498C8.78189 9.5421 9.48852 8.87457 9.52159 8.03263Z" fill="white"/>
</svg>
