<svg width="29" height="29" viewBox="0 0 29 29" fill="none" xmlns="http://www.w3.org/2000/svg">
<path d="M23.8412 23.7667C23.307 22.2688 22.1273 20.9458 20.4873 20.002C18.8474 19.0581 16.8376 18.5463 14.7704 18.5463C12.7031 18.5463 10.6934 19.0581 9.0534 20.002C7.41344 20.9458 6.23366 22.2688 5.69953 23.7667M14.1579 0.942024C21.6113 0.750912 27.8084 6.63815 27.9995 14.0915C28.1955 21.7335 21.7999 28.1291 14.1579 27.9331C6.70455 27.742 0.817319 21.5449 1.00843 14.0915C1.19458 6.83164 6.89805 1.12818 14.1579 0.942024ZM18.6126 10.9159C18.6126 13.185 16.773 15.0246 14.5039 15.0246C12.2347 15.0246 10.3952 13.185 10.3952 10.9159C10.3952 8.6467 12.2347 6.80718 14.5039 6.80718C16.773 6.80718 18.6126 8.6467 18.6126 10.9159Z" stroke="white" stroke-width="1.5" stroke-linecap="round"/>
</svg>
